  0
SECTION
  2
HEADER
  9
$ACADVER
  1
AC1009
  9
$DWGCODEPAGE
  3
ansi_1252
  9
$INSBASE
 10
0.0
 20
0.0
 30
0.0
  9
$EXTMIN
 10
-238.0661432241849
 20
-64.6361157777844
 30
0.0
  9
$EXTMAX
 10
234.9718768922498
 20
551.2314021159748
 30
0.0
  9
$LIMMIN
 10
0.0
 20
0.0
  9
$LIMMAX
 10
12.0
 20
9.0
  9
$ORTHOMODE
 70
     0
  9
$REGENMODE
 70
     1
  9
$FILLMODE
 70
     1
  9
$QTEXTMODE
 70
     0
  9
$MIRRTEXT
 70
     1
  9
$DRAGMODE
 70
     2
  9
$LTSCALE
 40
1000.0
  9
$OSMODE
 70
    37
  9
$ATTMODE
 70
     1
  9
$TEXTSIZE
 40
0.2
  9
$TRACEWID
 40
0.05
  9
$TEXTSTYLE
  7
STANDARD
  9
$CLAYER
  8
FLOORPLATE$T2$D334
  9
$CELTYPE
  6
BYLAYER
  9
$CECOLOR
 62
   256
  9
$DIMSCALE
 40
1.0
  9
$DIMASZ
 40
0.18
  9
$DIMEXO
 40
0.0625
  9
$DIMDLI
 40
0.38
  9
$DIMRND
 40
0.0
  9
$DIMDLE
 40
0.0
  9
$DIMEXE
 40
0.18
  9
$DIMTP
 40
0.0
  9
$DIMTM
 40
0.0
  9
$DIMTXT
 40
0.18
  9
$DIMCEN
 40
0.09
  9
$DIMTSZ
 40
0.0
  9
$DIMTOL
 70
     0
  9
$DIMLIM
 70
     0
  9
$DIMTIH
 70
     1
  9
$DIMTOH
 70
     1
  9
$DIMSE1
 70
     0
  9
$DIMSE2
 70
     0
  9
$DIMTAD
 70
     0
  9
$DIMZIN
 70
     0
  9
$DIMBLK
  1

  9
$DIMASO
 70
     1
  9
$DIMSHO
 70
     1
  9
$DIMPOST
  1

  9
$DIMAPOST
  1

  9
$DIMALT
 70
     0
  9
$DIMALTD
 70
     2
  9
$DIMALTF
 40
25.4
  9
$DIMLFAC
 40
1.0
  9
$DIMTOFL
 70
     0
  9
$DIMTVP
 40
0.0
  9
$DIMTIX
 70
     0
  9
$DIMSOXD
 70
     0
  9
$DIMSAH
 70
     0
  9
$DIMBLK1
  1

  9
$DIMBLK2
  1

  9
$DIMSTYLE
  2
STANDARD
  9
$DIMCLRD
 70
     0
  9
$DIMCLRE
 70
     0
  9
$DIMCLRT
 70
     0
  9
$DIMTFAC
 40
1.0
  9
$DIMGAP
 40
0.09
  9
$LUNITS
 70
     2
  9
$LUPREC
 70
     3
  9
$SKETCHINC
 40
0.1
  9
$FILLETRAD
 40
0.5
  9
$AUNITS
 70
     0
  9
$AUPREC
 70
     0
  9
$MENU
  1
.
  9
$ELEVATION
 40
0.0
  9
$PELEVATION
 40
0.0
  9
$THICKNESS
 40
0.0
  9
$LIMCHECK
 70
     0
  9
$CHAMFERA
 40
0.0
  9
$CHAMFERB
 40
0.0
  9
$SKPOLY
 70
     0
  9
$TDCREATE
 40
2457871.577311864
  9
$TDUPDATE
 40
2457871.577332801
  9
$TDINDWG
 40
0.0000000116
  9
$TDUSRTIMER
 40
0.0000000116
  9
$USRTIMER
 70
     1
  9
$ANGBASE
 50
0.0
  9
$ANGDIR
 70
     0
  9
$PDMODE
 70
     0
  9
$PDSIZE
 40
0.0
  9
$PLINEWID
 40
0.0
  9
$COORDS
 70
     1
  9
$SPLFRAME
 70
     0
  9
$SPLINETYPE
 70
     6
  9
$SPLINESEGS
 70
     8
  9
$ATTDIA
 70
     0
  9
$ATTREQ
 70
     1
  9
$HANDLING
 70
     1
  9
$HANDSEED
  5
84C
  9
$SURFTAB1
 70
     6
  9
$SURFTAB2
 70
     6
  9
$SURFTYPE
 70
     6
  9
$SURFU
 70
     6
  9
$SURFV
 70
     6
  9
$UCSNAME
  2

  9
$UCSORG
 10
0.0
 20
0.0
 30
0.0
  9
$UCSXDIR
 10
1.0
 20
0.0
 30
0.0
  9
$UCSYDIR
 10
0.0
 20
1.0
 30
0.0
  9
$PUCSNAME
  2

  9
$PUCSORG
 10
0.0
 20
0.0
 30
0.0
  9
$PUCSXDIR
 10
1.0
 20
0.0
 30
0.0
  9
$PUCSYDIR
 10
0.0
 20
1.0
 30
0.0
  9
$USERI1
 70
     0
  9
$USERI2
 70
     0
  9
$USERI3
 70
     0
  9
$USERI4
 70
     0
  9
$USERI5
 70
     0
  9
$USERR1
 40
0.0
  9
$USERR2
 40
0.0
  9
$USERR3
 40
0.0
  9
$USERR4
 40
0.0
  9
$USERR5
 40
0.0
  9
$WORLDVIEW
 70
     1
  9
$SHADEDGE
 70
     3
  9
$SHADEDIF
 70
    70
  9
$TILEMODE
 70
     1
  9
$MAXACTVP
 70
    64
  9
$PLIMCHECK
 70
     0
  9
$PEXTMIN
 10
1.000000000000000E+20
 20
1.000000000000000E+20
 30
1.000000000000000E+20
  9
$PEXTMAX
 10
-1.000000000000000E+20
 20
-1.000000000000000E+20
 30
-1.000000000000000E+20
  9
$PLIMMIN
 10
0.0
 20
0.0
  9
$PLIMMAX
 10
12.0
 20
9.0
  9
$UNITMODE
 70
     0
  9
$VISRETAIN
 70
     1
  9
$PLINEGEN
 70
     0
  9
$PSLTSCALE
 70
     1
  0
ENDSEC
  0
SECTION
  2
TABLES
  0
TABLE
  2
VPORT
 70
     1
  0
VPORT
  2
*ACTIVE
 70
     0
 10
0.0
 20
0.0
 11
1.0
 21
1.0
 12
-1.547133165967523
 22
243.2976431690952
 13
0.0
 23
0.0
 14
0.5
 24
0.5
 15
0.5
 25
0.5
 16
0.0
 26
0.0
 36
1.0
 17
0.0
 27
0.0
 37
0.0
 40
628.1848682516344
 41
0.7680840543989148
 42
50.0
 43
0.0
 44
0.0
 50
0.0
 51
0.0
 71
     0
 72
   100
 73
     1
 74
     3
 75
     0
 76
     0
 77
     0
 78
     0
  0
ENDTAB
  0
TABLE
  2
LTYPE
 70
     1
  0
LTYPE
  2
CONTINUOUS
 70
     0
  3
Solid line
 72
    65
 73
     0
 40
0.0
  0
ENDTAB
  0
TABLE
  2
LAYER
 70
    32
  0
LAYER
  2
0
 70
     0
 62
     7
  6
CONTINUOUS
  0
LAYER
  2
FLOORPLATE$T2$2332
 70
     0
 62
     7
  6
CONTINUOUS
  0
LAYER
  2
FLOORPLATE$T2$2333
 70
     0
 62
     7
  6
CONTINUOUS
  0
LAYER
  2
FLOORPLATE$T2$3233
 70
     0
 62
     7
  6
CONTINUOUS
  0
LAYER
  2
FLOORPLATE$T2$3323
 70
     0
 62
     7
  6
CONTINUOUS
  0
LAYER
  2
FLOORPLATE$T2$3332
 70
     0
 62
     7
  6
CONTINUOUS
  0
LAYER
  2
FLOORPLATE$T2$3333
 70
     0
 62
     7
  6
CONTINUOUS
  0
LAYER
  2
FLOORPLATE$T2$3322
 70
     0
 62
     7
  6
CONTINUOUS
  0
LAYER
  2
FLOORPLATE$T2$3232
 70
     0
 62
     7
  6
CONTINUOUS
  0
LAYER
  2
FLOORPLATE$T2$3223
 70
     0
 62
     7
  6
CONTINUOUS
  0
LAYER
  2
FLOORPLATE$T2$2323
 70
     0
 62
     7
  6
CONTINUOUS
  0
LAYER
  2
FLOORPLATE$T2$2233
 70
     0
 62
     7
  6
CONTINUOUS
  0
LAYER
  2
FLOORPLATE$T2$3222
 70
     0
 62
     7
  6
CONTINUOUS
  0
LAYER
  2
FLOORPLATE$T2$2322
 70
     0
 62
     7
  6
CONTINUOUS
  0
LAYER
  2
FLOORPLATE$T2$2232
 70
     0
 62
     7
  6
CONTINUOUS
  0
LAYER
  2
FLOORPLATE$T2$2223
 70
     0
 62
     7
  6
CONTINUOUS
  0
LAYER
  2
FLOORPLATE$T2$2222
 70
     0
 62
     7
  6
CONTINUOUS
  0
LAYER
  2
FLOORPLATE$T2$D334
 70
     0
 62
     7
  6
CONTINUOUS
  0
LAYER
  2
FLOORPLATE$T1$232
 70
     0
 62
     7
  6
CONTINUOUS
  0
LAYER
  2
FLOORPLATE$T1$PHSINGLE
 70
     0
 62
     7
  6
CONTINUOUS
  0
LAYER
  2
FLOORPLATE$T2$PHSINGLE
 70
     0
 62
     7
  6
CONTINUOUS
  0
LAYER
  2
FLOORPLATE$T1$322
 70
     0
 62
     7
  6
CONTINUOUS
  0
LAYER
  2
FLOORPLATE$T1$332
 70
     0
 62
     7
  6
CONTINUOUS
  0
LAYER
  2
FLOORPLATE$T1$233
 70
     0
 62
     7
  6
CONTINUOUS
  0
LAYER
  2
FLOORPLATE$T1$222
 70
     0
 62
     7
  6
CONTINUOUS
  0
LAYER
  2
FLOORPLATE$T1$333
 70
     0
 62
     7
  6
CONTINUOUS
  0
LAYER
  2
FLOORPLATE$T1$223
 70
     0
 62
     7
  6
CONTINUOUS
  0
LAYER
  2
FLOORPLATE$T1$323
 70
     0
 62
     7
  6
CONTINUOUS
  0
LAYER
  2
FOOTPRINT$T2
 70
     0
 62
     7
  6
CONTINUOUS
  0
LAYER
  2
BOUNDARY
 70
     0
 62
     7
  6
CONTINUOUS
  0
LAYER
  2
FOOTPRINT$T1
 70
     0
 62
     7
  6
CONTINUOUS
  0
LAYER
  2
N_ARROW
 70
     0
 62
     7
  6
CONTINUOUS
  0
ENDTAB
  0
TABLE
  2
STYLE
 70
     1
  0
STYLE
  2
STANDARD
 70
     0
 40
0.0
 41
1.0
 50
0.0
 71
     0
 42
0.2
  3
txt
  4

  0
ENDTAB
  0
TABLE
  2
VIEW
 70
     0
  0
ENDTAB
  0
TABLE
  2
UCS
 70
     0
  0
ENDTAB
  0
TABLE
  2
APPID
 70
     1
  0
APPID
  2
ACAD
 70
     0
  0
ENDTAB
  0
TABLE
  2
DIMSTYLE
 70
     1
  0
DIMSTYLE
  2
STANDARD
 70
     0
  3

  4

  5

  6

  7

 40
1.0
 41
0.18
 42
0.0625
 43
0.38
 44
0.18
 45
0.0
 46
0.0
 47
0.0
 48
0.0
140
0.18
141
0.09
142
0.0
143
25.4
144
1.0
145
0.0
146
1.0
147
0.09
 71
     0
 72
     0
 73
     1
 74
     1
 75
     0
 76
     0
 77
     0
 78
     0
170
     0
171
     2
172
     0
173
     0
174
     0
175
     0
176
     0
177
     0
178
     0
  0
ENDTAB
  0
ENDSEC
  0
SECTION
  2
BLOCKS
  0
BLOCK
  8
0
  2
$MODEL_SPACE
 70
     0
 10
0.0
 20
0.0
 30
0.0
  3
$MODEL_SPACE
  1

  0
ENDBLK
  5
21
  8
0
  0
BLOCK
 67
     1
  8
0
  2
$PAPER_SPACE
 70
     0
 10
0.0
 20
0.0
 30
0.0
  3
$PAPER_SPACE
  1

  0
ENDBLK
  5
1D
 67
     1
  8
0
  0
ENDSEC
  0
SECTION
  2
ENTITIES
  0
POLYLINE
  5
6F
  8
FLOORPLATE$T2$2332
 66
     1
 10
0.0
 20
0.0
 30
0.0
 70
     1
  0
VERTEX
  5
70
  8
FLOORPLATE$T2$2332
 10
116.7380926657207
 20
353.8861158995738
 30
0.0
  0
VERTEX
  5
71
  8
FLOORPLATE$T2$2332
 10
128.4050926657207
 20
353.8861158995738
 30
0.0
  0
VERTEX
  5
72
  8
FLOORPLATE$T2$2332
 10
128.4050926657207
 20
350.8861158995738
 30
0.0
  0
VERTEX
  5
73
  8
FLOORPLATE$T2$2332
 10
116.7380926657207
 20
350.8861158995738
 30
0.0
  0
SEQEND
  5
74
  8
FLOORPLATE$T2$2332
  0
POLYLINE
  5
75
  8
FLOORPLATE$T2$2332
 66
     1
 10
0.0
 20
0.0
 30
0.0
 70
     1
  0
VERTEX
  5
76
  8
FLOORPLATE$T2$2332
 10
114.1550926657207
 20
364.4361158995738
 30
0.0
  0
VERTEX
  5
77
  8
FLOORPLATE$T2$2332
 10
114.1550926657207
 20
376.1031158995738
 30
0.0
  0
VERTEX
  5
78
  8
FLOORPLATE$T2$2332
 10
111.1550926657207
 20
376.1031158995738
 30
0.0
  0
VERTEX
  5
79
  8
FLOORPLATE$T2$2332
 10
111.1550926657207
 20
364.4361158995738
 30
0.0
  0
SEQEND
  5
7A
  8
FLOORPLATE$T2$2332
  0
POLYLINE
  5
7B
  8
FLOORPLATE$T2$2332
 66
     1
 10
0.0
 20
0.0
 30
0.0
 70
     1
  0
VERTEX
  5
7C
  8
FLOORPLATE$T2$2332
 10
145.7550926657207
 20
364.4361158995738
 30
0.0
  0
VERTEX
  5
7D
  8
FLOORPLATE$T2$2332
 10
142.7550926657207
 20
364.4361158995738
 30
0.0
  0
VERTEX
  5
7E
  8
FLOORPLATE$T2$2332
 10
142.7550926657207
 20
376.1031158995738
 30
0.0
  0
VERTEX
  5
7F
  8
FLOORPLATE$T2$2332
 10
145.7550926657207
 20
376.1031158995738
 30
0.0
  0
SEQEND
  5
80
  8
FLOORPLATE$T2$2332
  0
POLYLINE
  5
81
  8
FLOORPLATE$T2$2332
 66
     1
 10
0.0
 20
0.0
 30
0.0
 70
     1
  0
VERTEX
  5
82
  8
FLOORPLATE$T2$2332
 10
134.4550926657207
 20
364.2861158995739
 30
0.0
  0
VERTEX
  5
83
  8
FLOORPLATE$T2$2332
 10
133.9550926657207
 20
364.2861158995739
 30
0.0
  0
VERTEX
  5
84
  8
FLOORPLATE$T2$2332
 10
133.9550926657207
 20
378.6861158995738
 30
0.0
  0
VERTEX
  5
85
  8
FLOORPLATE$T2$2332
 10
142.7550926657207
 20
378.6861158995738
 30
0.0
  0
VERTEX
  5
86
  8
FLOORPLATE$T2$2332
 10
142.7550926657207
 20
362.6861158995738
 30
0.0
  0
VERTEX
  5
87
  8
FLOORPLATE$T2$2332
 10
134.4550926657207
 20
362.6861158995738
 30
0.0
  0
SEQEND
  5
88
  8
FLOORPLATE$T2$2332
  0
POLYLINE
  5
89
  8
FLOORPLATE$T2$2332
 66
     1
 10
0.0
 20
0.0
 30
0.0
 70
     1
  0
VERTEX
  5
8A
  8
FLOORPLATE$T2$2332
 10
131.8717926657209
 20
350.8861158995738
 30
0.0
  0
VERTEX
  5
8B
  8
FLOORPLATE$T2$2332
 10
131.8717926657209
 20
353.8861158995738
 30
0.0
  0
VERTEX
  5
8C
  8
FLOORPLATE$T2$2332
 10
141.0383926657209
 20
353.8861158995738
 30
0.0
  0
VERTEX
  5
8D
  8
FLOORPLATE$T2$2332
 10
141.0383926657209
 20
350.8861158995738
 30
0.0
  0
SEQEND
  5
8E
  8
FLOORPLATE$T2$2332
  0
POLYLINE
  5
8F
  8
FLOORPLATE$T2$2332
 66
     1
 10
0.0
 20
0.0
 30
0.0
 70
     1
  0
VERTEX
  5
90
  8
FLOORPLATE$T2$2332
 10
122.9550926657209
 20
364.2861158995739
 30
0.0
  0
VERTEX
  5
91
  8
FLOORPLATE$T2$2332
 10
122.9550926657209
 20
378.6861158995738
 30
0.0
  0
VERTEX
  5
92
  8
FLOORPLATE$T2$2332
 10
114.1550926657209
 20
378.6861158995738
 30
0.0
  0
VERTEX
  5
93
  8
FLOORPLATE$T2$2332
 10
114.1550926657209
 20
362.6861158995738
 30
0.0
  0
VERTEX
  5
94
  8
FLOORPLATE$T2$2332
 10
122.4550926657209
 20
362.6861158995738
 30
0.0
  0
VERTEX
  5
95
  8
FLOORPLATE$T2$2332
 10
122.4550926657209
 20
364.2861158995739
 30
0.0
  0
SEQEND
  5
96
  8
FLOORPLATE$T2$2332
  0
POLYLINE
  5
97
  8
FLOORPLATE$T2$2332
 66
     1
 10
0.0
 20
0.0
 30
0.0
 70
     1
  0
VERTEX
  5
98
  8
FLOORPLATE$T2$2332
 10
132.4550926657209
 20
373.2861158996129
 30
0.0
  0
VERTEX
  5
99
  8
FLOORPLATE$T2$2332
 10
124.455092665721
 20
373.2861158996129
 30
0.0
  0
VERTEX
  5
9A
  8
FLOORPLATE$T2$2332
 10
124.455092665721
 20
378.6861158995739
 30
0.0
  0
VERTEX
  5
9B
  8
FLOORPLATE$T2$2332
 10
132.4550926657209
 20
378.6861158995739
 30
0.0
  0
SEQEND
  5
9C
  8
FLOORPLATE$T2$2332
  0
POINT
  5
9D
  8
FLOORPLATE$T2$2332
 10
129.1550926657207
 20
367.8861158995739
 30
0.0
  0
POLYLINE
  5
9E
  8
FLOORPLATE$T2$2332
 66
     1
 10
0.0
 20
0.0
 30
0.0
 70
     1
  0
VERTEX
  5
9F
  8
FLOORPLATE$T2$2332
 10
142.7550926657208
 20
362.6861158995738
 30
0.0
  0
VERTEX
  5
A0
  8
FLOORPLATE$T2$2332
 10
128.3550926657208
 20
362.6861158995738
 30
0.0
  0
VERTEX
  5
A1
  8
FLOORPLATE$T2$2332
 10
128.3550926657208
 20
362.1861158995738
 30
0.0
  0
VERTEX
  5
A2
  8
FLOORPLATE$T2$2332
 10
126.7550926657208
 20
362.1861158995738
 30
0.0
  0
VERTEX
  5
A3
  8
FLOORPLATE$T2$2332
 10
126.7550926657208
 20
353.8861158995738
 30
0.0
  0
VERTEX
  5
A4
  8
FLOORPLATE$T2$2332
 10
142.7550926657208
 20
353.8861158995738
 30
0.0
  0
SEQEND
  5
A5
  8
FLOORPLATE$T2$2332
  0
POLYLINE
  5
A6
  8
FLOORPLATE$T2$2332
 66
     1
 10
0.0
 20
0.0
 30
0.0
 70
     1
  0
VERTEX
  5
A7
  8
FLOORPLATE$T2$2332
 10
126.7550926657205
 20
362.6861158995738
 30
0.0
  0
VERTEX
  5
A8
  8
FLOORPLATE$T2$2332
 10
114.1550926657205
 20
362.6861158995738
 30
0.0
  0
VERTEX
  5
A9
  8
FLOORPLATE$T2$2332
 10
114.1550926657205
 20
354.7661158995738
 30
0.0
  0
VERTEX
  5
AA
  8
FLOORPLATE$T2$2332
 10
114.6550926657205
 20
354.7661158995738
 30
0.0
  0
VERTEX
  5
AB
  8
FLOORPLATE$T2$2332
 10
114.6550926657205
 20
353.8861158995738
 30
0.0
  0
VERTEX
  5
AC
  8
FLOORPLATE$T2$2332
 10
126.2550926657205
 20
353.8861158995738
 30
0.0
  0
VERTEX
  5
AD
  8
FLOORPLATE$T2$2332
 10
126.2550926657205
 20
354.7661158995738
 30
0.0
  0
VERTEX
  5
AE
  8
FLOORPLATE$T2$2332
 10
126.7550926657205
 20
354.7661158995738
 30
0.0
  0
SEQEND
  5
AF
  8
FLOORPLATE$T2$2332
  0
POLYLINE
  5
B0
  8
FLOORPLATE$T2$2332
 66
     1
 10
0.0
 20
0.0
 30
0.0
 70
     1
  0
VERTEX
  5
B1
  8
FLOORPLATE$T2$2332
 10
122.9550926657208
 20
364.2861158995739
 30
0.0
  0
VERTEX
  5
B2
  8
FLOORPLATE$T2$2332
 10
122.9550926657208
 20
373.2861158995739
 30
0.0
  0
VERTEX
  5
B3
  8
FLOORPLATE$T2$2332
 10
133.9550926657207
 20
373.2861158995739
 30
0.0
  0
VERTEX
  5
B4
  8
FLOORPLATE$T2$2332
 10
133.9550926657207
 20
364.2861158995739
 30
0.0
  0
VERTEX
  5
B5
  8
FLOORPLATE$T2$2332
 10
134.4550926657207
 20
364.2861158995739
 30
0.0
  0
VERTEX
  5
B6
  8
FLOORPLATE$T2$2332
 10
134.4550926657207
 20
362.6861158995738
 30
0.0
  0
VERTEX
  5
B7
  8
FLOORPLATE$T2$2332
 10
128.3550926657207
 20
362.6861158995738
 30
0.0
  0
VERTEX
  5
B8
  8
FLOORPLATE$T2$2332
 10
128.3550926657207
 20
362.1861158995738
 30
0.0
  0
VERTEX
  5
B9
  8
FLOORPLATE$T2$2332
 10
126.7550926657207
 20
362.1861158995738
 30
0.0
  0
VERTEX
  5
BA
  8
FLOORPLATE$T2$2332
 10
126.7550926657206
 20
362.6861158995738
 30
0.0
  0
VERTEX
  5
BB
  8
FLOORPLATE$T2$2332
 10
122.4550926657208
 20
362.6861158995738
 30
0.0
  0
VERTEX
  5
BC
  8
FLOORPLATE$T2$2332
 10
122.4550926657208
 20
364.2861158995739
 30
0.0
  0
SEQEND
  5
BD
  8
FLOORPLATE$T2$2332
  0
TEXT
  5
BE
  8
FLOORPLATE$T2$2332
  6
CONTINUOUS
 10
118.8420655843624
 20
357.9043573372758
 30
0.0
 40
1.0
  1
3BED
  0
TEXT
  5
BF
  8
FLOORPLATE$T2$2332
  6
CONTINUOUS
 10
117.2010446310265
 20
365.8824964477323
 30
0.0
 40
1.0
  1
2BED
  0
TEXT
  5
C0
  8
FLOORPLATE$T2$2332
  6
CONTINUOUS
 10
137.7693443625286
 20
364.7279289220615
 30
0.0
 40
1.0
  1
2BED
  0
TEXT
  5
C1
  8
FLOORPLATE$T2$2332
  6
CONTINUOUS
 10
136.3363293038912
 20
357.2873051374451
 30
0.0
 40
1.0
  1
3BED
  0
POLYLINE
  5
C3
  8
FLOORPLATE$T2$2333
 66
     1
 10
0.0
 20
0.0
 30
0.0
 70
     1
  0
VERTEX
  5
C4
  8
FLOORPLATE$T2$2333
 10
116.7380926657207
 20
390.154423633273
 30
0.0
  0
VERTEX
  5
C5
  8
FLOORPLATE$T2$2333
 10
128.4050926657207
 20
390.154423633273
 30
0.0
  0
VERTEX
  5
C6
  8
FLOORPLATE$T2$2333
 10
128.4050926657207
 20
387.154423633273
 30
0.0
  0
VERTEX
  5
C7
  8
FLOORPLATE$T2$2333
 10
116.7380926657207
 20
387.154423633273
 30
0.0
  0
SEQEND
  5
C8
  8
FLOORPLATE$T2$2333
  0
POLYLINE
  5
C9
  8
FLOORPLATE$T2$2333
 66
     1
 10
0.0
 20
0.0
 30
0.0
 70
     1
  0
VERTEX
  5
CA
  8
FLOORPLATE$T2$2333
 10
114.1550926657207
 20
400.704423633273
 30
0.0
  0
VERTEX
  5
CB
  8
FLOORPLATE$T2$2333
 10
114.1550926657207
 20
412.371423633273
 30
0.0
  0
VERTEX
  5
CC
  8
FLOORPLATE$T2$2333
 10
111.1550926657207
 20
412.371423633273
 30
0.0
  0
VERTEX
  5
CD
  8
FLOORPLATE$T2$2333
 10
111.1550926657207
 20
400.704423633273
 30
0.0
  0
SEQEND
  5
CE
  8
FLOORPLATE$T2$2333
  0
POLYLINE
  5
CF
  8
FLOORPLATE$T2$2333
 66
     1
 10
0.0
 20
0.0
 30
0.0
 70
     1
  0
VERTEX
  5
D0
  8
FLOORPLATE$T2$2333
 10
145.7550926657207
 20
400.704423633273
 30
0.0
  0
VERTEX
  5
D1
  8
FLOORPLATE$T2$2333
 10
142.7550926657207
 20
400.704423633273
 30
0.0
  0
VERTEX
  5
D2
  8
FLOORPLATE$T2$2333
 10
142.7550926657207
 20
412.371423633273
 30
0.0
  0
VERTEX
  5
D3
  8
FLOORPLATE$T2$2333
 10
145.7550926657207
 20
412.371423633273
 30
0.0
  0
SEQEND
  5
D4
  8
FLOORPLATE$T2$2333
  0
POLYLINE
  5
D5
  8
FLOORPLATE$T2$2333
 66
     1
 10
0.0
 20
0.0
 30
0.0
 70
     1
  0
VERTEX
  5
D6
  8
FLOORPLATE$T2$2333
 10
134.4550926657207
 20
400.554423633273
 30
0.0
  0
VERTEX
  5
D7
  8
FLOORPLATE$T2$2333
 10
133.9550926657207
 20
400.554423633273
 30
0.0
  0
VERTEX
  5
D8
  8
FLOORPLATE$T2$2333
 10
133.9550926657207
 20
414.954423633273
 30
0.0
  0
VERTEX
  5
D9
  8
FLOORPLATE$T2$2333
 10
142.7550926657207
 20
414.954423633273
 30
0.0
  0
VERTEX
  5
DA
  8
FLOORPLATE$T2$2333
 10
142.7550926657207
 20
398.954423633273
 30
0.0
  0
VERTEX
  5
DB
  8
FLOORPLATE$T2$2333
 10
134.4550926657207
 20
398.954423633273
 30
0.0
  0
SEQEND
  5
DC
  8
FLOORPLATE$T2$2333
  0
POLYLINE
  5
DD
  8
FLOORPLATE$T2$2333
 66
     1
 10
0.0
 20
0.0
 30
0.0
 70
     1
  0
VERTEX
  5
DE
  8
FLOORPLATE$T2$2333
 10
131.8717926657209
 20
387.154423633273
 30
0.0
  0
VERTEX
  5
DF
  8
FLOORPLATE$T2$2333
 10
131.8717926657209
 20
390.154423633273
 30
0.0
  0
VERTEX
  5
E0
  8
FLOORPLATE$T2$2333
 10
141.0383926657209
 20
390.154423633273
 30
0.0
  0
VERTEX
  5
E1
  8
FLOORPLATE$T2$2333
 10
141.0383926657209
 20
387.154423633273
 30
0.0
  0
SEQEND
  5
E2
  8
FLOORPLATE$T2$2333
  0
POLYLINE
  5
E3
  8
FLOORPLATE$T2$2333
 66
     1
 10
0.0
 20
0.0
 30
0.0
 70
     1
  0
VERTEX
  5
E4
  8
FLOORPLATE$T2$2333
 10
122.9550926657209
 20
400.554423633273
 30
0.0
  0
VERTEX
  5
E5
  8
FLOORPLATE$T2$2333
 10
122.9550926657209
 20
414.954423633273
 30
0.0
  0
VERTEX
  5
E6
  8
FLOORPLATE$T2$2333
 10
114.1550926657209
 20
414.954423633273
 30
0.0
  0
VERTEX
  5
E7
  8
FLOORPLATE$T2$2333
 10
114.1550926657209
 20
398.954423633273
 30
0.0
  0
VERTEX
  5
E8
  8
FLOORPLATE$T2$2333
 10
122.4550926657209
 20
398.954423633273
 30
0.0
  0
VERTEX
  5
E9
  8
FLOORPLATE$T2$2333
 10
122.4550926657209
 20
400.554423633273
 30
0.0
  0
SEQEND
  5
EA
  8
FLOORPLATE$T2$2333
  0
POLYLINE
  5
EB
  8
FLOORPLATE$T2$2333
 66
     1
 10
0.0
 20
0.0
 30
0.0
 70
     1
  0
VERTEX
  5
EC
  8
FLOORPLATE$T2$2333
 10
132.4550926657209
 20
409.5544236333121
 30
0.0
  0
VERTEX
  5
ED
  8
FLOORPLATE$T2$2333
 10
124.455092665721
 20
409.5544236333121
 30
0.0
  0
VERTEX
  5
EE
  8
FLOORPLATE$T2$2333
 10
124.455092665721
 20
414.9544236332731
 30
0.0
  0
VERTEX
  5
EF
  8
FLOORPLATE$T2$2333
 10
132.4550926657209
 20
414.9544236332731
 30
0.0
  0
SEQEND
  5
F0
  8
FLOORPLATE$T2$2333
  0
POINT
  5
F1
  8
FLOORPLATE$T2$2333
 10
129.1550926657207
 20
404.154423633273
 30
0.0
  0
POLYLINE
  5
F2
  8
FLOORPLATE$T2$2333
 66
     1
 10
0.0
 20
0.0
 30
0.0
 70
     1
  0
VERTEX
  5
F3
  8
FLOORPLATE$T2$2333
 10
142.7550926657208
 20
398.9544236332729
 30
0.0
  0
VERTEX
  5
F4
  8
FLOORPLATE$T2$2333
 10
128.3550926657208
 20
398.9544236332729
 30
0.0
  0
VERTEX
  5
F5
  8
FLOORPLATE$T2$2333
 10
128.3550926657208
 20
398.4544236332729
 30
0.0
  0
VERTEX
  5
F6
  8
FLOORPLATE$T2$2333
 10
126.7550926657208
 20
398.4544236332729
 30
0.0
  0
VERTEX
  5
F7
  8
FLOORPLATE$T2$2333
 10
126.7550926657208
 20
390.154423633273
 30
0.0
  0
VERTEX
  5
F8
  8
FLOORPLATE$T2$2333
 10
142.7550926657208
 20
390.154423633273
 30
0.0
  0
SEQEND
  5
F9
  8
FLOORPLATE$T2$2333
  0
POLYLINE
  5
FA
  8
FLOORPLATE$T2$2333
 66
     1
 10
0.0
 20
0.0
 30
0.0
 70
     1
  0
VERTEX
  5
FB
  8
FLOORPLATE$T2$2333
 10
126.7550926657205
 20
398.954423633273
 30
0.0
  0
VERTEX
  5
FC
  8
FLOORPLATE$T2$2333
 10
114.1550926657205
 20
398.954423633273
 30
0.0
  0
VERTEX
  5
FD
  8
FLOORPLATE$T2$2333
 10
114.1550926657205
 20
391.034423633273
 30
0.0
  0
VERTEX
  5
FE
  8
FLOORPLATE$T2$2333
 10
114.6550926657205
 20
391.034423633273
 30
0.0
  0
VERTEX
  5
FF
  8
FLOORPLATE$T2$2333
 10
114.6550926657205
 20
390.154423633273
 30
0.0
  0
VERTEX
  5
100
  8
FLOORPLATE$T2$2333
 10
126.2550926657205
 20
390.154423633273
 30
0.0
  0
VERTEX
  5
101
  8
FLOORPLATE$T2$2333
 10
126.2550926657205
 20
391.034423633273
 30
0.0
  0
VERTEX
  5
102
  8
FLOORPLATE$T2$2333
 10
126.7550926657205
 20
391.034423633273
 30
0.0
  0
SEQEND
  5
103
  8
FLOORPLATE$T2$2333
  0
POLYLINE
  5
104
  8
FLOORPLATE$T2$2333
 66
     1
 10
0.0
 20
0.0
 30
0.0
 70
     1
  0
VERTEX
  5
105
  8
FLOORPLATE$T2$2333
 10
122.9550926657208
 20
400.554423633273
 30
0.0
  0
VERTEX
  5
106
  8
FLOORPLATE$T2$2333
 10
122.9550926657208
 20
409.554423633273
 30
0.0
  0
VERTEX
  5
107
  8
FLOORPLATE$T2$2333
 10
133.9550926657207
 20
409.554423633273
 30
0.0
  0
VERTEX
  5
108
  8
FLOORPLATE$T2$2333
 10
133.9550926657207
 20
400.554423633273
 30
0.0
  0
VERTEX
  5
109
  8
FLOORPLATE$T2$2333
 10
134.4550926657207
 20
400.554423633273
 30
0.0
  0
VERTEX
  5
10A
  8
FLOORPLATE$T2$2333
 10
134.4550926657207
 20
398.954423633273
 30
0.0
  0
VERTEX
  5
10B
  8
FLOORPLATE$T2$2333
 10
128.3550926657207
 20
398.954423633273
 30
0.0
  0
VERTEX
  5
10C
  8
FLOORPLATE$T2$2333
 10
128.3550926657207
 20
398.454423633273
 30
0.0
  0
VERTEX
  5
10D
  8
FLOORPLATE$T2$2333
 10
126.7550926657207
 20
398.454423633273
 30
0.0
  0
VERTEX
  5
10E
  8
FLOORPLATE$T2$2333
 10
126.7550926657206
 20
398.954423633273
 30
0.0
  0
VERTEX
  5
10F
  8
FLOORPLATE$T2$2333
 10
122.4550926657208
 20
398.954423633273
 30
0.0
  0
VERTEX
  5
110
  8
FLOORPLATE$T2$2333
 10
122.4550926657208
 20
400.554423633273
 30
0.0
  0
SEQEND
  5
111
  8
FLOORPLATE$T2$2333
  0
TEXT
  5
112
  8
FLOORPLATE$T2$2333
  6
CONTINUOUS
 10
118.8420655843624
 20
394.172665070975
 30
0.0
 40
1.0
  1
3BED
  0
TEXT
  5
113
  8
FLOORPLATE$T2$2333
  6
CONTINUOUS
 10
117.2010446310265
 20
402.1508041814314
 30
0.0
 40
1.0
  1
2BED
  0
TEXT
  5
114
  8
FLOORPLATE$T2$2333
  6
CONTINUOUS
 10
136.3363293038912
 20
393.5556128711443
 30
0.0
 40
1.0
  1
3BED
  0
TEXT
  5
115
  8
FLOORPLATE$T2$2333
  6
CONTINUOUS
 10
136.3363293038912
 20
405.4338795961549
 30
0.0
 40
1.0
  1
3BED
  0
POLYLINE
  5
117
  8
FLOORPLATE$T2$3233
 66
     1
 10
0.0
 20
0.0
 30
0.0
 70
     1
  0
VERTEX
  5
118
  8
FLOORPLATE$T2$3233
 10
116.7380926657207
 20
423.888701132303
 30
0.0
  0
VERTEX
  5
119
  8
FLOORPLATE$T2$3233
 10
128.4050926657207
 20
423.888701132303
 30
0.0
  0
VERTEX
  5
11A
  8
FLOORPLATE$T2$3233
 10
128.4050926657207
 20
420.888701132303
 30
0.0
  0
VERTEX
  5
11B
  8
FLOORPLATE$T2$3233
 10
116.7380926657207
 20
420.888701132303
 30
0.0
  0
SEQEND
  5
11C
  8
FLOORPLATE$T2$3233
  0
POLYLINE
  5
11D
  8
FLOORPLATE$T2$3233
 66
     1
 10
0.0
 20
0.0
 30
0.0
 70
     1
  0
VERTEX
  5
11E
  8
FLOORPLATE$T2$3233
 10
114.1550926657207
 20
434.438701132303
 30
0.0
  0
VERTEX
  5
11F
  8
FLOORPLATE$T2$3233
 10
114.1550926657207
 20
446.105701132303
 30
0.0
  0
VERTEX
  5
120
  8
FLOORPLATE$T2$3233
 10
111.1550926657207
 20
446.105701132303
 30
0.0
  0
VERTEX
  5
121
  8
FLOORPLATE$T2$3233
 10
111.1550926657207
 20
434.438701132303
 30
0.0
  0
SEQEND
  5
122
  8
FLOORPLATE$T2$3233
  0
POLYLINE
  5
123
  8
FLOORPLATE$T2$3233
 66
     1
 10
0.0
 20
0.0
 30
0.0
 70
     1
  0
VERTEX
  5
124
  8
FLOORPLATE$T2$3233
 10
145.7550926657207
 20
434.438701132303
 30
0.0
  0
VERTEX
  5
125
  8
FLOORPLATE$T2$3233
 10
142.7550926657207
 20
434.438701132303
 30
0.0
  0
VERTEX
  5
126
  8
FLOORPLATE$T2$3233
 10
142.7550926657207
 20
446.105701132303
 30
0.0
  0
VERTEX
  5
127
  8
FLOORPLATE$T2$3233
 10
145.7550926657207
 20
446.105701132303
 30
0.0
  0
SEQEND
  5
128
  8
FLOORPLATE$T2$3233
  0
POLYLINE
  5
129
  8
FLOORPLATE$T2$3233
 66
     1
 10
0.0
 20
0.0
 30
0.0
 70
     1
  0
VERTEX
  5
12A
  8
FLOORPLATE$T2$3233
 10
134.4550926657207
 20
434.288701132303
 30
0.0
  0
VERTEX
  5
12B
  8
FLOORPLATE$T2$3233
 10
133.9550926657207
 20
434.288701132303
 30
0.0
  0
VERTEX
  5
12C
  8
FLOORPLATE$T2$3233
 10
133.9550926657207
 20
448.688701132303
 30
0.0
  0
VERTEX
  5
12D
  8
FLOORPLATE$T2$3233
 10
142.7550926657207
 20
448.688701132303
 30
0.0
  0
VERTEX
  5
12E
  8
FLOORPLATE$T2$3233
 10
142.7550926657207
 20
432.688701132303
 30
0.0
  0
VERTEX
  5
12F
  8
FLOORPLATE$T2$3233
 10
134.4550926657207
 20
432.688701132303
 30
0.0
  0
SEQEND
  5
130
  8
FLOORPLATE$T2$3233
  0
POLYLINE
  5
131
  8
FLOORPLATE$T2$3233
 66
     1
 10
0.0
 20
0.0
 30
0.0
 70
     1
  0
VERTEX
  5
132
  8
FLOORPLATE$T2$3233
 10
131.8717926657209
 20
420.888701132303
 30
0.0
  0
VERTEX
  5
133
  8
FLOORPLATE$T2$3233
 10
131.8717926657209
 20
423.888701132303
 30
0.0
  0
VERTEX
  5
134
  8
FLOORPLATE$T2$3233
 10
141.0383926657209
 20
423.888701132303
 30
0.0
  0
VERTEX
  5
135
  8
FLOORPLATE$T2$3233
 10
141.0383926657209
 20
420.888701132303
 30
0.0
  0
SEQEND
  5
136
  8
FLOORPLATE$T2$3233
  0
POLYLINE
  5
137
  8
FLOORPLATE$T2$3233
 66
     1
 10
0.0
 20
0.0
 30
0.0
 70
     1
  0
VERTEX
  5
138
  8
FLOORPLATE$T2$3233
 10
122.9550926657209
 20
434.288701132303
 30
0.0
  0
VERTEX
  5
139
  8
FLOORPLATE$T2$3233
 10
122.9550926657209
 20
448.688701132303
 30
0.0
  0
VERTEX
  5
13A
  8
FLOORPLATE$T2$3233
 10
114.1550926657209
 20
448.688701132303
 30
0.0
  0
VERTEX
  5
13B
  8
FLOORPLATE$T2$3233
 10
114.1550926657209
 20
432.688701132303
 30
0.0
  0
VERTEX
  5
13C
  8
FLOORPLATE$T2$3233
 10
122.4550926657209
 20
432.688701132303
 30
0.0
  0
VERTEX
  5
13D
  8
FLOORPLATE$T2$3233
 10
122.4550926657209
 20
434.288701132303
 30
0.0
  0
SEQEND
  5
13E
  8
FLOORPLATE$T2$3233
  0
POLYLINE
  5
13F
  8
FLOORPLATE$T2$3233
 66
     1
 10
0.0
 20
0.0
 30
0.0
 70
     1
  0
VERTEX
  5
140
  8
FLOORPLATE$T2$3233
 10
132.4550926657209
 20
443.2887011323421
 30
0.0
  0
VERTEX
  5
141
  8
FLOORPLATE$T2$3233
 10
124.455092665721
 20
443.2887011323421
 30
0.0
  0
VERTEX
  5
142
  8
FLOORPLATE$T2$3233
 10
124.455092665721
 20
448.688701132303
 30
0.0
  0
VERTEX
  5
143
  8
FLOORPLATE$T2$3233
 10
132.4550926657209
 20
448.688701132303
 30
0.0
  0
SEQEND
  5
144
  8
FLOORPLATE$T2$3233
  0
POINT
  5
145
  8
FLOORPLATE$T2$3233
 10
129.1550926657207
 20
437.888701132303
 30
0.0
  0
POLYLINE
  5
146
  8
FLOORPLATE$T2$3233
 66
     1
 10
0.0
 20
0.0
 30
0.0
 70
     1
  0
VERTEX
  5
147
  8
FLOORPLATE$T2$3233
 10
142.7550926657208
 20
432.6887011323029
 30
0.0
  0
VERTEX
  5
148
  8
FLOORPLATE$T2$3233
 10
128.3550926657208
 20
432.6887011323029
 30
0.0
  0
VERTEX
  5
149
  8
FLOORPLATE$T2$3233
 10
128.3550926657208
 20
432.1887011323029
 30
0.0
  0
VERTEX
  5
14A
  8
FLOORPLATE$T2$3233
 10
126.7550926657208
 20
432.1887011323029
 30
0.0
  0
VERTEX
  5
14B
  8
FLOORPLATE$T2$3233
 10
126.7550926657208
 20
423.888701132303
 30
0.0
  0
VERTEX
  5
14C
  8
FLOORPLATE$T2$3233
 10
142.7550926657208
 20
423.888701132303
 30
0.0
  0
SEQEND
  5
14D
  8
FLOORPLATE$T2$3233
  0
POLYLINE
  5
14E
  8
FLOORPLATE$T2$3233
 66
     1
 10
0.0
 20
0.0
 30
0.0
 70
     1
  0
VERTEX
  5
14F
  8
FLOORPLATE$T2$3233
 10
126.7550926657205
 20
432.688701132303
 30
0.0
  0
VERTEX
  5
150
  8
FLOORPLATE$T2$3233
 10
114.1550926657205
 20
432.688701132303
 30
0.0
  0
VERTEX
  5
151
  8
FLOORPLATE$T2$3233
 10
114.1550926657205
 20
424.768701132303
 30
0.0
  0
VERTEX
  5
152
  8
FLOORPLATE$T2$3233
 10
114.6550926657205
 20
424.768701132303
 30
0.0
  0
VERTEX
  5
153
  8
FLOORPLATE$T2$3233
 10
114.6550926657205
 20
423.888701132303
 30
0.0
  0
VERTEX
  5
154
  8
FLOORPLATE$T2$3233
 10
126.2550926657205
 20
423.888701132303
 30
0.0
  0
VERTEX
  5
155
  8
FLOORPLATE$T2$3233
 10
126.2550926657205
 20
424.768701132303
 30
0.0
  0
VERTEX
  5
156
  8
FLOORPLATE$T2$3233
 10
126.7550926657205
 20
424.768701132303
 30
0.0
  0
SEQEND
  5
157
  8
FLOORPLATE$T2$3233
  0
POLYLINE
  5
158
  8
FLOORPLATE$T2$3233
 66
     1
 10
0.0
 20
0.0
 30
0.0
 70
     1
  0
VERTEX
  5
159
  8
FLOORPLATE$T2$3233
 10
122.9550926657208
 20
434.288701132303
 30
0.0
  0
VERTEX
  5
15A
  8
FLOORPLATE$T2$3233
 10
122.9550926657208
 20
443.288701132303
 30
0.0
  0
VERTEX
  5
15B
  8
FLOORPLATE$T2$3233
 10
133.9550926657207
 20
443.288701132303
 30
0.0
  0
VERTEX
  5
15C
  8
FLOORPLATE$T2$3233
 10
133.9550926657207
 20
434.288701132303
 30
0.0
  0
VERTEX
  5
15D
  8
FLOORPLATE$T2$3233
 10
134.4550926657207
 20
434.288701132303
 30
0.0
  0
VERTEX
  5
15E
  8
FLOORPLATE$T2$3233
 10
134.4550926657207
 20
432.688701132303
 30
0.0
  0
VERTEX
  5
15F
  8
FLOORPLATE$T2$3233
 10
128.3550926657207
 20
432.688701132303
 30
0.0
  0
VERTEX
  5
160
  8
FLOORPLATE$T2$3233
 10
128.3550926657207
 20
432.188701132303
 30
0.0
  0
VERTEX
  5
161
  8
FLOORPLATE$T2$3233
 10
126.7550926657207
 20
432.188701132303
 30
0.0
  0
VERTEX
  5
162
  8
FLOORPLATE$T2$3233
 10
126.7550926657206
 20
432.688701132303
 30
0.0
  0
VERTEX
  5
163
  8
FLOORPLATE$T2$3233
 10
122.4550926657208
 20
432.688701132303
 30
0.0
  0
VERTEX
  5
164
  8
FLOORPLATE$T2$3233
 10
122.4550926657208
 20
434.288701132303
 30
0.0
  0
SEQEND
  5
165
  8
FLOORPLATE$T2$3233
  0
TEXT
  5
166
  8
FLOORPLATE$T2$3233
  6
CONTINUOUS
 10
136.3363293038912
 20
427.2898903701742
 30
0.0
 40
1.0
  1
3BED
  0
TEXT
  5
167
  8
FLOORPLATE$T2$3233
  6
CONTINUOUS
 10
136.3363293038912
 20
439.1681570951849
 30
0.0
 40
1.0
  1
3BED
  0
TEXT
  5
168
  8
FLOORPLATE$T2$3233
  6
CONTINUOUS
 10
118.8420655843624
 20
439.8567164607002
 30
0.0
 40
1.0
  1
3BED
  0
TEXT
  5
169
  8
FLOORPLATE$T2$3233
  6
CONTINUOUS
 10
117.2010446310265
 20
427.9878398048713
 30
0.0
 40
1.0
  1
2BED
  0
POLYLINE
  5
16B
  8
FLOORPLATE$T2$3323
 66
     1
 10
0.0
 20
0.0
 30
0.0
 70
     1
  0
VERTEX
  5
16C
  8
FLOORPLATE$T2$3323
 10
116.7380926657207
 20
457.1478479623326
 30
0.0
  0
VERTEX
  5
16D
  8
FLOORPLATE$T2$3323
 10
128.4050926657207
 20
457.1478479623326
 30
0.0
  0
VERTEX
  5
16E
  8
FLOORPLATE$T2$3323
 10
128.4050926657207
 20
454.1478479623326
 30
0.0
  0
VERTEX
  5
16F
  8
FLOORPLATE$T2$3323
 10
116.7380926657207
 20
454.1478479623326
 30
0.0
  0
SEQEND
  5
170
  8
FLOORPLATE$T2$3323
  0
POLYLINE
  5
171
  8
FLOORPLATE$T2$3323
 66
     1
 10
0.0
 20
0.0
 30
0.0
 70
     1
  0
VERTEX
  5
172
  8
FLOORPLATE$T2$3323
 10
114.1550926657207
 20
467.6978479623326
 30
0.0
  0
VERTEX
  5
173
  8
FLOORPLATE$T2$3323
 10
114.1550926657207
 20
479.3648479623326
 30
0.0
  0
VERTEX
  5
174
  8
FLOORPLATE$T2$3323
 10
111.1550926657207
 20
479.3648479623326
 30
0.0
  0
VERTEX
  5
175
  8
FLOORPLATE$T2$3323
 10
111.1550926657207
 20
467.6978479623326
 30
0.0
  0
SEQEND
  5
176
  8
FLOORPLATE$T2$3323
  0
POLYLINE
  5
177
  8
FLOORPLATE$T2$3323
 66
     1
 10
0.0
 20
0.0
 30
0.0
 70
     1
  0
VERTEX
  5
178
  8
FLOORPLATE$T2$3323
 10
145.7550926657207
 20
467.6978479623326
 30
0.0
  0
VERTEX
  5
179
  8
FLOORPLATE$T2$3323
 10
142.7550926657207
 20
467.6978479623326
 30
0.0
  0
VERTEX
  5
17A
  8
FLOORPLATE$T2$3323
 10
142.7550926657207
 20
479.3648479623326
 30
0.0
  0
VERTEX
  5
17B
  8
FLOORPLATE$T2$3323
 10
145.7550926657207
 20
479.3648479623326
 30
0.0
  0
SEQEND
  5
17C
  8
FLOORPLATE$T2$3323
  0
POLYLINE
  5
17D
  8
FLOORPLATE$T2$3323
 66
     1
 10
0.0
 20
0.0
 30
0.0
 70
     1
  0
VERTEX
  5
17E
  8
FLOORPLATE$T2$3323
 10
134.4550926657207
 20
467.5478479623326
 30
0.0
  0
VERTEX
  5
17F
  8
FLOORPLATE$T2$3323
 10
133.9550926657207
 20
467.5478479623326
 30
0.0
  0
VERTEX
  5
180
  8
FLOORPLATE$T2$3323
 10
133.9550926657207
 20
481.9478479623326
 30
0.0
  0
VERTEX
  5
181
  8
FLOORPLATE$T2$3323
 10
142.7550926657207
 20
481.9478479623326
 30
0.0
  0
VERTEX
  5
182
  8
FLOORPLATE$T2$3323
 10
142.7550926657207
 20
465.9478479623326
 30
0.0
  0
VERTEX
  5
183
  8
FLOORPLATE$T2$3323
 10
134.4550926657207
 20
465.9478479623326
 30
0.0
  0
SEQEND
  5
184
  8
FLOORPLATE$T2$3323
  0
POLYLINE
  5
185
  8
FLOORPLATE$T2$3323
 66
     1
 10
0.0
 20
0.0
 30
0.0
 70
     1
  0
VERTEX
  5
186
  8
FLOORPLATE$T2$3323
 10
131.8717926657209
 20
454.1478479623326
 30
0.0
  0
VERTEX
  5
187
  8
FLOORPLATE$T2$3323
 10
131.8717926657209
 20
457.1478479623326
 30
0.0
  0
VERTEX
  5
188
  8
FLOORPLATE$T2$3323
 10
141.0383926657209
 20
457.1478479623326
 30
0.0
  0
VERTEX
  5
189
  8
FLOORPLATE$T2$3323
 10
141.0383926657209
 20
454.1478479623326
 30
0.0
  0
SEQEND
  5
18A
  8
FLOORPLATE$T2$3323
  0
POLYLINE
  5
18B
  8
FLOORPLATE$T2$3323
 66
     1
 10
0.0
 20
0.0
 30
0.0
 70
     1
  0
VERTEX
  5
18C
  8
FLOORPLATE$T2$3323
 10
122.9550926657209
 20
467.5478479623326
 30
0.0
  0
VERTEX
  5
18D
  8
FLOORPLATE$T2$3323
 10
122.9550926657209
 20
481.9478479623326
 30
0.0
  0
VERTEX
  5
18E
  8
FLOORPLATE$T2$3323
 10
114.1550926657209
 20
481.9478479623326
 30
0.0
  0
VERTEX
  5
18F
  8
FLOORPLATE$T2$3323
 10
114.1550926657209
 20
465.9478479623326
 30
0.0
  0
VERTEX
  5
190
  8
FLOORPLATE$T2$3323
 10
122.4550926657209
 20
465.9478479623326
 30
0.0
  0
VERTEX
  5
191
  8
FLOORPLATE$T2$3323
 10
122.4550926657209
 20
467.5478479623326
 30
0.0
  0
SEQEND
  5
192
  8
FLOORPLATE$T2$3323
  0
POLYLINE
  5
193
  8
FLOORPLATE$T2$3323
 66
     1
 10
0.0
 20
0.0
 30
0.0
 70
     1
  0
VERTEX
  5
194
  8
FLOORPLATE$T2$3323
 10
132.4550926657209
 20
476.5478479623717
 30
0.0
  0
VERTEX
  5
195
  8
FLOORPLATE$T2$3323
 10
124.455092665721
 20
476.5478479623717
 30
0.0
  0
VERTEX
  5
196
  8
FLOORPLATE$T2$3323
 10
124.455092665721
 20
481.9478479623327
 30
0.0
  0
VERTEX
  5
197
  8
FLOORPLATE$T2$3323
 10
132.4550926657209
 20
481.9478479623327
 30
0.0
  0
SEQEND
  5
198
  8
FLOORPLATE$T2$3323
  0
POINT
  5
199
  8
FLOORPLATE$T2$3323
 10
129.1550926657207
 20
471.1478479623327
 30
0.0
  0
POLYLINE
  5
19A
  8
FLOORPLATE$T2$3323
 66
     1
 10
0.0
 20
0.0
 30
0.0
 70
     1
  0
VERTEX
  5
19B
  8
FLOORPLATE$T2$3323
 10
142.7550926657208
 20
465.9478479623326
 30
0.0
  0
VERTEX
  5
19C
  8
FLOORPLATE$T2$3323
 10
128.3550926657208
 20
465.9478479623326
 30
0.0
  0
VERTEX
  5
19D
  8
FLOORPLATE$T2$3323
 10
128.3550926657208
 20
465.4478479623326
 30
0.0
  0
VERTEX
  5
19E
  8
FLOORPLATE$T2$3323
 10
126.7550926657208
 20
465.4478479623326
 30
0.0
  0
VERTEX
  5
19F
  8
FLOORPLATE$T2$3323
 10
126.7550926657208
 20
457.1478479623326
 30
0.0
  0
VERTEX
  5
1A0
  8
FLOORPLATE$T2$3323
 10
142.7550926657208
 20
457.1478479623326
 30
0.0
  0
SEQEND
  5
1A1
  8
FLOORPLATE$T2$3323
  0
POLYLINE
  5
1A2
  8
FLOORPLATE$T2$3323
 66
     1
 10
0.0
 20
0.0
 30
0.0
 70
     1
  0
VERTEX
  5
1A3
  8
FLOORPLATE$T2$3323
 10
126.7550926657205
 20
465.9478479623326
 30
0.0
  0
VERTEX
  5
1A4
  8
FLOORPLATE$T2$3323
 10
114.1550926657205
 20
465.9478479623326
 30
0.0
  0
VERTEX
  5
1A5
  8
FLOORPLATE$T2$3323
 10
114.1550926657205
 20
458.0278479623326
 30
0.0
  0
VERTEX
  5
1A6
  8
FLOORPLATE$T2$3323
 10
114.6550926657205
 20
458.0278479623326
 30
0.0
  0
VERTEX
  5
1A7
  8
FLOORPLATE$T2$3323
 10
114.6550926657205
 20
457.1478479623326
 30
0.0
  0
VERTEX
  5
1A8
  8
FLOORPLATE$T2$3323
 10
126.2550926657205
 20
457.1478479623326
 30
0.0
  0
VERTEX
  5
1A9
  8
FLOORPLATE$T2$3323
 10
126.2550926657205
 20
458.0278479623326
 30
0.0
  0
VERTEX
  5
1AA
  8
FLOORPLATE$T2$3323
 10
126.7550926657205
 20
458.0278479623326
 30
0.0
  0
SEQEND
  5
1AB
  8
FLOORPLATE$T2$3323
  0
POLYLINE
  5
1AC
  8
FLOORPLATE$T2$3323
 66
     1
 10
0.0
 20
0.0
 30
0.0
 70
     1
  0
VERTEX
  5
1AD
  8
FLOORPLATE$T2$3323
 10
122.9550926657208
 20
467.5478479623326
 30
0.0
  0
VERTEX
  5
1AE
  8
FLOORPLATE$T2$3323
 10
122.9550926657208
 20
476.5478479623326
 30
0.0
  0
VERTEX
  5
1AF
  8
FLOORPLATE$T2$3323
 10
133.9550926657207
 20
476.5478479623326
 30
0.0
  0
VERTEX
  5
1B0
  8
FLOORPLATE$T2$3323
 10
133.9550926657207
 20
467.5478479623326
 30
0.0
  0
VERTEX
  5
1B1
  8
FLOORPLATE$T2$3323
 10
134.4550926657207
 20
467.5478479623326
 30
0.0
  0
VERTEX
  5
1B2
  8
FLOORPLATE$T2$3323
 10
134.4550926657207
 20
465.9478479623326
 30
0.0
  0
VERTEX
  5
1B3
  8
FLOORPLATE$T2$3323
 10
128.3550926657207
 20
465.9478479623326
 30
0.0
  0
VERTEX
  5
1B4
  8
FLOORPLATE$T2$3323
 10
128.3550926657207
 20
465.4478479623326
 30
0.0
  0
VERTEX
  5
1B5
  8
FLOORPLATE$T2$3323
 10
126.7550926657207
 20
465.4478479623326
 30
0.0
  0
VERTEX
  5
1B6
  8
FLOORPLATE$T2$3323
 10
126.7550926657206
 20
465.9478479623326
 30
0.0
  0
VERTEX
  5
1B7
  8
FLOORPLATE$T2$3323
 10
122.4550926657208
 20
465.9478479623326
 30
0.0
  0
VERTEX
  5
1B8
  8
FLOORPLATE$T2$3323
 10
122.4550926657208
 20
467.5478479623326
 30
0.0
  0
SEQEND
  5
1B9
  8
FLOORPLATE$T2$3323
  0
TEXT
  5
1BA
  8
FLOORPLATE$T2$3323
  6
CONTINUOUS
 10
136.3363293038912
 20
472.4273039252145
 30
0.0
 40
1.0
  1
3BED
  0
TEXT
  5
1BB
  8
FLOORPLATE$T2$3323
  6
CONTINUOUS
 10
118.8420655843624
 20
473.1158632907299
 30
0.0
 40
1.0
  1
3BED
  0
TEXT
  5
1BC
  8
FLOORPLATE$T2$3323
  6
CONTINUOUS
 10
130.4144285359283
 20
461.2469866349009
 30
0.0
 40
1.0
  1
2BED
  0
TEXT
  5
1BD
  8
FLOORPLATE$T2$3323
  6
CONTINUOUS
 10
117.6066783318945
 20
460.5490372002039
 30
0.0
 40
1.0
  1
3BED
  0
POLYLINE
  5
1BF
  8
FLOORPLATE$T2$3332
 66
     1
 10
0.0
 20
0.0
 30
0.0
 70
     1
  0
VERTEX
  5
1C0
  8
FLOORPLATE$T2$3332
 10
116.7380926657207
 20
492.3075174683641
 30
0.0
  0
VERTEX
  5
1C1
  8
FLOORPLATE$T2$3332
 10
128.4050926657207
 20
492.3075174683641
 30
0.0
  0
VERTEX
  5
1C2
  8
FLOORPLATE$T2$3332
 10
128.4050926657207
 20
489.3075174683641
 30
0.0
  0
VERTEX
  5
1C3
  8
FLOORPLATE$T2$3332
 10
116.7380926657207
 20
489.3075174683641
 30
0.0
  0
SEQEND
  5
1C4
  8
FLOORPLATE$T2$3332
  0
POLYLINE
  5
1C5
  8
FLOORPLATE$T2$3332
 66
     1
 10
0.0
 20
0.0
 30
0.0
 70
     1
  0
VERTEX
  5
1C6
  8
FLOORPLATE$T2$3332
 10
114.1550926657207
 20
502.8575174683642
 30
0.0
  0
VERTEX
  5
1C7
  8
FLOORPLATE$T2$3332
 10
114.1550926657207
 20
514.5245174683641
 30
0.0
  0
VERTEX
  5
1C8
  8
FLOORPLATE$T2$3332
 10
111.1550926657207
 20
514.5245174683641
 30
0.0
  0
VERTEX
  5
1C9
  8
FLOORPLATE$T2$3332
 10
111.1550926657207
 20
502.8575174683642
 30
0.0
  0
SEQEND
  5
1CA
  8
FLOORPLATE$T2$3332
  0
POLYLINE
  5
1CB
  8
FLOORPLATE$T2$3332
 66
     1
 10
0.0
 20
0.0
 30
0.0
 70
     1
  0
VERTEX
  5
1CC
  8
FLOORPLATE$T2$3332
 10
145.7550926657207
 20
502.8575174683642
 30
0.0
  0
VERTEX
  5
1CD
  8
FLOORPLATE$T2$3332
 10
142.7550926657207
 20
502.8575174683642
 30
0.0
  0
VERTEX
  5
1CE
  8
FLOORPLATE$T2$3332
 10
142.7550926657207
 20
514.5245174683641
 30
0.0
  0
VERTEX
  5
1CF
  8
FLOORPLATE$T2$3332
 10
145.7550926657207
 20
514.5245174683641
 30
0.0
  0
SEQEND
  5
1D0
  8
FLOORPLATE$T2$3332
  0
POLYLINE
  5
1D1
  8
FLOORPLATE$T2$3332
 66
     1
 10
0.0
 20
0.0
 30
0.0
 70
     1
  0
VERTEX
  5
1D2
  8
FLOORPLATE$T2$3332
 10
134.4550926657207
 20
502.7075174683642
 30
0.0
  0
VERTEX
  5
1D3
  8
FLOORPLATE$T2$3332
 10
133.9550926657207
 20
502.7075174683642
 30
0.0
  0
VERTEX
  5
1D4
  8
FLOORPLATE$T2$3332
 10
133.9550926657207
 20
517.1075174683642
 30
0.0
  0
VERTEX
  5
1D5
  8
FLOORPLATE$T2$3332
 10
142.7550926657207
 20
517.1075174683642
 30
0.0
  0
VERTEX
  5
1D6
  8
FLOORPLATE$T2$3332
 10
142.7550926657207
 20
501.1075174683642
 30
0.0
  0
VERTEX
  5
1D7
  8
FLOORPLATE$T2$3332
 10
134.4550926657207
 20
501.1075174683642
 30
0.0
  0
SEQEND
  5
1D8
  8
FLOORPLATE$T2$3332
  0
POLYLINE
  5
1D9
  8
FLOORPLATE$T2$3332
 66
     1
 10
0.0
 20
0.0
 30
0.0
 70
     1
  0
VERTEX
  5
1DA
  8
FLOORPLATE$T2$3332
 10
131.8717926657209
 20
489.3075174683641
 30
0.0
  0
VERTEX
  5
1DB
  8
FLOORPLATE$T2$3332
 10
131.8717926657209
 20
492.3075174683641
 30
0.0
  0
VERTEX
  5
1DC
  8
FLOORPLATE$T2$3332
 10
141.0383926657209
 20
492.3075174683641
 30
0.0
  0
VERTEX
  5
1DD
  8
FLOORPLATE$T2$3332
 10
141.0383926657209
 20
489.3075174683641
 30
0.0
  0
SEQEND
  5
1DE
  8
FLOORPLATE$T2$3332
  0
POLYLINE
  5
1DF
  8
FLOORPLATE$T2$3332
 66
     1
 10
0.0
 20
0.0
 30
0.0
 70
     1
  0
VERTEX
  5
1E0
  8
FLOORPLATE$T2$3332
 10
122.9550926657209
 20
502.7075174683642
 30
0.0
  0
VERTEX
  5
1E1
  8
FLOORPLATE$T2$3332
 10
122.9550926657209
 20
517.1075174683642
 30
0.0
  0
VERTEX
  5
1E2
  8
FLOORPLATE$T2$3332
 10
114.1550926657209
 20
517.1075174683642
 30
0.0
  0
VERTEX
  5
1E3
  8
FLOORPLATE$T2$3332
 10
114.1550926657209
 20
501.1075174683642
 30
0.0
  0
VERTEX
  5
1E4
  8
FLOORPLATE$T2$3332
 10
122.4550926657209
 20
501.1075174683642
 30
0.0
  0
VERTEX
  5
1E5
  8
FLOORPLATE$T2$3332
 10
122.4550926657209
 20
502.7075174683642
 30
0.0
  0
SEQEND
  5
1E6
  8
FLOORPLATE$T2$3332
  0
POLYLINE
  5
1E7
  8
FLOORPLATE$T2$3332
 66
     1
 10
0.0
 20
0.0
 30
0.0
 70
     1
  0
VERTEX
  5
1E8
  8
FLOORPLATE$T2$3332
 10
132.4550926657209
 20
511.7075174684033
 30
0.0
  0
VERTEX
  5
1E9
  8
FLOORPLATE$T2$3332
 10
124.455092665721
 20
511.7075174684033
 30
0.0
  0
VERTEX
  5
1EA
  8
FLOORPLATE$T2$3332
 10
124.455092665721
 20
517.1075174683642
 30
0.0
  0
VERTEX
  5
1EB
  8
FLOORPLATE$T2$3332
 10
132.4550926657209
 20
517.1075174683642
 30
0.0
  0
SEQEND
  5
1EC
  8
FLOORPLATE$T2$3332
  0
POINT
  5
1ED
  8
FLOORPLATE$T2$3332
 10
129.1550926657207
 20
506.3075174683642
 30
0.0
  0
POLYLINE
  5
1EE
  8
FLOORPLATE$T2$3332
 66
     1
 10
0.0
 20
0.0
 30
0.0
 70
     1
  0
VERTEX
  5
1EF
  8
FLOORPLATE$T2$3332
 10
142.7550926657208
 20
501.1075174683641
 30
0.0
  0
VERTEX
  5
1F0
  8
FLOORPLATE$T2$3332
 10
128.3550926657208
 20
501.1075174683641
 30
0.0
  0
VERTEX
  5
1F1
  8
FLOORPLATE$T2$3332
 10
128.3550926657208
 20
500.6075174683641
 30
0.0
  0
VERTEX
  5
1F2
  8
FLOORPLATE$T2$3332
 10
126.7550926657208
 20
500.6075174683641
 30
0.0
  0
VERTEX
  5
1F3
  8
FLOORPLATE$T2$3332
 10
126.7550926657208
 20
492.3075174683641
 30
0.0
  0
VERTEX
  5
1F4
  8
FLOORPLATE$T2$3332
 10
142.7550926657208
 20
492.3075174683641
 30
0.0
  0
SEQEND
  5
1F5
  8
FLOORPLATE$T2$3332
  0
POLYLINE
  5
1F6
  8
FLOORPLATE$T2$3332
 66
     1
 10
0.0
 20
0.0
 30
0.0
 70
     1
  0
VERTEX
  5
1F7
  8
FLOORPLATE$T2$3332
 10
126.7550926657205
 20
501.1075174683642
 30
0.0
  0
VERTEX
  5
1F8
  8
FLOORPLATE$T2$3332
 10
114.1550926657205
 20
501.1075174683642
 30
0.0
  0
VERTEX
  5
1F9
  8
FLOORPLATE$T2$3332
 10
114.1550926657205
 20
493.1875174683642
 30
0.0
  0
VERTEX
  5
1FA
  8
FLOORPLATE$T2$3332
 10
114.6550926657205
 20
493.1875174683642
 30
0.0
  0
VERTEX
  5
1FB
  8
FLOORPLATE$T2$3332
 10
114.6550926657205
 20
492.3075174683641
 30
0.0
  0
VERTEX
  5
1FC
  8
FLOORPLATE$T2$3332
 10
126.2550926657205
 20
492.3075174683641
 30
0.0
  0
VERTEX
  5
1FD
  8
FLOORPLATE$T2$3332
 10
126.2550926657205
 20
493.1875174683642
 30
0.0
  0
VERTEX
  5
1FE
  8
FLOORPLATE$T2$3332
 10
126.7550926657205
 20
493.1875174683642
 30
0.0
  0
SEQEND
  5
1FF
  8
FLOORPLATE$T2$3332
  0
POLYLINE
  5
200
  8
FLOORPLATE$T2$3332
 66
     1
 10
0.0
 20
0.0
 30
0.0
 70
     1
  0
VERTEX
  5
201
  8
FLOORPLATE$T2$3332
 10
122.9550926657208
 20
502.7075174683642
 30
0.0
  0
VERTEX
  5
202
  8
FLOORPLATE$T2$3332
 10
122.9550926657208
 20
511.7075174683642
 30
0.0
  0
VERTEX
  5
203
  8
FLOORPLATE$T2$3332
 10
133.9550926657207
 20
511.7075174683642
 30
0.0
  0
VERTEX
  5
204
  8
FLOORPLATE$T2$3332
 10
133.9550926657207
 20
502.7075174683642
 30
0.0
  0
VERTEX
  5
205
  8
FLOORPLATE$T2$3332
 10
134.4550926657207
 20
502.7075174683642
 30
0.0
  0
VERTEX
  5
206
  8
FLOORPLATE$T2$3332
 10
134.4550926657207
 20
501.1075174683642
 30
0.0
  0
VERTEX
  5
207
  8
FLOORPLATE$T2$3332
 10
128.3550926657207
 20
501.1075174683642
 30
0.0
  0
VERTEX
  5
208
  8
FLOORPLATE$T2$3332
 10
128.3550926657207
 20
500.6075174683642
 30
0.0
  0
VERTEX
  5
209
  8
FLOORPLATE$T2$3332
 10
126.7550926657207
 20
500.6075174683642
 30
0.0
  0
VERTEX
  5
20A
  8
FLOORPLATE$T2$3332
 10
126.7550926657206
 20
501.1075174683642
 30
0.0
  0
VERTEX
  5
20B
  8
FLOORPLATE$T2$3332
 10
122.4550926657208
 20
501.1075174683642
 30
0.0
  0
VERTEX
  5
20C
  8
FLOORPLATE$T2$3332
 10
122.4550926657208
 20
502.7075174683642
 30
0.0
  0
SEQEND
  5
20D
  8
FLOORPLATE$T2$3332
  0
TEXT
  5
20E
  8
FLOORPLATE$T2$3332
  6
CONTINUOUS
 10
118.8420655843624
 20
508.2755327967614
 30
0.0
 40
1.0
  1
3BED
  0
TEXT
  5
20F
  8
FLOORPLATE$T2$3332
  6
CONTINUOUS
 10
117.6066783318945
 20
495.7087067062354
 30
0.0
 40
1.0
  1
3BED
  0
TEXT
  5
210
  8
FLOORPLATE$T2$3332
  6
CONTINUOUS
 10
136.2334488653103
 20
503.4726093980393
 30
0.0
 40
1.0
  1
2BED
  0
TEXT
  5
211
  8
FLOORPLATE$T2$3332
  6
CONTINUOUS
 10
136.3363293038912
 20
496.1567549271028
 30
0.0
 40
1.0
  1
3BED
  0
POLYLINE
  5
213
  8
FLOORPLATE$T2$3333
 66
     1
 10
0.0
 20
0.0
 30
0.0
 70
     1
  0
VERTEX
  5
214
  8
FLOORPLATE$T2$3333
 10
116.7380926657207
 20
526.4314021159746
 30
0.0
  0
VERTEX
  5
215
  8
FLOORPLATE$T2$3333
 10
128.4050926657207
 20
526.4314021159746
 30
0.0
  0
VERTEX
  5
216
  8
FLOORPLATE$T2$3333
 10
128.4050926657207
 20
523.4314021159746
 30
0.0
  0
VERTEX
  5
217
  8
FLOORPLATE$T2$3333
 10
116.7380926657207
 20
523.4314021159746
 30
0.0
  0
SEQEND
  5
218
  8
FLOORPLATE$T2$3333
  0
POLYLINE
  5
219
  8
FLOORPLATE$T2$3333
 66
     1
 10
0.0
 20
0.0
 30
0.0
 70
     1
  0
VERTEX
  5
21A
  8
FLOORPLATE$T2$3333
 10
114.1550926657207
 20
536.9814021159746
 30
0.0
  0
VERTEX
  5
21B
  8
FLOORPLATE$T2$3333
 10
114.1550926657207
 20
548.6484021159747
 30
0.0
  0
VERTEX
  5
21C
  8
FLOORPLATE$T2$3333
 10
111.1550926657207
 20
548.6484021159747
 30
0.0
  0
VERTEX
  5
21D
  8
FLOORPLATE$T2$3333
 10
111.1550926657207
 20
536.9814021159746
 30
0.0
  0
SEQEND
  5
21E
  8
FLOORPLATE$T2$3333
  0
POLYLINE
  5
21F
  8
FLOORPLATE$T2$3333
 66
     1
 10
0.0
 20
0.0
 30
0.0
 70
     1
  0
VERTEX
  5
220
  8
FLOORPLATE$T2$3333
 10
145.7550926657207
 20
536.9814021159746
 30
0.0
  0
VERTEX
  5
221
  8
FLOORPLATE$T2$3333
 10
142.7550926657207
 20
536.9814021159746
 30
0.0
  0
VERTEX
  5
222
  8
FLOORPLATE$T2$3333
 10
142.7550926657207
 20
548.6484021159747
 30
0.0
  0
VERTEX
  5
223
  8
FLOORPLATE$T2$3333
 10
145.7550926657207
 20
548.6484021159747
 30
0.0
  0
SEQEND
  5
224
  8
FLOORPLATE$T2$3333
  0
POLYLINE
  5
225
  8
FLOORPLATE$T2$3333
 66
     1
 10
0.0
 20
0.0
 30
0.0
 70
     1
  0
VERTEX
  5
226
  8
FLOORPLATE$T2$3333
 10
134.4550926657207
 20
536.8314021159747
 30
0.0
  0
VERTEX
  5
227
  8
FLOORPLATE$T2$3333
 10
133.9550926657207
 20
536.8314021159747
 30
0.0
  0
VERTEX
  5
228
  8
FLOORPLATE$T2$3333
 10
133.9550926657207
 20
551.2314021159746
 30
0.0
  0
VERTEX
  5
229
  8
FLOORPLATE$T2$3333
 10
142.7550926657207
 20
551.2314021159746
 30
0.0
  0
VERTEX
  5
22A
  8
FLOORPLATE$T2$3333
 10
142.7550926657207
 20
535.2314021159746
 30
0.0
  0
VERTEX
  5
22B
  8
FLOORPLATE$T2$3333
 10
134.4550926657207
 20
535.2314021159746
 30
0.0
  0
SEQEND
  5
22C
  8
FLOORPLATE$T2$3333
  0
POLYLINE
  5
22D
  8
FLOORPLATE$T2$3333
 66
     1
 10
0.0
 20
0.0
 30
0.0
 70
     1
  0
VERTEX
  5
22E
  8
FLOORPLATE$T2$3333
 10
131.8717926657209
 20
523.4314021159746
 30
0.0
  0
VERTEX
  5
22F
  8
FLOORPLATE$T2$3333
 10
131.8717926657209
 20
526.4314021159746
 30
0.0
  0
VERTEX
  5
230
  8
FLOORPLATE$T2$3333
 10
141.0383926657209
 20
526.4314021159746
 30
0.0
  0
VERTEX
  5
231
  8
FLOORPLATE$T2$3333
 10
141.0383926657209
 20
523.4314021159746
 30
0.0
  0
SEQEND
  5
232
  8
FLOORPLATE$T2$3333
  0
POLYLINE
  5
233
  8
FLOORPLATE$T2$3333
 66
     1
 10
0.0
 20
0.0
 30
0.0
 70
     1
  0
VERTEX
  5
234
  8
FLOORPLATE$T2$3333
 10
122.9550926657209
 20
536.8314021159747
 30
0.0
  0
VERTEX
  5
235
  8
FLOORPLATE$T2$3333
 10
122.9550926657209
 20
551.2314021159746
 30
0.0
  0
VERTEX
  5
236
  8
FLOORPLATE$T2$3333
 10
114.1550926657209
 20
551.2314021159746
 30
0.0
  0
VERTEX
  5
237
  8
FLOORPLATE$T2$3333
 10
114.1550926657209
 20
535.2314021159746
 30
0.0
  0
VERTEX
  5
238
  8
FLOORPLATE$T2$3333
 10
122.4550926657209
 20
535.2314021159746
 30
0.0
  0
VERTEX
  5
239
  8
FLOORPLATE$T2$3333
 10
122.4550926657209
 20
536.8314021159747
 30
0.0
  0
SEQEND
  5
23A
  8
FLOORPLATE$T2$3333
  0
POLYLINE
  5
23B
  8
FLOORPLATE$T2$3333
 66
     1
 10
0.0
 20
0.0
 30
0.0
 70
     1
  0
VERTEX
  5
23C
  8
FLOORPLATE$T2$3333
 10
132.4550926657209
 20
545.8314021160138
 30
0.0
  0
VERTEX
  5
23D
  8
FLOORPLATE$T2$3333
 10
124.455092665721
 20
545.8314021160138
 30
0.0
  0
VERTEX
  5
23E
  8
FLOORPLATE$T2$3333
 10
124.455092665721
 20
551.2314021159748
 30
0.0
  0
VERTEX
  5
23F
  8
FLOORPLATE$T2$3333
 10
132.4550926657209
 20
551.2314021159748
 30
0.0
  0
SEQEND
  5
240
  8
FLOORPLATE$T2$3333
  0
POINT
  5
241
  8
FLOORPLATE$T2$3333
 10
129.1550926657207
 20
540.4314021159746
 30
0.0
  0
POLYLINE
  5
242
  8
FLOORPLATE$T2$3333
 66
     1
 10
0.0
 20
0.0
 30
0.0
 70
     1
  0
VERTEX
  5
243
  8
FLOORPLATE$T2$3333
 10
142.7550926657208
 20
535.2314021159746
 30
0.0
  0
VERTEX
  5
244
  8
FLOORPLATE$T2$3333
 10
128.3550926657208
 20
535.2314021159746
 30
0.0
  0
VERTEX
  5
245
  8
FLOORPLATE$T2$3333
 10
128.3550926657208
 20
534.7314021159746
 30
0.0
  0
VERTEX
  5
246
  8
FLOORPLATE$T2$3333
 10
126.7550926657208
 20
534.7314021159746
 30
0.0
  0
VERTEX
  5
247
  8
FLOORPLATE$T2$3333
 10
126.7550926657208
 20
526.4314021159746
 30
0.0
  0
VERTEX
  5
248
  8
FLOORPLATE$T2$3333
 10
142.7550926657208
 20
526.4314021159746
 30
0.0
  0
SEQEND
  5
249
  8
FLOORPLATE$T2$3333
  0
POLYLINE
  5
24A
  8
FLOORPLATE$T2$3333
 66
     1
 10
0.0
 20
0.0
 30
0.0
 70
     1
  0
VERTEX
  5
24B
  8
FLOORPLATE$T2$3333
 10
126.7550926657205
 20
535.2314021159746
 30
0.0
  0
VERTEX
  5
24C
  8
FLOORPLATE$T2$3333
 10
114.1550926657205
 20
535.2314021159746
 30
0.0
  0
VERTEX
  5
24D
  8
FLOORPLATE$T2$3333
 10
114.1550926657205
 20
527.3114021159747
 30
0.0
  0
VERTEX
  5
24E
  8
FLOORPLATE$T2$3333
 10
114.6550926657205
 20
527.3114021159747
 30
0.0
  0
VERTEX
  5
24F
  8
FLOORPLATE$T2$3333
 10
114.6550926657205
 20
526.4314021159746
 30
0.0
  0
VERTEX
  5
250
  8
FLOORPLATE$T2$3333
 10
126.2550926657205
 20
526.4314021159746
 30
0.0
  0
VERTEX
  5
251
  8
FLOORPLATE$T2$3333
 10
126.2550926657205
 20
527.3114021159747
 30
0.0
  0
VERTEX
  5
252
  8
FLOORPLATE$T2$3333
 10
126.7550926657205
 20
527.3114021159747
 30
0.0
  0
SEQEND
  5
253
  8
FLOORPLATE$T2$3333
  0
POLYLINE
  5
254
  8
FLOORPLATE$T2$3333
 66
     1
 10
0.0
 20
0.0
 30
0.0
 70
     1
  0
VERTEX
  5
255
  8
FLOORPLATE$T2$3333
 10
122.9550926657208
 20
536.8314021159747
 30
0.0
  0
VERTEX
  5
256
  8
FLOORPLATE$T2$3333
 10
122.9550926657208
 20
545.8314021159747
 30
0.0
  0
VERTEX
  5
257
  8
FLOORPLATE$T2$3333
 10
133.9550926657207
 20
545.8314021159747
 30
0.0
  0
VERTEX
  5
258
  8
FLOORPLATE$T2$3333
 10
133.9550926657207
 20
536.8314021159747
 30
0.0
  0
VERTEX
  5
259
  8
FLOORPLATE$T2$3333
 10
134.4550926657207
 20
536.8314021159747
 30
0.0
  0
VERTEX
  5
25A
  8
FLOORPLATE$T2$3333
 10
134.4550926657207
 20
535.2314021159746
 30
0.0
  0
VERTEX
  5
25B
  8
FLOORPLATE$T2$3333
 10
128.3550926657207
 20
535.2314021159746
 30
0.0
  0
VERTEX
  5
25C
  8
FLOORPLATE$T2$3333
 10
128.3550926657207
 20
534.7314021159746
 30
0.0
  0
VERTEX
  5
25D
  8
FLOORPLATE$T2$3333
 10
126.7550926657207
 20
534.7314021159746
 30
0.0
  0
VERTEX
  5
25E
  8
FLOORPLATE$T2$3333
 10
126.7550926657206
 20
535.2314021159746
 30
0.0
  0
VERTEX
  5
25F
  8
FLOORPLATE$T2$3333
 10
122.4550926657208
 20
535.2314021159746
 30
0.0
  0
VERTEX
  5
260
  8
FLOORPLATE$T2$3333
 10
122.4550926657208
 20
536.8314021159747
 30
0.0
  0
SEQEND
  5
261
  8
FLOORPLATE$T2$3333
  0
TEXT
  5
262
  8
FLOORPLATE$T2$3333
  6
CONTINUOUS
 10
118.8420655843624
 20
542.399417444372
 30
0.0
 40
1.0
  1
3BED
  0
TEXT
  5
263
  8
FLOORPLATE$T2$3333
  6
CONTINUOUS
 10
117.6066783318945
 20
529.8325913538459
 30
0.0
 40
1.0
  1
3BED
  0
TEXT
  5
264
  8
FLOORPLATE$T2$3333
  6
CONTINUOUS
 10
136.3363293038912
 20
530.2806395747133
 30
0.0
 40
1.0
  1
3BED
  0
TEXT
  5
265
  8
FLOORPLATE$T2$3333
  6
CONTINUOUS
 10
136.3363293038912
 20
539.7737503413417
 30
0.0
 40
1.0
  1
3BED
  0
TEXT
  5
267
  8
FLOORPLATE$T2$3322
  6
CONTINUOUS
 10
134.1949957560977
 20
321.0103285974895
 30
0.0
 40
1.0
  1
2BED
  0
TEXT
  5
268
  8
FLOORPLATE$T2$3322
  6
CONTINUOUS
 10
118.8420655843624
 20
321.4990180086205
 30
0.0
 40
1.0
  1
3BED
  0
TEXT
  5
269
  8
FLOORPLATE$T2$3322
  6
CONTINUOUS
 10
136.6324160880699
 20
329.4771571190769
 30
0.0
 40
1.0
  1
2BED
  0
TEXT
  5
26A
  8
FLOORPLATE$T2$3322
  6
CONTINUOUS
 10
117.9440686199517
 20
331.1447882591988
 30
0.0
 40
1.0
  1
3BED
  0
POLYLINE
  5
26B
  8
FLOORPLATE$T2$3322
 66
     1
 10
0.0
 20
0.0
 30
0.0
 70
     1
  0
VERTEX
  5
26C
  8
FLOORPLATE$T2$3322
 10
122.9550926657208
 20
327.8807765709186
 30
0.0
  0
VERTEX
  5
26D
  8
FLOORPLATE$T2$3322
 10
122.9550926657208
 20
336.8807765709186
 30
0.0
  0
VERTEX
  5
26E
  8
FLOORPLATE$T2$3322
 10
133.9550926657207
 20
336.8807765709186
 30
0.0
  0
VERTEX
  5
26F
  8
FLOORPLATE$T2$3322
 10
133.9550926657207
 20
327.8807765709186
 30
0.0
  0
VERTEX
  5
270
  8
FLOORPLATE$T2$3322
 10
134.4550926657207
 20
327.8807765709186
 30
0.0
  0
VERTEX
  5
271
  8
FLOORPLATE$T2$3322
 10
134.4550926657207
 20
326.2807765709185
 30
0.0
  0
VERTEX
  5
272
  8
FLOORPLATE$T2$3322
 10
128.3550926657207
 20
326.2807765709185
 30
0.0
  0
VERTEX
  5
273
  8
FLOORPLATE$T2$3322
 10
128.3550926657207
 20
325.7807765709185
 30
0.0
  0
VERTEX
  5
274
  8
FLOORPLATE$T2$3322
 10
126.7550926657207
 20
325.7807765709185
 30
0.0
  0
VERTEX
  5
275
  8
FLOORPLATE$T2$3322
 10
126.7550926657206
 20
326.2807765709185
 30
0.0
  0
VERTEX
  5
276
  8
FLOORPLATE$T2$3322
 10
122.4550926657208
 20
326.2807765709185
 30
0.0
  0
VERTEX
  5
277
  8
FLOORPLATE$T2$3322
 10
122.4550926657208
 20
327.8807765709186
 30
0.0
  0
SEQEND
  5
278
  8
FLOORPLATE$T2$3322
  0
POLYLINE
  5
279
  8
FLOORPLATE$T2$3322
 66
     1
 10
0.0
 20
0.0
 30
0.0
 70
     1
  0
VERTEX
  5
27A
  8
FLOORPLATE$T2$3322
 10
126.7550926657205
 20
326.2807765709185
 30
0.0
  0
VERTEX
  5
27B
  8
FLOORPLATE$T2$3322
 10
114.1550926657205
 20
326.2807765709185
 30
0.0
  0
VERTEX
  5
27C
  8
FLOORPLATE$T2$3322
 10
114.1550926657205
 20
318.3607765709185
 30
0.0
  0
VERTEX
  5
27D
  8
FLOORPLATE$T2$3322
 10
114.6550926657205
 20
318.3607765709185
 30
0.0
  0
VERTEX
  5
27E
  8
FLOORPLATE$T2$3322
 10
114.6550926657205
 20
317.4807765709185
 30
0.0
  0
VERTEX
  5
27F
  8
FLOORPLATE$T2$3322
 10
126.2550926657205
 20
317.4807765709185
 30
0.0
  0
VERTEX
  5
280
  8
FLOORPLATE$T2$3322
 10
126.2550926657205
 20
318.3607765709185
 30
0.0
  0
VERTEX
  5
281
  8
FLOORPLATE$T2$3322
 10
126.7550926657205
 20
318.3607765709185
 30
0.0
  0
SEQEND
  5
282
  8
FLOORPLATE$T2$3322
  0
POLYLINE
  5
283
  8
FLOORPLATE$T2$3322
 66
     1
 10
0.0
 20
0.0
 30
0.0
 70
     1
  0
VERTEX
  5
284
  8
FLOORPLATE$T2$3322
 10
142.7550926657208
 20
326.2807765709185
 30
0.0
  0
VERTEX
  5
285
  8
FLOORPLATE$T2$3322
 10
128.3550926657208
 20
326.2807765709185
 30
0.0
  0
VERTEX
  5
286
  8
FLOORPLATE$T2$3322
 10
128.3550926657208
 20
325.7807765709185
 30
0.0
  0
VERTEX
  5
287
  8
FLOORPLATE$T2$3322
 10
126.7550926657208
 20
325.7807765709185
 30
0.0
  0
VERTEX
  5
288
  8
FLOORPLATE$T2$3322
 10
126.7550926657208
 20
317.4807765709185
 30
0.0
  0
VERTEX
  5
289
  8
FLOORPLATE$T2$3322
 10
142.7550926657208
 20
317.4807765709185
 30
0.0
  0
SEQEND
  5
28A
  8
FLOORPLATE$T2$3322
  0
POINT
  5
28B
  8
FLOORPLATE$T2$3322
 10
129.1550926657207
 20
331.4807765709186
 30
0.0
  0
POLYLINE
  5
28C
  8
FLOORPLATE$T2$3322
 66
     1
 10
0.0
 20
0.0
 30
0.0
 70
     1
  0
VERTEX
  5
28D
  8
FLOORPLATE$T2$3322
 10
132.4550926657209
 20
336.8807765709576
 30
0.0
  0
VERTEX
  5
28E
  8
FLOORPLATE$T2$3322
 10
124.455092665721
 20
336.8807765709576
 30
0.0
  0
VERTEX
  5
28F
  8
FLOORPLATE$T2$3322
 10
124.455092665721
 20
342.2807765709186
 30
0.0
  0
VERTEX
  5
290
  8
FLOORPLATE$T2$3322
 10
132.4550926657209
 20
342.2807765709186
 30
0.0
  0
SEQEND
  5
291
  8
FLOORPLATE$T2$3322
  0
POLYLINE
  5
292
  8
FLOORPLATE$T2$3322
 66
     1
 10
0.0
 20
0.0
 30
0.0
 70
     1
  0
VERTEX
  5
293
  8
FLOORPLATE$T2$3322
 10
122.9550926657209
 20
327.8807765709186
 30
0.0
  0
VERTEX
  5
294
  8
FLOORPLATE$T2$3322
 10
122.9550926657209
 20
342.2807765709185
 30
0.0
  0
VERTEX
  5
295
  8
FLOORPLATE$T2$3322
 10
114.1550926657209
 20
342.2807765709185
 30
0.0
  0
VERTEX
  5
296
  8
FLOORPLATE$T2$3322
 10
114.1550926657209
 20
326.2807765709185
 30
0.0
  0
VERTEX
  5
297
  8
FLOORPLATE$T2$3322
 10
122.4550926657209
 20
326.2807765709185
 30
0.0
  0
VERTEX
  5
298
  8
FLOORPLATE$T2$3322
 10
122.4550926657209
 20
327.8807765709186
 30
0.0
  0
SEQEND
  5
299
  8
FLOORPLATE$T2$3322
  0
POLYLINE
  5
29A
  8
FLOORPLATE$T2$3322
 66
     1
 10
0.0
 20
0.0
 30
0.0
 70
     1
  0
VERTEX
  5
29B
  8
FLOORPLATE$T2$3322
 10
131.8717926657209
 20
314.4807765709185
 30
0.0
  0
VERTEX
  5
29C
  8
FLOORPLATE$T2$3322
 10
131.8717926657209
 20
317.4807765709185
 30
0.0
  0
VERTEX
  5
29D
  8
FLOORPLATE$T2$3322
 10
141.0383926657209
 20
317.4807765709185
 30
0.0
  0
VERTEX
  5
29E
  8
FLOORPLATE$T2$3322
 10
141.0383926657209
 20
314.4807765709185
 30
0.0
  0
SEQEND
  5
29F
  8
FLOORPLATE$T2$3322
  0
POLYLINE
  5
2A0
  8
FLOORPLATE$T2$3322
 66
     1
 10
0.0
 20
0.0
 30
0.0
 70
     1
  0
VERTEX
  5
2A1
  8
FLOORPLATE$T2$3322
 10
134.4550926657207
 20
327.8807765709186
 30
0.0
  0
VERTEX
  5
2A2
  8
FLOORPLATE$T2$3322
 10
133.9550926657207
 20
327.8807765709186
 30
0.0
  0
VERTEX
  5
2A3
  8
FLOORPLATE$T2$3322
 10
133.9550926657207
 20
342.2807765709185
 30
0.0
  0
VERTEX
  5
2A4
  8
FLOORPLATE$T2$3322
 10
142.7550926657207
 20
342.2807765709185
 30
0.0
  0
VERTEX
  5
2A5
  8
FLOORPLATE$T2$3322
 10
142.7550926657207
 20
326.2807765709185
 30
0.0
  0
VERTEX
  5
2A6
  8
FLOORPLATE$T2$3322
 10
134.4550926657207
 20
326.2807765709185
 30
0.0
  0
SEQEND
  5
2A7
  8
FLOORPLATE$T2$3322
  0
POLYLINE
  5
2A8
  8
FLOORPLATE$T2$3322
 66
     1
 10
0.0
 20
0.0
 30
0.0
 70
     1
  0
VERTEX
  5
2A9
  8
FLOORPLATE$T2$3322
 10
145.7550926657207
 20
328.0307765709185
 30
0.0
  0
VERTEX
  5
2AA
  8
FLOORPLATE$T2$3322
 10
142.7550926657207
 20
328.0307765709185
 30
0.0
  0
VERTEX
  5
2AB
  8
FLOORPLATE$T2$3322
 10
142.7550926657207
 20
339.6977765709185
 30
0.0
  0
VERTEX
  5
2AC
  8
FLOORPLATE$T2$3322
 10
145.7550926657207
 20
339.6977765709185
 30
0.0
  0
SEQEND
  5
2AD
  8
FLOORPLATE$T2$3322
  0
POLYLINE
  5
2AE
  8
FLOORPLATE$T2$3322
 66
     1
 10
0.0
 20
0.0
 30
0.0
 70
     1
  0
VERTEX
  5
2AF
  8
FLOORPLATE$T2$3322
 10
114.1550926657207
 20
328.0307765709185
 30
0.0
  0
VERTEX
  5
2B0
  8
FLOORPLATE$T2$3322
 10
114.1550926657207
 20
339.6977765709185
 30
0.0
  0
VERTEX
  5
2B1
  8
FLOORPLATE$T2$3322
 10
111.1550926657207
 20
339.6977765709185
 30
0.0
  0
VERTEX
  5
2B2
  8
FLOORPLATE$T2$3322
 10
111.1550926657207
 20
328.0307765709185
 30
0.0
  0
SEQEND
  5
2B3
  8
FLOORPLATE$T2$3322
  0
POLYLINE
  5
2B4
  8
FLOORPLATE$T2$3322
 66
     1
 10
0.0
 20
0.0
 30
0.0
 70
     1
  0
VERTEX
  5
2B5
  8
FLOORPLATE$T2$3322
 10
116.7380926657207
 20
317.4807765709185
 30
0.0
  0
VERTEX
  5
2B6
  8
FLOORPLATE$T2$3322
 10
128.4050926657207
 20
317.4807765709185
 30
0.0
  0
VERTEX
  5
2B7
  8
FLOORPLATE$T2$3322
 10
128.4050926657207
 20
314.4807765709185
 30
0.0
  0
VERTEX
  5
2B8
  8
FLOORPLATE$T2$3322
 10
116.7380926657207
 20
314.4807765709185
 30
0.0
  0
SEQEND
  5
2B9
  8
FLOORPLATE$T2$3322
  0
TEXT
  5
2BB
  8
FLOORPLATE$T2$3232
  6
CONTINUOUS
 10
136.288863750058
 20
286.9728560612563
 30
0.0
 40
1.0
  1
3BED
  0
TEXT
  5
2BC
  8
FLOORPLATE$T2$3232
  6
CONTINUOUS
 10
136.6324160880699
 20
294.9509951717127
 30
0.0
 40
1.0
  1
2BED
  0
TEXT
  5
2BD
  8
FLOORPLATE$T2$3232
  6
CONTINUOUS
 10
117.9440686199517
 20
296.6186263118346
 30
0.0
 40
1.0
  1
3BED
  0
TEXT
  5
2BE
  8
FLOORPLATE$T2$3232
  6
CONTINUOUS
 10
116.7481975904022
 20
289.4347281046179
 30
0.0
 40
1.0
  1
2BED
  0
POLYLINE
  5
2BF
  8
FLOORPLATE$T2$3232
 66
     1
 10
0.0
 20
0.0
 30
0.0
 70
     1
  0
VERTEX
  5
2C0
  8
FLOORPLATE$T2$3232
 10
122.9550926657208
 20
293.3546146235544
 30
0.0
  0
VERTEX
  5
2C1
  8
FLOORPLATE$T2$3232
 10
122.9550926657208
 20
302.3546146235544
 30
0.0
  0
VERTEX
  5
2C2
  8
FLOORPLATE$T2$3232
 10
133.9550926657207
 20
302.3546146235544
 30
0.0
  0
VERTEX
  5
2C3
  8
FLOORPLATE$T2$3232
 10
133.9550926657207
 20
293.3546146235544
 30
0.0
  0
VERTEX
  5
2C4
  8
FLOORPLATE$T2$3232
 10
134.4550926657207
 20
293.3546146235544
 30
0.0
  0
VERTEX
  5
2C5
  8
FLOORPLATE$T2$3232
 10
134.4550926657207
 20
291.7546146235543
 30
0.0
  0
VERTEX
  5
2C6
  8
FLOORPLATE$T2$3232
 10
128.3550926657207
 20
291.7546146235543
 30
0.0
  0
VERTEX
  5
2C7
  8
FLOORPLATE$T2$3232
 10
128.3550926657207
 20
291.2546146235543
 30
0.0
  0
VERTEX
  5
2C8
  8
FLOORPLATE$T2$3232
 10
126.7550926657207
 20
291.2546146235543
 30
0.0
  0
VERTEX
  5
2C9
  8
FLOORPLATE$T2$3232
 10
126.7550926657206
 20
291.7546146235543
 30
0.0
  0
VERTEX
  5
2CA
  8
FLOORPLATE$T2$3232
 10
122.4550926657208
 20
291.7546146235543
 30
0.0
  0
VERTEX
  5
2CB
  8
FLOORPLATE$T2$3232
 10
122.4550926657208
 20
293.3546146235544
 30
0.0
  0
SEQEND
  5
2CC
  8
FLOORPLATE$T2$3232
  0
POLYLINE
  5
2CD
  8
FLOORPLATE$T2$3232
 66
     1
 10
0.0
 20
0.0
 30
0.0
 70
     1
  0
VERTEX
  5
2CE
  8
FLOORPLATE$T2$3232
 10
126.7550926657205
 20
291.7546146235543
 30
0.0
  0
VERTEX
  5
2CF
  8
FLOORPLATE$T2$3232
 10
114.1550926657205
 20
291.7546146235543
 30
0.0
  0
VERTEX
  5
2D0
  8
FLOORPLATE$T2$3232
 10
114.1550926657205
 20
283.8346146235543
 30
0.0
  0
VERTEX
  5
2D1
  8
FLOORPLATE$T2$3232
 10
114.6550926657205
 20
283.8346146235543
 30
0.0
  0
VERTEX
  5
2D2
  8
FLOORPLATE$T2$3232
 10
114.6550926657205
 20
282.9546146235543
 30
0.0
  0
VERTEX
  5
2D3
  8
FLOORPLATE$T2$3232
 10
126.2550926657205
 20
282.9546146235543
 30
0.0
  0
VERTEX
  5
2D4
  8
FLOORPLATE$T2$3232
 10
126.2550926657205
 20
283.8346146235543
 30
0.0
  0
VERTEX
  5
2D5
  8
FLOORPLATE$T2$3232
 10
126.7550926657205
 20
283.8346146235543
 30
0.0
  0
SEQEND
  5
2D6
  8
FLOORPLATE$T2$3232
  0
POLYLINE
  5
2D7
  8
FLOORPLATE$T2$3232
 66
     1
 10
0.0
 20
0.0
 30
0.0
 70
     1
  0
VERTEX
  5
2D8
  8
FLOORPLATE$T2$3232
 10
142.7550926657208
 20
291.7546146235543
 30
0.0
  0
VERTEX
  5
2D9
  8
FLOORPLATE$T2$3232
 10
128.3550926657208
 20
291.7546146235543
 30
0.0
  0
VERTEX
  5
2DA
  8
FLOORPLATE$T2$3232
 10
128.3550926657208
 20
291.2546146235543
 30
0.0
  0
VERTEX
  5
2DB
  8
FLOORPLATE$T2$3232
 10
126.7550926657208
 20
291.2546146235543
 30
0.0
  0
VERTEX
  5
2DC
  8
FLOORPLATE$T2$3232
 10
126.7550926657208
 20
282.9546146235543
 30
0.0
  0
VERTEX
  5
2DD
  8
FLOORPLATE$T2$3232
 10
142.7550926657208
 20
282.9546146235543
 30
0.0
  0
SEQEND
  5
2DE
  8
FLOORPLATE$T2$3232
  0
POINT
  5
2DF
  8
FLOORPLATE$T2$3232
 10
129.1550926657207
 20
296.9546146235544
 30
0.0
  0
POLYLINE
  5
2E0
  8
FLOORPLATE$T2$3232
 66
     1
 10
0.0
 20
0.0
 30
0.0
 70
     1
  0
VERTEX
  5
2E1
  8
FLOORPLATE$T2$3232
 10
132.4550926657209
 20
302.3546146235934
 30
0.0
  0
VERTEX
  5
2E2
  8
FLOORPLATE$T2$3232
 10
124.455092665721
 20
302.3546146235934
 30
0.0
  0
VERTEX
  5
2E3
  8
FLOORPLATE$T2$3232
 10
124.455092665721
 20
307.7546146235544
 30
0.0
  0
VERTEX
  5
2E4
  8
FLOORPLATE$T2$3232
 10
132.4550926657209
 20
307.7546146235544
 30
0.0
  0
SEQEND
  5
2E5
  8
FLOORPLATE$T2$3232
  0
POLYLINE
  5
2E6
  8
FLOORPLATE$T2$3232
 66
     1
 10
0.0
 20
0.0
 30
0.0
 70
     1
  0
VERTEX
  5
2E7
  8
FLOORPLATE$T2$3232
 10
122.9550926657209
 20
293.3546146235544
 30
0.0
  0
VERTEX
  5
2E8
  8
FLOORPLATE$T2$3232
 10
122.9550926657209
 20
307.7546146235543
 30
0.0
  0
VERTEX
  5
2E9
  8
FLOORPLATE$T2$3232
 10
114.1550926657209
 20
307.7546146235543
 30
0.0
  0
VERTEX
  5
2EA
  8
FLOORPLATE$T2$3232
 10
114.1550926657209
 20
291.7546146235543
 30
0.0
  0
VERTEX
  5
2EB
  8
FLOORPLATE$T2$3232
 10
122.4550926657209
 20
291.7546146235543
 30
0.0
  0
VERTEX
  5
2EC
  8
FLOORPLATE$T2$3232
 10
122.4550926657209
 20
293.3546146235544
 30
0.0
  0
SEQEND
  5
2ED
  8
FLOORPLATE$T2$3232
  0
POLYLINE
  5
2EE
  8
FLOORPLATE$T2$3232
 66
     1
 10
0.0
 20
0.0
 30
0.0
 70
     1
  0
VERTEX
  5
2EF
  8
FLOORPLATE$T2$3232
 10
131.8717926657209
 20
279.9546146235543
 30
0.0
  0
VERTEX
  5
2F0
  8
FLOORPLATE$T2$3232
 10
131.8717926657209
 20
282.9546146235543
 30
0.0
  0
VERTEX
  5
2F1
  8
FLOORPLATE$T2$3232
 10
141.0383926657209
 20
282.9546146235543
 30
0.0
  0
VERTEX
  5
2F2
  8
FLOORPLATE$T2$3232
 10
141.0383926657209
 20
279.9546146235543
 30
0.0
  0
SEQEND
  5
2F3
  8
FLOORPLATE$T2$3232
  0
POLYLINE
  5
2F4
  8
FLOORPLATE$T2$3232
 66
     1
 10
0.0
 20
0.0
 30
0.0
 70
     1
  0
VERTEX
  5
2F5
  8
FLOORPLATE$T2$3232
 10
134.4550926657207
 20
293.3546146235544
 30
0.0
  0
VERTEX
  5
2F6
  8
FLOORPLATE$T2$3232
 10
133.9550926657207
 20
293.3546146235544
 30
0.0
  0
VERTEX
  5
2F7
  8
FLOORPLATE$T2$3232
 10
133.9550926657207
 20
307.7546146235543
 30
0.0
  0
VERTEX
  5
2F8
  8
FLOORPLATE$T2$3232
 10
142.7550926657207
 20
307.7546146235543
 30
0.0
  0
VERTEX
  5
2F9
  8
FLOORPLATE$T2$3232
 10
142.7550926657207
 20
291.7546146235543
 30
0.0
  0
VERTEX
  5
2FA
  8
FLOORPLATE$T2$3232
 10
134.4550926657207
 20
291.7546146235543
 30
0.0
  0
SEQEND
  5
2FB
  8
FLOORPLATE$T2$3232
  0
POLYLINE
  5
2FC
  8
FLOORPLATE$T2$3232
 66
     1
 10
0.0
 20
0.0
 30
0.0
 70
     1
  0
VERTEX
  5
2FD
  8
FLOORPLATE$T2$3232
 10
145.7550926657207
 20
293.5046146235543
 30
0.0
  0
VERTEX
  5
2FE
  8
FLOORPLATE$T2$3232
 10
142.7550926657207
 20
293.5046146235543
 30
0.0
  0
VERTEX
  5
2FF
  8
FLOORPLATE$T2$3232
 10
142.7550926657207
 20
305.1716146235543
 30
0.0
  0
VERTEX
  5
300
  8
FLOORPLATE$T2$3232
 10
145.7550926657207
 20
305.1716146235543
 30
0.0
  0
SEQEND
  5
301
  8
FLOORPLATE$T2$3232
  0
POLYLINE
  5
302
  8
FLOORPLATE$T2$3232
 66
     1
 10
0.0
 20
0.0
 30
0.0
 70
     1
  0
VERTEX
  5
303
  8
FLOORPLATE$T2$3232
 10
114.1550926657207
 20
293.5046146235543
 30
0.0
  0
VERTEX
  5
304
  8
FLOORPLATE$T2$3232
 10
114.1550926657207
 20
305.1716146235543
 30
0.0
  0
VERTEX
  5
305
  8
FLOORPLATE$T2$3232
 10
111.1550926657207
 20
305.1716146235543
 30
0.0
  0
VERTEX
  5
306
  8
FLOORPLATE$T2$3232
 10
111.1550926657207
 20
293.5046146235543
 30
0.0
  0
SEQEND
  5
307
  8
FLOORPLATE$T2$3232
  0
POLYLINE
  5
308
  8
FLOORPLATE$T2$3232
 66
     1
 10
0.0
 20
0.0
 30
0.0
 70
     1
  0
VERTEX
  5
309
  8
FLOORPLATE$T2$3232
 10
116.7380926657207
 20
282.9546146235543
 30
0.0
  0
VERTEX
  5
30A
  8
FLOORPLATE$T2$3232
 10
128.4050926657207
 20
282.9546146235543
 30
0.0
  0
VERTEX
  5
30B
  8
FLOORPLATE$T2$3232
 10
128.4050926657207
 20
279.9546146235543
 30
0.0
  0
VERTEX
  5
30C
  8
FLOORPLATE$T2$3232
 10
116.7380926657207
 20
279.9546146235543
 30
0.0
  0
SEQEND
  5
30D
  8
FLOORPLATE$T2$3232
  0
TEXT
  5
30F
  8
FLOORPLATE$T2$3223
  6
CONTINUOUS
 10
117.9440686199517
 20
261.7757105851369
 30
0.0
 40
1.0
  1
3BED
  0
TEXT
  5
310
  8
FLOORPLATE$T2$3223
  6
CONTINUOUS
 10
116.7481975904022
 20
254.5918123779202
 30
0.0
 40
1.0
  1
2BED
  0
TEXT
  5
311
  8
FLOORPLATE$T2$3223
  6
CONTINUOUS
 10
129.961581495304
 20
251.7695362040576
 30
0.0
 40
1.0
  1
2BED
  0
TEXT
  5
312
  8
FLOORPLATE$T2$3223
  6
CONTINUOUS
 10
136.288863750058
 20
262.5210480655978
 30
0.0
 40
1.0
  1
3BED
  0
POLYLINE
  5
313
  8
FLOORPLATE$T2$3223
 66
     1
 10
0.0
 20
0.0
 30
0.0
 70
     1
  0
VERTEX
  5
314
  8
FLOORPLATE$T2$3223
 10
122.9550926657208
 20
258.5116988968566
 30
0.0
  0
VERTEX
  5
315
  8
FLOORPLATE$T2$3223
 10
122.9550926657208
 20
267.5116988968566
 30
0.0
  0
VERTEX
  5
316
  8
FLOORPLATE$T2$3223
 10
133.9550926657207
 20
267.5116988968566
 30
0.0
  0
VERTEX
  5
317
  8
FLOORPLATE$T2$3223
 10
133.9550926657207
 20
258.5116988968566
 30
0.0
  0
VERTEX
  5
318
  8
FLOORPLATE$T2$3223
 10
134.4550926657207
 20
258.5116988968566
 30
0.0
  0
VERTEX
  5
319
  8
FLOORPLATE$T2$3223
 10
134.4550926657207
 20
256.9116988968566
 30
0.0
  0
VERTEX
  5
31A
  8
FLOORPLATE$T2$3223
 10
128.3550926657207
 20
256.9116988968566
 30
0.0
  0
VERTEX
  5
31B
  8
FLOORPLATE$T2$3223
 10
128.3550926657207
 20
256.4116988968566
 30
0.0
  0
VERTEX
  5
31C
  8
FLOORPLATE$T2$3223
 10
126.7550926657207
 20
256.4116988968566
 30
0.0
  0
VERTEX
  5
31D
  8
FLOORPLATE$T2$3223
 10
126.7550926657206
 20
256.9116988968566
 30
0.0
  0
VERTEX
  5
31E
  8
FLOORPLATE$T2$3223
 10
122.4550926657208
 20
256.9116988968566
 30
0.0
  0
VERTEX
  5
31F
  8
FLOORPLATE$T2$3223
 10
122.4550926657208
 20
258.5116988968566
 30
0.0
  0
SEQEND
  5
320
  8
FLOORPLATE$T2$3223
  0
POLYLINE
  5
321
  8
FLOORPLATE$T2$3223
 66
     1
 10
0.0
 20
0.0
 30
0.0
 70
     1
  0
VERTEX
  5
322
  8
FLOORPLATE$T2$3223
 10
126.7550926657205
 20
256.9116988968566
 30
0.0
  0
VERTEX
  5
323
  8
FLOORPLATE$T2$3223
 10
114.1550926657205
 20
256.9116988968566
 30
0.0
  0
VERTEX
  5
324
  8
FLOORPLATE$T2$3223
 10
114.1550926657205
 20
248.9916988968566
 30
0.0
  0
VERTEX
  5
325
  8
FLOORPLATE$T2$3223
 10
114.6550926657205
 20
248.9916988968566
 30
0.0
  0
VERTEX
  5
326
  8
FLOORPLATE$T2$3223
 10
114.6550926657205
 20
248.1116988968566
 30
0.0
  0
VERTEX
  5
327
  8
FLOORPLATE$T2$3223
 10
126.2550926657205
 20
248.1116988968566
 30
0.0
  0
VERTEX
  5
328
  8
FLOORPLATE$T2$3223
 10
126.2550926657205
 20
248.9916988968566
 30
0.0
  0
VERTEX
  5
329
  8
FLOORPLATE$T2$3223
 10
126.7550926657205
 20
248.9916988968566
 30
0.0
  0
SEQEND
  5
32A
  8
FLOORPLATE$T2$3223
  0
POLYLINE
  5
32B
  8
FLOORPLATE$T2$3223
 66
     1
 10
0.0
 20
0.0
 30
0.0
 70
     1
  0
VERTEX
  5
32C
  8
FLOORPLATE$T2$3223
 10
142.7550926657208
 20
256.9116988968565
 30
0.0
  0
VERTEX
  5
32D
  8
FLOORPLATE$T2$3223
 10
128.3550926657208
 20
256.9116988968565
 30
0.0
  0
VERTEX
  5
32E
  8
FLOORPLATE$T2$3223
 10
128.3550926657208
 20
256.4116988968565
 30
0.0
  0
VERTEX
  5
32F
  8
FLOORPLATE$T2$3223
 10
126.7550926657208
 20
256.4116988968565
 30
0.0
  0
VERTEX
  5
330
  8
FLOORPLATE$T2$3223
 10
126.7550926657208
 20
248.1116988968566
 30
0.0
  0
VERTEX
  5
331
  8
FLOORPLATE$T2$3223
 10
142.7550926657208
 20
248.1116988968566
 30
0.0
  0
SEQEND
  5
332
  8
FLOORPLATE$T2$3223
  0
POINT
  5
333
  8
FLOORPLATE$T2$3223
 10
129.1550926657207
 20
262.1116988968566
 30
0.0
  0
POLYLINE
  5
334
  8
FLOORPLATE$T2$3223
 66
     1
 10
0.0
 20
0.0
 30
0.0
 70
     1
  0
VERTEX
  5
335
  8
FLOORPLATE$T2$3223
 10
132.4550926657209
 20
267.5116988968957
 30
0.0
  0
VERTEX
  5
336
  8
FLOORPLATE$T2$3223
 10
124.455092665721
 20
267.5116988968957
 30
0.0
  0
VERTEX
  5
337
  8
FLOORPLATE$T2$3223
 10
124.455092665721
 20
272.9116988968566
 30
0.0
  0
VERTEX
  5
338
  8
FLOORPLATE$T2$3223
 10
132.4550926657209
 20
272.9116988968566
 30
0.0
  0
SEQEND
  5
339
  8
FLOORPLATE$T2$3223
  0
POLYLINE
  5
33A
  8
FLOORPLATE$T2$3223
 66
     1
 10
0.0
 20
0.0
 30
0.0
 70
     1
  0
VERTEX
  5
33B
  8
FLOORPLATE$T2$3223
 10
122.9550926657209
 20
258.5116988968566
 30
0.0
  0
VERTEX
  5
33C
  8
FLOORPLATE$T2$3223
 10
122.9550926657209
 20
272.9116988968566
 30
0.0
  0
VERTEX
  5
33D
  8
FLOORPLATE$T2$3223
 10
114.1550926657209
 20
272.9116988968566
 30
0.0
  0
VERTEX
  5
33E
  8
FLOORPLATE$T2$3223
 10
114.1550926657209
 20
256.9116988968566
 30
0.0
  0
VERTEX
  5
33F
  8
FLOORPLATE$T2$3223
 10
122.4550926657209
 20
256.9116988968566
 30
0.0
  0
VERTEX
  5
340
  8
FLOORPLATE$T2$3223
 10
122.4550926657209
 20
258.5116988968566
 30
0.0
  0
SEQEND
  5
341
  8
FLOORPLATE$T2$3223
  0
POLYLINE
  5
342
  8
FLOORPLATE$T2$3223
 66
     1
 10
0.0
 20
0.0
 30
0.0
 70
     1
  0
VERTEX
  5
343
  8
FLOORPLATE$T2$3223
 10
131.8717926657209
 20
245.1116988968566
 30
0.0
  0
VERTEX
  5
344
  8
FLOORPLATE$T2$3223
 10
131.8717926657209
 20
248.1116988968566
 30
0.0
  0
VERTEX
  5
345
  8
FLOORPLATE$T2$3223
 10
141.0383926657209
 20
248.1116988968566
 30
0.0
  0
VERTEX
  5
346
  8
FLOORPLATE$T2$3223
 10
141.0383926657209
 20
245.1116988968566
 30
0.0
  0
SEQEND
  5
347
  8
FLOORPLATE$T2$3223
  0
POLYLINE
  5
348
  8
FLOORPLATE$T2$3223
 66
     1
 10
0.0
 20
0.0
 30
0.0
 70
     1
  0
VERTEX
  5
349
  8
FLOORPLATE$T2$3223
 10
134.4550926657207
 20
258.5116988968566
 30
0.0
  0
VERTEX
  5
34A
  8
FLOORPLATE$T2$3223
 10
133.9550926657207
 20
258.5116988968566
 30
0.0
  0
VERTEX
  5
34B
  8
FLOORPLATE$T2$3223
 10
133.9550926657207
 20
272.9116988968566
 30
0.0
  0
VERTEX
  5
34C
  8
FLOORPLATE$T2$3223
 10
142.7550926657207
 20
272.9116988968566
 30
0.0
  0
VERTEX
  5
34D
  8
FLOORPLATE$T2$3223
 10
142.7550926657207
 20
256.9116988968566
 30
0.0
  0
VERTEX
  5
34E
  8
FLOORPLATE$T2$3223
 10
134.4550926657207
 20
256.9116988968566
 30
0.0
  0
SEQEND
  5
34F
  8
FLOORPLATE$T2$3223
  0
POLYLINE
  5
350
  8
FLOORPLATE$T2$3223
 66
     1
 10
0.0
 20
0.0
 30
0.0
 70
     1
  0
VERTEX
  5
351
  8
FLOORPLATE$T2$3223
 10
145.7550926657207
 20
258.6616988968566
 30
0.0
  0
VERTEX
  5
352
  8
FLOORPLATE$T2$3223
 10
142.7550926657207
 20
258.6616988968566
 30
0.0
  0
VERTEX
  5
353
  8
FLOORPLATE$T2$3223
 10
142.7550926657207
 20
270.3286988968566
 30
0.0
  0
VERTEX
  5
354
  8
FLOORPLATE$T2$3223
 10
145.7550926657207
 20
270.3286988968566
 30
0.0
  0
SEQEND
  5
355
  8
FLOORPLATE$T2$3223
  0
POLYLINE
  5
356
  8
FLOORPLATE$T2$3223
 66
     1
 10
0.0
 20
0.0
 30
0.0
 70
     1
  0
VERTEX
  5
357
  8
FLOORPLATE$T2$3223
 10
114.1550926657207
 20
258.6616988968566
 30
0.0
  0
VERTEX
  5
358
  8
FLOORPLATE$T2$3223
 10
114.1550926657207
 20
270.3286988968566
 30
0.0
  0
VERTEX
  5
359
  8
FLOORPLATE$T2$3223
 10
111.1550926657207
 20
270.3286988968566
 30
0.0
  0
VERTEX
  5
35A
  8
FLOORPLATE$T2$3223
 10
111.1550926657207
 20
258.6616988968566
 30
0.0
  0
SEQEND
  5
35B
  8
FLOORPLATE$T2$3223
  0
POLYLINE
  5
35C
  8
FLOORPLATE$T2$3223
 66
     1
 10
0.0
 20
0.0
 30
0.0
 70
     1
  0
VERTEX
  5
35D
  8
FLOORPLATE$T2$3223
 10
116.7380926657207
 20
248.1116988968566
 30
0.0
  0
VERTEX
  5
35E
  8
FLOORPLATE$T2$3223
 10
128.4050926657207
 20
248.1116988968566
 30
0.0
  0
VERTEX
  5
35F
  8
FLOORPLATE$T2$3223
 10
128.4050926657207
 20
245.1116988968566
 30
0.0
  0
VERTEX
  5
360
  8
FLOORPLATE$T2$3223
 10
116.7380926657207
 20
245.1116988968566
 30
0.0
  0
SEQEND
  5
361
  8
FLOORPLATE$T2$3223
  0
TEXT
  5
363
  8
FLOORPLATE$T2$2323
  6
CONTINUOUS
 10
117.9440686199517
 20
216.0490567897264
 30
0.0
 40
1.0
  1
3BED
  0
TEXT
  5
364
  8
FLOORPLATE$T2$2323
  6
CONTINUOUS
 10
129.961581495304
 20
215.7925637365359
 30
0.0
 40
1.0
  1
2BED
  0
TEXT
  5
365
  8
FLOORPLATE$T2$2323
  6
CONTINUOUS
 10
136.288863750058
 20
226.5440755980761
 30
0.0
 40
1.0
  1
3BED
  0
TEXT
  5
366
  8
FLOORPLATE$T2$2323
  6
CONTINUOUS
 10
116.7481975904022
 20
224.900818661274
 30
0.0
 40
1.0
  1
2BED
  0
POLYLINE
  5
367
  8
FLOORPLATE$T2$2323
 66
     1
 10
0.0
 20
0.0
 30
0.0
 70
     1
  0
VERTEX
  5
368
  8
FLOORPLATE$T2$2323
 10
122.9550926657208
 20
222.5347264293349
 30
0.0
  0
VERTEX
  5
369
  8
FLOORPLATE$T2$2323
 10
122.9550926657208
 20
231.5347264293349
 30
0.0
  0
VERTEX
  5
36A
  8
FLOORPLATE$T2$2323
 10
133.9550926657207
 20
231.5347264293349
 30
0.0
  0
VERTEX
  5
36B
  8
FLOORPLATE$T2$2323
 10
133.9550926657207
 20
222.5347264293349
 30
0.0
  0
VERTEX
  5
36C
  8
FLOORPLATE$T2$2323
 10
134.4550926657207
 20
222.5347264293349
 30
0.0
  0
VERTEX
  5
36D
  8
FLOORPLATE$T2$2323
 10
134.4550926657207
 20
220.9347264293348
 30
0.0
  0
VERTEX
  5
36E
  8
FLOORPLATE$T2$2323
 10
128.3550926657207
 20
220.9347264293348
 30
0.0
  0
VERTEX
  5
36F
  8
FLOORPLATE$T2$2323
 10
128.3550926657207
 20
220.4347264293348
 30
0.0
  0
VERTEX
  5
370
  8
FLOORPLATE$T2$2323
 10
126.7550926657207
 20
220.4347264293348
 30
0.0
  0
VERTEX
  5
371
  8
FLOORPLATE$T2$2323
 10
126.7550926657206
 20
220.9347264293348
 30
0.0
  0
VERTEX
  5
372
  8
FLOORPLATE$T2$2323
 10
122.4550926657208
 20
220.9347264293348
 30
0.0
  0
VERTEX
  5
373
  8
FLOORPLATE$T2$2323
 10
122.4550926657208
 20
222.5347264293349
 30
0.0
  0
SEQEND
  5
374
  8
FLOORPLATE$T2$2323
  0
POLYLINE
  5
375
  8
FLOORPLATE$T2$2323
 66
     1
 10
0.0
 20
0.0
 30
0.0
 70
     1
  0
VERTEX
  5
376
  8
FLOORPLATE$T2$2323
 10
126.7550926657205
 20
220.9347264293348
 30
0.0
  0
VERTEX
  5
377
  8
FLOORPLATE$T2$2323
 10
114.1550926657205
 20
220.9347264293348
 30
0.0
  0
VERTEX
  5
378
  8
FLOORPLATE$T2$2323
 10
114.1550926657205
 20
213.0147264293348
 30
0.0
  0
VERTEX
  5
379
  8
FLOORPLATE$T2$2323
 10
114.6550926657205
 20
213.0147264293348
 30
0.0
  0
VERTEX
  5
37A
  8
FLOORPLATE$T2$2323
 10
114.6550926657205
 20
212.1347264293348
 30
0.0
  0
VERTEX
  5
37B
  8
FLOORPLATE$T2$2323
 10
126.2550926657205
 20
212.1347264293348
 30
0.0
  0
VERTEX
  5
37C
  8
FLOORPLATE$T2$2323
 10
126.2550926657205
 20
213.0147264293348
 30
0.0
  0
VERTEX
  5
37D
  8
FLOORPLATE$T2$2323
 10
126.7550926657205
 20
213.0147264293348
 30
0.0
  0
SEQEND
  5
37E
  8
FLOORPLATE$T2$2323
  0
POLYLINE
  5
37F
  8
FLOORPLATE$T2$2323
 66
     1
 10
0.0
 20
0.0
 30
0.0
 70
     1
  0
VERTEX
  5
380
  8
FLOORPLATE$T2$2323
 10
142.7550926657208
 20
220.9347264293348
 30
0.0
  0
VERTEX
  5
381
  8
FLOORPLATE$T2$2323
 10
128.3550926657208
 20
220.9347264293348
 30
0.0
  0
VERTEX
  5
382
  8
FLOORPLATE$T2$2323
 10
128.3550926657208
 20
220.4347264293348
 30
0.0
  0
VERTEX
  5
383
  8
FLOORPLATE$T2$2323
 10
126.7550926657208
 20
220.4347264293348
 30
0.0
  0
VERTEX
  5
384
  8
FLOORPLATE$T2$2323
 10
126.7550926657208
 20
212.1347264293348
 30
0.0
  0
VERTEX
  5
385
  8
FLOORPLATE$T2$2323
 10
142.7550926657208
 20
212.1347264293348
 30
0.0
  0
SEQEND
  5
386
  8
FLOORPLATE$T2$2323
  0
POINT
  5
387
  8
FLOORPLATE$T2$2323
 10
129.1550926657207
 20
226.1347264293349
 30
0.0
  0
POLYLINE
  5
388
  8
FLOORPLATE$T2$2323
 66
     1
 10
0.0
 20
0.0
 30
0.0
 70
     1
  0
VERTEX
  5
389
  8
FLOORPLATE$T2$2323
 10
132.4550926657209
 20
231.5347264293739
 30
0.0
  0
VERTEX
  5
38A
  8
FLOORPLATE$T2$2323
 10
124.455092665721
 20
231.5347264293739
 30
0.0
  0
VERTEX
  5
38B
  8
FLOORPLATE$T2$2323
 10
124.455092665721
 20
236.9347264293349
 30
0.0
  0
VERTEX
  5
38C
  8
FLOORPLATE$T2$2323
 10
132.4550926657209
 20
236.9347264293349
 30
0.0
  0
SEQEND
  5
38D
  8
FLOORPLATE$T2$2323
  0
POLYLINE
  5
38E
  8
FLOORPLATE$T2$2323
 66
     1
 10
0.0
 20
0.0
 30
0.0
 70
     1
  0
VERTEX
  5
38F
  8
FLOORPLATE$T2$2323
 10
122.9550926657209
 20
222.5347264293349
 30
0.0
  0
VERTEX
  5
390
  8
FLOORPLATE$T2$2323
 10
122.9550926657209
 20
236.9347264293348
 30
0.0
  0
VERTEX
  5
391
  8
FLOORPLATE$T2$2323
 10
114.1550926657209
 20
236.9347264293348
 30
0.0
  0
VERTEX
  5
392
  8
FLOORPLATE$T2$2323
 10
114.1550926657209
 20
220.9347264293348
 30
0.0
  0
VERTEX
  5
393
  8
FLOORPLATE$T2$2323
 10
122.4550926657209
 20
220.9347264293348
 30
0.0
  0
VERTEX
  5
394
  8
FLOORPLATE$T2$2323
 10
122.4550926657209
 20
222.5347264293349
 30
0.0
  0
SEQEND
  5
395
  8
FLOORPLATE$T2$2323
  0
POLYLINE
  5
396
  8
FLOORPLATE$T2$2323
 66
     1
 10
0.0
 20
0.0
 30
0.0
 70
     1
  0
VERTEX
  5
397
  8
FLOORPLATE$T2$2323
 10
131.8717926657209
 20
209.1347264293348
 30
0.0
  0
VERTEX
  5
398
  8
FLOORPLATE$T2$2323
 10
131.8717926657209
 20
212.1347264293348
 30
0.0
  0
VERTEX
  5
399
  8
FLOORPLATE$T2$2323
 10
141.0383926657209
 20
212.1347264293348
 30
0.0
  0
VERTEX
  5
39A
  8
FLOORPLATE$T2$2323
 10
141.0383926657209
 20
209.1347264293348
 30
0.0
  0
SEQEND
  5
39B
  8
FLOORPLATE$T2$2323
  0
POLYLINE
  5
39C
  8
FLOORPLATE$T2$2323
 66
     1
 10
0.0
 20
0.0
 30
0.0
 70
     1
  0
VERTEX
  5
39D
  8
FLOORPLATE$T2$2323
 10
134.4550926657207
 20
222.5347264293349
 30
0.0
  0
VERTEX
  5
39E
  8
FLOORPLATE$T2$2323
 10
133.9550926657207
 20
222.5347264293349
 30
0.0
  0
VERTEX
  5
39F
  8
FLOORPLATE$T2$2323
 10
133.9550926657207
 20
236.9347264293348
 30
0.0
  0
VERTEX
  5
3A0
  8
FLOORPLATE$T2$2323
 10
142.7550926657207
 20
236.9347264293348
 30
0.0
  0
VERTEX
  5
3A1
  8
FLOORPLATE$T2$2323
 10
142.7550926657207
 20
220.9347264293348
 30
0.0
  0
VERTEX
  5
3A2
  8
FLOORPLATE$T2$2323
 10
134.4550926657207
 20
220.9347264293348
 30
0.0
  0
SEQEND
  5
3A3
  8
FLOORPLATE$T2$2323
  0
POLYLINE
  5
3A4
  8
FLOORPLATE$T2$2323
 66
     1
 10
0.0
 20
0.0
 30
0.0
 70
     1
  0
VERTEX
  5
3A5
  8
FLOORPLATE$T2$2323
 10
145.7550926657207
 20
222.6847264293348
 30
0.0
  0
VERTEX
  5
3A6
  8
FLOORPLATE$T2$2323
 10
142.7550926657207
 20
222.6847264293348
 30
0.0
  0
VERTEX
  5
3A7
  8
FLOORPLATE$T2$2323
 10
142.7550926657207
 20
234.3517264293348
 30
0.0
  0
VERTEX
  5
3A8
  8
FLOORPLATE$T2$2323
 10
145.7550926657207
 20
234.3517264293348
 30
0.0
  0
SEQEND
  5
3A9
  8
FLOORPLATE$T2$2323
  0
POLYLINE
  5
3AA
  8
FLOORPLATE$T2$2323
 66
     1
 10
0.0
 20
0.0
 30
0.0
 70
     1
  0
VERTEX
  5
3AB
  8
FLOORPLATE$T2$2323
 10
114.1550926657207
 20
222.6847264293348
 30
0.0
  0
VERTEX
  5
3AC
  8
FLOORPLATE$T2$2323
 10
114.1550926657207
 20
234.3517264293348
 30
0.0
  0
VERTEX
  5
3AD
  8
FLOORPLATE$T2$2323
 10
111.1550926657207
 20
234.3517264293348
 30
0.0
  0
VERTEX
  5
3AE
  8
FLOORPLATE$T2$2323
 10
111.1550926657207
 20
222.6847264293348
 30
0.0
  0
SEQEND
  5
3AF
  8
FLOORPLATE$T2$2323
  0
POLYLINE
  5
3B0
  8
FLOORPLATE$T2$2323
 66
     1
 10
0.0
 20
0.0
 30
0.0
 70
     1
  0
VERTEX
  5
3B1
  8
FLOORPLATE$T2$2323
 10
116.7380926657207
 20
212.1347264293348
 30
0.0
  0
VERTEX
  5
3B2
  8
FLOORPLATE$T2$2323
 10
128.4050926657207
 20
212.1347264293348
 30
0.0
  0
VERTEX
  5
3B3
  8
FLOORPLATE$T2$2323
 10
128.4050926657207
 20
209.1347264293348
 30
0.0
  0
VERTEX
  5
3B4
  8
FLOORPLATE$T2$2323
 10
116.7380926657207
 20
209.1347264293348
 30
0.0
  0
SEQEND
  5
3B5
  8
FLOORPLATE$T2$2323
  0
TEXT
  5
3B7
  8
FLOORPLATE$T2$2233
  6
CONTINUOUS
 10
136.288863750058
 20
187.6341977663541
 30
0.0
 40
1.0
  1
3BED
  0
TEXT
  5
3B8
  8
FLOORPLATE$T2$2233
  6
CONTINUOUS
 10
136.288863750058
 20
177.1391789580045
 30
0.0
 40
1.0
  1
3BED
  0
TEXT
  5
3B9
  8
FLOORPLATE$T2$2233
  6
CONTINUOUS
 10
116.7481975904022
 20
185.990940829552
 30
0.0
 40
1.0
  1
2BED
  0
TEXT
  5
3BA
  8
FLOORPLATE$T2$2233
  6
CONTINUOUS
 10
116.7481975904022
 20
176.8826859048139
 30
0.0
 40
1.0
  1
2BED
  0
POLYLINE
  5
3BB
  8
FLOORPLATE$T2$2233
 66
     1
 10
0.0
 20
0.0
 30
0.0
 70
     1
  0
VERTEX
  5
3BC
  8
FLOORPLATE$T2$2233
 10
122.9550926657208
 20
183.6248485976129
 30
0.0
  0
VERTEX
  5
3BD
  8
FLOORPLATE$T2$2233
 10
122.9550926657208
 20
192.6248485976129
 30
0.0
  0
VERTEX
  5
3BE
  8
FLOORPLATE$T2$2233
 10
133.9550926657207
 20
192.6248485976129
 30
0.0
  0
VERTEX
  5
3BF
  8
FLOORPLATE$T2$2233
 10
133.9550926657207
 20
183.6248485976129
 30
0.0
  0
VERTEX
  5
3C0
  8
FLOORPLATE$T2$2233
 10
134.4550926657207
 20
183.6248485976129
 30
0.0
  0
VERTEX
  5
3C1
  8
FLOORPLATE$T2$2233
 10
134.4550926657207
 20
182.0248485976129
 30
0.0
  0
VERTEX
  5
3C2
  8
FLOORPLATE$T2$2233
 10
128.3550926657207
 20
182.0248485976129
 30
0.0
  0
VERTEX
  5
3C3
  8
FLOORPLATE$T2$2233
 10
128.3550926657207
 20
181.5248485976129
 30
0.0
  0
VERTEX
  5
3C4
  8
FLOORPLATE$T2$2233
 10
126.7550926657207
 20
181.5248485976129
 30
0.0
  0
VERTEX
  5
3C5
  8
FLOORPLATE$T2$2233
 10
126.7550926657206
 20
182.0248485976129
 30
0.0
  0
VERTEX
  5
3C6
  8
FLOORPLATE$T2$2233
 10
122.4550926657208
 20
182.0248485976129
 30
0.0
  0
VERTEX
  5
3C7
  8
FLOORPLATE$T2$2233
 10
122.4550926657208
 20
183.6248485976129
 30
0.0
  0
SEQEND
  5
3C8
  8
FLOORPLATE$T2$2233
  0
POLYLINE
  5
3C9
  8
FLOORPLATE$T2$2233
 66
     1
 10
0.0
 20
0.0
 30
0.0
 70
     1
  0
VERTEX
  5
3CA
  8
FLOORPLATE$T2$2233
 10
126.7550926657205
 20
182.0248485976129
 30
0.0
  0
VERTEX
  5
3CB
  8
FLOORPLATE$T2$2233
 10
114.1550926657205
 20
182.0248485976129
 30
0.0
  0
VERTEX
  5
3CC
  8
FLOORPLATE$T2$2233
 10
114.1550926657205
 20
174.1048485976129
 30
0.0
  0
VERTEX
  5
3CD
  8
FLOORPLATE$T2$2233
 10
114.6550926657205
 20
174.1048485976129
 30
0.0
  0
VERTEX
  5
3CE
  8
FLOORPLATE$T2$2233
 10
114.6550926657205
 20
173.2248485976129
 30
0.0
  0
VERTEX
  5
3CF
  8
FLOORPLATE$T2$2233
 10
126.2550926657205
 20
173.2248485976129
 30
0.0
  0
VERTEX
  5
3D0
  8
FLOORPLATE$T2$2233
 10
126.2550926657205
 20
174.1048485976129
 30
0.0
  0
VERTEX
  5
3D1
  8
FLOORPLATE$T2$2233
 10
126.7550926657205
 20
174.1048485976129
 30
0.0
  0
SEQEND
  5
3D2
  8
FLOORPLATE$T2$2233
  0
POLYLINE
  5
3D3
  8
FLOORPLATE$T2$2233
 66
     1
 10
0.0
 20
0.0
 30
0.0
 70
     1
  0
VERTEX
  5
3D4
  8
FLOORPLATE$T2$2233
 10
142.7550926657208
 20
182.0248485976128
 30
0.0
  0
VERTEX
  5
3D5
  8
FLOORPLATE$T2$2233
 10
128.3550926657208
 20
182.0248485976128
 30
0.0
  0
VERTEX
  5
3D6
  8
FLOORPLATE$T2$2233
 10
128.3550926657208
 20
181.5248485976128
 30
0.0
  0
VERTEX
  5
3D7
  8
FLOORPLATE$T2$2233
 10
126.7550926657208
 20
181.5248485976128
 30
0.0
  0
VERTEX
  5
3D8
  8
FLOORPLATE$T2$2233
 10
126.7550926657208
 20
173.2248485976129
 30
0.0
  0
VERTEX
  5
3D9
  8
FLOORPLATE$T2$2233
 10
142.7550926657208
 20
173.2248485976129
 30
0.0
  0
SEQEND
  5
3DA
  8
FLOORPLATE$T2$2233
  0
POINT
  5
3DB
  8
FLOORPLATE$T2$2233
 10
129.1550926657207
 20
187.2248485976129
 30
0.0
  0
POLYLINE
  5
3DC
  8
FLOORPLATE$T2$2233
 66
     1
 10
0.0
 20
0.0
 30
0.0
 70
     1
  0
VERTEX
  5
3DD
  8
FLOORPLATE$T2$2233
 10
132.4550926657209
 20
192.624848597652
 30
0.0
  0
VERTEX
  5
3DE
  8
FLOORPLATE$T2$2233
 10
124.455092665721
 20
192.624848597652
 30
0.0
  0
VERTEX
  5
3DF
  8
FLOORPLATE$T2$2233
 10
124.455092665721
 20
198.024848597613
 30
0.0
  0
VERTEX
  5
3E0
  8
FLOORPLATE$T2$2233
 10
132.4550926657209
 20
198.024848597613
 30
0.0
  0
SEQEND
  5
3E1
  8
FLOORPLATE$T2$2233
  0
POLYLINE
  5
3E2
  8
FLOORPLATE$T2$2233
 66
     1
 10
0.0
 20
0.0
 30
0.0
 70
     1
  0
VERTEX
  5
3E3
  8
FLOORPLATE$T2$2233
 10
122.9550926657209
 20
183.6248485976129
 30
0.0
  0
VERTEX
  5
3E4
  8
FLOORPLATE$T2$2233
 10
122.9550926657209
 20
198.0248485976129
 30
0.0
  0
VERTEX
  5
3E5
  8
FLOORPLATE$T2$2233
 10
114.1550926657209
 20
198.0248485976129
 30
0.0
  0
VERTEX
  5
3E6
  8
FLOORPLATE$T2$2233
 10
114.1550926657209
 20
182.0248485976129
 30
0.0
  0
VERTEX
  5
3E7
  8
FLOORPLATE$T2$2233
 10
122.4550926657209
 20
182.0248485976129
 30
0.0
  0
VERTEX
  5
3E8
  8
FLOORPLATE$T2$2233
 10
122.4550926657209
 20
183.6248485976129
 30
0.0
  0
SEQEND
  5
3E9
  8
FLOORPLATE$T2$2233
  0
POLYLINE
  5
3EA
  8
FLOORPLATE$T2$2233
 66
     1
 10
0.0
 20
0.0
 30
0.0
 70
     1
  0
VERTEX
  5
3EB
  8
FLOORPLATE$T2$2233
 10
131.8717926657209
 20
170.2248485976129
 30
0.0
  0
VERTEX
  5
3EC
  8
FLOORPLATE$T2$2233
 10
131.8717926657209
 20
173.2248485976129
 30
0.0
  0
VERTEX
  5
3ED
  8
FLOORPLATE$T2$2233
 10
141.0383926657209
 20
173.2248485976129
 30
0.0
  0
VERTEX
  5
3EE
  8
FLOORPLATE$T2$2233
 10
141.0383926657209
 20
170.2248485976129
 30
0.0
  0
SEQEND
  5
3EF
  8
FLOORPLATE$T2$2233
  0
POLYLINE
  5
3F0
  8
FLOORPLATE$T2$2233
 66
     1
 10
0.0
 20
0.0
 30
0.0
 70
     1
  0
VERTEX
  5
3F1
  8
FLOORPLATE$T2$2233
 10
134.4550926657207
 20
183.6248485976129
 30
0.0
  0
VERTEX
  5
3F2
  8
FLOORPLATE$T2$2233
 10
133.9550926657207
 20
183.6248485976129
 30
0.0
  0
VERTEX
  5
3F3
  8
FLOORPLATE$T2$2233
 10
133.9550926657207
 20
198.0248485976129
 30
0.0
  0
VERTEX
  5
3F4
  8
FLOORPLATE$T2$2233
 10
142.7550926657207
 20
198.0248485976129
 30
0.0
  0
VERTEX
  5
3F5
  8
FLOORPLATE$T2$2233
 10
142.7550926657207
 20
182.0248485976129
 30
0.0
  0
VERTEX
  5
3F6
  8
FLOORPLATE$T2$2233
 10
134.4550926657207
 20
182.0248485976129
 30
0.0
  0
SEQEND
  5
3F7
  8
FLOORPLATE$T2$2233
  0
POLYLINE
  5
3F8
  8
FLOORPLATE$T2$2233
 66
     1
 10
0.0
 20
0.0
 30
0.0
 70
     1
  0
VERTEX
  5
3F9
  8
FLOORPLATE$T2$2233
 10
145.7550926657207
 20
183.7748485976129
 30
0.0
  0
VERTEX
  5
3FA
  8
FLOORPLATE$T2$2233
 10
142.7550926657207
 20
183.7748485976129
 30
0.0
  0
VERTEX
  5
3FB
  8
FLOORPLATE$T2$2233
 10
142.7550926657207
 20
195.4418485976129
 30
0.0
  0
VERTEX
  5
3FC
  8
FLOORPLATE$T2$2233
 10
145.7550926657207
 20
195.4418485976129
 30
0.0
  0
SEQEND
  5
3FD
  8
FLOORPLATE$T2$2233
  0
POLYLINE
  5
3FE
  8
FLOORPLATE$T2$2233
 66
     1
 10
0.0
 20
0.0
 30
0.0
 70
     1
  0
VERTEX
  5
3FF
  8
FLOORPLATE$T2$2233
 10
114.1550926657207
 20
183.7748485976129
 30
0.0
  0
VERTEX
  5
400
  8
FLOORPLATE$T2$2233
 10
114.1550926657207
 20
195.4418485976129
 30
0.0
  0
VERTEX
  5
401
  8
FLOORPLATE$T2$2233
 10
111.1550926657207
 20
195.4418485976129
 30
0.0
  0
VERTEX
  5
402
  8
FLOORPLATE$T2$2233
 10
111.1550926657207
 20
183.7748485976129
 30
0.0
  0
SEQEND
  5
403
  8
FLOORPLATE$T2$2233
  0
POLYLINE
  5
404
  8
FLOORPLATE$T2$2233
 66
     1
 10
0.0
 20
0.0
 30
0.0
 70
     1
  0
VERTEX
  5
405
  8
FLOORPLATE$T2$2233
 10
116.7380926657207
 20
173.2248485976129
 30
0.0
  0
VERTEX
  5
406
  8
FLOORPLATE$T2$2233
 10
128.4050926657207
 20
173.2248485976129
 30
0.0
  0
VERTEX
  5
407
  8
FLOORPLATE$T2$2233
 10
128.4050926657207
 20
170.2248485976129
 30
0.0
  0
VERTEX
  5
408
  8
FLOORPLATE$T2$2233
 10
116.7380926657207
 20
170.2248485976129
 30
0.0
  0
SEQEND
  5
409
  8
FLOORPLATE$T2$2233
  0
TEXT
  5
40B
  8
FLOORPLATE$T2$3222
  6
CONTINUOUS
 10
116.7481975904022
 20
141.2478857297822
 30
0.0
 40
1.0
  1
2BED
  0
TEXT
  5
40C
  8
FLOORPLATE$T2$3222
  6
CONTINUOUS
 10
117.4309274974312
 20
149.0986035072101
 30
0.0
 40
1.0
  1
3BED
  0
TEXT
  5
40D
  8
FLOORPLATE$T2$3222
  6
CONTINUOUS
 10
133.9873570494282
 20
142.6474781414567
 30
0.0
 40
1.0
  1
2BED
  0
TEXT
  5
40E
  8
FLOORPLATE$T2$3222
  6
CONTINUOUS
 10
135.5561025835833
 20
148.8051716117022
 30
0.0
 40
1.0
  1
2BED
  0
POLYLINE
  5
40F
  8
FLOORPLATE$T2$3222
 66
     1
 10
0.0
 20
0.0
 30
0.0
 70
     1
  0
VERTEX
  5
410
  8
FLOORPLATE$T2$3222
 10
122.9550926657208
 20
147.9900484225812
 30
0.0
  0
VERTEX
  5
411
  8
FLOORPLATE$T2$3222
 10
122.9550926657208
 20
156.9900484225812
 30
0.0
  0
VERTEX
  5
412
  8
FLOORPLATE$T2$3222
 10
133.9550926657207
 20
156.9900484225812
 30
0.0
  0
VERTEX
  5
413
  8
FLOORPLATE$T2$3222
 10
133.9550926657207
 20
147.9900484225812
 30
0.0
  0
VERTEX
  5
414
  8
FLOORPLATE$T2$3222
 10
134.4550926657207
 20
147.9900484225812
 30
0.0
  0
VERTEX
  5
415
  8
FLOORPLATE$T2$3222
 10
134.4550926657207
 20
146.3900484225812
 30
0.0
  0
VERTEX
  5
416
  8
FLOORPLATE$T2$3222
 10
128.3550926657207
 20
146.3900484225812
 30
0.0
  0
VERTEX
  5
417
  8
FLOORPLATE$T2$3222
 10
128.3550926657207
 20
145.8900484225812
 30
0.0
  0
VERTEX
  5
418
  8
FLOORPLATE$T2$3222
 10
126.7550926657207
 20
145.8900484225812
 30
0.0
  0
VERTEX
  5
419
  8
FLOORPLATE$T2$3222
 10
126.7550926657206
 20
146.3900484225812
 30
0.0
  0
VERTEX
  5
41A
  8
FLOORPLATE$T2$3222
 10
122.4550926657208
 20
146.3900484225812
 30
0.0
  0
VERTEX
  5
41B
  8
FLOORPLATE$T2$3222
 10
122.4550926657208
 20
147.9900484225812
 30
0.0
  0
SEQEND
  5
41C
  8
FLOORPLATE$T2$3222
  0
POLYLINE
  5
41D
  8
FLOORPLATE$T2$3222
 66
     1
 10
0.0
 20
0.0
 30
0.0
 70
     1
  0
VERTEX
  5
41E
  8
FLOORPLATE$T2$3222
 10
126.7550926657205
 20
146.3900484225812
 30
0.0
  0
VERTEX
  5
41F
  8
FLOORPLATE$T2$3222
 10
114.1550926657205
 20
146.3900484225812
 30
0.0
  0
VERTEX
  5
420
  8
FLOORPLATE$T2$3222
 10
114.1550926657205
 20
138.4700484225812
 30
0.0
  0
VERTEX
  5
421
  8
FLOORPLATE$T2$3222
 10
114.6550926657205
 20
138.4700484225812
 30
0.0
  0
VERTEX
  5
422
  8
FLOORPLATE$T2$3222
 10
114.6550926657205
 20
137.5900484225812
 30
0.0
  0
VERTEX
  5
423
  8
FLOORPLATE$T2$3222
 10
126.2550926657205
 20
137.5900484225812
 30
0.0
  0
VERTEX
  5
424
  8
FLOORPLATE$T2$3222
 10
126.2550926657205
 20
138.4700484225812
 30
0.0
  0
VERTEX
  5
425
  8
FLOORPLATE$T2$3222
 10
126.7550926657205
 20
138.4700484225812
 30
0.0
  0
SEQEND
  5
426
  8
FLOORPLATE$T2$3222
  0
POLYLINE
  5
427
  8
FLOORPLATE$T2$3222
 66
     1
 10
0.0
 20
0.0
 30
0.0
 70
     1
  0
VERTEX
  5
428
  8
FLOORPLATE$T2$3222
 10
142.7550926657208
 20
146.3900484225811
 30
0.0
  0
VERTEX
  5
429
  8
FLOORPLATE$T2$3222
 10
128.3550926657208
 20
146.3900484225811
 30
0.0
  0
VERTEX
  5
42A
  8
FLOORPLATE$T2$3222
 10
128.3550926657208
 20
145.8900484225811
 30
0.0
  0
VERTEX
  5
42B
  8
FLOORPLATE$T2$3222
 10
126.7550926657208
 20
145.8900484225811
 30
0.0
  0
VERTEX
  5
42C
  8
FLOORPLATE$T2$3222
 10
126.7550926657208
 20
137.5900484225812
 30
0.0
  0
VERTEX
  5
42D
  8
FLOORPLATE$T2$3222
 10
142.7550926657208
 20
137.5900484225812
 30
0.0
  0
SEQEND
  5
42E
  8
FLOORPLATE$T2$3222
  0
POINT
  5
42F
  8
FLOORPLATE$T2$3222
 10
129.1550926657207
 20
151.5900484225812
 30
0.0
  0
POLYLINE
  5
430
  8
FLOORPLATE$T2$3222
 66
     1
 10
0.0
 20
0.0
 30
0.0
 70
     1
  0
VERTEX
  5
431
  8
FLOORPLATE$T2$3222
 10
132.4550926657209
 20
156.9900484226202
 30
0.0
  0
VERTEX
  5
432
  8
FLOORPLATE$T2$3222
 10
124.455092665721
 20
156.9900484226202
 30
0.0
  0
VERTEX
  5
433
  8
FLOORPLATE$T2$3222
 10
124.455092665721
 20
162.3900484225812
 30
0.0
  0
VERTEX
  5
434
  8
FLOORPLATE$T2$3222
 10
132.4550926657209
 20
162.3900484225812
 30
0.0
  0
SEQEND
  5
435
  8
FLOORPLATE$T2$3222
  0
POLYLINE
  5
436
  8
FLOORPLATE$T2$3222
 66
     1
 10
0.0
 20
0.0
 30
0.0
 70
     1
  0
VERTEX
  5
437
  8
FLOORPLATE$T2$3222
 10
122.9550926657209
 20
147.9900484225812
 30
0.0
  0
VERTEX
  5
438
  8
FLOORPLATE$T2$3222
 10
122.9550926657209
 20
162.3900484225812
 30
0.0
  0
VERTEX
  5
439
  8
FLOORPLATE$T2$3222
 10
114.1550926657209
 20
162.3900484225812
 30
0.0
  0
VERTEX
  5
43A
  8
FLOORPLATE$T2$3222
 10
114.1550926657209
 20
146.3900484225812
 30
0.0
  0
VERTEX
  5
43B
  8
FLOORPLATE$T2$3222
 10
122.4550926657209
 20
146.3900484225812
 30
0.0
  0
VERTEX
  5
43C
  8
FLOORPLATE$T2$3222
 10
122.4550926657209
 20
147.9900484225812
 30
0.0
  0
SEQEND
  5
43D
  8
FLOORPLATE$T2$3222
  0
POLYLINE
  5
43E
  8
FLOORPLATE$T2$3222
 66
     1
 10
0.0
 20
0.0
 30
0.0
 70
     1
  0
VERTEX
  5
43F
  8
FLOORPLATE$T2$3222
 10
131.8717926657209
 20
134.5900484225812
 30
0.0
  0
VERTEX
  5
440
  8
FLOORPLATE$T2$3222
 10
131.8717926657209
 20
137.5900484225812
 30
0.0
  0
VERTEX
  5
441
  8
FLOORPLATE$T2$3222
 10
141.0383926657209
 20
137.5900484225812
 30
0.0
  0
VERTEX
  5
442
  8
FLOORPLATE$T2$3222
 10
141.0383926657209
 20
134.5900484225812
 30
0.0
  0
SEQEND
  5
443
  8
FLOORPLATE$T2$3222
  0
POLYLINE
  5
444
  8
FLOORPLATE$T2$3222
 66
     1
 10
0.0
 20
0.0
 30
0.0
 70
     1
  0
VERTEX
  5
445
  8
FLOORPLATE$T2$3222
 10
134.4550926657207
 20
147.9900484225812
 30
0.0
  0
VERTEX
  5
446
  8
FLOORPLATE$T2$3222
 10
133.9550926657207
 20
147.9900484225812
 30
0.0
  0
VERTEX
  5
447
  8
FLOORPLATE$T2$3222
 10
133.9550926657207
 20
162.3900484225812
 30
0.0
  0
VERTEX
  5
448
  8
FLOORPLATE$T2$3222
 10
142.7550926657207
 20
162.3900484225812
 30
0.0
  0
VERTEX
  5
449
  8
FLOORPLATE$T2$3222
 10
142.7550926657207
 20
146.3900484225812
 30
0.0
  0
VERTEX
  5
44A
  8
FLOORPLATE$T2$3222
 10
134.4550926657207
 20
146.3900484225812
 30
0.0
  0
SEQEND
  5
44B
  8
FLOORPLATE$T2$3222
  0
POLYLINE
  5
44C
  8
FLOORPLATE$T2$3222
 66
     1
 10
0.0
 20
0.0
 30
0.0
 70
     1
  0
VERTEX
  5
44D
  8
FLOORPLATE$T2$3222
 10
145.7550926657207
 20
148.1400484225812
 30
0.0
  0
VERTEX
  5
44E
  8
FLOORPLATE$T2$3222
 10
142.7550926657207
 20
148.1400484225812
 30
0.0
  0
VERTEX
  5
44F
  8
FLOORPLATE$T2$3222
 10
142.7550926657207
 20
159.8070484225811
 30
0.0
  0
VERTEX
  5
450
  8
FLOORPLATE$T2$3222
 10
145.7550926657207
 20
159.8070484225811
 30
0.0
  0
SEQEND
  5
451
  8
FLOORPLATE$T2$3222
  0
POLYLINE
  5
452
  8
FLOORPLATE$T2$3222
 66
     1
 10
0.0
 20
0.0
 30
0.0
 70
     1
  0
VERTEX
  5
453
  8
FLOORPLATE$T2$3222
 10
114.1550926657207
 20
148.1400484225812
 30
0.0
  0
VERTEX
  5
454
  8
FLOORPLATE$T2$3222
 10
114.1550926657207
 20
159.8070484225811
 30
0.0
  0
VERTEX
  5
455
  8
FLOORPLATE$T2$3222
 10
111.1550926657207
 20
159.8070484225811
 30
0.0
  0
VERTEX
  5
456
  8
FLOORPLATE$T2$3222
 10
111.1550926657207
 20
148.1400484225812
 30
0.0
  0
SEQEND
  5
457
  8
FLOORPLATE$T2$3222
  0
POLYLINE
  5
458
  8
FLOORPLATE$T2$3222
 66
     1
 10
0.0
 20
0.0
 30
0.0
 70
     1
  0
VERTEX
  5
459
  8
FLOORPLATE$T2$3222
 10
116.7380926657207
 20
137.5900484225812
 30
0.0
  0
VERTEX
  5
45A
  8
FLOORPLATE$T2$3222
 10
128.4050926657207
 20
137.5900484225812
 30
0.0
  0
VERTEX
  5
45B
  8
FLOORPLATE$T2$3222
 10
128.4050926657207
 20
134.5900484225812
 30
0.0
  0
VERTEX
  5
45C
  8
FLOORPLATE$T2$3222
 10
116.7380926657207
 20
134.5900484225812
 30
0.0
  0
SEQEND
  5
45D
  8
FLOORPLATE$T2$3222
  0
TEXT
  5
45F
  8
FLOORPLATE$T2$2322
  6
CONTINUOUS
 10
133.9873570494282
 20
109.335466597455
 30
0.0
 40
1.0
  1
2BED
  0
TEXT
  5
460
  8
FLOORPLATE$T2$2322
  6
CONTINUOUS
 10
118.5854950231022
 20
108.8591868091823
 30
0.0
 40
1.0
  1
3BED
  0
TEXT
  5
461
  8
FLOORPLATE$T2$2322
  6
CONTINUOUS
 10
135.5561025835833
 20
115.4931600677005
 30
0.0
 40
1.0
  1
2BED
  0
POLYLINE
  5
462
  8
FLOORPLATE$T2$2322
 66
     1
 10
0.0
 20
0.0
 30
0.0
 70
     1
  0
VERTEX
  5
463
  8
FLOORPLATE$T2$2322
 10
122.9550926657208
 20
114.6780368785795
 30
0.0
  0
VERTEX
  5
464
  8
FLOORPLATE$T2$2322
 10
122.9550926657208
 20
123.6780368785795
 30
0.0
  0
VERTEX
  5
465
  8
FLOORPLATE$T2$2322
 10
133.9550926657207
 20
123.6780368785795
 30
0.0
  0
VERTEX
  5
466
  8
FLOORPLATE$T2$2322
 10
133.9550926657207
 20
114.6780368785795
 30
0.0
  0
VERTEX
  5
467
  8
FLOORPLATE$T2$2322
 10
134.4550926657207
 20
114.6780368785795
 30
0.0
  0
VERTEX
  5
468
  8
FLOORPLATE$T2$2322
 10
134.4550926657207
 20
113.0780368785795
 30
0.0
  0
VERTEX
  5
469
  8
FLOORPLATE$T2$2322
 10
128.3550926657207
 20
113.0780368785795
 30
0.0
  0
VERTEX
  5
46A
  8
FLOORPLATE$T2$2322
 10
128.3550926657207
 20
112.5780368785795
 30
0.0
  0
VERTEX
  5
46B
  8
FLOORPLATE$T2$2322
 10
126.7550926657207
 20
112.5780368785795
 30
0.0
  0
VERTEX
  5
46C
  8
FLOORPLATE$T2$2322
 10
126.7550926657206
 20
113.0780368785795
 30
0.0
  0
VERTEX
  5
46D
  8
FLOORPLATE$T2$2322
 10
122.4550926657208
 20
113.0780368785795
 30
0.0
  0
VERTEX
  5
46E
  8
FLOORPLATE$T2$2322
 10
122.4550926657208
 20
114.6780368785795
 30
0.0
  0
SEQEND
  5
46F
  8
FLOORPLATE$T2$2322
  0
POLYLINE
  5
470
  8
FLOORPLATE$T2$2322
 66
     1
 10
0.0
 20
0.0
 30
0.0
 70
     1
  0
VERTEX
  5
471
  8
FLOORPLATE$T2$2322
 10
126.7550926657205
 20
113.0780368785795
 30
0.0
  0
VERTEX
  5
472
  8
FLOORPLATE$T2$2322
 10
114.1550926657205
 20
113.0780368785795
 30
0.0
  0
VERTEX
  5
473
  8
FLOORPLATE$T2$2322
 10
114.1550926657205
 20
105.1580368785795
 30
0.0
  0
VERTEX
  5
474
  8
FLOORPLATE$T2$2322
 10
114.6550926657205
 20
105.1580368785795
 30
0.0
  0
VERTEX
  5
475
  8
FLOORPLATE$T2$2322
 10
114.6550926657205
 20
104.2780368785795
 30
0.0
  0
VERTEX
  5
476
  8
FLOORPLATE$T2$2322
 10
126.2550926657205
 20
104.2780368785795
 30
0.0
  0
VERTEX
  5
477
  8
FLOORPLATE$T2$2322
 10
126.2550926657205
 20
105.1580368785795
 30
0.0
  0
VERTEX
  5
478
  8
FLOORPLATE$T2$2322
 10
126.7550926657205
 20
105.1580368785795
 30
0.0
  0
SEQEND
  5
479
  8
FLOORPLATE$T2$2322
  0
POLYLINE
  5
47A
  8
FLOORPLATE$T2$2322
 66
     1
 10
0.0
 20
0.0
 30
0.0
 70
     1
  0
VERTEX
  5
47B
  8
FLOORPLATE$T2$2322
 10
142.7550926657208
 20
113.0780368785795
 30
0.0
  0
VERTEX
  5
47C
  8
FLOORPLATE$T2$2322
 10
128.3550926657208
 20
113.0780368785795
 30
0.0
  0
VERTEX
  5
47D
  8
FLOORPLATE$T2$2322
 10
128.3550926657208
 20
112.5780368785795
 30
0.0
  0
VERTEX
  5
47E
  8
FLOORPLATE$T2$2322
 10
126.7550926657208
 20
112.5780368785795
 30
0.0
  0
VERTEX
  5
47F
  8
FLOORPLATE$T2$2322
 10
126.7550926657208
 20
104.2780368785795
 30
0.0
  0
VERTEX
  5
480
  8
FLOORPLATE$T2$2322
 10
142.7550926657208
 20
104.2780368785795
 30
0.0
  0
SEQEND
  5
481
  8
FLOORPLATE$T2$2322
  0
POINT
  5
482
  8
FLOORPLATE$T2$2322
 10
129.1550926657207
 20
118.2780368785795
 30
0.0
  0
POLYLINE
  5
483
  8
FLOORPLATE$T2$2322
 66
     1
 10
0.0
 20
0.0
 30
0.0
 70
     1
  0
VERTEX
  5
484
  8
FLOORPLATE$T2$2322
 10
132.4550926657209
 20
123.6780368786186
 30
0.0
  0
VERTEX
  5
485
  8
FLOORPLATE$T2$2322
 10
124.455092665721
 20
123.6780368786186
 30
0.0
  0
VERTEX
  5
486
  8
FLOORPLATE$T2$2322
 10
124.455092665721
 20
129.0780368785796
 30
0.0
  0
VERTEX
  5
487
  8
FLOORPLATE$T2$2322
 10
132.4550926657209
 20
129.0780368785796
 30
0.0
  0
SEQEND
  5
488
  8
FLOORPLATE$T2$2322
  0
POLYLINE
  5
489
  8
FLOORPLATE$T2$2322
 66
     1
 10
0.0
 20
0.0
 30
0.0
 70
     1
  0
VERTEX
  5
48A
  8
FLOORPLATE$T2$2322
 10
122.9550926657209
 20
114.6780368785795
 30
0.0
  0
VERTEX
  5
48B
  8
FLOORPLATE$T2$2322
 10
122.9550926657209
 20
129.0780368785795
 30
0.0
  0
VERTEX
  5
48C
  8
FLOORPLATE$T2$2322
 10
114.1550926657209
 20
129.0780368785795
 30
0.0
  0
VERTEX
  5
48D
  8
FLOORPLATE$T2$2322
 10
114.1550926657209
 20
113.0780368785795
 30
0.0
  0
VERTEX
  5
48E
  8
FLOORPLATE$T2$2322
 10
122.4550926657209
 20
113.0780368785795
 30
0.0
  0
VERTEX
  5
48F
  8
FLOORPLATE$T2$2322
 10
122.4550926657209
 20
114.6780368785795
 30
0.0
  0
SEQEND
  5
490
  8
FLOORPLATE$T2$2322
  0
POLYLINE
  5
491
  8
FLOORPLATE$T2$2322
 66
     1
 10
0.0
 20
0.0
 30
0.0
 70
     1
  0
VERTEX
  5
492
  8
FLOORPLATE$T2$2322
 10
131.8717926657209
 20
101.2780368785795
 30
0.0
  0
VERTEX
  5
493
  8
FLOORPLATE$T2$2322
 10
131.8717926657209
 20
104.2780368785795
 30
0.0
  0
VERTEX
  5
494
  8
FLOORPLATE$T2$2322
 10
141.0383926657209
 20
104.2780368785795
 30
0.0
  0
VERTEX
  5
495
  8
FLOORPLATE$T2$2322
 10
141.0383926657209
 20
101.2780368785795
 30
0.0
  0
SEQEND
  5
496
  8
FLOORPLATE$T2$2322
  0
POLYLINE
  5
497
  8
FLOORPLATE$T2$2322
 66
     1
 10
0.0
 20
0.0
 30
0.0
 70
     1
  0
VERTEX
  5
498
  8
FLOORPLATE$T2$2322
 10
134.4550926657207
 20
114.6780368785795
 30
0.0
  0
VERTEX
  5
499
  8
FLOORPLATE$T2$2322
 10
133.9550926657207
 20
114.6780368785795
 30
0.0
  0
VERTEX
  5
49A
  8
FLOORPLATE$T2$2322
 10
133.9550926657207
 20
129.0780368785795
 30
0.0
  0
VERTEX
  5
49B
  8
FLOORPLATE$T2$2322
 10
142.7550926657207
 20
129.0780368785795
 30
0.0
  0
VERTEX
  5
49C
  8
FLOORPLATE$T2$2322
 10
142.7550926657207
 20
113.0780368785795
 30
0.0
  0
VERTEX
  5
49D
  8
FLOORPLATE$T2$2322
 10
134.4550926657207
 20
113.0780368785795
 30
0.0
  0
SEQEND
  5
49E
  8
FLOORPLATE$T2$2322
  0
POLYLINE
  5
49F
  8
FLOORPLATE$T2$2322
 66
     1
 10
0.0
 20
0.0
 30
0.0
 70
     1
  0
VERTEX
  5
4A0
  8
FLOORPLATE$T2$2322
 10
145.7550926657207
 20
114.8280368785795
 30
0.0
  0
VERTEX
  5
4A1
  8
FLOORPLATE$T2$2322
 10
142.7550926657207
 20
114.8280368785795
 30
0.0
  0
VERTEX
  5
4A2
  8
FLOORPLATE$T2$2322
 10
142.7550926657207
 20
126.4950368785795
 30
0.0
  0
VERTEX
  5
4A3
  8
FLOORPLATE$T2$2322
 10
145.7550926657207
 20
126.4950368785795
 30
0.0
  0
SEQEND
  5
4A4
  8
FLOORPLATE$T2$2322
  0
POLYLINE
  5
4A5
  8
FLOORPLATE$T2$2322
 66
     1
 10
0.0
 20
0.0
 30
0.0
 70
     1
  0
VERTEX
  5
4A6
  8
FLOORPLATE$T2$2322
 10
114.1550926657207
 20
114.8280368785795
 30
0.0
  0
VERTEX
  5
4A7
  8
FLOORPLATE$T2$2322
 10
114.1550926657207
 20
126.4950368785795
 30
0.0
  0
VERTEX
  5
4A8
  8
FLOORPLATE$T2$2322
 10
111.1550926657207
 20
126.4950368785795
 30
0.0
  0
VERTEX
  5
4A9
  8
FLOORPLATE$T2$2322
 10
111.1550926657207
 20
114.8280368785795
 30
0.0
  0
SEQEND
  5
4AA
  8
FLOORPLATE$T2$2322
  0
POLYLINE
  5
4AB
  8
FLOORPLATE$T2$2322
 66
     1
 10
0.0
 20
0.0
 30
0.0
 70
     1
  0
VERTEX
  5
4AC
  8
FLOORPLATE$T2$2322
 10
116.7380926657207
 20
104.2780368785795
 30
0.0
  0
VERTEX
  5
4AD
  8
FLOORPLATE$T2$2322
 10
128.4050926657207
 20
104.2780368785795
 30
0.0
  0
VERTEX
  5
4AE
  8
FLOORPLATE$T2$2322
 10
128.4050926657207
 20
101.2780368785795
 30
0.0
  0
VERTEX
  5
4AF
  8
FLOORPLATE$T2$2322
 10
116.7380926657207
 20
101.2780368785795
 30
0.0
  0
SEQEND
  5
4B0
  8
FLOORPLATE$T2$2322
  0
TEXT
  5
4B1
  8
FLOORPLATE$T2$2322
  6
CONTINUOUS
 10
116.7481975904022
 20
118.58355247808
 30
0.0
 40
1.0
  1
2BED
  0
TEXT
  5
4B3
  8
FLOORPLATE$T2$2232
  6
CONTINUOUS
 10
136.288863750058
 20
75.61959268158061
 30
0.0
 40
1.0
  1
3BED
  0
TEXT
  5
4B4
  8
FLOORPLATE$T2$2232
  6
CONTINUOUS
 10
135.5561025835833
 20
82.25356594009888
 30
0.0
 40
1.0
  1
2BED
  0
TEXT
  5
4B5
  8
FLOORPLATE$T2$2232
  6
CONTINUOUS
 10
118.306863750058
 20
76.09587246985338
 30
0.0
 40
1.0
  1
2BED
  0
POLYLINE
  5
4B6
  8
FLOORPLATE$T2$2232
 66
     1
 10
0.0
 20
0.0
 30
0.0
 70
     1
  0
VERTEX
  5
4B7
  8
FLOORPLATE$T2$2232
 10
122.9550926657208
 20
81.43844275097784
 30
0.0
  0
VERTEX
  5
4B8
  8
FLOORPLATE$T2$2232
 10
122.9550926657208
 20
90.43844275097784
 30
0.0
  0
VERTEX
  5
4B9
  8
FLOORPLATE$T2$2232
 10
133.9550926657207
 20
90.43844275097784
 30
0.0
  0
VERTEX
  5
4BA
  8
FLOORPLATE$T2$2232
 10
133.9550926657207
 20
81.43844275097784
 30
0.0
  0
VERTEX
  5
4BB
  8
FLOORPLATE$T2$2232
 10
134.4550926657207
 20
81.43844275097784
 30
0.0
  0
VERTEX
  5
4BC
  8
FLOORPLATE$T2$2232
 10
134.4550926657207
 20
79.83844275097782
 30
0.0
  0
VERTEX
  5
4BD
  8
FLOORPLATE$T2$2232
 10
128.3550926657207
 20
79.83844275097782
 30
0.0
  0
VERTEX
  5
4BE
  8
FLOORPLATE$T2$2232
 10
128.3550926657207
 20
79.33844275097782
 30
0.0
  0
VERTEX
  5
4BF
  8
FLOORPLATE$T2$2232
 10
126.7550926657207
 20
79.33844275097782
 30
0.0
  0
VERTEX
  5
4C0
  8
FLOORPLATE$T2$2232
 10
126.7550926657206
 20
79.83844275097785
 30
0.0
  0
VERTEX
  5
4C1
  8
FLOORPLATE$T2$2232
 10
122.4550926657208
 20
79.83844275097785
 30
0.0
  0
VERTEX
  5
4C2
  8
FLOORPLATE$T2$2232
 10
122.4550926657208
 20
81.43844275097784
 30
0.0
  0
SEQEND
  5
4C3
  8
FLOORPLATE$T2$2232
  0
POLYLINE
  5
4C4
  8
FLOORPLATE$T2$2232
 66
     1
 10
0.0
 20
0.0
 30
0.0
 70
     1
  0
VERTEX
  5
4C5
  8
FLOORPLATE$T2$2232
 10
126.7550926657205
 20
79.83844275097785
 30
0.0
  0
VERTEX
  5
4C6
  8
FLOORPLATE$T2$2232
 10
114.1550926657205
 20
79.83844275097785
 30
0.0
  0
VERTEX
  5
4C7
  8
FLOORPLATE$T2$2232
 10
114.1550926657205
 20
71.91844275097783
 30
0.0
  0
VERTEX
  5
4C8
  8
FLOORPLATE$T2$2232
 10
114.6550926657205
 20
71.91844275097783
 30
0.0
  0
VERTEX
  5
4C9
  8
FLOORPLATE$T2$2232
 10
114.6550926657205
 20
71.03844275097784
 30
0.0
  0
VERTEX
  5
4CA
  8
FLOORPLATE$T2$2232
 10
126.2550926657205
 20
71.03844275097784
 30
0.0
  0
VERTEX
  5
4CB
  8
FLOORPLATE$T2$2232
 10
126.2550926657205
 20
71.91844275097783
 30
0.0
  0
VERTEX
  5
4CC
  8
FLOORPLATE$T2$2232
 10
126.7550926657205
 20
71.91844275097783
 30
0.0
  0
SEQEND
  5
4CD
  8
FLOORPLATE$T2$2232
  0
POLYLINE
  5
4CE
  8
FLOORPLATE$T2$2232
 66
     1
 10
0.0
 20
0.0
 30
0.0
 70
     1
  0
VERTEX
  5
4CF
  8
FLOORPLATE$T2$2232
 10
142.7550926657208
 20
79.83844275097779
 30
0.0
  0
VERTEX
  5
4D0
  8
FLOORPLATE$T2$2232
 10
128.3550926657208
 20
79.83844275097779
 30
0.0
  0
VERTEX
  5
4D1
  8
FLOORPLATE$T2$2232
 10
128.3550926657208
 20
79.33844275097779
 30
0.0
  0
VERTEX
  5
4D2
  8
FLOORPLATE$T2$2232
 10
126.7550926657208
 20
79.33844275097779
 30
0.0
  0
VERTEX
  5
4D3
  8
FLOORPLATE$T2$2232
 10
126.7550926657208
 20
71.03844275097781
 30
0.0
  0
VERTEX
  5
4D4
  8
FLOORPLATE$T2$2232
 10
142.7550926657208
 20
71.03844275097781
 30
0.0
  0
SEQEND
  5
4D5
  8
FLOORPLATE$T2$2232
  0
POINT
  5
4D6
  8
FLOORPLATE$T2$2232
 10
129.1550926657207
 20
85.03844275097786
 30
0.0
  0
POLYLINE
  5
4D7
  8
FLOORPLATE$T2$2232
 66
     1
 10
0.0
 20
0.0
 30
0.0
 70
     1
  0
VERTEX
  5
4D8
  8
FLOORPLATE$T2$2232
 10
132.4550926657209
 20
90.43844275101692
 30
0.0
  0
VERTEX
  5
4D9
  8
FLOORPLATE$T2$2232
 10
124.455092665721
 20
90.43844275101692
 30
0.0
  0
VERTEX
  5
4DA
  8
FLOORPLATE$T2$2232
 10
124.455092665721
 20
95.83844275097788
 30
0.0
  0
VERTEX
  5
4DB
  8
FLOORPLATE$T2$2232
 10
132.4550926657209
 20
95.83844275097788
 30
0.0
  0
SEQEND
  5
4DC
  8
FLOORPLATE$T2$2232
  0
POLYLINE
  5
4DD
  8
FLOORPLATE$T2$2232
 66
     1
 10
0.0
 20
0.0
 30
0.0
 70
     1
  0
VERTEX
  5
4DE
  8
FLOORPLATE$T2$2232
 10
122.9550926657209
 20
81.43844275097784
 30
0.0
  0
VERTEX
  5
4DF
  8
FLOORPLATE$T2$2232
 10
122.9550926657209
 20
95.83844275097785
 30
0.0
  0
VERTEX
  5
4E0
  8
FLOORPLATE$T2$2232
 10
114.1550926657209
 20
95.83844275097785
 30
0.0
  0
VERTEX
  5
4E1
  8
FLOORPLATE$T2$2232
 10
114.1550926657209
 20
79.83844275097785
 30
0.0
  0
VERTEX
  5
4E2
  8
FLOORPLATE$T2$2232
 10
122.4550926657209
 20
79.83844275097785
 30
0.0
  0
VERTEX
  5
4E3
  8
FLOORPLATE$T2$2232
 10
122.4550926657209
 20
81.43844275097784
 30
0.0
  0
SEQEND
  5
4E4
  8
FLOORPLATE$T2$2232
  0
POLYLINE
  5
4E5
  8
FLOORPLATE$T2$2232
 66
     1
 10
0.0
 20
0.0
 30
0.0
 70
     1
  0
VERTEX
  5
4E6
  8
FLOORPLATE$T2$2232
 10
131.8717926657209
 20
68.03844275097784
 30
0.0
  0
VERTEX
  5
4E7
  8
FLOORPLATE$T2$2232
 10
131.8717926657209
 20
71.03844275097784
 30
0.0
  0
VERTEX
  5
4E8
  8
FLOORPLATE$T2$2232
 10
141.0383926657209
 20
71.03844275097784
 30
0.0
  0
VERTEX
  5
4E9
  8
FLOORPLATE$T2$2232
 10
141.0383926657209
 20
68.03844275097784
 30
0.0
  0
SEQEND
  5
4EA
  8
FLOORPLATE$T2$2232
  0
POLYLINE
  5
4EB
  8
FLOORPLATE$T2$2232
 66
     1
 10
0.0
 20
0.0
 30
0.0
 70
     1
  0
VERTEX
  5
4EC
  8
FLOORPLATE$T2$2232
 10
134.4550926657207
 20
81.43844275097784
 30
0.0
  0
VERTEX
  5
4ED
  8
FLOORPLATE$T2$2232
 10
133.9550926657207
 20
81.43844275097784
 30
0.0
  0
VERTEX
  5
4EE
  8
FLOORPLATE$T2$2232
 10
133.9550926657207
 20
95.83844275097785
 30
0.0
  0
VERTEX
  5
4EF
  8
FLOORPLATE$T2$2232
 10
142.7550926657207
 20
95.83844275097785
 30
0.0
  0
VERTEX
  5
4F0
  8
FLOORPLATE$T2$2232
 10
142.7550926657207
 20
79.83844275097785
 30
0.0
  0
VERTEX
  5
4F1
  8
FLOORPLATE$T2$2232
 10
134.4550926657207
 20
79.83844275097785
 30
0.0
  0
SEQEND
  5
4F2
  8
FLOORPLATE$T2$2232
  0
POLYLINE
  5
4F3
  8
FLOORPLATE$T2$2232
 66
     1
 10
0.0
 20
0.0
 30
0.0
 70
     1
  0
VERTEX
  5
4F4
  8
FLOORPLATE$T2$2232
 10
145.7550926657207
 20
81.58844275097782
 30
0.0
  0
VERTEX
  5
4F5
  8
FLOORPLATE$T2$2232
 10
142.7550926657207
 20
81.58844275097782
 30
0.0
  0
VERTEX
  5
4F6
  8
FLOORPLATE$T2$2232
 10
142.7550926657207
 20
93.25544275097782
 30
0.0
  0
VERTEX
  5
4F7
  8
FLOORPLATE$T2$2232
 10
145.7550926657207
 20
93.25544275097782
 30
0.0
  0
SEQEND
  5
4F8
  8
FLOORPLATE$T2$2232
  0
POLYLINE
  5
4F9
  8
FLOORPLATE$T2$2232
 66
     1
 10
0.0
 20
0.0
 30
0.0
 70
     1
  0
VERTEX
  5
4FA
  8
FLOORPLATE$T2$2232
 10
114.1550926657207
 20
81.58844275097782
 30
0.0
  0
VERTEX
  5
4FB
  8
FLOORPLATE$T2$2232
 10
114.1550926657207
 20
93.25544275097782
 30
0.0
  0
VERTEX
  5
4FC
  8
FLOORPLATE$T2$2232
 10
111.1550926657207
 20
93.25544275097782
 30
0.0
  0
VERTEX
  5
4FD
  8
FLOORPLATE$T2$2232
 10
111.1550926657207
 20
81.58844275097782
 30
0.0
  0
SEQEND
  5
4FE
  8
FLOORPLATE$T2$2232
  0
POLYLINE
  5
4FF
  8
FLOORPLATE$T2$2232
 66
     1
 10
0.0
 20
0.0
 30
0.0
 70
     1
  0
VERTEX
  5
500
  8
FLOORPLATE$T2$2232
 10
116.7380926657207
 20
71.03844275097781
 30
0.0
  0
VERTEX
  5
501
  8
FLOORPLATE$T2$2232
 10
128.4050926657207
 20
71.03844275097781
 30
0.0
  0
VERTEX
  5
502
  8
FLOORPLATE$T2$2232
 10
128.4050926657207
 20
68.03844275097781
 30
0.0
  0
VERTEX
  5
503
  8
FLOORPLATE$T2$2232
 10
116.7380926657207
 20
68.03844275097781
 30
0.0
  0
SEQEND
  5
504
  8
FLOORPLATE$T2$2232
  0
TEXT
  5
505
  8
FLOORPLATE$T2$2232
  6
CONTINUOUS
 10
116.7481975904022
 20
85.34395835047833
 30
0.0
 40
1.0
  1
2BED
  0
TEXT
  5
507
  8
FLOORPLATE$T2$2223
  6
CONTINUOUS
 10
136.288863750058
 20
54.96435246906947
 30
0.0
 40
1.0
  1
3BED
  0
TEXT
  5
508
  8
FLOORPLATE$T2$2223
  6
CONTINUOUS
 10
118.306863750058
 20
43.63838643937174
 30
0.0
 40
1.0
  1
2BED
  0
POLYLINE
  5
509
  8
FLOORPLATE$T2$2223
 66
     1
 10
0.0
 20
0.0
 30
0.0
 70
     1
  0
VERTEX
  5
50A
  8
FLOORPLATE$T2$2223
 10
122.9550926657208
 20
48.9809567204962
 30
0.0
  0
VERTEX
  5
50B
  8
FLOORPLATE$T2$2223
 10
122.9550926657208
 20
57.9809567204962
 30
0.0
  0
VERTEX
  5
50C
  8
FLOORPLATE$T2$2223
 10
133.9550926657207
 20
57.9809567204962
 30
0.0
  0
VERTEX
  5
50D
  8
FLOORPLATE$T2$2223
 10
133.9550926657207
 20
48.9809567204962
 30
0.0
  0
VERTEX
  5
50E
  8
FLOORPLATE$T2$2223
 10
134.4550926657207
 20
48.9809567204962
 30
0.0
  0
VERTEX
  5
50F
  8
FLOORPLATE$T2$2223
 10
134.4550926657207
 20
47.38095672049617
 30
0.0
  0
VERTEX
  5
510
  8
FLOORPLATE$T2$2223
 10
128.3550926657207
 20
47.38095672049617
 30
0.0
  0
VERTEX
  5
511
  8
FLOORPLATE$T2$2223
 10
128.3550926657207
 20
46.88095672049617
 30
0.0
  0
VERTEX
  5
512
  8
FLOORPLATE$T2$2223
 10
126.7550926657207
 20
46.88095672049617
 30
0.0
  0
VERTEX
  5
513
  8
FLOORPLATE$T2$2223
 10
126.7550926657206
 20
47.3809567204962
 30
0.0
  0
VERTEX
  5
514
  8
FLOORPLATE$T2$2223
 10
122.4550926657208
 20
47.3809567204962
 30
0.0
  0
VERTEX
  5
515
  8
FLOORPLATE$T2$2223
 10
122.4550926657208
 20
48.9809567204962
 30
0.0
  0
SEQEND
  5
516
  8
FLOORPLATE$T2$2223
  0
POLYLINE
  5
517
  8
FLOORPLATE$T2$2223
 66
     1
 10
0.0
 20
0.0
 30
0.0
 70
     1
  0
VERTEX
  5
518
  8
FLOORPLATE$T2$2223
 10
126.7550926657205
 20
47.3809567204962
 30
0.0
  0
VERTEX
  5
519
  8
FLOORPLATE$T2$2223
 10
114.1550926657205
 20
47.3809567204962
 30
0.0
  0
VERTEX
  5
51A
  8
FLOORPLATE$T2$2223
 10
114.1550926657205
 20
39.46095672049618
 30
0.0
  0
VERTEX
  5
51B
  8
FLOORPLATE$T2$2223
 10
114.6550926657205
 20
39.46095672049618
 30
0.0
  0
VERTEX
  5
51C
  8
FLOORPLATE$T2$2223
 10
114.6550926657205
 20
38.58095672049619
 30
0.0
  0
VERTEX
  5
51D
  8
FLOORPLATE$T2$2223
 10
126.2550926657205
 20
38.58095672049619
 30
0.0
  0
VERTEX
  5
51E
  8
FLOORPLATE$T2$2223
 10
126.2550926657205
 20
39.46095672049618
 30
0.0
  0
VERTEX
  5
51F
  8
FLOORPLATE$T2$2223
 10
126.7550926657205
 20
39.46095672049618
 30
0.0
  0
SEQEND
  5
520
  8
FLOORPLATE$T2$2223
  0
POLYLINE
  5
521
  8
FLOORPLATE$T2$2223
 66
     1
 10
0.0
 20
0.0
 30
0.0
 70
     1
  0
VERTEX
  5
522
  8
FLOORPLATE$T2$2223
 10
142.7550926657208
 20
47.38095672049614
 30
0.0
  0
VERTEX
  5
523
  8
FLOORPLATE$T2$2223
 10
128.3550926657208
 20
47.38095672049614
 30
0.0
  0
VERTEX
  5
524
  8
FLOORPLATE$T2$2223
 10
128.3550926657208
 20
46.88095672049614
 30
0.0
  0
VERTEX
  5
525
  8
FLOORPLATE$T2$2223
 10
126.7550926657208
 20
46.88095672049614
 30
0.0
  0
VERTEX
  5
526
  8
FLOORPLATE$T2$2223
 10
126.7550926657208
 20
38.58095672049616
 30
0.0
  0
VERTEX
  5
527
  8
FLOORPLATE$T2$2223
 10
142.7550926657208
 20
38.58095672049616
 30
0.0
  0
SEQEND
  5
528
  8
FLOORPLATE$T2$2223
  0
POINT
  5
529
  8
FLOORPLATE$T2$2223
 10
129.1550926657207
 20
52.58095672049622
 30
0.0
  0
POLYLINE
  5
52A
  8
FLOORPLATE$T2$2223
 66
     1
 10
0.0
 20
0.0
 30
0.0
 70
     1
  0
VERTEX
  5
52B
  8
FLOORPLATE$T2$2223
 10
132.4550926657209
 20
57.98095672053527
 30
0.0
  0
VERTEX
  5
52C
  8
FLOORPLATE$T2$2223
 10
124.455092665721
 20
57.98095672053527
 30
0.0
  0
VERTEX
  5
52D
  8
FLOORPLATE$T2$2223
 10
124.455092665721
 20
63.38095672049623
 30
0.0
  0
VERTEX
  5
52E
  8
FLOORPLATE$T2$2223
 10
132.4550926657209
 20
63.38095672049623
 30
0.0
  0
SEQEND
  5
52F
  8
FLOORPLATE$T2$2223
  0
POLYLINE
  5
530
  8
FLOORPLATE$T2$2223
 66
     1
 10
0.0
 20
0.0
 30
0.0
 70
     1
  0
VERTEX
  5
531
  8
FLOORPLATE$T2$2223
 10
122.9550926657209
 20
48.9809567204962
 30
0.0
  0
VERTEX
  5
532
  8
FLOORPLATE$T2$2223
 10
122.9550926657209
 20
63.3809567204962
 30
0.0
  0
VERTEX
  5
533
  8
FLOORPLATE$T2$2223
 10
114.1550926657209
 20
63.3809567204962
 30
0.0
  0
VERTEX
  5
534
  8
FLOORPLATE$T2$2223
 10
114.1550926657209
 20
47.3809567204962
 30
0.0
  0
VERTEX
  5
535
  8
FLOORPLATE$T2$2223
 10
122.4550926657209
 20
47.3809567204962
 30
0.0
  0
VERTEX
  5
536
  8
FLOORPLATE$T2$2223
 10
122.4550926657209
 20
48.9809567204962
 30
0.0
  0
SEQEND
  5
537
  8
FLOORPLATE$T2$2223
  0
POLYLINE
  5
538
  8
FLOORPLATE$T2$2223
 66
     1
 10
0.0
 20
0.0
 30
0.0
 70
     1
  0
VERTEX
  5
539
  8
FLOORPLATE$T2$2223
 10
131.8717926657209
 20
35.58095672049619
 30
0.0
  0
VERTEX
  5
53A
  8
FLOORPLATE$T2$2223
 10
131.8717926657209
 20
38.58095672049619
 30
0.0
  0
VERTEX
  5
53B
  8
FLOORPLATE$T2$2223
 10
141.0383926657209
 20
38.58095672049619
 30
0.0
  0
VERTEX
  5
53C
  8
FLOORPLATE$T2$2223
 10
141.0383926657209
 20
35.58095672049619
 30
0.0
  0
SEQEND
  5
53D
  8
FLOORPLATE$T2$2223
  0
POLYLINE
  5
53E
  8
FLOORPLATE$T2$2223
 66
     1
 10
0.0
 20
0.0
 30
0.0
 70
     1
  0
VERTEX
  5
53F
  8
FLOORPLATE$T2$2223
 10
134.4550926657207
 20
48.9809567204962
 30
0.0
  0
VERTEX
  5
540
  8
FLOORPLATE$T2$2223
 10
133.9550926657207
 20
48.9809567204962
 30
0.0
  0
VERTEX
  5
541
  8
FLOORPLATE$T2$2223
 10
133.9550926657207
 20
63.3809567204962
 30
0.0
  0
VERTEX
  5
542
  8
FLOORPLATE$T2$2223
 10
142.7550926657207
 20
63.3809567204962
 30
0.0
  0
VERTEX
  5
543
  8
FLOORPLATE$T2$2223
 10
142.7550926657207
 20
47.3809567204962
 30
0.0
  0
VERTEX
  5
544
  8
FLOORPLATE$T2$2223
 10
134.4550926657207
 20
47.3809567204962
 30
0.0
  0
SEQEND
  5
545
  8
FLOORPLATE$T2$2223
  0
POLYLINE
  5
546
  8
FLOORPLATE$T2$2223
 66
     1
 10
0.0
 20
0.0
 30
0.0
 70
     1
  0
VERTEX
  5
547
  8
FLOORPLATE$T2$2223
 10
145.7550926657207
 20
49.13095672049617
 30
0.0
  0
VERTEX
  5
548
  8
FLOORPLATE$T2$2223
 10
142.7550926657207
 20
49.13095672049617
 30
0.0
  0
VERTEX
  5
549
  8
FLOORPLATE$T2$2223
 10
142.7550926657207
 20
60.79795672049617
 30
0.0
  0
VERTEX
  5
54A
  8
FLOORPLATE$T2$2223
 10
145.7550926657207
 20
60.79795672049617
 30
0.0
  0
SEQEND
  5
54B
  8
FLOORPLATE$T2$2223
  0
POLYLINE
  5
54C
  8
FLOORPLATE$T2$2223
 66
     1
 10
0.0
 20
0.0
 30
0.0
 70
     1
  0
VERTEX
  5
54D
  8
FLOORPLATE$T2$2223
 10
114.1550926657207
 20
49.13095672049617
 30
0.0
  0
VERTEX
  5
54E
  8
FLOORPLATE$T2$2223
 10
114.1550926657207
 20
60.79795672049617
 30
0.0
  0
VERTEX
  5
54F
  8
FLOORPLATE$T2$2223
 10
111.1550926657207
 20
60.79795672049617
 30
0.0
  0
VERTEX
  5
550
  8
FLOORPLATE$T2$2223
 10
111.1550926657207
 20
49.13095672049617
 30
0.0
  0
SEQEND
  5
551
  8
FLOORPLATE$T2$2223
  0
POLYLINE
  5
552
  8
FLOORPLATE$T2$2223
 66
     1
 10
0.0
 20
0.0
 30
0.0
 70
     1
  0
VERTEX
  5
553
  8
FLOORPLATE$T2$2223
 10
116.7380926657207
 20
38.58095672049616
 30
0.0
  0
VERTEX
  5
554
  8
FLOORPLATE$T2$2223
 10
128.4050926657207
 20
38.58095672049616
 30
0.0
  0
VERTEX
  5
555
  8
FLOORPLATE$T2$2223
 10
128.4050926657207
 20
35.58095672049616
 30
0.0
  0
VERTEX
  5
556
  8
FLOORPLATE$T2$2223
 10
116.7380926657207
 20
35.58095672049616
 30
0.0
  0
SEQEND
  5
557
  8
FLOORPLATE$T2$2223
  0
TEXT
  5
558
  8
FLOORPLATE$T2$2223
  6
CONTINUOUS
 10
135.5561025835833
 20
43.63838643937174
 30
0.0
 40
1.0
  1
2BED
  0
TEXT
  5
559
  8
FLOORPLATE$T2$2223
  6
CONTINUOUS
 10
116.7481975904022
 20
52.88647231999669
 30
0.0
 40
1.0
  1
2BED
  0
TEXT
  5
55B
  8
FLOORPLATE$T2$2222
  6
CONTINUOUS
 10
118.306863750058
 20
11.32950094734291
 30
0.0
 40
1.0
  1
2BED
  0
POLYLINE
  5
55C
  8
FLOORPLATE$T2$2222
 66
     1
 10
0.0
 20
0.0
 30
0.0
 70
     1
  0
VERTEX
  5
55D
  8
FLOORPLATE$T2$2222
 10
122.9550926657208
 20
16.67207122846737
 30
0.0
  0
VERTEX
  5
55E
  8
FLOORPLATE$T2$2222
 10
122.9550926657208
 20
25.67207122846737
 30
0.0
  0
VERTEX
  5
55F
  8
FLOORPLATE$T2$2222
 10
133.9550926657207
 20
25.67207122846737
 30
0.0
  0
VERTEX
  5
560
  8
FLOORPLATE$T2$2222
 10
133.9550926657207
 20
16.67207122846737
 30
0.0
  0
VERTEX
  5
561
  8
FLOORPLATE$T2$2222
 10
134.4550926657207
 20
16.67207122846737
 30
0.0
  0
VERTEX
  5
562
  8
FLOORPLATE$T2$2222
 10
134.4550926657207
 20
15.07207122846735
 30
0.0
  0
VERTEX
  5
563
  8
FLOORPLATE$T2$2222
 10
128.3550926657207
 20
15.07207122846735
 30
0.0
  0
VERTEX
  5
564
  8
FLOORPLATE$T2$2222
 10
128.3550926657207
 20
14.57207122846735
 30
0.0
  0
VERTEX
  5
565
  8
FLOORPLATE$T2$2222
 10
126.7550926657207
 20
14.57207122846735
 30
0.0
  0
VERTEX
  5
566
  8
FLOORPLATE$T2$2222
 10
126.7550926657206
 20
15.07207122846738
 30
0.0
  0
VERTEX
  5
567
  8
FLOORPLATE$T2$2222
 10
122.4550926657208
 20
15.07207122846738
 30
0.0
  0
VERTEX
  5
568
  8
FLOORPLATE$T2$2222
 10
122.4550926657208
 20
16.67207122846737
 30
0.0
  0
SEQEND
  5
569
  8
FLOORPLATE$T2$2222
  0
POLYLINE
  5
56A
  8
FLOORPLATE$T2$2222
 66
     1
 10
0.0
 20
0.0
 30
0.0
 70
     1
  0
VERTEX
  5
56B
  8
FLOORPLATE$T2$2222
 10
126.7550926657205
 20
15.07207122846738
 30
0.0
  0
VERTEX
  5
56C
  8
FLOORPLATE$T2$2222
 10
114.1550926657205
 20
15.07207122846738
 30
0.0
  0
VERTEX
  5
56D
  8
FLOORPLATE$T2$2222
 10
114.1550926657205
 20
7.152071228467364
 30
0.0
  0
VERTEX
  5
56E
  8
FLOORPLATE$T2$2222
 10
114.6550926657205
 20
7.152071228467364
 30
0.0
  0
VERTEX
  5
56F
  8
FLOORPLATE$T2$2222
 10
114.6550926657205
 20
6.272071228467368
 30
0.0
  0
VERTEX
  5
570
  8
FLOORPLATE$T2$2222
 10
126.2550926657205
 20
6.272071228467368
 30
0.0
  0
VERTEX
  5
571
  8
FLOORPLATE$T2$2222
 10
126.2550926657205
 20
7.152071228467364
 30
0.0
  0
VERTEX
  5
572
  8
FLOORPLATE$T2$2222
 10
126.7550926657205
 20
7.152071228467364
 30
0.0
  0
SEQEND
  5
573
  8
FLOORPLATE$T2$2222
  0
POLYLINE
  5
574
  8
FLOORPLATE$T2$2222
 66
     1
 10
0.0
 20
0.0
 30
0.0
 70
     1
  0
VERTEX
  5
575
  8
FLOORPLATE$T2$2222
 10
142.7550926657208
 20
15.07207122846732
 30
0.0
  0
VERTEX
  5
576
  8
FLOORPLATE$T2$2222
 10
128.3550926657208
 20
15.07207122846732
 30
0.0
  0
VERTEX
  5
577
  8
FLOORPLATE$T2$2222
 10
128.3550926657208
 20
14.57207122846732
 30
0.0
  0
VERTEX
  5
578
  8
FLOORPLATE$T2$2222
 10
126.7550926657208
 20
14.57207122846732
 30
0.0
  0
VERTEX
  5
579
  8
FLOORPLATE$T2$2222
 10
126.7550926657208
 20
6.27207122846734
 30
0.0
  0
VERTEX
  5
57A
  8
FLOORPLATE$T2$2222
 10
142.7550926657208
 20
6.27207122846734
 30
0.0
  0
SEQEND
  5
57B
  8
FLOORPLATE$T2$2222
  0
POINT
  5
57C
  8
FLOORPLATE$T2$2222
 10
129.1550926657207
 20
20.2720712284674
 30
0.0
  0
POLYLINE
  5
57D
  8
FLOORPLATE$T2$2222
 66
     1
 10
0.0
 20
0.0
 30
0.0
 70
     1
  0
VERTEX
  5
57E
  8
FLOORPLATE$T2$2222
 10
132.4550926657209
 20
25.67207122850645
 30
0.0
  0
VERTEX
  5
57F
  8
FLOORPLATE$T2$2222
 10
124.455092665721
 20
25.67207122850645
 30
0.0
  0
VERTEX
  5
580
  8
FLOORPLATE$T2$2222
 10
124.455092665721
 20
31.07207122846741
 30
0.0
  0
VERTEX
  5
581
  8
FLOORPLATE$T2$2222
 10
132.4550926657209
 20
31.07207122846741
 30
0.0
  0
SEQEND
  5
582
  8
FLOORPLATE$T2$2222
  0
POLYLINE
  5
583
  8
FLOORPLATE$T2$2222
 66
     1
 10
0.0
 20
0.0
 30
0.0
 70
     1
  0
VERTEX
  5
584
  8
FLOORPLATE$T2$2222
 10
122.9550926657209
 20
16.67207122846737
 30
0.0
  0
VERTEX
  5
585
  8
FLOORPLATE$T2$2222
 10
122.9550926657209
 20
31.07207122846738
 30
0.0
  0
VERTEX
  5
586
  8
FLOORPLATE$T2$2222
 10
114.1550926657209
 20
31.07207122846738
 30
0.0
  0
VERTEX
  5
587
  8
FLOORPLATE$T2$2222
 10
114.1550926657209
 20
15.07207122846738
 30
0.0
  0
VERTEX
  5
588
  8
FLOORPLATE$T2$2222
 10
122.4550926657209
 20
15.07207122846738
 30
0.0
  0
VERTEX
  5
589
  8
FLOORPLATE$T2$2222
 10
122.4550926657209
 20
16.67207122846737
 30
0.0
  0
SEQEND
  5
58A
  8
FLOORPLATE$T2$2222
  0
POLYLINE
  5
58B
  8
FLOORPLATE$T2$2222
 66
     1
 10
0.0
 20
0.0
 30
0.0
 70
     1
  0
VERTEX
  5
58C
  8
FLOORPLATE$T2$2222
 10
131.8717926657209
 20
3.272071228467368
 30
0.0
  0
VERTEX
  5
58D
  8
FLOORPLATE$T2$2222
 10
131.8717926657209
 20
6.272071228467368
 30
0.0
  0
VERTEX
  5
58E
  8
FLOORPLATE$T2$2222
 10
141.0383926657209
 20
6.272071228467368
 30
0.0
  0
VERTEX
  5
58F
  8
FLOORPLATE$T2$2222
 10
141.0383926657209
 20
3.272071228467368
 30
0.0
  0
SEQEND
  5
590
  8
FLOORPLATE$T2$2222
  0
POLYLINE
  5
591
  8
FLOORPLATE$T2$2222
 66
     1
 10
0.0
 20
0.0
 30
0.0
 70
     1
  0
VERTEX
  5
592
  8
FLOORPLATE$T2$2222
 10
134.4550926657207
 20
16.67207122846737
 30
0.0
  0
VERTEX
  5
593
  8
FLOORPLATE$T2$2222
 10
133.9550926657207
 20
16.67207122846737
 30
0.0
  0
VERTEX
  5
594
  8
FLOORPLATE$T2$2222
 10
133.9550926657207
 20
31.07207122846738
 30
0.0
  0
VERTEX
  5
595
  8
FLOORPLATE$T2$2222
 10
142.7550926657207
 20
31.07207122846738
 30
0.0
  0
VERTEX
  5
596
  8
FLOORPLATE$T2$2222
 10
142.7550926657207
 20
15.07207122846738
 30
0.0
  0
VERTEX
  5
597
  8
FLOORPLATE$T2$2222
 10
134.4550926657207
 20
15.07207122846738
 30
0.0
  0
SEQEND
  5
598
  8
FLOORPLATE$T2$2222
  0
POLYLINE
  5
599
  8
FLOORPLATE$T2$2222
 66
     1
 10
0.0
 20
0.0
 30
0.0
 70
     1
  0
VERTEX
  5
59A
  8
FLOORPLATE$T2$2222
 10
145.7550926657207
 20
16.82207122846735
 30
0.0
  0
VERTEX
  5
59B
  8
FLOORPLATE$T2$2222
 10
142.7550926657207
 20
16.82207122846735
 30
0.0
  0
VERTEX
  5
59C
  8
FLOORPLATE$T2$2222
 10
142.7550926657207
 20
28.48907122846735
 30
0.0
  0
VERTEX
  5
59D
  8
FLOORPLATE$T2$2222
 10
145.7550926657207
 20
28.48907122846735
 30
0.0
  0
SEQEND
  5
59E
  8
FLOORPLATE$T2$2222
  0
POLYLINE
  5
59F
  8
FLOORPLATE$T2$2222
 66
     1
 10
0.0
 20
0.0
 30
0.0
 70
     1
  0
VERTEX
  5
5A0
  8
FLOORPLATE$T2$2222
 10
114.1550926657207
 20
16.82207122846735
 30
0.0
  0
VERTEX
  5
5A1
  8
FLOORPLATE$T2$2222
 10
114.1550926657207
 20
28.48907122846735
 30
0.0
  0
VERTEX
  5
5A2
  8
FLOORPLATE$T2$2222
 10
111.1550926657207
 20
28.48907122846735
 30
0.0
  0
VERTEX
  5
5A3
  8
FLOORPLATE$T2$2222
 10
111.1550926657207
 20
16.82207122846735
 30
0.0
  0
SEQEND
  5
5A4
  8
FLOORPLATE$T2$2222
  0
POLYLINE
  5
5A5
  8
FLOORPLATE$T2$2222
 66
     1
 10
0.0
 20
0.0
 30
0.0
 70
     1
  0
VERTEX
  5
5A6
  8
FLOORPLATE$T2$2222
 10
116.7380926657207
 20
6.27207122846734
 30
0.0
  0
VERTEX
  5
5A7
  8
FLOORPLATE$T2$2222
 10
128.4050926657207
 20
6.27207122846734
 30
0.0
  0
VERTEX
  5
5A8
  8
FLOORPLATE$T2$2222
 10
128.4050926657207
 20
3.27207122846734
 30
0.0
  0
VERTEX
  5
5A9
  8
FLOORPLATE$T2$2222
 10
116.7380926657207
 20
3.27207122846734
 30
0.0
  0
SEQEND
  5
5AA
  8
FLOORPLATE$T2$2222
  0
TEXT
  5
5AB
  8
FLOORPLATE$T2$2222
  6
CONTINUOUS
 10
135.5561025835833
 20
11.32950094734291
 30
0.0
 40
1.0
  1
2BED
  0
TEXT
  5
5AC
  8
FLOORPLATE$T2$2222
  6
CONTINUOUS
 10
136.3207709518597
 20
21.20105329183019
 30
0.0
 40
1.0
  1
2BED
  0
TEXT
  5
5AD
  8
FLOORPLATE$T2$2222
  6
CONTINUOUS
 10
116.7481975904022
 20
20.57758682796786
 30
0.0
 40
1.0
  1
2BED
  0
POLYLINE
  5
5AF
  8
FLOORPLATE$T2$D334
 66
     1
 10
0.0
 20
0.0
 30
0.0
 70
     1
  0
VERTEX
  5
5B0
  8
FLOORPLATE$T2$D334
 10
116.7380926657207
 20
-61.6361157777844
 30
0.0
  0
VERTEX
  5
5B1
  8
FLOORPLATE$T2$D334
 10
128.4050926657207
 20
-61.6361157777844
 30
0.0
  0
VERTEX
  5
5B2
  8
FLOORPLATE$T2$D334
 10
128.4050926657207
 20
-64.6361157777844
 30
0.0
  0
VERTEX
  5
5B3
  8
FLOORPLATE$T2$D334
 10
116.7380926657207
 20
-64.6361157777844
 30
0.0
  0
SEQEND
  5
5B4
  8
FLOORPLATE$T2$D334
  0
POLYLINE
  5
5B5
  8
FLOORPLATE$T2$D334
 66
     1
 10
0.0
 20
0.0
 30
0.0
 70
     1
  0
VERTEX
  5
5B6
  8
FLOORPLATE$T2$D334
 10
114.1550926657207
 20
-51.0861157777844
 30
0.0
  0
VERTEX
  5
5B7
  8
FLOORPLATE$T2$D334
 10
114.1550926657207
 20
-39.4191157777844
 30
0.0
  0
VERTEX
  5
5B8
  8
FLOORPLATE$T2$D334
 10
111.1550926657207
 20
-39.4191157777844
 30
0.0
  0
VERTEX
  5
5B9
  8
FLOORPLATE$T2$D334
 10
111.1550926657207
 20
-51.0861157777844
 30
0.0
  0
SEQEND
  5
5BA
  8
FLOORPLATE$T2$D334
  0
POLYLINE
  5
5BB
  8
FLOORPLATE$T2$D334
 66
     1
 10
0.0
 20
0.0
 30
0.0
 70
     1
  0
VERTEX
  5
5BC
  8
FLOORPLATE$T2$D334
 10
145.7550926657207
 20
-51.0861157777844
 30
0.0
  0
VERTEX
  5
5BD
  8
FLOORPLATE$T2$D334
 10
142.7550926657207
 20
-51.0861157777844
 30
0.0
  0
VERTEX
  5
5BE
  8
FLOORPLATE$T2$D334
 10
142.7550926657207
 20
-39.4191157777844
 30
0.0
  0
VERTEX
  5
5BF
  8
FLOORPLATE$T2$D334
 10
145.7550926657207
 20
-39.4191157777844
 30
0.0
  0
SEQEND
  5
5C0
  8
FLOORPLATE$T2$D334
  0
POLYLINE
  5
5C1
  8
FLOORPLATE$T2$D334
 66
     1
 10
0.0
 20
0.0
 30
0.0
 70
     1
  0
VERTEX
  5
5C2
  8
FLOORPLATE$T2$D334
 10
134.4550926657207
 20
-51.23611577778436
 30
0.0
  0
VERTEX
  5
5C3
  8
FLOORPLATE$T2$D334
 10
133.9550926657207
 20
-51.23611577778436
 30
0.0
  0
VERTEX
  5
5C4
  8
FLOORPLATE$T2$D334
 10
133.9550926657207
 20
-36.83611577778436
 30
0.0
  0
VERTEX
  5
5C5
  8
FLOORPLATE$T2$D334
 10
142.7550926657207
 20
-36.83611577778436
 30
0.0
  0
VERTEX
  5
5C6
  8
FLOORPLATE$T2$D334
 10
142.7550926657207
 20
-52.83611577778436
 30
0.0
  0
VERTEX
  5
5C7
  8
FLOORPLATE$T2$D334
 10
134.4550926657207
 20
-52.83611577778436
 30
0.0
  0
SEQEND
  5
5C8
  8
FLOORPLATE$T2$D334
  0
POLYLINE
  5
5C9
  8
FLOORPLATE$T2$D334
 66
     1
 10
0.0
 20
0.0
 30
0.0
 70
     1
  0
VERTEX
  5
5CA
  8
FLOORPLATE$T2$D334
 10
131.8717926657209
 20
-64.63611577778437
 30
0.0
  0
VERTEX
  5
5CB
  8
FLOORPLATE$T2$D334
 10
131.8717926657209
 20
-61.63611577778437
 30
0.0
  0
VERTEX
  5
5CC
  8
FLOORPLATE$T2$D334
 10
141.0383926657209
 20
-61.63611577778437
 30
0.0
  0
VERTEX
  5
5CD
  8
FLOORPLATE$T2$D334
 10
141.0383926657209
 20
-64.63611577778437
 30
0.0
  0
SEQEND
  5
5CE
  8
FLOORPLATE$T2$D334
  0
POLYLINE
  5
5CF
  8
FLOORPLATE$T2$D334
 66
     1
 10
0.0
 20
0.0
 30
0.0
 70
     1
  0
VERTEX
  5
5D0
  8
FLOORPLATE$T2$D334
 10
122.9550926657209
 20
-51.23611577778438
 30
0.0
  0
VERTEX
  5
5D1
  8
FLOORPLATE$T2$D334
 10
122.9550926657209
 20
-36.83611577778437
 30
0.0
  0
VERTEX
  5
5D2
  8
FLOORPLATE$T2$D334
 10
114.1550926657209
 20
-36.83611577778437
 30
0.0
  0
VERTEX
  5
5D3
  8
FLOORPLATE$T2$D334
 10
114.1550926657209
 20
-52.83611577778437
 30
0.0
  0
VERTEX
  5
5D4
  8
FLOORPLATE$T2$D334
 10
122.4550926657209
 20
-52.83611577778437
 30
0.0
  0
VERTEX
  5
5D5
  8
FLOORPLATE$T2$D334
 10
122.4550926657209
 20
-51.23611577778438
 30
0.0
  0
SEQEND
  5
5D6
  8
FLOORPLATE$T2$D334
  0
POLYLINE
  5
5D7
  8
FLOORPLATE$T2$D334
 66
     1
 10
0.0
 20
0.0
 30
0.0
 70
     1
  0
VERTEX
  5
5D8
  8
FLOORPLATE$T2$D334
 10
133.9550926657208
 20
-51.23611577778438
 30
0.0
  0
VERTEX
  5
5D9
  8
FLOORPLATE$T2$D334
 10
133.9550926657208
 20
-42.23611577778436
 30
0.0
  0
VERTEX
  5
5DA
  8
FLOORPLATE$T2$D334
 10
122.9550926657209
 20
-42.23611577778436
 30
0.0
  0
VERTEX
  5
5DB
  8
FLOORPLATE$T2$D334
 10
122.9550926657209
 20
-51.23611577778438
 30
0.0
  0
VERTEX
  5
5DC
  8
FLOORPLATE$T2$D334
 10
122.4550926657209
 20
-51.23611577778438
 30
0.0
  0
VERTEX
  5
5DD
  8
FLOORPLATE$T2$D334
 10
122.4550926657209
 20
-52.83611577778439
 30
0.0
  0
VERTEX
  5
5DE
  8
FLOORPLATE$T2$D334
 10
128.5550926657209
 20
-52.83611577778439
 30
0.0
  0
VERTEX
  5
5DF
  8
FLOORPLATE$T2$D334
 10
128.5550926657209
 20
-53.33611577778439
 30
0.0
  0
VERTEX
  5
5E0
  8
FLOORPLATE$T2$D334
 10
130.1550926657209
 20
-53.33611577778439
 30
0.0
  0
VERTEX
  5
5E1
  8
FLOORPLATE$T2$D334
 10
130.155092665721
 20
-52.83611577778437
 30
0.0
  0
VERTEX
  5
5E2
  8
FLOORPLATE$T2$D334
 10
134.4550926657208
 20
-52.83611577778437
 30
0.0
  0
VERTEX
  5
5E3
  8
FLOORPLATE$T2$D334
 10
134.4550926657208
 20
-51.23611577778438
 30
0.0
  0
SEQEND
  5
5E4
  8
FLOORPLATE$T2$D334
  0
POLYLINE
  5
5E5
  8
FLOORPLATE$T2$D334
 66
     1
 10
0.0
 20
0.0
 30
0.0
 70
     1
  0
VERTEX
  5
5E6
  8
FLOORPLATE$T2$D334
 10
132.4550926657209
 20
-42.23611577774528
 30
0.0
  0
VERTEX
  5
5E7
  8
FLOORPLATE$T2$D334
 10
124.455092665721
 20
-42.23611577774528
 30
0.0
  0
VERTEX
  5
5E8
  8
FLOORPLATE$T2$D334
 10
124.455092665721
 20
-36.83611577778434
 30
0.0
  0
VERTEX
  5
5E9
  8
FLOORPLATE$T2$D334
 10
132.4550926657209
 20
-36.83611577778434
 30
0.0
  0
SEQEND
  5
5EA
  8
FLOORPLATE$T2$D334
  0
POINT
  5
5EB
  8
FLOORPLATE$T2$D334
 10
129.1550926657207
 20
-47.63611577778434
 30
0.0
  0
POLYLINE
  5
5EC
  8
FLOORPLATE$T2$D334
 66
     1
 10
0.0
 20
0.0
 30
0.0
 70
     1
  0
VERTEX
  5
5ED
  8
FLOORPLATE$T2$D334
 10
114.1550926657209
 20
-52.83611577778437
 30
0.0
  0
VERTEX
  5
5EE
  8
FLOORPLATE$T2$D334
 10
128.5550926657209
 20
-52.83611577778439
 30
0.0
  0
VERTEX
  5
5EF
  8
FLOORPLATE$T2$D334
 10
128.5550926657209
 20
-53.33611577778439
 30
0.0
  0
VERTEX
  5
5F0
  8
FLOORPLATE$T2$D334
 10
130.1550926657208
 20
-53.33611577778441
 30
0.0
  0
VERTEX
  5
5F1
  8
FLOORPLATE$T2$D334
 10
130.155092665721
 20
-52.83611577778437
 30
0.0
  0
VERTEX
  5
5F2
  8
FLOORPLATE$T2$D334
 10
142.7550926657211
 20
-52.83611577778437
 30
0.0
  0
VERTEX
  5
5F3
  8
FLOORPLATE$T2$D334
 10
142.7550926657211
 20
-60.75611577778439
 30
0.0
  0
VERTEX
  5
5F4
  8
FLOORPLATE$T2$D334
 10
142.2550926657211
 20
-60.75611577778437
 30
0.0
  0
VERTEX
  5
5F5
  8
FLOORPLATE$T2$D334
 10
142.2550926657211
 20
-61.63611577778437
 30
0.0
  0
VERTEX
  5
5F6
  8
FLOORPLATE$T2$D334
 10
130.6550926657212
 20
-61.63611577778437
 30
0.0
  0
VERTEX
  5
5F7
  8
FLOORPLATE$T2$D334
 10
130.6550926657212
 20
-60.75611577778437
 30
0.0
  0
VERTEX
  5
5F8
  8
FLOORPLATE$T2$D334
 10
130.1550926657208
 20
-60.75611577778437
 30
0.0
  0
VERTEX
  5
5F9
  8
FLOORPLATE$T2$D334
 10
130.1550926657208
 20
-61.6361157777844
 30
0.0
  0
VERTEX
  5
5FA
  8
FLOORPLATE$T2$D334
 10
114.1550926657208
 20
-61.6361157777844
 30
0.0
  0
SEQEND
  5
5FB
  8
FLOORPLATE$T2$D334
  0
TEXT
  5
5FC
  8
FLOORPLATE$T2$D334
  6
CONTINUOUS
 10
127.239863750058
 20
-57.57868605890884
 30
0.0
 40
1.0
  1
D4BED
  0
TEXT
  5
5FD
  8
FLOORPLATE$T2$D334
  6
CONTINUOUS
 10
136.239863750058
 20
-45.09073425167991
 30
0.0
 40
1.0
  1
D3BED
  0
TEXT
  5
5FE
  8
FLOORPLATE$T2$D334
  6
CONTINUOUS
 10
116.239863750058
 20
-46.09073425167991
 30
0.0
 40
1.0
  1
D3BED
  0
TEXT
  5
600
  8
FLOORPLATE$T1$232
  6
CONTINUOUS
 10
214.5744345083276
 20
41.26839131381162
 30
0.0
 40
1.0
  1
3BED
  0
TEXT
  5
601
  8
FLOORPLATE$T1$232
  6
CONTINUOUS
 10
225.7857880573374
 20
39.9360999620031
 30
0.0
 40
1.0
  1
2BED
  0
POLYLINE
  5
602
  8
FLOORPLATE$T1$232
 66
     1
 10
0.0
 20
0.0
 30
0.0
 70
     1
  0
VERTEX
  5
603
  8
FLOORPLATE$T1$232
 10
222.3719810468366
 20
48.98659393819896
 30
0.0
  0
VERTEX
  5
604
  8
FLOORPLATE$T1$232
 10
223.1719382555892
 20
48.98659856351941
 30
0.0
  0
VERTEX
  5
605
  8
FLOORPLATE$T1$232
 10
223.1719996227433
 20
45.78666033157436
 30
0.0
  0
VERTEX
  5
606
  8
FLOORPLATE$T1$232
 10
210.571999548774
 20
45.78665981611341
 30
0.0
  0
VERTEX
  5
607
  8
FLOORPLATE$T1$232
 10
210.5719995487144
 20
48.98659856351941
 30
0.0
  0
VERTEX
  5
608
  8
FLOORPLATE$T1$232
 10
211.3719382571389
 20
48.98659856351941
 30
0.0
  0
VERTEX
  5
609
  8
FLOORPLATE$T1$232
 10
211.3719382583906
 20
56.38665904316037
 30
0.0
  0
VERTEX
  5
60A
  8
FLOORPLATE$T1$232
 10
222.3719382592251
 20
56.38665989240733
 30
0.0
  0
SEQEND
  5
60B
  8
FLOORPLATE$T1$232
  0
POLYLINE
  5
60C
  8
FLOORPLATE$T1$232
 66
     1
 10
0.0
 20
0.0
 30
0.0
 70
     1
  0
VERTEX
  5
60D
  8
FLOORPLATE$T1$232
 10
210.5719995487144
 20
52.98659856494991
 30
0.0
  0
VERTEX
  5
60E
  8
FLOORPLATE$T1$232
 10
201.7719995463302
 20
52.98659856494991
 30
0.0
  0
VERTEX
  5
60F
  8
FLOORPLATE$T1$232
 10
201.7719995463302
 20
36.98659864410488
 30
0.0
  0
VERTEX
  5
610
  8
FLOORPLATE$T1$232
 10
210.5719995487144
 20
36.98659864410488
 30
0.0
  0
SEQEND
  5
611
  8
FLOORPLATE$T1$232
  0
POLYLINE
  5
612
  8
FLOORPLATE$T1$232
 66
     1
 10
0.0
 20
0.0
 30
0.0
 70
     1
  0
VERTEX
  5
613
  8
FLOORPLATE$T1$232
 10
223.1719995490124
 20
45.78665981706707
 30
0.0
  0
VERTEX
  5
614
  8
FLOORPLATE$T1$232
 10
210.571999548774
 20
45.78665981706707
 30
0.0
  0
VERTEX
  5
615
  8
FLOORPLATE$T1$232
 10
210.5719995485952
 20
36.98659864410488
 30
0.0
  0
VERTEX
  5
616
  8
FLOORPLATE$T1$232
 10
223.1719995488336
 20
36.98659864410488
 30
0.0
  0
SEQEND
  5
617
  8
FLOORPLATE$T1$232
  0
POLYLINE
  5
618
  8
FLOORPLATE$T1$232
 66
     1
 10
0.0
 20
0.0
 30
0.0
 70
     1
  0
VERTEX
  5
619
  8
FLOORPLATE$T1$232
 10
223.1719382555892
 20
52.98659856494991
 30
0.0
  0
VERTEX
  5
61A
  8
FLOORPLATE$T1$232
 10
223.1719382555892
 20
36.98659864410488
 30
0.0
  0
VERTEX
  5
61B
  8
FLOORPLATE$T1$232
 10
231.9719382579734
 20
36.98659864410488
 30
0.0
  0
VERTEX
  5
61C
  8
FLOORPLATE$T1$232
 10
231.9719382579734
 20
52.98659856494991
 30
0.0
  0
SEQEND
  5
61D
  8
FLOORPLATE$T1$232
  0
POLYLINE
  5
61E
  8
FLOORPLATE$T1$232
 66
     1
 10
0.0
 20
0.0
 30
0.0
 70
     1
  0
VERTEX
  5
61F
  8
FLOORPLATE$T1$232
 10
198.7719996227434
 20
38.73659864458185
 30
0.0
  0
VERTEX
  5
620
  8
FLOORPLATE$T1$232
 10
201.7719996227434
 20
38.73659864458185
 30
0.0
  0
VERTEX
  5
621
  8
FLOORPLATE$T1$232
 10
201.7719996227434
 20
50.73659864458185
 30
0.0
  0
VERTEX
  5
622
  8
FLOORPLATE$T1$232
 10
198.7719996227434
 20
50.73659864458185
 30
0.0
  0
SEQEND
  5
623
  8
FLOORPLATE$T1$232
  0
POLYLINE
  5
624
  8
FLOORPLATE$T1$232
 66
     1
 10
0.0
 20
0.0
 30
0.0
 70
     1
  0
VERTEX
  5
625
  8
FLOORPLATE$T1$232
 10
212.3219995487144
 20
33.98659864410502
 30
0.0
  0
VERTEX
  5
626
  8
FLOORPLATE$T1$232
 10
221.3219995487144
 20
33.98659864410502
 30
0.0
  0
VERTEX
  5
627
  8
FLOORPLATE$T1$232
 10
221.3219995487144
 20
36.98659864410502
 30
0.0
  0
VERTEX
  5
628
  8
FLOORPLATE$T1$232
 10
212.3219995487144
 20
36.98659864410502
 30
0.0
  0
SEQEND
  5
629
  8
FLOORPLATE$T1$232
  0
POLYLINE
  5
62A
  8
FLOORPLATE$T1$232
 66
     1
 10
0.0
 20
0.0
 30
0.0
 70
     1
  0
VERTEX
  5
62B
  8
FLOORPLATE$T1$232
 10
231.9718768922498
 20
38.73659864458185
 30
0.0
  0
VERTEX
  5
62C
  8
FLOORPLATE$T1$232
 10
234.9718768922498
 20
38.73659864458185
 30
0.0
  0
VERTEX
  5
62D
  8
FLOORPLATE$T1$232
 10
234.9718768922498
 20
50.73659864458185
 30
0.0
  0
VERTEX
  5
62E
  8
FLOORPLATE$T1$232
 10
231.9718768922498
 20
50.73659864458185
 30
0.0
  0
SEQEND
  5
62F
  8
FLOORPLATE$T1$232
  0
POINT
  5
630
  8
FLOORPLATE$T1$232
 10
217.0508244844078
 20
50.92904887371069
 30
0.0
  0
TEXT
  5
631
  8
FLOORPLATE$T1$232
  6
CONTINUOUS
 10
204.0818190973981
 20
40.96238220704403
 30
0.0
 40
1.0
  1
2BED
  0
POINT
  5
633
  8
FLOORPLATE$T1$PHSINGLE
 10
217.0508244844078
 20
-9.937414713331066
 30
0.0
  0
POLYLINE
  5
634
  8
FLOORPLATE$T1$PHSINGLE
 66
     1
 10
0.0
 20
0.0
 30
0.0
 70
     1
  0
VERTEX
  5
635
  8
FLOORPLATE$T1$PHSINGLE
 10
231.9718768922498
 20
-22.12986494245996
 30
0.0
  0
VERTEX
  5
636
  8
FLOORPLATE$T1$PHSINGLE
 10
234.9718768922498
 20
-22.12986494245996
 30
0.0
  0
VERTEX
  5
637
  8
FLOORPLATE$T1$PHSINGLE
 10
234.9718768922498
 20
-10.12986494245996
 30
0.0
  0
VERTEX
  5
638
  8
FLOORPLATE$T1$PHSINGLE
 10
231.9718768922498
 20
-10.12986494245996
 30
0.0
  0
SEQEND
  5
639
  8
FLOORPLATE$T1$PHSINGLE
  0
POLYLINE
  5
63A
  8
FLOORPLATE$T1$PHSINGLE
 66
     1
 10
0.0
 20
0.0
 30
0.0
 70
     1
  0
VERTEX
  5
63B
  8
FLOORPLATE$T1$PHSINGLE
 10
212.3219995487144
 20
-26.87986494293676
 30
0.0
  0
VERTEX
  5
63C
  8
FLOORPLATE$T1$PHSINGLE
 10
221.3219995487144
 20
-26.87986494293676
 30
0.0
  0
VERTEX
  5
63D
  8
FLOORPLATE$T1$PHSINGLE
 10
221.3219995487144
 20
-23.87986494293676
 30
0.0
  0
VERTEX
  5
63E
  8
FLOORPLATE$T1$PHSINGLE
 10
212.3219995487144
 20
-23.87986494293676
 30
0.0
  0
SEQEND
  5
63F
  8
FLOORPLATE$T1$PHSINGLE
  0
POLYLINE
  5
640
  8
FLOORPLATE$T1$PHSINGLE
 66
     1
 10
0.0
 20
0.0
 30
0.0
 70
     1
  0
VERTEX
  5
641
  8
FLOORPLATE$T1$PHSINGLE
 10
198.7719996227434
 20
-22.12986494245996
 30
0.0
  0
VERTEX
  5
642
  8
FLOORPLATE$T1$PHSINGLE
 10
201.7719996227434
 20
-22.12986494245996
 30
0.0
  0
VERTEX
  5
643
  8
FLOORPLATE$T1$PHSINGLE
 10
201.7719996227434
 20
-10.12986494245996
 30
0.0
  0
VERTEX
  5
644
  8
FLOORPLATE$T1$PHSINGLE
 10
198.7719996227434
 20
-10.12986494245996
 30
0.0
  0
SEQEND
  5
645
  8
FLOORPLATE$T1$PHSINGLE
  0
POLYLINE
  5
646
  8
FLOORPLATE$T1$PHSINGLE
 66
     1
 10
0.0
 20
0.0
 30
0.0
 70
     1
  0
VERTEX
  5
647
  8
FLOORPLATE$T1$PHSINGLE
 10
222.3719810468366
 20
-11.87986964884283
 30
0.0
  0
VERTEX
  5
648
  8
FLOORPLATE$T1$PHSINGLE
 10
223.1719382555892
 20
-11.87986502352237
 30
0.0
  0
VERTEX
  5
649
  8
FLOORPLATE$T1$PHSINGLE
 10
223.1719996227433
 20
-15.07980325546743
 30
0.0
  0
VERTEX
  5
64A
  8
FLOORPLATE$T1$PHSINGLE
 10
210.571999548774
 20
-15.07980377092838
 30
0.0
  0
VERTEX
  5
64B
  8
FLOORPLATE$T1$PHSINGLE
 10
210.5719995487144
 20
-11.87986502352237
 30
0.0
  0
VERTEX
  5
64C
  8
FLOORPLATE$T1$PHSINGLE
 10
211.3719382571389
 20
-11.87986502352237
 30
0.0
  0
VERTEX
  5
64D
  8
FLOORPLATE$T1$PHSINGLE
 10
211.3719382583906
 20
-4.479804543881414
 30
0.0
  0
VERTEX
  5
64E
  8
FLOORPLATE$T1$PHSINGLE
 10
222.3719382592251
 20
-4.479803694634427
 30
0.0
  0
SEQEND
  5
64F
  8
FLOORPLATE$T1$PHSINGLE
  0
POLYLINE
  5
650
  8
FLOORPLATE$T1$PHSINGLE
 66
     1
 10
0.0
 20
0.0
 30
0.0
 70
     1
  0
VERTEX
  5
651
  8
FLOORPLATE$T1$PHSINGLE
 10
201.7719995463302
 20
-7.879865022091849
 30
0.0
  0
VERTEX
  5
652
  8
FLOORPLATE$T1$PHSINGLE
 10
210.5719995487144
 20
-7.879865022091849
 30
0.0
  0
VERTEX
  5
653
  8
FLOORPLATE$T1$PHSINGLE
 10
210.571999548774
 20
-15.07980377092838
 30
0.0
  0
VERTEX
  5
654
  8
FLOORPLATE$T1$PHSINGLE
 10
223.1719996227433
 20
-15.07980325546743
 30
0.0
  0
VERTEX
  5
655
  8
FLOORPLATE$T1$PHSINGLE
 10
223.1719382555892
 20
-7.879865022091849
 30
0.0
  0
VERTEX
  5
656
  8
FLOORPLATE$T1$PHSINGLE
 10
231.9719382579734
 20
-7.879865022091849
 30
0.0
  0
VERTEX
  5
657
  8
FLOORPLATE$T1$PHSINGLE
 10
231.9719382579734
 20
-23.87986494293688
 30
0.0
  0
VERTEX
  5
658
  8
FLOORPLATE$T1$PHSINGLE
 10
201.7719995463302
 20
-23.87986494293688
 30
0.0
  0
SEQEND
  5
659
  8
FLOORPLATE$T1$PHSINGLE
  0
TEXT
  5
65A
  8
FLOORPLATE$T1$PHSINGLE
  6
CONTINUOUS
 10
213.4187280988656
 20
-19.39805728361219
 30
0.0
 40
1.0
  1
PHSINGLE
  0
TEXT
  5
65C
  8
FLOORPLATE$T2$PHSINGLE
  6
CONTINUOUS
 10
125.0470926657207
 20
-26.23638641355012
 30
0.0
 40
1.0
  1
PHSINGLE
  0
POLYLINE
  5
65D
  8
FLOORPLATE$T2$PHSINGLE
 66
     1
 10
0.0
 20
0.0
 30
0.0
 70
     1
  0
VERTEX
  5
65E
  8
FLOORPLATE$T2$PHSINGLE
 10
116.7380926657207
 20
-30.26971974688351
 30
0.0
  0
VERTEX
  5
65F
  8
FLOORPLATE$T2$PHSINGLE
 10
128.4050926657207
 20
-30.26971974688351
 30
0.0
  0
VERTEX
  5
660
  8
FLOORPLATE$T2$PHSINGLE
 10
128.4050926657207
 20
-33.26971974688351
 30
0.0
  0
VERTEX
  5
661
  8
FLOORPLATE$T2$PHSINGLE
 10
116.7380926657207
 20
-33.26971974688351
 30
0.0
  0
SEQEND
  5
662
  8
FLOORPLATE$T2$PHSINGLE
  0
POLYLINE
  5
663
  8
FLOORPLATE$T2$PHSINGLE
 66
     1
 10
0.0
 20
0.0
 30
0.0
 70
     1
  0
VERTEX
  5
664
  8
FLOORPLATE$T2$PHSINGLE
 10
114.1550926657207
 20
-19.7197197468835
 30
0.0
  0
VERTEX
  5
665
  8
FLOORPLATE$T2$PHSINGLE
 10
114.1550926657207
 20
-8.052719746883497
 30
0.0
  0
VERTEX
  5
666
  8
FLOORPLATE$T2$PHSINGLE
 10
111.1550926657207
 20
-8.052719746883497
 30
0.0
  0
VERTEX
  5
667
  8
FLOORPLATE$T2$PHSINGLE
 10
111.1550926657207
 20
-19.7197197468835
 30
0.0
  0
SEQEND
  5
668
  8
FLOORPLATE$T2$PHSINGLE
  0
POLYLINE
  5
669
  8
FLOORPLATE$T2$PHSINGLE
 66
     1
 10
0.0
 20
0.0
 30
0.0
 70
     1
  0
VERTEX
  5
66A
  8
FLOORPLATE$T2$PHSINGLE
 10
145.7550926657207
 20
-19.7197197468835
 30
0.0
  0
VERTEX
  5
66B
  8
FLOORPLATE$T2$PHSINGLE
 10
142.7550926657207
 20
-19.7197197468835
 30
0.0
  0
VERTEX
  5
66C
  8
FLOORPLATE$T2$PHSINGLE
 10
142.7550926657207
 20
-8.052719746883497
 30
0.0
  0
VERTEX
  5
66D
  8
FLOORPLATE$T2$PHSINGLE
 10
145.7550926657207
 20
-8.052719746883497
 30
0.0
  0
SEQEND
  5
66E
  8
FLOORPLATE$T2$PHSINGLE
  0
POLYLINE
  5
66F
  8
FLOORPLATE$T2$PHSINGLE
 66
     1
 10
0.0
 20
0.0
 30
0.0
 70
     1
  0
VERTEX
  5
670
  8
FLOORPLATE$T2$PHSINGLE
 10
131.8717926657209
 20
-33.26971974688348
 30
0.0
  0
VERTEX
  5
671
  8
FLOORPLATE$T2$PHSINGLE
 10
131.8717926657209
 20
-30.26971974688348
 30
0.0
  0
VERTEX
  5
672
  8
FLOORPLATE$T2$PHSINGLE
 10
141.0383926657209
 20
-30.26971974688348
 30
0.0
  0
VERTEX
  5
673
  8
FLOORPLATE$T2$PHSINGLE
 10
141.0383926657209
 20
-33.26971974688348
 30
0.0
  0
SEQEND
  5
674
  8
FLOORPLATE$T2$PHSINGLE
  0
POLYLINE
  5
675
  8
FLOORPLATE$T2$PHSINGLE
 66
     1
 10
0.0
 20
0.0
 30
0.0
 70
     1
  0
VERTEX
  5
676
  8
FLOORPLATE$T2$PHSINGLE
 10
133.9550926657208
 20
-19.86971974688348
 30
0.0
  0
VERTEX
  5
677
  8
FLOORPLATE$T2$PHSINGLE
 10
133.9550926657208
 20
-10.86971974688348
 30
0.0
  0
VERTEX
  5
678
  8
FLOORPLATE$T2$PHSINGLE
 10
122.9550926657209
 20
-10.86971974688348
 30
0.0
  0
VERTEX
  5
679
  8
FLOORPLATE$T2$PHSINGLE
 10
122.9550926657209
 20
-19.86971974688348
 30
0.0
  0
VERTEX
  5
67A
  8
FLOORPLATE$T2$PHSINGLE
 10
122.4550926657209
 20
-19.86971974688348
 30
0.0
  0
VERTEX
  5
67B
  8
FLOORPLATE$T2$PHSINGLE
 10
122.4550926657209
 20
-21.4697197468835
 30
0.0
  0
VERTEX
  5
67C
  8
FLOORPLATE$T2$PHSINGLE
 10
128.5550926657209
 20
-21.4697197468835
 30
0.0
  0
VERTEX
  5
67D
  8
FLOORPLATE$T2$PHSINGLE
 10
128.5550926657209
 20
-21.9697197468835
 30
0.0
  0
VERTEX
  5
67E
  8
FLOORPLATE$T2$PHSINGLE
 10
130.1550926657209
 20
-21.9697197468835
 30
0.0
  0
VERTEX
  5
67F
  8
FLOORPLATE$T2$PHSINGLE
 10
130.155092665721
 20
-21.46971974688347
 30
0.0
  0
VERTEX
  5
680
  8
FLOORPLATE$T2$PHSINGLE
 10
134.4550926657208
 20
-21.46971974688347
 30
0.0
  0
VERTEX
  5
681
  8
FLOORPLATE$T2$PHSINGLE
 10
134.4550926657208
 20
-19.86971974688348
 30
0.0
  0
SEQEND
  5
682
  8
FLOORPLATE$T2$PHSINGLE
  0
POLYLINE
  5
683
  8
FLOORPLATE$T2$PHSINGLE
 66
     1
 10
0.0
 20
0.0
 30
0.0
 70
     1
  0
VERTEX
  5
684
  8
FLOORPLATE$T2$PHSINGLE
 10
132.4550926657209
 20
-10.8697197468444
 30
0.0
  0
VERTEX
  5
685
  8
FLOORPLATE$T2$PHSINGLE
 10
124.455092665721
 20
-10.8697197468444
 30
0.0
  0
VERTEX
  5
686
  8
FLOORPLATE$T2$PHSINGLE
 10
124.455092665721
 20
-5.469719746883442
 30
0.0
  0
VERTEX
  5
687
  8
FLOORPLATE$T2$PHSINGLE
 10
132.4550926657209
 20
-5.469719746883442
 30
0.0
  0
SEQEND
  5
688
  8
FLOORPLATE$T2$PHSINGLE
  0
POINT
  5
689
  8
FLOORPLATE$T2$PHSINGLE
 10
129.1550926657207
 20
-16.26971974688345
 30
0.0
  0
POLYLINE
  5
68A
  8
FLOORPLATE$T2$PHSINGLE
 66
     1
 10
0.0
 20
0.0
 30
0.0
 70
     1
  0
VERTEX
  5
68B
  8
FLOORPLATE$T2$PHSINGLE
 10
114.1550926657209
 20
-5.46971974688347
 30
0.0
  0
VERTEX
  5
68C
  8
FLOORPLATE$T2$PHSINGLE
 10
122.9550926657209
 20
-5.46971974688347
 30
0.0
  0
VERTEX
  5
68D
  8
FLOORPLATE$T2$PHSINGLE
 10
122.9550926657209
 20
-19.86971974688348
 30
0.0
  0
VERTEX
  5
68E
  8
FLOORPLATE$T2$PHSINGLE
 10
122.4550926657209
 20
-19.86971974688348
 30
0.0
  0
VERTEX
  5
68F
  8
FLOORPLATE$T2$PHSINGLE
 10
122.4550926657209
 20
-21.46971974688353
 30
0.0
  0
VERTEX
  5
690
  8
FLOORPLATE$T2$PHSINGLE
 10
128.5550926657209
 20
-21.4697197468835
 30
0.0
  0
VERTEX
  5
691
  8
FLOORPLATE$T2$PHSINGLE
 10
128.5550926657209
 20
-21.9697197468835
 30
0.0
  0
VERTEX
  5
692
  8
FLOORPLATE$T2$PHSINGLE
 10
130.1550926657209
 20
-21.9697197468835
 30
0.0
  0
VERTEX
  5
693
  8
FLOORPLATE$T2$PHSINGLE
 10
130.155092665721
 20
-21.46971974688347
 30
0.0
  0
VERTEX
  5
694
  8
FLOORPLATE$T2$PHSINGLE
 10
134.4550926657207
 20
-21.46971974688347
 30
0.0
  0
VERTEX
  5
695
  8
FLOORPLATE$T2$PHSINGLE
 10
134.4550926657208
 20
-19.86971974688348
 30
0.0
  0
VERTEX
  5
696
  8
FLOORPLATE$T2$PHSINGLE
 10
133.9550926657208
 20
-19.86971974688348
 30
0.0
  0
VERTEX
  5
697
  8
FLOORPLATE$T2$PHSINGLE
 10
133.9550926657207
 20
-5.46971974688347
 30
0.0
  0
VERTEX
  5
698
  8
FLOORPLATE$T2$PHSINGLE
 10
142.7550926657207
 20
-5.46971974688347
 30
0.0
  0
VERTEX
  5
699
  8
FLOORPLATE$T2$PHSINGLE
 10
142.7550926657211
 20
-29.38971974688349
 30
0.0
  0
VERTEX
  5
69A
  8
FLOORPLATE$T2$PHSINGLE
 10
142.2550926657211
 20
-29.38971974688349
 30
0.0
  0
VERTEX
  5
69B
  8
FLOORPLATE$T2$PHSINGLE
 10
142.2550926657211
 20
-30.26971974688348
 30
0.0
  0
VERTEX
  5
69C
  8
FLOORPLATE$T2$PHSINGLE
 10
130.6550926657212
 20
-30.26971974688348
 30
0.0
  0
VERTEX
  5
69D
  8
FLOORPLATE$T2$PHSINGLE
 10
130.6550926657212
 20
-29.38971974688349
 30
0.0
  0
VERTEX
  5
69E
  8
FLOORPLATE$T2$PHSINGLE
 10
130.1550926657208
 20
-29.38971974688349
 30
0.0
  0
VERTEX
  5
69F
  8
FLOORPLATE$T2$PHSINGLE
 10
130.1550926657208
 20
-30.26971974688351
 30
0.0
  0
VERTEX
  5
6A0
  8
FLOORPLATE$T2$PHSINGLE
 10
114.1550926657208
 20
-30.26971974688351
 30
0.0
  0
SEQEND
  5
6A1
  8
FLOORPLATE$T2$PHSINGLE
  0
TEXT
  5
6A3
  8
FLOORPLATE$T1$322
  6
CONTINUOUS
 10
203.7548539399837
 20
102.4996846036526
 30
0.0
 40
1.0
  1
3BED
  0
TEXT
  5
6A4
  8
FLOORPLATE$T1$322
  6
CONTINUOUS
 10
226.1109674872013
 20
102.0974615364124
 30
0.0
 40
1.0
  1
2BED
  0
TEXT
  5
6A6
  8
FLOORPLATE$T1$332
  6
CONTINUOUS
 10
225.950500022591
 20
77.03093470491072
 30
0.0
 40
1.0
  1
2BED
  0
TEXT
  5
6A7
  8
FLOORPLATE$T1$332
  6
CONTINUOUS
 10
204.3116120579184
 20
77.85008493419876
 30
0.0
 40
1.0
  1
3BED
  0
TEXT
  5
6A9
  8
FLOORPLATE$T1$233
  6
CONTINUOUS
 10
215.1279454230835
 20
137.0752035868381
 30
0.0
 40
1.0
  1
3BED
  0
TEXT
  5
6AA
  8
FLOORPLATE$T1$233
  6
CONTINUOUS
 10
204.3985728767317
 20
136.609233821507
 30
0.0
 40
1.0
  1
2BED
  0
POLYLINE
  5
6AB
  8
FLOORPLATE$T1$233
 66
     1
 10
0.0
 20
0.0
 30
0.0
 70
     1
  0
VERTEX
  5
6AC
  8
FLOORPLATE$T1$233
 10
222.3719810468366
 20
144.633445552662
 30
0.0
  0
VERTEX
  5
6AD
  8
FLOORPLATE$T1$233
 10
223.1719382555892
 20
144.6334501779824
 30
0.0
  0
VERTEX
  5
6AE
  8
FLOORPLATE$T1$233
 10
223.1719996227433
 20
141.4335119460373
 30
0.0
  0
VERTEX
  5
6AF
  8
FLOORPLATE$T1$233
 10
210.571999548774
 20
141.4335114305764
 30
0.0
  0
VERTEX
  5
6B0
  8
FLOORPLATE$T1$233
 10
210.5719995487144
 20
144.6334501779824
 30
0.0
  0
VERTEX
  5
6B1
  8
FLOORPLATE$T1$233
 10
211.3719382571389
 20
144.6334501779824
 30
0.0
  0
VERTEX
  5
6B2
  8
FLOORPLATE$T1$233
 10
211.3719382583906
 20
152.0335106576233
 30
0.0
  0
VERTEX
  5
6B3
  8
FLOORPLATE$T1$233
 10
222.3719382592251
 20
152.0335115068703
 30
0.0
  0
SEQEND
  5
6B4
  8
FLOORPLATE$T1$233
  0
POLYLINE
  5
6B5
  8
FLOORPLATE$T1$233
 66
     1
 10
0.0
 20
0.0
 30
0.0
 70
     1
  0
VERTEX
  5
6B6
  8
FLOORPLATE$T1$233
 10
210.5719995487144
 20
148.6334501794129
 30
0.0
  0
VERTEX
  5
6B7
  8
FLOORPLATE$T1$233
 10
201.7719995463302
 20
148.6334501794129
 30
0.0
  0
VERTEX
  5
6B8
  8
FLOORPLATE$T1$233
 10
201.7719995463302
 20
132.6334502585678
 30
0.0
  0
VERTEX
  5
6B9
  8
FLOORPLATE$T1$233
 10
210.5719995487144
 20
132.6334502585678
 30
0.0
  0
SEQEND
  5
6BA
  8
FLOORPLATE$T1$233
  0
POLYLINE
  5
6BB
  8
FLOORPLATE$T1$233
 66
     1
 10
0.0
 20
0.0
 30
0.0
 70
     1
  0
VERTEX
  5
6BC
  8
FLOORPLATE$T1$233
 10
223.1719995490124
 20
141.43351143153
 30
0.0
  0
VERTEX
  5
6BD
  8
FLOORPLATE$T1$233
 10
210.571999548774
 20
141.43351143153
 30
0.0
  0
VERTEX
  5
6BE
  8
FLOORPLATE$T1$233
 10
210.5719995485952
 20
132.6334502585678
 30
0.0
  0
VERTEX
  5
6BF
  8
FLOORPLATE$T1$233
 10
223.1719995488336
 20
132.6334502585678
 30
0.0
  0
SEQEND
  5
6C0
  8
FLOORPLATE$T1$233
  0
POLYLINE
  5
6C1
  8
FLOORPLATE$T1$233
 66
     1
 10
0.0
 20
0.0
 30
0.0
 70
     1
  0
VERTEX
  5
6C2
  8
FLOORPLATE$T1$233
 10
223.1719382555892
 20
148.6334501794129
 30
0.0
  0
VERTEX
  5
6C3
  8
FLOORPLATE$T1$233
 10
223.1719382555892
 20
132.6334502585678
 30
0.0
  0
VERTEX
  5
6C4
  8
FLOORPLATE$T1$233
 10
231.9719382579734
 20
132.6334502585678
 30
0.0
  0
VERTEX
  5
6C5
  8
FLOORPLATE$T1$233
 10
231.9719382579734
 20
148.6334501794129
 30
0.0
  0
SEQEND
  5
6C6
  8
FLOORPLATE$T1$233
  0
POLYLINE
  5
6C7
  8
FLOORPLATE$T1$233
 66
     1
 10
0.0
 20
0.0
 30
0.0
 70
     1
  0
VERTEX
  5
6C8
  8
FLOORPLATE$T1$233
 10
198.7719996227434
 20
134.3834502590448
 30
0.0
  0
VERTEX
  5
6C9
  8
FLOORPLATE$T1$233
 10
201.7719996227434
 20
134.3834502590448
 30
0.0
  0
VERTEX
  5
6CA
  8
FLOORPLATE$T1$233
 10
201.7719996227434
 20
146.3834502590448
 30
0.0
  0
VERTEX
  5
6CB
  8
FLOORPLATE$T1$233
 10
198.7719996227434
 20
146.3834502590448
 30
0.0
  0
SEQEND
  5
6CC
  8
FLOORPLATE$T1$233
  0
POLYLINE
  5
6CD
  8
FLOORPLATE$T1$233
 66
     1
 10
0.0
 20
0.0
 30
0.0
 70
     1
  0
VERTEX
  5
6CE
  8
FLOORPLATE$T1$233
 10
212.3219995487144
 20
129.633450258568
 30
0.0
  0
VERTEX
  5
6CF
  8
FLOORPLATE$T1$233
 10
221.3219995487144
 20
129.633450258568
 30
0.0
  0
VERTEX
  5
6D0
  8
FLOORPLATE$T1$233
 10
221.3219995487144
 20
132.633450258568
 30
0.0
  0
VERTEX
  5
6D1
  8
FLOORPLATE$T1$233
 10
212.3219995487144
 20
132.633450258568
 30
0.0
  0
SEQEND
  5
6D2
  8
FLOORPLATE$T1$233
  0
POLYLINE
  5
6D3
  8
FLOORPLATE$T1$233
 66
     1
 10
0.0
 20
0.0
 30
0.0
 70
     1
  0
VERTEX
  5
6D4
  8
FLOORPLATE$T1$233
 10
231.9718768922498
 20
134.3834502590448
 30
0.0
  0
VERTEX
  5
6D5
  8
FLOORPLATE$T1$233
 10
234.9718768922498
 20
134.3834502590448
 30
0.0
  0
VERTEX
  5
6D6
  8
FLOORPLATE$T1$233
 10
234.9718768922498
 20
146.3834502590448
 30
0.0
  0
VERTEX
  5
6D7
  8
FLOORPLATE$T1$233
 10
231.9718768922498
 20
146.3834502590448
 30
0.0
  0
SEQEND
  5
6D8
  8
FLOORPLATE$T1$233
  0
POINT
  5
6D9
  8
FLOORPLATE$T1$233
 10
217.0508244844078
 20
146.5759004881737
 30
0.0
  0
TEXT
  5
6DA
  8
FLOORPLATE$T1$233
  6
CONTINUOUS
 10
225.9918244844078
 20
139.609233821507
 30
0.0
 40
1.0
  1
3BED
  0
TEXT
  5
6DC
  8
FLOORPLATE$T1$222
  6
CONTINUOUS
 10
215.0098244844078
 20
198.0752298698649
 30
0.0
 40
1.0
  1
2BED
  0
POINT
  5
6DD
  8
FLOORPLATE$T1$222
 10
217.0508244844078
 20
208.0418965365316
 30
0.0
  0
POLYLINE
  5
6DE
  8
FLOORPLATE$T1$222
 66
     1
 10
0.0
 20
0.0
 30
0.0
 70
     1
  0
VERTEX
  5
6DF
  8
FLOORPLATE$T1$222
 10
231.9718768922498
 20
195.8494463074027
 30
0.0
  0
VERTEX
  5
6E0
  8
FLOORPLATE$T1$222
 10
234.9718768922498
 20
195.8494463074027
 30
0.0
  0
VERTEX
  5
6E1
  8
FLOORPLATE$T1$222
 10
234.9718768922498
 20
207.8494463074027
 30
0.0
  0
VERTEX
  5
6E2
  8
FLOORPLATE$T1$222
 10
231.9718768922498
 20
207.8494463074027
 30
0.0
  0
SEQEND
  5
6E3
  8
FLOORPLATE$T1$222
  0
POLYLINE
  5
6E4
  8
FLOORPLATE$T1$222
 66
     1
 10
0.0
 20
0.0
 30
0.0
 70
     1
  0
VERTEX
  5
6E5
  8
FLOORPLATE$T1$222
 10
212.3219995487144
 20
191.0994463069259
 30
0.0
  0
VERTEX
  5
6E6
  8
FLOORPLATE$T1$222
 10
221.3219995487144
 20
191.0994463069259
 30
0.0
  0
VERTEX
  5
6E7
  8
FLOORPLATE$T1$222
 10
221.3219995487144
 20
194.0994463069259
 30
0.0
  0
VERTEX
  5
6E8
  8
FLOORPLATE$T1$222
 10
212.3219995487144
 20
194.0994463069259
 30
0.0
  0
SEQEND
  5
6E9
  8
FLOORPLATE$T1$222
  0
POLYLINE
  5
6EA
  8
FLOORPLATE$T1$222
 66
     1
 10
0.0
 20
0.0
 30
0.0
 70
     1
  0
VERTEX
  5
6EB
  8
FLOORPLATE$T1$222
 10
198.7719996227434
 20
195.8494463074027
 30
0.0
  0
VERTEX
  5
6EC
  8
FLOORPLATE$T1$222
 10
201.7719996227434
 20
195.8494463074027
 30
0.0
  0
VERTEX
  5
6ED
  8
FLOORPLATE$T1$222
 10
201.7719996227434
 20
207.8494463074027
 30
0.0
  0
VERTEX
  5
6EE
  8
FLOORPLATE$T1$222
 10
198.7719996227434
 20
207.8494463074027
 30
0.0
  0
SEQEND
  5
6EF
  8
FLOORPLATE$T1$222
  0
POLYLINE
  5
6F0
  8
FLOORPLATE$T1$222
 66
     1
 10
0.0
 20
0.0
 30
0.0
 70
     1
  0
VERTEX
  5
6F1
  8
FLOORPLATE$T1$222
 10
223.1719382555892
 20
210.0994462277708
 30
0.0
  0
VERTEX
  5
6F2
  8
FLOORPLATE$T1$222
 10
223.1719382555892
 20
194.0994463069258
 30
0.0
  0
VERTEX
  5
6F3
  8
FLOORPLATE$T1$222
 10
231.9719382579734
 20
194.0994463069258
 30
0.0
  0
VERTEX
  5
6F4
  8
FLOORPLATE$T1$222
 10
231.9719382579734
 20
210.0994462277708
 30
0.0
  0
SEQEND
  5
6F5
  8
FLOORPLATE$T1$222
  0
POLYLINE
  5
6F6
  8
FLOORPLATE$T1$222
 66
     1
 10
0.0
 20
0.0
 30
0.0
 70
     1
  0
VERTEX
  5
6F7
  8
FLOORPLATE$T1$222
 10
223.1719995490124
 20
202.8995074798879
 30
0.0
  0
VERTEX
  5
6F8
  8
FLOORPLATE$T1$222
 10
210.571999548774
 20
202.8995074798879
 30
0.0
  0
VERTEX
  5
6F9
  8
FLOORPLATE$T1$222
 10
210.5719995485952
 20
194.0994463069258
 30
0.0
  0
VERTEX
  5
6FA
  8
FLOORPLATE$T1$222
 10
223.1719995488336
 20
194.0994463069258
 30
0.0
  0
SEQEND
  5
6FB
  8
FLOORPLATE$T1$222
  0
POLYLINE
  5
6FC
  8
FLOORPLATE$T1$222
 66
     1
 10
0.0
 20
0.0
 30
0.0
 70
     1
  0
VERTEX
  5
6FD
  8
FLOORPLATE$T1$222
 10
210.5719995487144
 20
210.0994462277708
 30
0.0
  0
VERTEX
  5
6FE
  8
FLOORPLATE$T1$222
 10
201.7719995463302
 20
210.0994462277708
 30
0.0
  0
VERTEX
  5
6FF
  8
FLOORPLATE$T1$222
 10
201.7719995463302
 20
194.0994463069258
 30
0.0
  0
VERTEX
  5
700
  8
FLOORPLATE$T1$222
 10
210.5719995487144
 20
194.0994463069258
 30
0.0
  0
SEQEND
  5
701
  8
FLOORPLATE$T1$222
  0
POLYLINE
  5
702
  8
FLOORPLATE$T1$222
 66
     1
 10
0.0
 20
0.0
 30
0.0
 70
     1
  0
VERTEX
  5
703
  8
FLOORPLATE$T1$222
 10
222.3719810468366
 20
206.0994416010199
 30
0.0
  0
VERTEX
  5
704
  8
FLOORPLATE$T1$222
 10
223.1719382555892
 20
206.0994462263403
 30
0.0
  0
VERTEX
  5
705
  8
FLOORPLATE$T1$222
 10
223.1719996227433
 20
202.8995079943952
 30
0.0
  0
VERTEX
  5
706
  8
FLOORPLATE$T1$222
 10
210.571999548774
 20
202.8995074789343
 30
0.0
  0
VERTEX
  5
707
  8
FLOORPLATE$T1$222
 10
210.5719995487144
 20
206.0994462263403
 30
0.0
  0
VERTEX
  5
708
  8
FLOORPLATE$T1$222
 10
211.3719382571389
 20
206.0994462263403
 30
0.0
  0
VERTEX
  5
709
  8
FLOORPLATE$T1$222
 10
211.3719382583906
 20
213.4995067059812
 30
0.0
  0
VERTEX
  5
70A
  8
FLOORPLATE$T1$222
 10
222.3719382592251
 20
213.4995075552282
 30
0.0
  0
SEQEND
  5
70B
  8
FLOORPLATE$T1$222
  0
TEXT
  5
70C
  8
FLOORPLATE$T1$222
  6
CONTINUOUS
 10
225.9204876019991
 20
198.0752298698649
 30
0.0
 40
1.0
  1
2BED
  0
TEXT
  5
70D
  8
FLOORPLATE$T1$222
  6
CONTINUOUS
 10
204.3069835214374
 20
198.0752298698649
 30
0.0
 40
1.0
  1
2BED
  0
POINT
  5
70F
  8
FLOORPLATE$T1$333
 10
217.0508244844078
 20
240.3507820285604
 30
0.0
  0
POLYLINE
  5
710
  8
FLOORPLATE$T1$333
 66
     1
 10
0.0
 20
0.0
 30
0.0
 70
     1
  0
VERTEX
  5
711
  8
FLOORPLATE$T1$333
 10
231.9718768922498
 20
228.1583317994316
 30
0.0
  0
VERTEX
  5
712
  8
FLOORPLATE$T1$333
 10
234.9718768922498
 20
228.1583317994316
 30
0.0
  0
VERTEX
  5
713
  8
FLOORPLATE$T1$333
 10
234.9718768922498
 20
240.1583317994316
 30
0.0
  0
VERTEX
  5
714
  8
FLOORPLATE$T1$333
 10
231.9718768922498
 20
240.1583317994316
 30
0.0
  0
SEQEND
  5
715
  8
FLOORPLATE$T1$333
  0
POLYLINE
  5
716
  8
FLOORPLATE$T1$333
 66
     1
 10
0.0
 20
0.0
 30
0.0
 70
     1
  0
VERTEX
  5
717
  8
FLOORPLATE$T1$333
 10
212.3219995487144
 20
223.4083317989547
 30
0.0
  0
VERTEX
  5
718
  8
FLOORPLATE$T1$333
 10
221.3219995487144
 20
223.4083317989547
 30
0.0
  0
VERTEX
  5
719
  8
FLOORPLATE$T1$333
 10
221.3219995487144
 20
226.4083317989547
 30
0.0
  0
VERTEX
  5
71A
  8
FLOORPLATE$T1$333
 10
212.3219995487144
 20
226.4083317989547
 30
0.0
  0
SEQEND
  5
71B
  8
FLOORPLATE$T1$333
  0
POLYLINE
  5
71C
  8
FLOORPLATE$T1$333
 66
     1
 10
0.0
 20
0.0
 30
0.0
 70
     1
  0
VERTEX
  5
71D
  8
FLOORPLATE$T1$333
 10
198.7719996227434
 20
228.1583317994316
 30
0.0
  0
VERTEX
  5
71E
  8
FLOORPLATE$T1$333
 10
201.7719996227434
 20
228.1583317994316
 30
0.0
  0
VERTEX
  5
71F
  8
FLOORPLATE$T1$333
 10
201.7719996227434
 20
240.1583317994316
 30
0.0
  0
VERTEX
  5
720
  8
FLOORPLATE$T1$333
 10
198.7719996227434
 20
240.1583317994316
 30
0.0
  0
SEQEND
  5
721
  8
FLOORPLATE$T1$333
  0
POLYLINE
  5
722
  8
FLOORPLATE$T1$333
 66
     1
 10
0.0
 20
0.0
 30
0.0
 70
     1
  0
VERTEX
  5
723
  8
FLOORPLATE$T1$333
 10
223.1719382555892
 20
242.4083317197996
 30
0.0
  0
VERTEX
  5
724
  8
FLOORPLATE$T1$333
 10
223.1719382555892
 20
226.4083317989546
 30
0.0
  0
VERTEX
  5
725
  8
FLOORPLATE$T1$333
 10
231.9719382579734
 20
226.4083317989546
 30
0.0
  0
VERTEX
  5
726
  8
FLOORPLATE$T1$333
 10
231.9719382579734
 20
242.4083317197996
 30
0.0
  0
SEQEND
  5
727
  8
FLOORPLATE$T1$333
  0
POLYLINE
  5
728
  8
FLOORPLATE$T1$333
 66
     1
 10
0.0
 20
0.0
 30
0.0
 70
     1
  0
VERTEX
  5
729
  8
FLOORPLATE$T1$333
 10
223.1719995490124
 20
235.2083929719168
 30
0.0
  0
VERTEX
  5
72A
  8
FLOORPLATE$T1$333
 10
210.571999548774
 20
235.2083929719168
 30
0.0
  0
VERTEX
  5
72B
  8
FLOORPLATE$T1$333
 10
210.5719995485952
 20
226.4083317989546
 30
0.0
  0
VERTEX
  5
72C
  8
FLOORPLATE$T1$333
 10
223.1719995488336
 20
226.4083317989546
 30
0.0
  0
SEQEND
  5
72D
  8
FLOORPLATE$T1$333
  0
POLYLINE
  5
72E
  8
FLOORPLATE$T1$333
 66
     1
 10
0.0
 20
0.0
 30
0.0
 70
     1
  0
VERTEX
  5
72F
  8
FLOORPLATE$T1$333
 10
210.5719995487144
 20
242.4083317197996
 30
0.0
  0
VERTEX
  5
730
  8
FLOORPLATE$T1$333
 10
201.7719995463302
 20
242.4083317197996
 30
0.0
  0
VERTEX
  5
731
  8
FLOORPLATE$T1$333
 10
201.7719995463302
 20
226.4083317989546
 30
0.0
  0
VERTEX
  5
732
  8
FLOORPLATE$T1$333
 10
210.5719995487144
 20
226.4083317989546
 30
0.0
  0
SEQEND
  5
733
  8
FLOORPLATE$T1$333
  0
POLYLINE
  5
734
  8
FLOORPLATE$T1$333
 66
     1
 10
0.0
 20
0.0
 30
0.0
 70
     1
  0
VERTEX
  5
735
  8
FLOORPLATE$T1$333
 10
222.3719810468366
 20
238.4083270930487
 30
0.0
  0
VERTEX
  5
736
  8
FLOORPLATE$T1$333
 10
223.1719382555892
 20
238.4083317183691
 30
0.0
  0
VERTEX
  5
737
  8
FLOORPLATE$T1$333
 10
223.1719996227433
 20
235.2083934864241
 30
0.0
  0
VERTEX
  5
738
  8
FLOORPLATE$T1$333
 10
210.571999548774
 20
235.2083929709631
 30
0.0
  0
VERTEX
  5
739
  8
FLOORPLATE$T1$333
 10
210.5719995487144
 20
238.4083317183691
 30
0.0
  0
VERTEX
  5
73A
  8
FLOORPLATE$T1$333
 10
211.3719382571389
 20
238.4083317183691
 30
0.0
  0
VERTEX
  5
73B
  8
FLOORPLATE$T1$333
 10
211.3719382583906
 20
245.8083921980101
 30
0.0
  0
VERTEX
  5
73C
  8
FLOORPLATE$T1$333
 10
222.3719382592251
 20
245.8083930472571
 30
0.0
  0
SEQEND
  5
73D
  8
FLOORPLATE$T1$333
  0
TEXT
  5
73E
  8
FLOORPLATE$T1$333
  6
CONTINUOUS
 10
225.9918244844078
 20
234.017622920561
 30
0.0
 40
1.0
  1
3BED
  0
TEXT
  5
73F
  8
FLOORPLATE$T1$333
  6
CONTINUOUS
 10
204.9918244844078
 20
234.017622920561
 30
0.0
 40
1.0
  1
3BED
  0
TEXT
  5
740
  8
FLOORPLATE$T1$333
  6
CONTINUOUS
 10
215.0499880436234
 20
230.2300641525971
 30
0.0
 40
1.0
  1
3BED
  0
TEXT
  5
742
  8
FLOORPLATE$T1$223
  6
CONTINUOUS
 10
215.0098244844078
 20
165.7937181612353
 30
0.0
 40
1.0
  1
2BED
  0
TEXT
  5
743
  8
FLOORPLATE$T1$223
  6
CONTINUOUS
 10
225.9918244844078
 20
168.7937181612353
 30
0.0
 40
1.0
  1
3BED
  0
POINT
  5
744
  8
FLOORPLATE$T1$223
 10
217.0508244844078
 20
175.760384827902
 30
0.0
  0
POLYLINE
  5
745
  8
FLOORPLATE$T1$223
 66
     1
 10
0.0
 20
0.0
 30
0.0
 70
     1
  0
VERTEX
  5
746
  8
FLOORPLATE$T1$223
 10
231.9718768922498
 20
163.5679345987731
 30
0.0
  0
VERTEX
  5
747
  8
FLOORPLATE$T1$223
 10
234.9718768922498
 20
163.5679345987731
 30
0.0
  0
VERTEX
  5
748
  8
FLOORPLATE$T1$223
 10
234.9718768922498
 20
175.5679345987731
 30
0.0
  0
VERTEX
  5
749
  8
FLOORPLATE$T1$223
 10
231.9718768922498
 20
175.5679345987731
 30
0.0
  0
SEQEND
  5
74A
  8
FLOORPLATE$T1$223
  0
POLYLINE
  5
74B
  8
FLOORPLATE$T1$223
 66
     1
 10
0.0
 20
0.0
 30
0.0
 70
     1
  0
VERTEX
  5
74C
  8
FLOORPLATE$T1$223
 10
212.3219995487144
 20
158.8179345982963
 30
0.0
  0
VERTEX
  5
74D
  8
FLOORPLATE$T1$223
 10
221.3219995487144
 20
158.8179345982963
 30
0.0
  0
VERTEX
  5
74E
  8
FLOORPLATE$T1$223
 10
221.3219995487144
 20
161.8179345982963
 30
0.0
  0
VERTEX
  5
74F
  8
FLOORPLATE$T1$223
 10
212.3219995487144
 20
161.8179345982963
 30
0.0
  0
SEQEND
  5
750
  8
FLOORPLATE$T1$223
  0
POLYLINE
  5
751
  8
FLOORPLATE$T1$223
 66
     1
 10
0.0
 20
0.0
 30
0.0
 70
     1
  0
VERTEX
  5
752
  8
FLOORPLATE$T1$223
 10
198.7719996227434
 20
163.5679345987731
 30
0.0
  0
VERTEX
  5
753
  8
FLOORPLATE$T1$223
 10
201.7719996227434
 20
163.5679345987731
 30
0.0
  0
VERTEX
  5
754
  8
FLOORPLATE$T1$223
 10
201.7719996227434
 20
175.5679345987731
 30
0.0
  0
VERTEX
  5
755
  8
FLOORPLATE$T1$223
 10
198.7719996227434
 20
175.5679345987731
 30
0.0
  0
SEQEND
  5
756
  8
FLOORPLATE$T1$223
  0
POLYLINE
  5
757
  8
FLOORPLATE$T1$223
 66
     1
 10
0.0
 20
0.0
 30
0.0
 70
     1
  0
VERTEX
  5
758
  8
FLOORPLATE$T1$223
 10
223.1719382555892
 20
177.8179345191412
 30
0.0
  0
VERTEX
  5
759
  8
FLOORPLATE$T1$223
 10
223.1719382555892
 20
161.8179345982962
 30
0.0
  0
VERTEX
  5
75A
  8
FLOORPLATE$T1$223
 10
231.9719382579734
 20
161.8179345982962
 30
0.0
  0
VERTEX
  5
75B
  8
FLOORPLATE$T1$223
 10
231.9719382579734
 20
177.8179345191412
 30
0.0
  0
SEQEND
  5
75C
  8
FLOORPLATE$T1$223
  0
POLYLINE
  5
75D
  8
FLOORPLATE$T1$223
 66
     1
 10
0.0
 20
0.0
 30
0.0
 70
     1
  0
VERTEX
  5
75E
  8
FLOORPLATE$T1$223
 10
223.1719995490124
 20
170.6179957712583
 30
0.0
  0
VERTEX
  5
75F
  8
FLOORPLATE$T1$223
 10
210.571999548774
 20
170.6179957712583
 30
0.0
  0
VERTEX
  5
760
  8
FLOORPLATE$T1$223
 10
210.5719995485952
 20
161.8179345982962
 30
0.0
  0
VERTEX
  5
761
  8
FLOORPLATE$T1$223
 10
223.1719995488336
 20
161.8179345982962
 30
0.0
  0
SEQEND
  5
762
  8
FLOORPLATE$T1$223
  0
POLYLINE
  5
763
  8
FLOORPLATE$T1$223
 66
     1
 10
0.0
 20
0.0
 30
0.0
 70
     1
  0
VERTEX
  5
764
  8
FLOORPLATE$T1$223
 10
210.5719995487144
 20
177.8179345191412
 30
0.0
  0
VERTEX
  5
765
  8
FLOORPLATE$T1$223
 10
201.7719995463302
 20
177.8179345191412
 30
0.0
  0
VERTEX
  5
766
  8
FLOORPLATE$T1$223
 10
201.7719995463302
 20
161.8179345982962
 30
0.0
  0
VERTEX
  5
767
  8
FLOORPLATE$T1$223
 10
210.5719995487144
 20
161.8179345982962
 30
0.0
  0
SEQEND
  5
768
  8
FLOORPLATE$T1$223
  0
POLYLINE
  5
769
  8
FLOORPLATE$T1$223
 66
     1
 10
0.0
 20
0.0
 30
0.0
 70
     1
  0
VERTEX
  5
76A
  8
FLOORPLATE$T1$223
 10
222.3719810468366
 20
173.8179298923903
 30
0.0
  0
VERTEX
  5
76B
  8
FLOORPLATE$T1$223
 10
223.1719382555892
 20
173.8179345177107
 30
0.0
  0
VERTEX
  5
76C
  8
FLOORPLATE$T1$223
 10
223.1719996227433
 20
170.6179962857656
 30
0.0
  0
VERTEX
  5
76D
  8
FLOORPLATE$T1$223
 10
210.571999548774
 20
170.6179957703047
 30
0.0
  0
VERTEX
  5
76E
  8
FLOORPLATE$T1$223
 10
210.5719995487144
 20
173.8179345177107
 30
0.0
  0
VERTEX
  5
76F
  8
FLOORPLATE$T1$223
 10
211.3719382571389
 20
173.8179345177107
 30
0.0
  0
VERTEX
  5
770
  8
FLOORPLATE$T1$223
 10
211.3719382583906
 20
181.2179949973516
 30
0.0
  0
VERTEX
  5
771
  8
FLOORPLATE$T1$223
 10
222.3719382592251
 20
181.2179958465986
 30
0.0
  0
SEQEND
  5
772
  8
FLOORPLATE$T1$223
  0
TEXT
  5
773
  8
FLOORPLATE$T1$223
  6
CONTINUOUS
 10
204.0818190973981
 20
165.7937181612353
 30
0.0
 40
1.0
  1
2BED
  0
TEXT
  5
774
  8
FLOORPLATE$T1$332
  6
CONTINUOUS
 10
215.1279454230835
 20
74.41805773511906
 30
0.0
 40
1.0
  1
3BED
  0
POLYLINE
  5
775
  8
FLOORPLATE$T1$332
 66
     1
 10
0.0
 20
0.0
 30
0.0
 70
     1
  0
VERTEX
  5
776
  8
FLOORPLATE$T1$332
 10
222.3719810468366
 20
81.97629970094292
 30
0.0
  0
VERTEX
  5
777
  8
FLOORPLATE$T1$332
 10
223.1719382555892
 20
81.97630432626336
 30
0.0
  0
VERTEX
  5
778
  8
FLOORPLATE$T1$332
 10
223.1719996227433
 20
78.7763660943183
 30
0.0
  0
VERTEX
  5
779
  8
FLOORPLATE$T1$332
 10
210.571999548774
 20
78.77636557885735
 30
0.0
  0
VERTEX
  5
77A
  8
FLOORPLATE$T1$332
 10
210.5719995487144
 20
81.97630432626336
 30
0.0
  0
VERTEX
  5
77B
  8
FLOORPLATE$T1$332
 10
211.3719382571389
 20
81.97630432626336
 30
0.0
  0
VERTEX
  5
77C
  8
FLOORPLATE$T1$332
 10
211.3719382583906
 20
89.37636480590432
 30
0.0
  0
VERTEX
  5
77D
  8
FLOORPLATE$T1$332
 10
222.3719382592251
 20
89.37636565515129
 30
0.0
  0
SEQEND
  5
77E
  8
FLOORPLATE$T1$332
  0
POLYLINE
  5
77F
  8
FLOORPLATE$T1$332
 66
     1
 10
0.0
 20
0.0
 30
0.0
 70
     1
  0
VERTEX
  5
780
  8
FLOORPLATE$T1$332
 10
210.5719995487144
 20
85.97630432769385
 30
0.0
  0
VERTEX
  5
781
  8
FLOORPLATE$T1$332
 10
201.7719995463302
 20
85.97630432769385
 30
0.0
  0
VERTEX
  5
782
  8
FLOORPLATE$T1$332
 10
201.7719995463302
 20
69.97630440684883
 30
0.0
  0
VERTEX
  5
783
  8
FLOORPLATE$T1$332
 10
210.5719995487144
 20
69.97630440684883
 30
0.0
  0
SEQEND
  5
784
  8
FLOORPLATE$T1$332
  0
POLYLINE
  5
785
  8
FLOORPLATE$T1$332
 66
     1
 10
0.0
 20
0.0
 30
0.0
 70
     1
  0
VERTEX
  5
786
  8
FLOORPLATE$T1$332
 10
223.1719995490124
 20
78.77636557981101
 30
0.0
  0
VERTEX
  5
787
  8
FLOORPLATE$T1$332
 10
210.571999548774
 20
78.77636557981101
 30
0.0
  0
VERTEX
  5
788
  8
FLOORPLATE$T1$332
 10
210.5719995485952
 20
69.97630440684883
 30
0.0
  0
VERTEX
  5
789
  8
FLOORPLATE$T1$332
 10
223.1719995488336
 20
69.97630440684883
 30
0.0
  0
SEQEND
  5
78A
  8
FLOORPLATE$T1$332
  0
POLYLINE
  5
78B
  8
FLOORPLATE$T1$332
 66
     1
 10
0.0
 20
0.0
 30
0.0
 70
     1
  0
VERTEX
  5
78C
  8
FLOORPLATE$T1$332
 10
223.1719382555892
 20
85.97630432769385
 30
0.0
  0
VERTEX
  5
78D
  8
FLOORPLATE$T1$332
 10
223.1719382555892
 20
69.97630440684883
 30
0.0
  0
VERTEX
  5
78E
  8
FLOORPLATE$T1$332
 10
231.9719382579734
 20
69.97630440684883
 30
0.0
  0
VERTEX
  5
78F
  8
FLOORPLATE$T1$332
 10
231.9719382579734
 20
85.97630432769385
 30
0.0
  0
SEQEND
  5
790
  8
FLOORPLATE$T1$332
  0
POLYLINE
  5
791
  8
FLOORPLATE$T1$332
 66
     1
 10
0.0
 20
0.0
 30
0.0
 70
     1
  0
VERTEX
  5
792
  8
FLOORPLATE$T1$332
 10
198.7719996227434
 20
71.7263044073258
 30
0.0
  0
VERTEX
  5
793
  8
FLOORPLATE$T1$332
 10
201.7719996227434
 20
71.7263044073258
 30
0.0
  0
VERTEX
  5
794
  8
FLOORPLATE$T1$332
 10
201.7719996227434
 20
83.7263044073258
 30
0.0
  0
VERTEX
  5
795
  8
FLOORPLATE$T1$332
 10
198.7719996227434
 20
83.7263044073258
 30
0.0
  0
SEQEND
  5
796
  8
FLOORPLATE$T1$332
  0
POLYLINE
  5
797
  8
FLOORPLATE$T1$332
 66
     1
 10
0.0
 20
0.0
 30
0.0
 70
     1
  0
VERTEX
  5
798
  8
FLOORPLATE$T1$332
 10
212.3219995487144
 20
66.97630440684897
 30
0.0
  0
VERTEX
  5
799
  8
FLOORPLATE$T1$332
 10
221.3219995487144
 20
66.97630440684897
 30
0.0
  0
VERTEX
  5
79A
  8
FLOORPLATE$T1$332
 10
221.3219995487144
 20
69.97630440684897
 30
0.0
  0
VERTEX
  5
79B
  8
FLOORPLATE$T1$332
 10
212.3219995487144
 20
69.97630440684897
 30
0.0
  0
SEQEND
  5
79C
  8
FLOORPLATE$T1$332
  0
POLYLINE
  5
79D
  8
FLOORPLATE$T1$332
 66
     1
 10
0.0
 20
0.0
 30
0.0
 70
     1
  0
VERTEX
  5
79E
  8
FLOORPLATE$T1$332
 10
231.9718768922498
 20
71.7263044073258
 30
0.0
  0
VERTEX
  5
79F
  8
FLOORPLATE$T1$332
 10
234.9718768922498
 20
71.7263044073258
 30
0.0
  0
VERTEX
  5
7A0
  8
FLOORPLATE$T1$332
 10
234.9718768922498
 20
83.7263044073258
 30
0.0
  0
VERTEX
  5
7A1
  8
FLOORPLATE$T1$332
 10
231.9718768922498
 20
83.7263044073258
 30
0.0
  0
SEQEND
  5
7A2
  8
FLOORPLATE$T1$332
  0
POINT
  5
7A3
  8
FLOORPLATE$T1$332
 10
217.0508244844078
 20
83.91875463645464
 30
0.0
  0
TEXT
  5
7A4
  8
FLOORPLATE$T1$322
  6
CONTINUOUS
 10
215.0098244844078
 20
103.1365723095163
 30
0.0
 40
1.0
  1
2BED
  0
POINT
  5
7A5
  8
FLOORPLATE$T1$322
 10
217.0508244844078
 20
113.103238976183
 30
0.0
  0
POLYLINE
  5
7A6
  8
FLOORPLATE$T1$322
 66
     1
 10
0.0
 20
0.0
 30
0.0
 70
     1
  0
VERTEX
  5
7A7
  8
FLOORPLATE$T1$322
 10
231.9718768922498
 20
100.9107887470541
 30
0.0
  0
VERTEX
  5
7A8
  8
FLOORPLATE$T1$322
 10
234.9718768922498
 20
100.9107887470541
 30
0.0
  0
VERTEX
  5
7A9
  8
FLOORPLATE$T1$322
 10
234.9718768922498
 20
112.9107887470541
 30
0.0
  0
VERTEX
  5
7AA
  8
FLOORPLATE$T1$322
 10
231.9718768922498
 20
112.9107887470541
 30
0.0
  0
SEQEND
  5
7AB
  8
FLOORPLATE$T1$322
  0
POLYLINE
  5
7AC
  8
FLOORPLATE$T1$322
 66
     1
 10
0.0
 20
0.0
 30
0.0
 70
     1
  0
VERTEX
  5
7AD
  8
FLOORPLATE$T1$322
 10
212.3219995487144
 20
96.16078874657728
 30
0.0
  0
VERTEX
  5
7AE
  8
FLOORPLATE$T1$322
 10
221.3219995487144
 20
96.16078874657728
 30
0.0
  0
VERTEX
  5
7AF
  8
FLOORPLATE$T1$322
 10
221.3219995487144
 20
99.16078874657728
 30
0.0
  0
VERTEX
  5
7B0
  8
FLOORPLATE$T1$322
 10
212.3219995487144
 20
99.16078874657728
 30
0.0
  0
SEQEND
  5
7B1
  8
FLOORPLATE$T1$322
  0
POLYLINE
  5
7B2
  8
FLOORPLATE$T1$322
 66
     1
 10
0.0
 20
0.0
 30
0.0
 70
     1
  0
VERTEX
  5
7B3
  8
FLOORPLATE$T1$322
 10
198.7719996227434
 20
100.9107887470541
 30
0.0
  0
VERTEX
  5
7B4
  8
FLOORPLATE$T1$322
 10
201.7719996227434
 20
100.9107887470541
 30
0.0
  0
VERTEX
  5
7B5
  8
FLOORPLATE$T1$322
 10
201.7719996227434
 20
112.9107887470541
 30
0.0
  0
VERTEX
  5
7B6
  8
FLOORPLATE$T1$322
 10
198.7719996227434
 20
112.9107887470541
 30
0.0
  0
SEQEND
  5
7B7
  8
FLOORPLATE$T1$322
  0
POLYLINE
  5
7B8
  8
FLOORPLATE$T1$322
 66
     1
 10
0.0
 20
0.0
 30
0.0
 70
     1
  0
VERTEX
  5
7B9
  8
FLOORPLATE$T1$322
 10
223.1719382555892
 20
115.1607886674222
 30
0.0
  0
VERTEX
  5
7BA
  8
FLOORPLATE$T1$322
 10
223.1719382555892
 20
99.16078874657714
 30
0.0
  0
VERTEX
  5
7BB
  8
FLOORPLATE$T1$322
 10
231.9719382579734
 20
99.16078874657714
 30
0.0
  0
VERTEX
  5
7BC
  8
FLOORPLATE$T1$322
 10
231.9719382579734
 20
115.1607886674222
 30
0.0
  0
SEQEND
  5
7BD
  8
FLOORPLATE$T1$322
  0
POLYLINE
  5
7BE
  8
FLOORPLATE$T1$322
 66
     1
 10
0.0
 20
0.0
 30
0.0
 70
     1
  0
VERTEX
  5
7BF
  8
FLOORPLATE$T1$322
 10
223.1719995490124
 20
107.9608499195393
 30
0.0
  0
VERTEX
  5
7C0
  8
FLOORPLATE$T1$322
 10
210.571999548774
 20
107.9608499195393
 30
0.0
  0
VERTEX
  5
7C1
  8
FLOORPLATE$T1$322
 10
210.5719995485952
 20
99.16078874657714
 30
0.0
  0
VERTEX
  5
7C2
  8
FLOORPLATE$T1$322
 10
223.1719995488336
 20
99.16078874657714
 30
0.0
  0
SEQEND
  5
7C3
  8
FLOORPLATE$T1$322
  0
POLYLINE
  5
7C4
  8
FLOORPLATE$T1$322
 66
     1
 10
0.0
 20
0.0
 30
0.0
 70
     1
  0
VERTEX
  5
7C5
  8
FLOORPLATE$T1$322
 10
210.5719995487144
 20
115.1607886674222
 30
0.0
  0
VERTEX
  5
7C6
  8
FLOORPLATE$T1$322
 10
201.7719995463302
 20
115.1607886674222
 30
0.0
  0
VERTEX
  5
7C7
  8
FLOORPLATE$T1$322
 10
201.7719995463302
 20
99.16078874657714
 30
0.0
  0
VERTEX
  5
7C8
  8
FLOORPLATE$T1$322
 10
210.5719995487144
 20
99.16078874657714
 30
0.0
  0
SEQEND
  5
7C9
  8
FLOORPLATE$T1$322
  0
POLYLINE
  5
7CA
  8
FLOORPLATE$T1$322
 66
     1
 10
0.0
 20
0.0
 30
0.0
 70
     1
  0
VERTEX
  5
7CB
  8
FLOORPLATE$T1$322
 10
222.3719810468366
 20
111.1607840406712
 30
0.0
  0
VERTEX
  5
7CC
  8
FLOORPLATE$T1$322
 10
223.1719382555892
 20
111.1607886659917
 30
0.0
  0
VERTEX
  5
7CD
  8
FLOORPLATE$T1$322
 10
223.1719996227433
 20
107.9608504340466
 30
0.0
  0
VERTEX
  5
7CE
  8
FLOORPLATE$T1$322
 10
210.571999548774
 20
107.9608499185857
 30
0.0
  0
VERTEX
  5
7CF
  8
FLOORPLATE$T1$322
 10
210.5719995487144
 20
111.1607886659917
 30
0.0
  0
VERTEX
  5
7D0
  8
FLOORPLATE$T1$322
 10
211.3719382571389
 20
111.1607886659917
 30
0.0
  0
VERTEX
  5
7D1
  8
FLOORPLATE$T1$322
 10
211.3719382583906
 20
118.5608491456326
 30
0.0
  0
VERTEX
  5
7D2
  8
FLOORPLATE$T1$322
 10
222.3719382592251
 20
118.5608499948796
 30
0.0
  0
SEQEND
  5
7D3
  8
FLOORPLATE$T1$322
  0
POLYLINE
  5
7D5
  8
FLOORPLATE$T1$323
 66
     1
 10
0.0
 20
0.0
 30
0.0
 70
     1
  0
VERTEX
  5
7D6
  8
FLOORPLATE$T1$323
 10
222.3719810468366
 20
17.74995218882404
 30
0.0
  0
VERTEX
  5
7D7
  8
FLOORPLATE$T1$323
 10
223.1719382555892
 20
17.74995681414448
 30
0.0
  0
VERTEX
  5
7D8
  8
FLOORPLATE$T1$323
 10
223.1719996227433
 20
14.55001858219944
 30
0.0
  0
VERTEX
  5
7D9
  8
FLOORPLATE$T1$323
 10
210.571999548774
 20
14.55001806673847
 30
0.0
  0
VERTEX
  5
7DA
  8
FLOORPLATE$T1$323
 10
210.5719995487144
 20
17.74995681414448
 30
0.0
  0
VERTEX
  5
7DB
  8
FLOORPLATE$T1$323
 10
211.3719382571389
 20
17.74995681414448
 30
0.0
  0
VERTEX
  5
7DC
  8
FLOORPLATE$T1$323
 10
211.3719382583906
 20
25.15001729378543
 30
0.0
  0
VERTEX
  5
7DD
  8
FLOORPLATE$T1$323
 10
222.3719382592251
 20
25.15001814303241
 30
0.0
  0
SEQEND
  5
7DE
  8
FLOORPLATE$T1$323
  0
POLYLINE
  5
7DF
  8
FLOORPLATE$T1$323
 66
     1
 10
0.0
 20
0.0
 30
0.0
 70
     1
  0
VERTEX
  5
7E0
  8
FLOORPLATE$T1$323
 10
210.5719995487144
 20
21.74995681557498
 30
0.0
  0
VERTEX
  5
7E1
  8
FLOORPLATE$T1$323
 10
201.7719995463302
 20
21.74995681557498
 30
0.0
  0
VERTEX
  5
7E2
  8
FLOORPLATE$T1$323
 10
201.7719995463302
 20
5.749956894729955
 30
0.0
  0
VERTEX
  5
7E3
  8
FLOORPLATE$T1$323
 10
210.5719995487144
 20
5.749956894729955
 30
0.0
  0
SEQEND
  5
7E4
  8
FLOORPLATE$T1$323
  0
POLYLINE
  5
7E5
  8
FLOORPLATE$T1$323
 66
     1
 10
0.0
 20
0.0
 30
0.0
 70
     1
  0
VERTEX
  5
7E6
  8
FLOORPLATE$T1$323
 10
223.1719995490124
 20
14.55001806769214
 30
0.0
  0
VERTEX
  5
7E7
  8
FLOORPLATE$T1$323
 10
210.571999548774
 20
14.55001806769214
 30
0.0
  0
VERTEX
  5
7E8
  8
FLOORPLATE$T1$323
 10
210.5719995485952
 20
5.749956894729955
 30
0.0
  0
VERTEX
  5
7E9
  8
FLOORPLATE$T1$323
 10
223.1719995488336
 20
5.749956894729955
 30
0.0
  0
SEQEND
  5
7EA
  8
FLOORPLATE$T1$323
  0
POLYLINE
  5
7EB
  8
FLOORPLATE$T1$323
 66
     1
 10
0.0
 20
0.0
 30
0.0
 70
     1
  0
VERTEX
  5
7EC
  8
FLOORPLATE$T1$323
 10
223.1719382555892
 20
21.74995681557498
 30
0.0
  0
VERTEX
  5
7ED
  8
FLOORPLATE$T1$323
 10
223.1719382555892
 20
5.749956894729955
 30
0.0
  0
VERTEX
  5
7EE
  8
FLOORPLATE$T1$323
 10
231.9719382579734
 20
5.749956894729955
 30
0.0
  0
VERTEX
  5
7EF
  8
FLOORPLATE$T1$323
 10
231.9719382579734
 20
21.74995681557498
 30
0.0
  0
SEQEND
  5
7F0
  8
FLOORPLATE$T1$323
  0
POLYLINE
  5
7F1
  8
FLOORPLATE$T1$323
 66
     1
 10
0.0
 20
0.0
 30
0.0
 70
     1
  0
VERTEX
  5
7F2
  8
FLOORPLATE$T1$323
 10
198.7719996227434
 20
7.499956895206914
 30
0.0
  0
VERTEX
  5
7F3
  8
FLOORPLATE$T1$323
 10
201.7719996227434
 20
7.499956895206914
 30
0.0
  0
VERTEX
  5
7F4
  8
FLOORPLATE$T1$323
 10
201.7719996227434
 20
19.49995689520691
 30
0.0
  0
VERTEX
  5
7F5
  8
FLOORPLATE$T1$323
 10
198.7719996227434
 20
19.49995689520691
 30
0.0
  0
SEQEND
  5
7F6
  8
FLOORPLATE$T1$323
  0
POLYLINE
  5
7F7
  8
FLOORPLATE$T1$323
 66
     1
 10
0.0
 20
0.0
 30
0.0
 70
     1
  0
VERTEX
  5
7F8
  8
FLOORPLATE$T1$323
 10
212.3219995487144
 20
2.749956894730083
 30
0.0
  0
VERTEX
  5
7F9
  8
FLOORPLATE$T1$323
 10
221.3219995487144
 20
2.749956894730083
 30
0.0
  0
VERTEX
  5
7FA
  8
FLOORPLATE$T1$323
 10
221.3219995487144
 20
5.749956894730083
 30
0.0
  0
VERTEX
  5
7FB
  8
FLOORPLATE$T1$323
 10
212.3219995487144
 20
5.749956894730083
 30
0.0
  0
SEQEND
  5
7FC
  8
FLOORPLATE$T1$323
  0
POLYLINE
  5
7FD
  8
FLOORPLATE$T1$323
 66
     1
 10
0.0
 20
0.0
 30
0.0
 70
     1
  0
VERTEX
  5
7FE
  8
FLOORPLATE$T1$323
 10
231.9718768922498
 20
7.499956895206914
 30
0.0
  0
VERTEX
  5
7FF
  8
FLOORPLATE$T1$323
 10
234.9718768922498
 20
7.499956895206914
 30
0.0
  0
VERTEX
  5
800
  8
FLOORPLATE$T1$323
 10
234.9718768922498
 20
19.49995689520691
 30
0.0
  0
VERTEX
  5
801
  8
FLOORPLATE$T1$323
 10
231.9718768922498
 20
19.49995689520691
 30
0.0
  0
SEQEND
  5
802
  8
FLOORPLATE$T1$323
  0
POINT
  5
803
  8
FLOORPLATE$T1$323
 10
217.0508244844078
 20
19.69240712433576
 30
0.0
  0
TEXT
  5
804
  8
FLOORPLATE$T1$323
  6
CONTINUOUS
 10
204.9918244844078
 20
12.72574045766909
 30
0.0
 40
1.0
  1
3BED
  0
TEXT
  5
805
  8
FLOORPLATE$T1$323
  6
CONTINUOUS
 10
225.9918244844078
 20
12.72574045766909
 30
0.0
 40
1.0
  1
3BED
  0
TEXT
  5
806
  8
FLOORPLATE$T1$323
  6
CONTINUOUS
 10
215.0098244844078
 20
9.725740457669092
 30
0.0
 40
1.0
  1
2BED
  0
POINT
  5
808
  8
FOOTPRINT$T2
 10
-132.0
 20
287.0
 30
0.0
  0
POINT
  5
809
  8
FOOTPRINT$T2
 10
-80.0
 20
292.0
 30
0.0
  0
POINT
  5
80A
  8
FOOTPRINT$T2
 10
-21.0
 20
298.0
 30
0.0
  0
POLYLINE
  5
80C
  8
BOUNDARY
 66
     1
 10
0.0
 20
0.0
 30
0.0
 70
     1
  0
VERTEX
  5
80D
  8
BOUNDARY
 10
-158.5204502660085
 20
243.7003778862069
 30
0.0
  0
VERTEX
  5
80E
  8
BOUNDARY
 10
-156.1254871174935
 20
269.3753340991964
 30
0.0
  0
VERTEX
  5
80F
  8
BOUNDARY
 10
-154.3368367227331
 20
288.5032791732158
 30
0.0
  0
VERTEX
  5
810
  8
BOUNDARY
 10
-154.1784615345557
 20
290.400753889657
 30
0.0
  0
VERTEX
  5
811
  8
BOUNDARY
 10
-153.6411114968687
 20
296.2359299741272
 30
0.0
  0
VERTEX
  5
812
  8
BOUNDARY
 10
-150.7200149049136
 20
302.9064756565662
 30
0.0
  0
VERTEX
  5
813
  8
BOUNDARY
 10
-149.7248342879843
 20
303.1732349857322
 30
0.0
  0
VERTEX
  5
814
  8
BOUNDARY
 10
-139.6352047982009
 20
304.0476197754559
 30
0.0
  0
VERTEX
  5
815
  8
BOUNDARY
 10
-124.3405846059231
 20
305.3456079001193
 30
0.0
  0
VERTEX
  5
816
  8
BOUNDARY
 10
-109.2978893792606
 20
306.6628524945279
 30
0.0
  0
VERTEX
  5
817
  8
BOUNDARY
 10
-82.2223935116599
 20
308.9300058901505
 30
0.0
  0
VERTEX
  5
818
  8
BOUNDARY
 10
-42.10009464936593
 20
312.2497093429598
 30
0.0
  0
VERTEX
  5
819
  8
BOUNDARY
 10
2.874623692125624
 20
314.9468485851081
 30
0.0
  0
VERTEX
  5
81A
  8
BOUNDARY
 10
1.780438558188052
 20
268.7941228268567
 30
0.0
  0
VERTEX
  5
81B
  8
BOUNDARY
 10
1.391893202738629
 20
259.7918352561966
 30
0.0
  0
VERTEX
  5
81C
  8
BOUNDARY
 10
0.4498614598273889
 20
219.1329638232937
 30
0.0
  0
VERTEX
  5
81D
  8
BOUNDARY
 10
0.2057450161319139
 20
209.4282758756858
 30
0.0
  0
VERTEX
  5
81E
  8
BOUNDARY
 10
0.0000000001095941
 20
200.0000000005391
 30
0.0
  0
VERTEX
  5
81F
  8
BOUNDARY
 10
-40.40060489798179
 20
199.1018080072287
 30
0.0
  0
VERTEX
  5
820
  8
BOUNDARY
 10
-43.48325700578107
 20
199.0467082519715
 30
0.0
  0
VERTEX
  5
821
  8
BOUNDARY
 10
-43.47106947755287
 20
195.5975475621748
 30
0.0
  0
VERTEX
  5
822
  8
BOUNDARY
 10
-43.27537662132409
 20
166.4547139782445
 30
0.0
  0
VERTEX
  5
823
  8
BOUNDARY
 10
-44.50428471102532
 20
129.3959669823594
 30
0.0
  0
VERTEX
  5
824
  8
BOUNDARY
 10
-54.38920379601996
 20
128.6833803702139
 30
0.0
  0
VERTEX
  5
825
  8
BOUNDARY
 10
-88.61735126095391
 20
127.435442422012
 30
0.0
  0
VERTEX
  5
826
  8
BOUNDARY
 10
-96.51349822789825
 20
127.1906197346658
 30
0.0
  0
VERTEX
  5
827
  8
BOUNDARY
 10
-101.1335895544776
 20
124.0544538119722
 30
0.0
  0
VERTEX
  5
828
  8
BOUNDARY
 10
-118.0345488818084
 20
123.8140878229979
 30
0.0
  0
VERTEX
  5
829
  8
BOUNDARY
 10
-115.4783660120438
 20
174.1900555373888
 30
0.0
  0
VERTEX
  5
82A
  8
BOUNDARY
 10
-160.8979578939011
 20
177.053709721437
 30
0.0
  0
VERTEX
  5
82B
  8
BOUNDARY
 10
-160.7260565622787
 20
179.7734313859995
 30
0.0
  0
VERTEX
  5
82C
  8
BOUNDARY
 10
-159.4127082421207
 20
194.8756406345241
 30
0.0
  0
VERTEX
  5
82D
  8
BOUNDARY
 10
-159.4165215517696
 20
206.1871810450294
 30
0.0
  0
VERTEX
  5
82E
  8
BOUNDARY
 10
-159.4694161230336
 20
217.3446485744212
 30
0.0
  0
VERTEX
  5
82F
  8
BOUNDARY
 10
-159.8406098935934
 20
229.5871225659508
 30
0.0
  0
SEQEND
  5
830
  8
BOUNDARY
  0
POINT
  5
832
  8
FOOTPRINT$T1
 10
-25.0
 20
218.0
 30
0.0
  0
POLYLINE
  5
834
  8
N_ARROW
 66
     1
 10
0.0
 20
0.0
 30
0.0
 70
     1
  0
VERTEX
  5
835
  8
N_ARROW
 10
-221.2643695281776
 20
201.4960590589197
 30
0.0
  0
VERTEX
  5
836
  8
N_ARROW
 10
-229.2652642056884
 20
200.2086661471703
 30
0.0
  0
VERTEX
  5
837
  8
N_ARROW
 10
-219.35089826914
 20
193.6213956444822
 30
0.0
  0
SEQEND
  5
838
  8
N_ARROW
  0
POLYLINE
  5
839
  8
N_ARROW
 66
     1
 10
0.0
 20
0.0
 30
0.0
 70
     1
  0
VERTEX
  5
83A
  8
N_ARROW
 10
-229.8186663346405
 20
199.3757519356987
 30
0.0
  0
VERTEX
  5
83B
  8
N_ARROW
 10
-228.5289927168781
 20
198.5188712199019
 30
0.0
  0
VERTEX
  5
83C
  8
N_ARROW
 10
-228.1561298317037
 20
183.166764004488
 30
0.0
  0
VERTEX
  5
83D
  8
N_ARROW
 10
-221.1939740158545
 20
193.6453621488075
 30
0.0
  0
VERTEX
  5
83E
  8
N_ARROW
 10
-219.9849049992022
 20
192.842036477748
 30
0.0
  0
VERTEX
  5
83F
  8
N_ARROW
 10
-228.2323818887466
 20
180.4289279067849
 30
0.0
  0
VERTEX
  5
840
  8
N_ARROW
 10
-229.522055506509
 20
181.2858086225817
 30
0.0
  0
VERTEX
  5
841
  8
N_ARROW
 10
-229.8949183916834
 20
196.6379158379956
 30
0.0
  0
VERTEX
  5
842
  8
N_ARROW
 10
-236.8570742075326
 20
186.1593176936761
 30
0.0
  0
VERTEX
  5
843
  8
N_ARROW
 10
-238.0661432241849
 20
186.9626433647357
 30
0.0
  0
SEQEND
  5
844
  8
N_ARROW
  0
ENDSEC
  0
EOF
