  0
SECTION
  2
HEADER
  9
$ACADVER
  1
AC1009
  9
$DWGCODEPAGE
  3
ansi_1252
  9
$INSBASE
 10
0.0
 20
0.0
 30
0.0
  9
$EXTMIN
 10
4.62210711111463
 20
-215.7634792073083
 30
0.0
  9
$EXTMAX
 10
234.7797758252282
 20
226.4492018479569
 30
0.0
  9
$LIMMIN
 10
0.0
 20
0.0
  9
$LIMMAX
 10
12.0
 20
9.0
  9
$ORTHOMODE
 70
     0
  9
$REGENMODE
 70
     1
  9
$FILLMODE
 70
     1
  9
$QTEXTMODE
 70
     0
  9
$MIRRTEXT
 70
     1
  9
$DRAGMODE
 70
     2
  9
$LTSCALE
 40
1000.0
  9
$OSMODE
 70
    37
  9
$ATTMODE
 70
     1
  9
$TEXTSIZE
 40
0.2
  9
$TRACEWID
 40
0.05
  9
$TEXTSTYLE
  7
STANDARD
  9
$CLAYER
  8
0
  9
$CELTYPE
  6
BYLAYER
  9
$CECOLOR
 62
   256
  9
$DIMSCALE
 40
1.0
  9
$DIMASZ
 40
0.18
  9
$DIMEXO
 40
0.0625
  9
$DIMDLI
 40
0.38
  9
$DIMRND
 40
0.0
  9
$DIMDLE
 40
0.0
  9
$DIMEXE
 40
0.18
  9
$DIMTP
 40
0.0
  9
$DIMTM
 40
0.0
  9
$DIMTXT
 40
0.18
  9
$DIMCEN
 40
0.09
  9
$DIMTSZ
 40
0.0
  9
$DIMTOL
 70
     0
  9
$DIMLIM
 70
     0
  9
$DIMTIH
 70
     1
  9
$DIMTOH
 70
     1
  9
$DIMSE1
 70
     0
  9
$DIMSE2
 70
     0
  9
$DIMTAD
 70
     0
  9
$DIMZIN
 70
     0
  9
$DIMBLK
  1

  9
$DIMASO
 70
     1
  9
$DIMSHO
 70
     1
  9
$DIMPOST
  1

  9
$DIMAPOST
  1

  9
$DIMALT
 70
     0
  9
$DIMALTD
 70
     2
  9
$DIMALTF
 40
25.4
  9
$DIMLFAC
 40
1.0
  9
$DIMTOFL
 70
     0
  9
$DIMTVP
 40
0.0
  9
$DIMTIX
 70
     0
  9
$DIMSOXD
 70
     0
  9
$DIMSAH
 70
     0
  9
$DIMBLK1
  1

  9
$DIMBLK2
  1

  9
$DIMSTYLE
  2
STANDARD
  9
$DIMCLRD
 70
     0
  9
$DIMCLRE
 70
     0
  9
$DIMCLRT
 70
     0
  9
$DIMTFAC
 40
1.0
  9
$DIMGAP
 40
0.09
  9
$LUNITS
 70
     2
  9
$LUPREC
 70
     3
  9
$SKETCHINC
 40
0.1
  9
$FILLETRAD
 40
0.5
  9
$AUNITS
 70
     0
  9
$AUPREC
 70
     0
  9
$MENU
  1
.
  9
$ELEVATION
 40
0.0
  9
$PELEVATION
 40
0.0
  9
$THICKNESS
 40
0.0
  9
$LIMCHECK
 70
     0
  9
$CHAMFERA
 40
0.0
  9
$CHAMFERB
 40
0.0
  9
$SKPOLY
 70
     0
  9
$TDCREATE
 40
2457892.649477801
  9
$TDUPDATE
 40
2457892.649491609
  9
$TDINDWG
 40
0.0000000116
  9
$TDUSRTIMER
 40
0.0000000116
  9
$USRTIMER
 70
     1
  9
$ANGBASE
 50
0.0
  9
$ANGDIR
 70
     0
  9
$PDMODE
 70
     0
  9
$PDSIZE
 40
0.0
  9
$PLINEWID
 40
0.0
  9
$COORDS
 70
     1
  9
$SPLFRAME
 70
     0
  9
$SPLINETYPE
 70
     6
  9
$SPLINESEGS
 70
     8
  9
$ATTDIA
 70
     0
  9
$ATTREQ
 70
     1
  9
$HANDLING
 70
     1
  9
$HANDSEED
  5
18C
  9
$SURFTAB1
 70
     6
  9
$SURFTAB2
 70
     6
  9
$SURFTYPE
 70
     6
  9
$SURFU
 70
     6
  9
$SURFV
 70
     6
  9
$UCSNAME
  2

  9
$UCSORG
 10
0.0
 20
0.0
 30
0.0
  9
$UCSXDIR
 10
1.0
 20
0.0
 30
0.0
  9
$UCSYDIR
 10
0.0
 20
1.0
 30
0.0
  9
$PUCSNAME
  2

  9
$PUCSORG
 10
0.0
 20
0.0
 30
0.0
  9
$PUCSXDIR
 10
1.0
 20
0.0
 30
0.0
  9
$PUCSYDIR
 10
0.0
 20
1.0
 30
0.0
  9
$USERI1
 70
     0
  9
$USERI2
 70
     0
  9
$USERI3
 70
     0
  9
$USERI4
 70
     0
  9
$USERI5
 70
     0
  9
$USERR1
 40
0.0
  9
$USERR2
 40
0.0
  9
$USERR3
 40
0.0
  9
$USERR4
 40
0.0
  9
$USERR5
 40
0.0
  9
$WORLDVIEW
 70
     1
  9
$SHADEDGE
 70
     3
  9
$SHADEDIF
 70
    70
  9
$TILEMODE
 70
     1
  9
$MAXACTVP
 70
    64
  9
$PLIMCHECK
 70
     0
  9
$PEXTMIN
 10
1.000000000000000E+20
 20
1.000000000000000E+20
 30
1.000000000000000E+20
  9
$PEXTMAX
 10
-1.000000000000000E+20
 20
-1.000000000000000E+20
 30
-1.000000000000000E+20
  9
$PLIMMIN
 10
0.0
 20
0.0
  9
$PLIMMAX
 10
12.0
 20
9.0
  9
$UNITMODE
 70
     0
  9
$VISRETAIN
 70
     1
  9
$PLINEGEN
 70
     0
  9
$PSLTSCALE
 70
     1
  0
ENDSEC
  0
SECTION
  2
TABLES
  0
TABLE
  2
VPORT
 70
     1
  0
VPORT
  2
*ACTIVE
 70
     0
 10
0.0
 20
0.0
 11
1.0
 21
1.0
 12
119.7009414681714
 22
5.342861320324289
 13
0.0
 23
0.0
 14
0.5
 24
0.5
 15
0.5
 25
0.5
 16
0.0
 26
0.0
 36
1.0
 17
0.0
 27
0.0
 37
0.0
 40
451.0569346763705
 41
0.5204682691705754
 42
50.0
 43
0.0
 44
0.0
 50
0.0
 51
0.0
 71
     0
 72
   100
 73
     1
 74
     3
 75
     0
 76
     0
 77
     0
 78
     0
  0
ENDTAB
  0
TABLE
  2
LTYPE
 70
     1
  0
LTYPE
  2
CONTINUOUS
 70
     0
  3
Solid line
 72
    65
 73
     0
 40
0.0
  0
ENDTAB
  0
TABLE
  2
LAYER
 70
     9
  0
LAYER
  2
0
 70
     0
 62
     7
  6
CONTINUOUS
  0
LAYER
  2
FLOORPLATE$T1$11111111V1
 70
     0
 62
     7
  6
CONTINUOUS
  0
LAYER
  2
FLOORPLATE$T1$33V1
 70
     0
 62
     7
  6
CONTINUOUS
  0
LAYER
  2
FLOORPLATE$T1$D4
 70
     0
 62
     7
  6
CONTINUOUS
  0
LAYER
  2
FLOORPLATE$T1$D33
 70
     0
 62
     7
  6
CONTINUOUS
  0
LAYER
  2
FLOORPLATE$T1$2222
 70
     0
 62
     7
  6
CONTINUOUS
  0
LAYER
  2
FLOORPLATE$T1$PH
 70
     0
 62
     7
  6
CONTINUOUS
  0
LAYER
  2
BOUNDARY
 70
     0
 62
     7
  6
CONTINUOUS
  0
LAYER
  2
FOOTPRINT$T1
 70
     0
 62
     7
  6
CONTINUOUS
  0
ENDTAB
  0
TABLE
  2
STYLE
 70
     1
  0
STYLE
  2
STANDARD
 70
     0
 40
0.0
 41
1.0
 50
0.0
 71
     0
 42
0.2
  3
txt
  4

  0
ENDTAB
  0
TABLE
  2
VIEW
 70
     0
  0
ENDTAB
  0
TABLE
  2
UCS
 70
     0
  0
ENDTAB
  0
TABLE
  2
APPID
 70
     1
  0
APPID
  2
ACAD
 70
     0
  0
ENDTAB
  0
TABLE
  2
DIMSTYLE
 70
     1
  0
DIMSTYLE
  2
STANDARD
 70
     0
  3

  4

  5

  6

  7

 40
1.0
 41
0.18
 42
0.0625
 43
0.38
 44
0.18
 45
0.0
 46
0.0
 47
0.0
 48
0.0
140
0.18
141
0.09
142
0.0
143
25.4
144
1.0
145
0.0
146
1.0
147
0.09
 71
     0
 72
     0
 73
     1
 74
     1
 75
     0
 76
     0
 77
     0
 78
     0
170
     0
171
     2
172
     0
173
     0
174
     0
175
     0
176
     0
177
     0
178
     0
  0
ENDTAB
  0
ENDSEC
  0
SECTION
  2
BLOCKS
  0
BLOCK
  8
0
  2
$MODEL_SPACE
 70
     0
 10
0.0
 20
0.0
 30
0.0
  3
$MODEL_SPACE
  1

  0
ENDBLK
  5
21
  8
0
  0
BLOCK
 67
     1
  8
0
  2
$PAPER_SPACE
 70
     0
 10
0.0
 20
0.0
 30
0.0
  3
$PAPER_SPACE
  1

  0
ENDBLK
  5
1D
 67
     1
  8
0
  0
ENDSEC
  0
SECTION
  2
ENTITIES
  0
POLYLINE
  5
6F
  8
FLOORPLATE$T1$11111111V1
 66
     1
 10
0.0
 20
0.0
 30
0.0
 70
     1
  0
VERTEX
  5
70
  8
FLOORPLATE$T1$11111111V1
 10
223.5
 20
-209.5
 30
0.0
  0
VERTEX
  5
71
  8
FLOORPLATE$T1$11111111V1
 10
223.5
 20
-204.5
 30
0.0
  0
VERTEX
  5
72
  8
FLOORPLATE$T1$11111111V1
 10
233.5
 20
-204.5
 30
0.0
  0
VERTEX
  5
73
  8
FLOORPLATE$T1$11111111V1
 10
233.5
 20
-214.5
 30
0.0
  0
VERTEX
  5
74
  8
FLOORPLATE$T1$11111111V1
 10
228.5
 20
-214.5
 30
0.0
  0
VERTEX
  5
75
  8
FLOORPLATE$T1$11111111V1
 10
228.5
 20
-209.5
 30
0.0
  0
SEQEND
  5
76
  8
FLOORPLATE$T1$11111111V1
  0
POLYLINE
  5
77
  8
FLOORPLATE$T1$11111111V1
 66
     1
 10
0.0
 20
0.0
 30
0.0
 70
     1
  0
VERTEX
  5
78
  8
FLOORPLATE$T1$11111111V1
 10
228.5
 20
-214.5
 30
0.0
  0
VERTEX
  5
79
  8
FLOORPLATE$T1$11111111V1
 10
228.5
 20
-209.5
 30
0.0
  0
VERTEX
  5
7A
  8
FLOORPLATE$T1$11111111V1
 10
223.5
 20
-209.5
 30
0.0
  0
VERTEX
  5
7B
  8
FLOORPLATE$T1$11111111V1
 10
223.5
 20
-204.5
 30
0.0
  0
VERTEX
  5
7C
  8
FLOORPLATE$T1$11111111V1
 10
218.5
 20
-204.5
 30
0.0
  0
VERTEX
  5
7D
  8
FLOORPLATE$T1$11111111V1
 10
218.5
 20
-214.5
 30
0.0
  0
SEQEND
  5
7E
  8
FLOORPLATE$T1$11111111V1
  0
TEXT
  5
7F
  8
FLOORPLATE$T1$11111111V1
  6
CONTINUOUS
 10
221.4333333333334
 20
-211.804
 30
0.0
 40
1.0
  1
1BED
 50
90.0
  0
TEXT
  5
80
  8
FLOORPLATE$T1$11111111V1
  6
CONTINUOUS
 10
230.9303212851406
 20
-211.6564096385542
 30
0.0
 40
1.0
  1
1BED
 50
90.0
  0
POLYLINE
  5
81
  8
FLOORPLATE$T1$11111111V1
 66
     1
 10
0.0
 20
0.0
 30
0.0
 70
     1
  0
VERTEX
  5
82
  8
FLOORPLATE$T1$11111111V1
 10
213.5
 20
-194.5
 30
0.0
  0
VERTEX
  5
83
  8
FLOORPLATE$T1$11111111V1
 10
213.5
 20
-189.5
 30
0.0
  0
VERTEX
  5
84
  8
FLOORPLATE$T1$11111111V1
 10
223.5
 20
-189.5
 30
0.0
  0
VERTEX
  5
85
  8
FLOORPLATE$T1$11111111V1
 10
223.5
 20
-199.5
 30
0.0
  0
VERTEX
  5
86
  8
FLOORPLATE$T1$11111111V1
 10
218.5
 20
-199.5
 30
0.0
  0
VERTEX
  5
87
  8
FLOORPLATE$T1$11111111V1
 10
218.5
 20
-194.5
 30
0.0
  0
SEQEND
  5
88
  8
FLOORPLATE$T1$11111111V1
  0
POLYLINE
  5
89
  8
FLOORPLATE$T1$11111111V1
 66
     1
 10
0.0
 20
0.0
 30
0.0
 70
     1
  0
VERTEX
  5
8A
  8
FLOORPLATE$T1$11111111V1
 10
218.5
 20
-199.5
 30
0.0
  0
VERTEX
  5
8B
  8
FLOORPLATE$T1$11111111V1
 10
218.5
 20
-194.5
 30
0.0
  0
VERTEX
  5
8C
  8
FLOORPLATE$T1$11111111V1
 10
213.5
 20
-194.5
 30
0.0
  0
VERTEX
  5
8D
  8
FLOORPLATE$T1$11111111V1
 10
213.5
 20
-189.5
 30
0.0
  0
VERTEX
  5
8E
  8
FLOORPLATE$T1$11111111V1
 10
208.5
 20
-189.5
 30
0.0
  0
VERTEX
  5
8F
  8
FLOORPLATE$T1$11111111V1
 10
208.5
 20
-199.5
 30
0.0
  0
SEQEND
  5
90
  8
FLOORPLATE$T1$11111111V1
  0
TEXT
  5
91
  8
FLOORPLATE$T1$11111111V1
  6
CONTINUOUS
 10
211.4333333333334
 20
-196.804
 30
0.0
 40
1.0
  1
1BED
 50
90.0
  0
TEXT
  5
92
  8
FLOORPLATE$T1$11111111V1
  6
CONTINUOUS
 10
220.9303212851406
 20
-196.6564096385542
 30
0.0
 40
1.0
  1
1BED
 50
90.0
  0
TEXT
  5
93
  8
FLOORPLATE$T1$11111111V1
  6
CONTINUOUS
 10
226.3435903614458
 20
-201.9303212851406
 30
0.0
 40
1.0
  1
1BED
  0
TEXT
  5
94
  8
FLOORPLATE$T1$11111111V1
  6
CONTINUOUS
 10
226.196
 20
-192.4333333333334
 30
0.0
 40
1.0
  1
1BED
  0
POINT
  5
95
  8
FLOORPLATE$T1$11111111V1
 10
218.5
 20
-204.5
 30
0.0
  0
LINE
  5
96
  8
FLOORPLATE$T1$11111111V1
 10
232.2365207926917
 20
-194.1329785228369
 30
0.0
 11
234.611092886679
 21
-194.1329785228369
 31
0.0
  0
LINE
  5
97
  8
FLOORPLATE$T1$11111111V1
 10
232.2365207926917
 20
-202.1402565141893
 30
0.0
 11
234.611092886679
 21
-202.1402565141893
 31
0.0
  0
LINE
  5
98
  8
FLOORPLATE$T1$11111111V1
 10
232.2365207926917
 20
-209.6505310440095
 30
0.0
 11
234.611092886679
 21
-209.6505310440095
 31
0.0
  0
LINE
  5
99
  8
FLOORPLATE$T1$11111111V1
 10
228.6505310440095
 20
-215.7634792073083
 30
0.0
 11
228.6505310440095
 21
-213.388907113321
 31
0.0
  0
LINE
  5
9A
  8
FLOORPLATE$T1$11111111V1
 10
221.1402565141893
 20
-215.7634792073083
 30
0.0
 11
221.1402565141893
 21
-213.388907113321
 31
0.0
  0
LINE
  5
9B
  8
FLOORPLATE$T1$11111111V1
 10
213.1329785228369
 20
-215.7634792073083
 30
0.0
 11
213.1329785228369
 21
-213.388907113321
 31
0.0
  0
LINE
  5
9C
  8
FLOORPLATE$T1$11111111V1
 10
213.3494689559905
 20
-188.2365207926917
 30
0.0
 11
213.3494689559905
 21
-190.611092886679
 31
0.0
  0
LINE
  5
9D
  8
FLOORPLATE$T1$11111111V1
 10
220.8597434858107
 20
-188.2365207926917
 30
0.0
 11
220.8597434858107
 21
-190.611092886679
 31
0.0
  0
LINE
  5
9E
  8
FLOORPLATE$T1$11111111V1
 10
228.8670214771631
 20
-188.2365207926917
 30
0.0
 11
228.8670214771631
 21
-190.611092886679
 31
0.0
  0
LINE
  5
9F
  8
FLOORPLATE$T1$11111111V1
 10
209.7634792073083
 20
-209.8670214771631
 30
0.0
 11
207.388907113321
 21
-209.8670214771631
 31
0.0
  0
LINE
  5
A0
  8
FLOORPLATE$T1$11111111V1
 10
209.7634792073083
 20
-201.8597434858107
 30
0.0
 11
207.388907113321
 21
-201.8597434858107
 31
0.0
  0
LINE
  5
A1
  8
FLOORPLATE$T1$11111111V1
 10
209.7634792073083
 20
-194.3494689559905
 30
0.0
 11
207.388907113321
 21
-194.3494689559905
 31
0.0
  0
POLYLINE
  5
A2
  8
FLOORPLATE$T1$11111111V1
 66
     1
 10
0.0
 20
0.0
 30
0.0
 70
     1
  0
VERTEX
  5
A3
  8
FLOORPLATE$T1$11111111V1
 10
223.5
 20
-199.5
 30
0.0
  0
VERTEX
  5
A4
  8
FLOORPLATE$T1$11111111V1
 10
228.5
 20
-199.5
 30
0.0
  0
VERTEX
  5
A5
  8
FLOORPLATE$T1$11111111V1
 10
228.5
 20
-194.5
 30
0.0
  0
VERTEX
  5
A6
  8
FLOORPLATE$T1$11111111V1
 10
233.5
 20
-194.5
 30
0.0
  0
VERTEX
  5
A7
  8
FLOORPLATE$T1$11111111V1
 10
233.5
 20
-189.5
 30
0.0
  0
VERTEX
  5
A8
  8
FLOORPLATE$T1$11111111V1
 10
223.5
 20
-189.5
 30
0.0
  0
SEQEND
  5
A9
  8
FLOORPLATE$T1$11111111V1
  0
POLYLINE
  5
AA
  8
FLOORPLATE$T1$11111111V1
 66
     1
 10
0.0
 20
0.0
 30
0.0
 70
     1
  0
VERTEX
  5
AB
  8
FLOORPLATE$T1$11111111V1
 10
228.5
 20
-194.5
 30
0.0
  0
VERTEX
  5
AC
  8
FLOORPLATE$T1$11111111V1
 10
233.5
 20
-194.5
 30
0.0
  0
VERTEX
  5
AD
  8
FLOORPLATE$T1$11111111V1
 10
233.5
 20
-204.5
 30
0.0
  0
VERTEX
  5
AE
  8
FLOORPLATE$T1$11111111V1
 10
223.5
 20
-204.5
 30
0.0
  0
VERTEX
  5
AF
  8
FLOORPLATE$T1$11111111V1
 10
223.5
 20
-199.5
 30
0.0
  0
VERTEX
  5
B0
  8
FLOORPLATE$T1$11111111V1
 10
228.5
 20
-199.5
 30
0.0
  0
SEQEND
  5
B1
  8
FLOORPLATE$T1$11111111V1
  0
POLYLINE
  5
B2
  8
FLOORPLATE$T1$11111111V1
 66
     1
 10
0.0
 20
0.0
 30
0.0
 70
     1
  0
VERTEX
  5
B3
  8
FLOORPLATE$T1$11111111V1
 10
218.5
 20
-204.5
 30
0.0
  0
VERTEX
  5
B4
  8
FLOORPLATE$T1$11111111V1
 10
223.5
 20
-204.5
 30
0.0
  0
VERTEX
  5
B5
  8
FLOORPLATE$T1$11111111V1
 10
223.5
 20
-199.5
 30
0.0
  0
VERTEX
  5
B6
  8
FLOORPLATE$T1$11111111V1
 10
218.5
 20
-199.5
 30
0.0
  0
SEQEND
  5
B7
  8
FLOORPLATE$T1$11111111V1
  0
TEXT
  5
B8
  8
FLOORPLATE$T1$11111111V1
  6
CONTINUOUS
 10
211.3435903614458
 20
-211.9303212851406
 30
0.0
 40
1.0
  1
1BED
  0
TEXT
  5
B9
  8
FLOORPLATE$T1$11111111V1
  6
CONTINUOUS
 10
211.196
 20
-202.4333333333334
 30
0.0
 40
1.0
  1
1BED
  0
POLYLINE
  5
BA
  8
FLOORPLATE$T1$11111111V1
 66
     1
 10
0.0
 20
0.0
 30
0.0
 70
     1
  0
VERTEX
  5
BB
  8
FLOORPLATE$T1$11111111V1
 10
208.5
 20
-209.5
 30
0.0
  0
VERTEX
  5
BC
  8
FLOORPLATE$T1$11111111V1
 10
213.5
 20
-209.5
 30
0.0
  0
VERTEX
  5
BD
  8
FLOORPLATE$T1$11111111V1
 10
213.5
 20
-204.5
 30
0.0
  0
VERTEX
  5
BE
  8
FLOORPLATE$T1$11111111V1
 10
218.5
 20
-204.5
 30
0.0
  0
VERTEX
  5
BF
  8
FLOORPLATE$T1$11111111V1
 10
218.5
 20
-199.5
 30
0.0
  0
VERTEX
  5
C0
  8
FLOORPLATE$T1$11111111V1
 10
208.5
 20
-199.5
 30
0.0
  0
SEQEND
  5
C1
  8
FLOORPLATE$T1$11111111V1
  0
POLYLINE
  5
C2
  8
FLOORPLATE$T1$11111111V1
 66
     1
 10
0.0
 20
0.0
 30
0.0
 70
     1
  0
VERTEX
  5
C3
  8
FLOORPLATE$T1$11111111V1
 10
213.5
 20
-204.5
 30
0.0
  0
VERTEX
  5
C4
  8
FLOORPLATE$T1$11111111V1
 10
218.5
 20
-204.5
 30
0.0
  0
VERTEX
  5
C5
  8
FLOORPLATE$T1$11111111V1
 10
218.5
 20
-214.5
 30
0.0
  0
VERTEX
  5
C6
  8
FLOORPLATE$T1$11111111V1
 10
208.5
 20
-214.5
 30
0.0
  0
VERTEX
  5
C7
  8
FLOORPLATE$T1$11111111V1
 10
208.5
 20
-209.5
 30
0.0
  0
VERTEX
  5
C8
  8
FLOORPLATE$T1$11111111V1
 10
213.5
 20
-209.5
 30
0.0
  0
SEQEND
  5
C9
  8
FLOORPLATE$T1$11111111V1
  0
POINT
  5
CB
  8
FLOORPLATE$T1$33V1
 10
218.6686829385492
 20
-15.37691897520395
 30
0.0
  0
TEXT
  5
CC
  8
FLOORPLATE$T1$33V1
  6
CONTINUOUS
 10
218.7524901674649
 20
-21.80724026034451
 30
0.0
 40
1.0
  1
3BED
  0
TEXT
  5
CD
  8
FLOORPLATE$T1$33V1
  6
CONTINUOUS
 10
218.7524901674649
 20
-6.807240260344507
 30
0.0
 40
1.0
  1
3BED
  0
POLYLINE
  5
CE
  8
FLOORPLATE$T1$33V1
 66
     1
 10
0.0
 20
0.0
 30
0.0
 70
     1
  0
VERTEX
  5
CF
  8
FLOORPLATE$T1$33V1
 10
218.6686829385492
 20
-15.37691897520395
 30
0.0
  0
VERTEX
  5
D0
  8
FLOORPLATE$T1$33V1
 10
223.6686829385492
 20
-15.37691897520395
 30
0.0
  0
VERTEX
  5
D1
  8
FLOORPLATE$T1$33V1
 10
223.6686829385492
 20
-10.37691897520395
 30
0.0
  0
VERTEX
  5
D2
  8
FLOORPLATE$T1$33V1
 10
218.6686829385492
 20
-10.37691897520395
 30
0.0
  0
SEQEND
  5
D3
  8
FLOORPLATE$T1$33V1
  0
POLYLINE
  5
D4
  8
FLOORPLATE$T1$33V1
 66
     1
 10
0.0
 20
0.0
 30
0.0
 70
     1
  0
VERTEX
  5
D5
  8
FLOORPLATE$T1$33V1
 10
208.6686829385492
 20
-0.3769189752039459
 30
0.0
  0
VERTEX
  5
D6
  8
FLOORPLATE$T1$33V1
 10
233.6686829385492
 20
-0.3769189752039459
 30
0.0
  0
VERTEX
  5
D7
  8
FLOORPLATE$T1$33V1
 10
233.6686829385492
 20
-15.37691897520395
 30
0.0
  0
VERTEX
  5
D8
  8
FLOORPLATE$T1$33V1
 10
223.6686829385492
 20
-15.37691897520395
 30
0.0
  0
VERTEX
  5
D9
  8
FLOORPLATE$T1$33V1
 10
223.6686829385492
 20
-10.37691897520395
 30
0.0
  0
VERTEX
  5
DA
  8
FLOORPLATE$T1$33V1
 10
208.6686829385492
 20
-10.37691897520395
 30
0.0
  0
SEQEND
  5
DB
  8
FLOORPLATE$T1$33V1
  0
POLYLINE
  5
DC
  8
FLOORPLATE$T1$33V1
 66
     1
 10
0.0
 20
0.0
 30
0.0
 70
     1
  0
VERTEX
  5
DD
  8
FLOORPLATE$T1$33V1
 10
208.6686829385492
 20
-10.37691897520395
 30
0.0
  0
VERTEX
  5
DE
  8
FLOORPLATE$T1$33V1
 10
208.6686829385492
 20
-25.37691897520395
 30
0.0
  0
VERTEX
  5
DF
  8
FLOORPLATE$T1$33V1
 10
233.6686829385492
 20
-25.37691897520395
 30
0.0
  0
VERTEX
  5
E0
  8
FLOORPLATE$T1$33V1
 10
233.6686829385492
 20
-15.37691897520395
 30
0.0
  0
VERTEX
  5
E1
  8
FLOORPLATE$T1$33V1
 10
218.6686829385492
 20
-15.37691897520395
 30
0.0
  0
VERTEX
  5
E2
  8
FLOORPLATE$T1$33V1
 10
218.6686829385492
 20
-10.37691897520395
 30
0.0
  0
SEQEND
  5
E3
  8
FLOORPLATE$T1$33V1
  0
LINE
  5
E4
  8
FLOORPLATE$T1$33V1
 10
209.9321621458575
 20
-5.226387931194406
 30
0.0
 11
207.5575900518702
 21
-5.226387931194406
 31
0.0
  0
LINE
  5
E5
  8
FLOORPLATE$T1$33V1
 10
209.9321621458575
 20
-12.73666246101464
 30
0.0
 11
207.5575900518702
 21
-12.73666246101464
 31
0.0
  0
LINE
  5
E6
  8
FLOORPLATE$T1$33V1
 10
209.9321621458575
 20
-20.74394045236707
 30
0.0
 11
207.5575900518702
 21
-20.74394045236707
 31
0.0
  0
LINE
  5
E7
  8
FLOORPLATE$T1$33V1
 10
229.0357044157123
 20
0.8865602321043475
 30
0.0
 11
229.0357044157123
 21
-1.488011861882935
 31
0.0
  0
LINE
  5
E8
  8
FLOORPLATE$T1$33V1
 10
221.0284264243599
 20
0.8865602321043475
 30
0.0
 11
221.0284264243599
 21
-1.488011861882935
 31
0.0
  0
LINE
  5
E9
  8
FLOORPLATE$T1$33V1
 10
213.5181518945396
 20
0.8865602321043475
 30
0.0
 11
213.5181518945396
 21
-1.488011861882935
 31
0.0
  0
LINE
  5
EA
  8
FLOORPLATE$T1$33V1
 10
213.3016614613861
 20
-26.64039818251224
 30
0.0
 11
213.3016614613861
 21
-24.26582608852496
 31
0.0
  0
LINE
  5
EB
  8
FLOORPLATE$T1$33V1
 10
221.3089394527385
 20
-26.64039818251224
 30
0.0
 11
221.3089394527385
 21
-24.26582608852496
 31
0.0
  0
LINE
  5
EC
  8
FLOORPLATE$T1$33V1
 10
228.8192139825587
 20
-26.64039818251224
 30
0.0
 11
228.8192139825587
 21
-24.26582608852496
 31
0.0
  0
LINE
  5
ED
  8
FLOORPLATE$T1$33V1
 10
232.4052037312409
 20
-20.52745001921349
 30
0.0
 11
234.7797758252282
 21
-20.52745001921349
 31
0.0
  0
LINE
  5
EE
  8
FLOORPLATE$T1$33V1
 10
232.4052037312409
 20
-13.01717548939325
 30
0.0
 11
234.7797758252282
 21
-13.01717548939325
 31
0.0
  0
LINE
  5
EF
  8
FLOORPLATE$T1$33V1
 10
232.4052037312409
 20
-5.009897498040825
 30
0.0
 11
234.7797758252282
 21
-5.009897498040825
 31
0.0
  0
TEXT
  5
F1
  8
FLOORPLATE$T1$D4
  6
CONTINUOUS
 10
218.4727142814633
 20
146.4064555445263
 30
0.0
 40
1.0
  1
D4BED
  0
LINE
  5
F2
  8
FLOORPLATE$T1$D4
 10
232.4052037312409
 20
149.4743377800727
 30
0.0
 11
234.7797758252282
 21
149.4743377800727
 31
0.0
  0
LINE
  5
F3
  8
FLOORPLATE$T1$D4
 10
232.4052037312409
 20
141.4670597887202
 30
0.0
 11
234.7797758252282
 21
141.4670597887202
 31
0.0
  0
LINE
  5
F4
  8
FLOORPLATE$T1$D4
 10
232.4052037312409
 20
133.9567852589
 30
0.0
 11
234.7797758252282
 21
133.9567852589
 31
0.0
  0
LINE
  5
F5
  8
FLOORPLATE$T1$D4
 10
228.8192139825587
 20
127.8438370956012
 30
0.0
 11
228.8192139825587
 21
130.2184091895885
 31
0.0
  0
LINE
  5
F6
  8
FLOORPLATE$T1$D4
 10
221.3089394527385
 20
127.8438370956012
 30
0.0
 11
221.3089394527385
 21
130.2184091895885
 31
0.0
  0
LINE
  5
F7
  8
FLOORPLATE$T1$D4
 10
213.3016614613861
 20
127.8438370956012
 30
0.0
 11
213.3016614613861
 21
130.2184091895885
 31
0.0
  0
LINE
  5
F8
  8
FLOORPLATE$T1$D4
 10
213.5181518945396
 20
155.3707955102178
 30
0.0
 11
213.5181518945396
 21
152.9962234162305
 31
0.0
  0
LINE
  5
F9
  8
FLOORPLATE$T1$D4
 10
221.0284264243599
 20
155.3707955102178
 30
0.0
 11
221.0284264243599
 21
152.9962234162305
 31
0.0
  0
LINE
  5
FA
  8
FLOORPLATE$T1$D4
 10
229.0357044157123
 20
155.3707955102178
 30
0.0
 11
229.0357044157123
 21
152.9962234162305
 31
0.0
  0
LINE
  5
FB
  8
FLOORPLATE$T1$D4
 10
209.9321621458575
 20
133.7402948257464
 30
0.0
 11
207.5575900518702
 21
133.7402948257464
 31
0.0
  0
LINE
  5
FC
  8
FLOORPLATE$T1$D4
 10
209.9321621458575
 20
141.7475728170988
 30
0.0
 11
207.5575900518702
 21
141.7475728170988
 31
0.0
  0
LINE
  5
FD
  8
FLOORPLATE$T1$D4
 10
209.9321621458575
 20
149.2578473469191
 30
0.0
 11
207.5575900518702
 21
149.2578473469191
 31
0.0
  0
POLYLINE
  5
FE
  8
FLOORPLATE$T1$D4
 66
     1
 10
0.0
 20
0.0
 30
0.0
 70
     1
  0
VERTEX
  5
FF
  8
FLOORPLATE$T1$D4
 10
218.6686829385492
 20
139.1073163029095
 30
0.0
  0
VERTEX
  5
100
  8
FLOORPLATE$T1$D4
 10
223.6686829385492
 20
139.1073163029095
 30
0.0
  0
VERTEX
  5
101
  8
FLOORPLATE$T1$D4
 10
223.6686829385492
 20
144.1073163029095
 30
0.0
  0
VERTEX
  5
102
  8
FLOORPLATE$T1$D4
 10
218.6686829385492
 20
144.1073163029095
 30
0.0
  0
SEQEND
  5
103
  8
FLOORPLATE$T1$D4
  0
POINT
  5
104
  8
FLOORPLATE$T1$D4
 10
218.6686829385492
 20
139.1073163029095
 30
0.0
  0
TEXT
  5
106
  8
FLOORPLATE$T1$D33
  6
CONTINUOUS
 10
218.6544901674648
 20
101.5703120603441
 30
0.0
 40
1.0
  1
D3BED
  0
LINE
  5
107
  8
FLOORPLATE$T1$D33
 10
232.4052037312409
 20
118.3676548226478
 30
0.0
 11
234.7797758252282
 21
118.3676548226478
 31
0.0
  0
LINE
  5
108
  8
FLOORPLATE$T1$D33
 10
232.4052037312409
 20
110.3603768312954
 30
0.0
 11
234.7797758252282
 21
110.3603768312954
 31
0.0
  0
LINE
  5
109
  8
FLOORPLATE$T1$D33
 10
232.4052037312409
 20
102.8501023014751
 30
0.0
 11
234.7797758252282
 21
102.8501023014751
 31
0.0
  0
LINE
  5
10A
  8
FLOORPLATE$T1$D33
 10
228.8192139825587
 20
96.73715413817636
 30
0.0
 11
228.8192139825587
 21
99.11172623216365
 31
0.0
  0
LINE
  5
10B
  8
FLOORPLATE$T1$D33
 10
221.3089394527385
 20
96.73715413817636
 30
0.0
 11
221.3089394527385
 21
99.11172623216365
 31
0.0
  0
LINE
  5
10C
  8
FLOORPLATE$T1$D33
 10
213.3016614613861
 20
96.73715413817636
 30
0.0
 11
213.3016614613861
 21
99.11172623216365
 31
0.0
  0
LINE
  5
10D
  8
FLOORPLATE$T1$D33
 10
213.5181518945396
 20
124.264112552793
 30
0.0
 11
213.5181518945396
 21
121.8895404588057
 31
0.0
  0
LINE
  5
10E
  8
FLOORPLATE$T1$D33
 10
221.0284264243599
 20
124.264112552793
 30
0.0
 11
221.0284264243599
 21
121.8895404588057
 31
0.0
  0
LINE
  5
10F
  8
FLOORPLATE$T1$D33
 10
229.0357044157123
 20
124.264112552793
 30
0.0
 11
229.0357044157123
 21
121.8895404588057
 31
0.0
  0
LINE
  5
110
  8
FLOORPLATE$T1$D33
 10
209.9321621458575
 20
102.6336118683215
 30
0.0
 11
207.5575900518702
 21
102.6336118683215
 31
0.0
  0
LINE
  5
111
  8
FLOORPLATE$T1$D33
 10
209.9321621458575
 20
110.640889859674
 30
0.0
 11
207.5575900518702
 21
110.640889859674
 31
0.0
  0
LINE
  5
112
  8
FLOORPLATE$T1$D33
 10
209.9321621458575
 20
118.1511643894942
 30
0.0
 11
207.5575900518702
 21
118.1511643894942
 31
0.0
  0
POLYLINE
  5
113
  8
FLOORPLATE$T1$D33
 66
     1
 10
0.0
 20
0.0
 30
0.0
 70
     1
  0
VERTEX
  5
114
  8
FLOORPLATE$T1$D33
 10
218.6686829385492
 20
108.0006333454847
 30
0.0
  0
VERTEX
  5
115
  8
FLOORPLATE$T1$D33
 10
223.6686829385492
 20
108.0006333454847
 30
0.0
  0
VERTEX
  5
116
  8
FLOORPLATE$T1$D33
 10
223.6686829385492
 20
113.0006333454847
 30
0.0
  0
VERTEX
  5
117
  8
FLOORPLATE$T1$D33
 10
218.6686829385492
 20
113.0006333454847
 30
0.0
  0
SEQEND
  5
118
  8
FLOORPLATE$T1$D33
  0
POINT
  5
119
  8
FLOORPLATE$T1$D33
 10
218.6686829385492
 20
108.0006333454847
 30
0.0
  0
LINE
  5
11B
  8
FLOORPLATE$T1$2222
 10
209.9321621458575
 20
86.44899000216782
 30
0.0
 11
207.5575900518702
 21
86.44899000216782
 31
0.0
  0
LINE
  5
11C
  8
FLOORPLATE$T1$2222
 10
209.9321621458575
 20
78.93871547234758
 30
0.0
 11
207.5575900518702
 21
78.93871547234758
 31
0.0
  0
LINE
  5
11D
  8
FLOORPLATE$T1$2222
 10
209.9321621458575
 20
70.93143748099516
 30
0.0
 11
207.5575900518702
 21
70.93143748099516
 31
0.0
  0
LINE
  5
11E
  8
FLOORPLATE$T1$2222
 10
229.0357044157123
 20
92.56193816546657
 30
0.0
 11
229.0357044157123
 21
90.18736607147929
 31
0.0
  0
LINE
  5
11F
  8
FLOORPLATE$T1$2222
 10
221.0284264243599
 20
92.56193816546657
 30
0.0
 11
221.0284264243599
 21
90.18736607147929
 31
0.0
  0
LINE
  5
120
  8
FLOORPLATE$T1$2222
 10
213.5181518945396
 20
92.56193816546657
 30
0.0
 11
213.5181518945396
 21
90.18736607147929
 31
0.0
  0
LINE
  5
121
  8
FLOORPLATE$T1$2222
 10
213.3016614613861
 20
65.03497975084998
 30
0.0
 11
213.3016614613861
 21
67.40955184483727
 31
0.0
  0
LINE
  5
122
  8
FLOORPLATE$T1$2222
 10
221.3089394527385
 20
65.03497975084998
 30
0.0
 11
221.3089394527385
 21
67.40955184483727
 31
0.0
  0
LINE
  5
123
  8
FLOORPLATE$T1$2222
 10
228.8192139825587
 20
65.03497975084998
 30
0.0
 11
228.8192139825587
 21
67.40955184483727
 31
0.0
  0
LINE
  5
124
  8
FLOORPLATE$T1$2222
 10
232.4052037312409
 20
71.14792791414874
 30
0.0
 11
234.7797758252282
 21
71.14792791414874
 31
0.0
  0
LINE
  5
125
  8
FLOORPLATE$T1$2222
 10
232.4052037312409
 20
78.65820244396897
 30
0.0
 11
234.7797758252282
 21
78.65820244396897
 31
0.0
  0
LINE
  5
126
  8
FLOORPLATE$T1$2222
 10
232.4052037312409
 20
86.6654804353214
 30
0.0
 11
234.7797758252282
 21
86.6654804353214
 31
0.0
  0
LINE
  5
128
  8
FLOORPLATE$T1$PH
 10
232.4052037312409
 20
56.6654804353214
 30
0.0
 11
234.7797758252282
 21
56.6654804353214
 31
0.0
  0
LINE
  5
129
  8
FLOORPLATE$T1$PH
 10
232.4052037312409
 20
48.65820244396897
 30
0.0
 11
234.7797758252282
 21
48.65820244396897
 31
0.0
  0
LINE
  5
12A
  8
FLOORPLATE$T1$PH
 10
232.4052037312409
 20
41.14792791414874
 30
0.0
 11
234.7797758252282
 21
41.14792791414874
 31
0.0
  0
LINE
  5
12B
  8
FLOORPLATE$T1$PH
 10
228.8192139825587
 20
35.03497975084998
 30
0.0
 11
228.8192139825587
 21
37.40955184483727
 31
0.0
  0
LINE
  5
12C
  8
FLOORPLATE$T1$PH
 10
221.3089394527385
 20
35.03497975084998
 30
0.0
 11
221.3089394527385
 21
37.40955184483727
 31
0.0
  0
LINE
  5
12D
  8
FLOORPLATE$T1$PH
 10
213.3016614613861
 20
35.03497975084998
 30
0.0
 11
213.3016614613861
 21
37.40955184483727
 31
0.0
  0
LINE
  5
12E
  8
FLOORPLATE$T1$PH
 10
213.5181518945396
 20
62.56193816546657
 30
0.0
 11
213.5181518945396
 21
60.18736607147929
 31
0.0
  0
LINE
  5
12F
  8
FLOORPLATE$T1$PH
 10
221.0284264243599
 20
62.56193816546657
 30
0.0
 11
221.0284264243599
 21
60.18736607147929
 31
0.0
  0
LINE
  5
130
  8
FLOORPLATE$T1$PH
 10
229.0357044157123
 20
62.56193816546657
 30
0.0
 11
229.0357044157123
 21
60.18736607147929
 31
0.0
  0
LINE
  5
131
  8
FLOORPLATE$T1$PH
 10
209.9321621458575
 20
40.93143748099515
 30
0.0
 11
207.5575900518702
 21
40.93143748099515
 31
0.0
  0
LINE
  5
132
  8
FLOORPLATE$T1$PH
 10
209.9321621458575
 20
48.93871547234759
 30
0.0
 11
207.5575900518702
 21
48.93871547234759
 31
0.0
  0
LINE
  5
133
  8
FLOORPLATE$T1$PH
 10
209.9321621458575
 20
56.44899000216782
 30
0.0
 11
207.5575900518702
 21
56.44899000216782
 31
0.0
  0
POLYLINE
  5
134
  8
FLOORPLATE$T1$PH
 66
     1
 10
0.0
 20
0.0
 30
0.0
 70
     1
  0
VERTEX
  5
135
  8
FLOORPLATE$T1$PH
 10
208.6686829385492
 20
36.29845895815828
 30
0.0
  0
VERTEX
  5
136
  8
FLOORPLATE$T1$PH
 10
233.6686829385492
 20
36.29845895815828
 30
0.0
  0
VERTEX
  5
137
  8
FLOORPLATE$T1$PH
 10
233.6686829385492
 20
61.29845895815828
 30
0.0
  0
VERTEX
  5
138
  8
FLOORPLATE$T1$PH
 10
208.6686829385492
 20
61.29845895815828
 30
0.0
  0
SEQEND
  5
139
  8
FLOORPLATE$T1$PH
  0
POLYLINE
  5
13A
  8
FLOORPLATE$T1$PH
 66
     1
 10
0.0
 20
0.0
 30
0.0
 70
     1
  0
VERTEX
  5
13B
  8
FLOORPLATE$T1$PH
 10
218.6686829385492
 20
46.29845895815828
 30
0.0
  0
VERTEX
  5
13C
  8
FLOORPLATE$T1$PH
 10
223.6686829385492
 20
46.29845895815828
 30
0.0
  0
VERTEX
  5
13D
  8
FLOORPLATE$T1$PH
 10
223.6686829385492
 20
51.29845895815828
 30
0.0
  0
VERTEX
  5
13E
  8
FLOORPLATE$T1$PH
 10
218.6686829385492
 20
51.29845895815828
 30
0.0
  0
SEQEND
  5
13F
  8
FLOORPLATE$T1$PH
  0
POLYLINE
  5
140
  8
FLOORPLATE$T1$2222
 66
     1
 10
0.0
 20
0.0
 30
0.0
 70
     1
  0
VERTEX
  5
141
  8
FLOORPLATE$T1$2222
 10
223.6686829385492
 20
76.29845895815828
 30
0.0
  0
VERTEX
  5
142
  8
FLOORPLATE$T1$2222
 10
233.6686829385492
 20
76.29845895815828
 30
0.0
  0
VERTEX
  5
143
  8
FLOORPLATE$T1$2222
 10
233.6686829385492
 20
91.29845895815828
 30
0.0
  0
VERTEX
  5
144
  8
FLOORPLATE$T1$2222
 10
223.6686829385492
 20
91.29845895815828
 30
0.0
  0
SEQEND
  5
145
  8
FLOORPLATE$T1$2222
  0
POLYLINE
  5
146
  8
FLOORPLATE$T1$2222
 66
     1
 10
0.0
 20
0.0
 30
0.0
 70
     1
  0
VERTEX
  5
147
  8
FLOORPLATE$T1$2222
 10
218.6686829385492
 20
66.29845895815828
 30
0.0
  0
VERTEX
  5
148
  8
FLOORPLATE$T1$2222
 10
233.6686829385492
 20
66.29845895815828
 30
0.0
  0
VERTEX
  5
149
  8
FLOORPLATE$T1$2222
 10
233.6686829385492
 20
76.29845895815828
 30
0.0
  0
VERTEX
  5
14A
  8
FLOORPLATE$T1$2222
 10
218.6686829385492
 20
76.29845895815828
 30
0.0
  0
SEQEND
  5
14B
  8
FLOORPLATE$T1$2222
  0
POLYLINE
  5
14C
  8
FLOORPLATE$T1$2222
 66
     1
 10
0.0
 20
0.0
 30
0.0
 70
     1
  0
VERTEX
  5
14D
  8
FLOORPLATE$T1$2222
 10
208.6686829385492
 20
66.29845895815828
 30
0.0
  0
VERTEX
  5
14E
  8
FLOORPLATE$T1$2222
 10
218.6686829385492
 20
66.29845895815828
 30
0.0
  0
VERTEX
  5
14F
  8
FLOORPLATE$T1$2222
 10
218.6686829385492
 20
81.29845895815828
 30
0.0
  0
VERTEX
  5
150
  8
FLOORPLATE$T1$2222
 10
208.6686829385492
 20
81.29845895815828
 30
0.0
  0
SEQEND
  5
151
  8
FLOORPLATE$T1$2222
  0
POLYLINE
  5
152
  8
FLOORPLATE$T1$2222
 66
     1
 10
0.0
 20
0.0
 30
0.0
 70
     1
  0
VERTEX
  5
153
  8
FLOORPLATE$T1$2222
 10
208.6686829385492
 20
81.29845895815828
 30
0.0
  0
VERTEX
  5
154
  8
FLOORPLATE$T1$2222
 10
223.6686829385492
 20
81.29845895815828
 30
0.0
  0
VERTEX
  5
155
  8
FLOORPLATE$T1$2222
 10
223.6686829385492
 20
91.29845895815828
 30
0.0
  0
VERTEX
  5
156
  8
FLOORPLATE$T1$2222
 10
208.6686829385492
 20
91.29845895815828
 30
0.0
  0
SEQEND
  5
157
  8
FLOORPLATE$T1$2222
  0
POLYLINE
  5
158
  8
FLOORPLATE$T1$2222
 66
     1
 10
0.0
 20
0.0
 30
0.0
 70
     1
  0
VERTEX
  5
159
  8
FLOORPLATE$T1$2222
 10
218.6686829385492
 20
76.29845895815828
 30
0.0
  0
VERTEX
  5
15A
  8
FLOORPLATE$T1$2222
 10
223.6686829385492
 20
76.29845895815828
 30
0.0
  0
VERTEX
  5
15B
  8
FLOORPLATE$T1$2222
 10
223.6686829385492
 20
81.29845895815828
 30
0.0
  0
VERTEX
  5
15C
  8
FLOORPLATE$T1$2222
 10
218.6686829385492
 20
81.29845895815828
 30
0.0
  0
SEQEND
  5
15D
  8
FLOORPLATE$T1$2222
  0
TEXT
  5
15E
  8
FLOORPLATE$T1$2222
  6
CONTINUOUS
 10
214.5866829385492
 20
86.36512562482494
 30
0.0
 40
1.0
  1
2BED
  0
TEXT
  5
15F
  8
FLOORPLATE$T1$2222
  6
CONTINUOUS
 10
226.7884901674649
 20
82.86813767301771
 30
0.0
 40
1.0
  1
2BED
  0
TEXT
  5
160
  8
FLOORPLATE$T1$2222
  6
CONTINUOUS
 10
223.7884901674649
 20
69.86813767301771
 30
0.0
 40
1.0
  1
2BED
  0
TEXT
  5
161
  8
FLOORPLATE$T1$2222
  6
CONTINUOUS
 10
211.7884901674649
 20
73.86813767301771
 30
0.0
 40
1.0
  1
2BED
  0
TEXT
  5
162
  8
FLOORPLATE$T1$PH
  6
CONTINUOUS
 10
216.4526829385492
 20
55.36512562482496
 30
0.0
 40
1.0
  1
PHSINGLE
  0
POINT
  5
163
  8
FLOORPLATE$T1$2222
 10
218.6686829385492
 20
76.29845895815828
 30
0.0
  0
POINT
  5
164
  8
FLOORPLATE$T1$PH
 10
218.6686829385492
 20
46.29845895815828
 30
0.0
  0
POLYLINE
  5
165
  8
FLOORPLATE$T1$D33
 66
     1
 10
0.0
 20
0.0
 30
0.0
 70
     1
  0
VERTEX
  5
166
  8
FLOORPLATE$T1$D33
 10
208.6686829385492
 20
113.0006333454847
 30
0.0
  0
VERTEX
  5
167
  8
FLOORPLATE$T1$D33
 10
208.6686829385492
 20
98.00063334548466
 30
0.0
  0
VERTEX
  5
168
  8
FLOORPLATE$T1$D33
 10
233.6686829385492
 20
98.00063334548466
 30
0.0
  0
VERTEX
  5
169
  8
FLOORPLATE$T1$D33
 10
233.6686829385492
 20
108.0006333454847
 30
0.0
  0
VERTEX
  5
16A
  8
FLOORPLATE$T1$D33
 10
218.6686829385492
 20
108.0006333454847
 30
0.0
  0
VERTEX
  5
16B
  8
FLOORPLATE$T1$D33
 10
218.6686829385492
 20
113.0006333454847
 30
0.0
  0
SEQEND
  5
16C
  8
FLOORPLATE$T1$D33
  0
POLYLINE
  5
16D
  8
FLOORPLATE$T1$D33
 66
     1
 10
0.0
 20
0.0
 30
0.0
 70
     1
  0
VERTEX
  5
16E
  8
FLOORPLATE$T1$D33
 10
208.6686829385492
 20
123.0006333454847
 30
0.0
  0
VERTEX
  5
16F
  8
FLOORPLATE$T1$D33
 10
233.6686829385492
 20
123.0006333454847
 30
0.0
  0
VERTEX
  5
170
  8
FLOORPLATE$T1$D33
 10
233.6686829385492
 20
108.0006333454847
 30
0.0
  0
VERTEX
  5
171
  8
FLOORPLATE$T1$D33
 10
223.6686829385492
 20
108.0006333454847
 30
0.0
  0
VERTEX
  5
172
  8
FLOORPLATE$T1$D33
 10
223.6686829385492
 20
113.0006333454847
 30
0.0
  0
VERTEX
  5
173
  8
FLOORPLATE$T1$D33
 10
208.6686829385492
 20
113.0006333454847
 30
0.0
  0
SEQEND
  5
174
  8
FLOORPLATE$T1$D33
  0
TEXT
  5
175
  8
FLOORPLATE$T1$D33
  6
CONTINUOUS
 10
218.6544901674648
 20
117.1569736569033
 30
0.0
 40
1.0
  1
D3BED
  0
POLYLINE
  5
176
  8
FLOORPLATE$T1$D4
 66
     1
 10
0.0
 20
0.0
 30
0.0
 70
     1
  0
VERTEX
  5
177
  8
FLOORPLATE$T1$D4
 10
208.6686829385492
 20
129.1073163029095
 30
0.0
  0
VERTEX
  5
178
  8
FLOORPLATE$T1$D4
 10
233.6686829385492
 20
129.1073163029095
 30
0.0
  0
VERTEX
  5
179
  8
FLOORPLATE$T1$D4
 10
233.6686829385492
 20
154.1073163029095
 30
0.0
  0
VERTEX
  5
17A
  8
FLOORPLATE$T1$D4
 10
208.6686829385492
 20
154.1073163029095
 30
0.0
  0
SEQEND
  5
17B
  8
FLOORPLATE$T1$D4
  0
POLYLINE
  5
17D
  8
BOUNDARY
 66
     1
 10
0.0
 20
0.0
 30
0.0
 70
     1
  0
VERTEX
  5
17E
  8
BOUNDARY
 10
4.62210711111463
 20
96.2571040470228
 30
0.0
  0
VERTEX
  5
17F
  8
BOUNDARY
 10
134.8142049120487
 20
96.2571040470228
 30
0.0
  0
VERTEX
  5
180
  8
BOUNDARY
 10
134.8142049120487
 20
226.4492018479569
 30
0.0
  0
VERTEX
  5
181
  8
BOUNDARY
 10
4.62210711111463
 20
226.4492018479569
 30
0.0
  0
SEQEND
  5
182
  8
BOUNDARY
  0
POINT
  5
184
  8
FOOTPRINT$T1
 10
57.66868293854918
 20
147.1073163029095
 30
0.0
  0
ENDSEC
  0
EOF
