  0
SECTION
  2
HEADER
  9
$ACADVER
  1
AC1009
  9
$DWGCODEPAGE
  3
ansi_1252
  9
$INSBASE
 10
0.0
 20
0.0
 30
0.0
  9
$EXTMIN
 10
4.622107111114616
 20
-215.7634792073083
 30
0.0
  9
$EXTMAX
 10
334.8679795256155
 20
226.4492018479569
 30
0.0
  9
$LIMMIN
 10
0.0
 20
0.0
  9
$LIMMAX
 10
12.0
 20
9.0
  9
$ORTHOMODE
 70
     0
  9
$REGENMODE
 70
     1
  9
$FILLMODE
 70
     1
  9
$QTEXTMODE
 70
     0
  9
$MIRRTEXT
 70
     1
  9
$DRAGMODE
 70
     2
  9
$LTSCALE
 40
1000.0
  9
$OSMODE
 70
    37
  9
$ATTMODE
 70
     1
  9
$TEXTSIZE
 40
0.2
  9
$TRACEWID
 40
0.05
  9
$TEXTSTYLE
  7
STANDARD
  9
$CLAYER
  8
FLOORPLATE$T1$33V1
  9
$CELTYPE
  6
BYLAYER
  9
$CECOLOR
 62
   256
  9
$DIMSCALE
 40
1.0
  9
$DIMASZ
 40
0.18
  9
$DIMEXO
 40
0.0625
  9
$DIMDLI
 40
0.38
  9
$DIMRND
 40
0.0
  9
$DIMDLE
 40
0.0
  9
$DIMEXE
 40
0.18
  9
$DIMTP
 40
0.0
  9
$DIMTM
 40
0.0
  9
$DIMTXT
 40
0.18
  9
$DIMCEN
 40
0.09
  9
$DIMTSZ
 40
0.0
  9
$DIMTOL
 70
     0
  9
$DIMLIM
 70
     0
  9
$DIMTIH
 70
     1
  9
$DIMTOH
 70
     1
  9
$DIMSE1
 70
     0
  9
$DIMSE2
 70
     0
  9
$DIMTAD
 70
     0
  9
$DIMZIN
 70
     0
  9
$DIMBLK
  1

  9
$DIMASO
 70
     1
  9
$DIMSHO
 70
     1
  9
$DIMPOST
  1

  9
$DIMAPOST
  1

  9
$DIMALT
 70
     0
  9
$DIMALTD
 70
     2
  9
$DIMALTF
 40
25.4
  9
$DIMLFAC
 40
1.0
  9
$DIMTOFL
 70
     0
  9
$DIMTVP
 40
0.0
  9
$DIMTIX
 70
     0
  9
$DIMSOXD
 70
     0
  9
$DIMSAH
 70
     0
  9
$DIMBLK1
  1

  9
$DIMBLK2
  1

  9
$DIMSTYLE
  2
STANDARD
  9
$DIMCLRD
 70
     0
  9
$DIMCLRE
 70
     0
  9
$DIMCLRT
 70
     0
  9
$DIMTFAC
 40
1.0
  9
$DIMGAP
 40
0.09
  9
$LUNITS
 70
     2
  9
$LUPREC
 70
     3
  9
$SKETCHINC
 40
0.1
  9
$FILLETRAD
 40
0.5
  9
$AUNITS
 70
     0
  9
$AUPREC
 70
     0
  9
$MENU
  1
.
  9
$ELEVATION
 40
0.0
  9
$PELEVATION
 40
0.0
  9
$THICKNESS
 40
0.0
  9
$LIMCHECK
 70
     0
  9
$CHAMFERA
 40
0.0
  9
$CHAMFERB
 40
0.0
  9
$SKPOLY
 70
     0
  9
$TDCREATE
 40
2457889.542711065
  9
$TDUPDATE
 40
2457889.542728009
  9
$TDINDWG
 40
0.0000000116
  9
$TDUSRTIMER
 40
0.0000000116
  9
$USRTIMER
 70
     1
  9
$ANGBASE
 50
0.0
  9
$ANGDIR
 70
     0
  9
$PDMODE
 70
     0
  9
$PDSIZE
 40
0.0
  9
$PLINEWID
 40
0.0
  9
$COORDS
 70
     1
  9
$SPLFRAME
 70
     0
  9
$SPLINETYPE
 70
     6
  9
$SPLINESEGS
 70
     8
  9
$ATTDIA
 70
     0
  9
$ATTREQ
 70
     1
  9
$HANDLING
 70
     1
  9
$HANDSEED
  5
782
  9
$SURFTAB1
 70
     6
  9
$SURFTAB2
 70
     6
  9
$SURFTYPE
 70
     6
  9
$SURFU
 70
     6
  9
$SURFV
 70
     6
  9
$UCSNAME
  2

  9
$UCSORG
 10
0.0
 20
0.0
 30
0.0
  9
$UCSXDIR
 10
1.0
 20
0.0
 30
0.0
  9
$UCSYDIR
 10
0.0
 20
1.0
 30
0.0
  9
$PUCSNAME
  2

  9
$PUCSORG
 10
0.0
 20
0.0
 30
0.0
  9
$PUCSXDIR
 10
1.0
 20
0.0
 30
0.0
  9
$PUCSYDIR
 10
0.0
 20
1.0
 30
0.0
  9
$USERI1
 70
     0
  9
$USERI2
 70
     0
  9
$USERI3
 70
     0
  9
$USERI4
 70
     0
  9
$USERI5
 70
     0
  9
$USERR1
 40
0.0
  9
$USERR2
 40
0.0
  9
$USERR3
 40
0.0
  9
$USERR4
 40
0.0
  9
$USERR5
 40
0.0
  9
$WORLDVIEW
 70
     1
  9
$SHADEDGE
 70
     3
  9
$SHADEDIF
 70
    70
  9
$TILEMODE
 70
     1
  9
$MAXACTVP
 70
    64
  9
$PLIMCHECK
 70
     0
  9
$PEXTMIN
 10
1.000000000000000E+20
 20
1.000000000000000E+20
 30
1.000000000000000E+20
  9
$PEXTMAX
 10
-1.000000000000000E+20
 20
-1.000000000000000E+20
 30
-1.000000000000000E+20
  9
$PLIMMIN
 10
0.0
 20
0.0
  9
$PLIMMAX
 10
12.0
 20
9.0
  9
$UNITMODE
 70
     0
  9
$VISRETAIN
 70
     1
  9
$PLINEGEN
 70
     0
  9
$PSLTSCALE
 70
     1
  0
ENDSEC
  0
SECTION
  2
TABLES
  0
TABLE
  2
VPORT
 70
     1
  0
VPORT
  2
*ACTIVE
 70
     0
 10
0.0
 20
0.0
 11
1.0
 21
1.0
 12
169.7450433183651
 22
5.342861320324289
 13
0.0
 23
0.0
 14
0.5
 24
0.5
 15
0.5
 25
0.5
 16
0.0
 26
0.0
 36
1.0
 17
0.0
 27
0.0
 37
0.0
 40
451.0569346763705
 41
0.7468032613321387
 42
50.0
 43
0.0
 44
0.0
 50
0.0
 51
0.0
 71
     0
 72
   100
 73
     1
 74
     3
 75
     0
 76
     0
 77
     0
 78
     0
  0
ENDTAB
  0
TABLE
  2
LTYPE
 70
     1
  0
LTYPE
  2
CONTINUOUS
 70
     0
  3
Solid line
 72
    65
 73
     0
 40
0.0
  0
ENDTAB
  0
TABLE
  2
LAYER
 70
    34
  0
LAYER
  2
0
 70
     0
 62
     7
  6
CONTINUOUS
  0
LAYER
  2
FOOTPRINT$T1
 70
     0
 62
     7
  6
CONTINUOUS
  0
LAYER
  2
BOUNDARY
 70
     0
 62
     7
  6
CONTINUOUS
  0
LAYER
  2
FLOORPLATE$T1$3211V2
 70
     0
 62
     7
  6
CONTINUOUS
  0
LAYER
  2
FLOORPLATE$T1$22211V4
 70
     0
 62
     7
  6
CONTINUOUS
  0
LAYER
  2
FLOORPLATE$T1$22211V3
 70
     0
 62
     7
  6
CONTINUOUS
  0
LAYER
  2
FLOORPLATE$T1$22211V2
 70
     0
 62
     7
  6
CONTINUOUS
  0
LAYER
  2
FLOORPLATE$T1$22211V1
 70
     0
 62
     7
  6
CONTINUOUS
  0
LAYER
  2
FLOORPLATE$T1$3211V4
 70
     0
 62
     7
  6
CONTINUOUS
  0
LAYER
  2
FLOORPLATE$T1$3211V3
 70
     0
 62
     7
  6
CONTINUOUS
  0
LAYER
  2
FLOORPLATE$T1$3211V1
 70
     0
 62
     7
  6
CONTINUOUS
  0
LAYER
  2
FLOORPLATE$T1$31111V4
 70
     0
 62
     7
  6
CONTINUOUS
  0
LAYER
  2
FLOORPLATE$T1$31111V3
 70
     0
 62
     7
  6
CONTINUOUS
  0
LAYER
  2
FLOORPLATE$T1$31111V2
 70
     0
 62
     7
  6
CONTINUOUS
  0
LAYER
  2
FLOORPLATE$T1$31111V1
 70
     0
 62
     7
  6
CONTINUOUS
  0
LAYER
  2
FLOORPLATE$T1$221111V1
 70
     0
 62
     7
  6
CONTINUOUS
  0
LAYER
  2
FLOORPLATE$T1$221111V2
 70
     0
 62
     7
  6
CONTINUOUS
  0
LAYER
  2
FLOORPLATE$T1$221111V3
 70
     0
 62
     7
  6
CONTINUOUS
  0
LAYER
  2
FLOORPLATE$T1$221111V4
 70
     0
 62
     7
  6
CONTINUOUS
  0
LAYER
  2
FLOORPLATE$T1$2111111V1
 70
     0
 62
     7
  6
CONTINUOUS
  0
LAYER
  2
FLOORPLATE$T1$2111111V2
 70
     0
 62
     7
  6
CONTINUOUS
  0
LAYER
  2
FLOORPLATE$T1$2111111V3
 70
     0
 62
     7
  6
CONTINUOUS
  0
LAYER
  2
FLOORPLATE$T1$2111111V4
 70
     0
 62
     7
  6
CONTINUOUS
  0
LAYER
  2
FLOORPLATE$T1$D4
 70
     0
 62
     7
  6
CONTINUOUS
  0
LAYER
  2
FLOORPLATE$T1$D33
 70
     0
 62
     7
  6
CONTINUOUS
  0
LAYER
  2
FLOORPLATE$T1$PH
 70
     0
 62
     7
  6
CONTINUOUS
  0
LAYER
  2
FLOORPLATE$T1$2222
 70
     0
 62
     7
  6
CONTINUOUS
  0
LAYER
  2
FLOORPLATE$T1$322V3
 70
     0
 62
     7
  6
CONTINUOUS
  0
LAYER
  2
FLOORPLATE$T1$322V4
 70
     0
 62
     7
  6
CONTINUOUS
  0
LAYER
  2
FLOORPLATE$T1$322V2
 70
     0
 62
     7
  6
CONTINUOUS
  0
LAYER
  2
FLOORPLATE$T1$322V1
 70
     0
 62
     7
  6
CONTINUOUS
  0
LAYER
  2
FLOORPLATE$T1$33V2
 70
     0
 62
     7
  6
CONTINUOUS
  0
LAYER
  2
FLOORPLATE$T1$33V1
 70
     0
 62
     7
  6
CONTINUOUS
  0
LAYER
  2
FLOORPLATE$T1$11111111V1
 70
     0
 62
     7
  6
CONTINUOUS
  0
ENDTAB
  0
TABLE
  2
STYLE
 70
     1
  0
STYLE
  2
STANDARD
 70
     0
 40
0.0
 41
1.0
 50
0.0
 71
     0
 42
0.2
  3
txt
  4

  0
ENDTAB
  0
TABLE
  2
VIEW
 70
     0
  0
ENDTAB
  0
TABLE
  2
UCS
 70
     0
  0
ENDTAB
  0
TABLE
  2
APPID
 70
     1
  0
APPID
  2
ACAD
 70
     0
  0
ENDTAB
  0
TABLE
  2
DIMSTYLE
 70
     1
  0
DIMSTYLE
  2
STANDARD
 70
     0
  3

  4

  5

  6

  7

 40
1.0
 41
0.18
 42
0.0625
 43
0.38
 44
0.18
 45
0.0
 46
0.0
 47
0.0
 48
0.0
140
0.18
141
0.09
142
0.0
143
25.4
144
1.0
145
0.0
146
1.0
147
0.09
 71
     0
 72
     0
 73
     1
 74
     1
 75
     0
 76
     0
 77
     0
 78
     0
170
     0
171
     2
172
     0
173
     0
174
     0
175
     0
176
     0
177
     0
178
     0
  0
ENDTAB
  0
ENDSEC
  0
SECTION
  2
BLOCKS
  0
BLOCK
  8
0
  2
$MODEL_SPACE
 70
     0
 10
0.0
 20
0.0
 30
0.0
  3
$MODEL_SPACE
  1

  0
ENDBLK
  5
21
  8
0
  0
BLOCK
 67
     1
  8
0
  2
$PAPER_SPACE
 70
     0
 10
0.0
 20
0.0
 30
0.0
  3
$PAPER_SPACE
  1

  0
ENDBLK
  5
1D
 67
     1
  8
0
  0
ENDSEC
  0
SECTION
  2
ENTITIES
  0
POINT
  5
6F
  8
FOOTPRINT$T1
 10
57.66868293854918
 20
147.1073163029095
 30
0.0
  0
POLYLINE
  5
71
  8
BOUNDARY
 66
     1
 10
0.0
 20
0.0
 30
0.0
 70
     1
  0
VERTEX
  5
72
  8
BOUNDARY
 10
4.62210711111463
 20
96.2571040470228
 30
0.0
  0
VERTEX
  5
73
  8
BOUNDARY
 10
134.8142049120487
 20
96.2571040470228
 30
0.0
  0
VERTEX
  5
74
  8
BOUNDARY
 10
134.8142049120487
 20
226.4492018479569
 30
0.0
  0
VERTEX
  5
75
  8
BOUNDARY
 10
4.62210711111463
 20
226.4492018479569
 30
0.0
  0
SEQEND
  5
76
  8
BOUNDARY
  0
POINT
  5
78
  8
FLOORPLATE$T1$3211V2
 10
253.0
 20
-77.00000000000003
 30
0.0
  0
POINT
  5
7A
  8
FLOORPLATE$T1$22211V4
 10
318.0
 20
-108.0
 30
0.0
  0
POINT
  5
7C
  8
FLOORPLATE$T1$22211V3
 10
286.0
 20
-108.0
 30
0.0
  0
POINT
  5
7E
  8
FLOORPLATE$T1$22211V2
 10
253.0
 20
-108.0
 30
0.0
  0
TEXT
  5
7F
  8
FLOORPLATE$T1$22211V4
  6
CONTINUOUS
 10
315.0044096385542
 20
-105.536345381526
 30
0.0
 40
1.0
  1
1BED
 50
180.0
  0
TEXT
  5
80
  8
FLOORPLATE$T1$22211V4
  6
CONTINUOUS
 10
315.1519999999999
 20
-115.0333333333333
 30
0.0
 40
1.0
  1
1BED
 50
180.0
  0
TEXT
  5
81
  8
FLOORPLATE$T1$22211V4
  6
CONTINUOUS
 10
327.0409999999999
 20
-113.0333333333334
 30
0.0
 40
1.0
  1
2BED
 50
180.0
  0
TEXT
  5
82
  8
FLOORPLATE$T1$22211V4
  6
CONTINUOUS
 10
317.8391927710845
 20
-96.53634538152609
 30
0.0
 40
1.0
  1
2BED
 50
180.0
  0
POLYLINE
  5
83
  8
FLOORPLATE$T1$22211V4
 66
     1
 10
0.0
 20
0.0
 30
0.0
 70
     1
  0
VERTEX
  5
84
  8
FLOORPLATE$T1$22211V4
 10
323.0
 20
-103.0
 30
0.0
  0
VERTEX
  5
85
  8
FLOORPLATE$T1$22211V4
 10
318.0
 20
-103.0
 30
0.0
  0
VERTEX
  5
86
  8
FLOORPLATE$T1$22211V4
 10
318.0
 20
-108.0
 30
0.0
  0
VERTEX
  5
87
  8
FLOORPLATE$T1$22211V4
 10
323.0
 20
-108.0
 30
0.0
  0
SEQEND
  5
88
  8
FLOORPLATE$T1$22211V4
  0
LINE
  5
89
  8
FLOORPLATE$T1$22211V4
 10
309.2634792073082
 20
-113.3670214771631
 30
0.0
 11
306.8889071133209
 21
-113.367021477163
 31
0.0
  0
LINE
  5
8A
  8
FLOORPLATE$T1$22211V4
 10
309.2634792073083
 20
-105.3597434858106
 30
0.0
 11
306.888907113321
 21
-105.3597434858106
 31
0.0
  0
LINE
  5
8B
  8
FLOORPLATE$T1$22211V4
 10
309.2634792073084
 20
-97.8494689559904
 30
0.0
 11
306.8889071133211
 21
-97.84946895599035
 31
0.0
  0
LINE
  5
8C
  8
FLOORPLATE$T1$22211V4
 10
312.8494689559906
 20
-91.73652079269158
 30
0.0
 11
312.8494689559906
 21
-94.11109288667893
 31
0.0
  0
LINE
  5
8D
  8
FLOORPLATE$T1$22211V4
 10
320.3597434858108
 20
-91.73652079269175
 30
0.0
 11
320.3597434858108
 21
-94.11109288667899
 31
0.0
  0
LINE
  5
8E
  8
FLOORPLATE$T1$22211V4
 10
328.3670214771632
 20
-91.7365207926918
 30
0.0
 11
328.3670214771632
 21
-94.11109288667905
 31
0.0
  0
LINE
  5
8F
  8
FLOORPLATE$T1$22211V4
 10
328.1505310440094
 20
-119.2634792073084
 30
0.0
 11
328.1505310440094
 21
-116.8889071133211
 31
0.0
  0
LINE
  5
90
  8
FLOORPLATE$T1$22211V4
 10
320.6402565141892
 20
-119.2634792073083
 30
0.0
 11
320.6402565141892
 21
-116.888907113321
 31
0.0
  0
LINE
  5
91
  8
FLOORPLATE$T1$22211V4
 10
312.6329785228368
 20
-119.2634792073082
 30
0.0
 11
312.6329785228368
 21
-116.888907113321
 31
0.0
  0
LINE
  5
92
  8
FLOORPLATE$T1$22211V4
 10
331.7365207926918
 20
-97.63297852283694
 30
0.0
 11
334.1110928866791
 21
-97.63297852283699
 31
0.0
  0
LINE
  5
93
  8
FLOORPLATE$T1$22211V4
 10
331.7365207926917
 20
-105.6402565141894
 30
0.0
 11
334.111092886679
 21
-105.6402565141894
 31
0.0
  0
LINE
  5
94
  8
FLOORPLATE$T1$22211V4
 10
331.7365207926916
 20
-113.1505310440097
 30
0.0
 11
334.1110928866789
 21
-113.1505310440097
 31
0.0
  0
POLYLINE
  5
95
  8
FLOORPLATE$T1$22211V4
 66
     1
 10
0.0
 20
0.0
 30
0.0
 70
     1
  0
VERTEX
  5
96
  8
FLOORPLATE$T1$22211V4
 10
318.0
 20
-108.0
 30
0.0
  0
VERTEX
  5
97
  8
FLOORPLATE$T1$22211V4
 10
313.0
 20
-107.9999999999999
 30
0.0
  0
VERTEX
  5
98
  8
FLOORPLATE$T1$22211V4
 10
312.9999999999999
 20
-112.9999999999999
 30
0.0
  0
VERTEX
  5
99
  8
FLOORPLATE$T1$22211V4
 10
307.9999999999999
 20
-112.9999999999999
 30
0.0
  0
VERTEX
  5
9A
  8
FLOORPLATE$T1$22211V4
 10
307.9999999999999
 20
-117.9999999999999
 30
0.0
  0
VERTEX
  5
9B
  8
FLOORPLATE$T1$22211V4
 10
317.9999999999999
 20
-118.0
 30
0.0
  0
SEQEND
  5
9C
  8
FLOORPLATE$T1$22211V4
  0
TEXT
  5
9D
  8
FLOORPLATE$T1$22211V4
  6
CONTINUOUS
 10
329.8391927710844
 20
-100.5363453815261
 30
0.0
 40
1.0
  1
2BED
 50
180.0
  0
POLYLINE
  5
9E
  8
FLOORPLATE$T1$22211V4
 66
     1
 10
0.0
 20
0.0
 30
0.0
 70
     1
  0
VERTEX
  5
9F
  8
FLOORPLATE$T1$22211V4
 10
323.0000000000001
 20
-93.0
 30
0.0
  0
VERTEX
  5
A0
  8
FLOORPLATE$T1$22211V4
 10
308.0000000000002
 20
-92.99999999999994
 30
0.0
  0
VERTEX
  5
A1
  8
FLOORPLATE$T1$22211V4
 10
308.0
 20
-102.9999999999999
 30
0.0
  0
VERTEX
  5
A2
  8
FLOORPLATE$T1$22211V4
 10
323.0
 20
-103.0
 30
0.0
  0
SEQEND
  5
A3
  8
FLOORPLATE$T1$22211V4
  0
POLYLINE
  5
A4
  8
FLOORPLATE$T1$22211V4
 66
     1
 10
0.0
 20
0.0
 30
0.0
 70
     1
  0
VERTEX
  5
A5
  8
FLOORPLATE$T1$22211V4
 10
333.0
 20
-108.0000000000002
 30
0.0
  0
VERTEX
  5
A6
  8
FLOORPLATE$T1$22211V4
 10
318.0
 20
-108.0
 30
0.0
  0
VERTEX
  5
A7
  8
FLOORPLATE$T1$22211V4
 10
317.9999999999999
 20
-118.0
 30
0.0
  0
VERTEX
  5
A8
  8
FLOORPLATE$T1$22211V4
 10
332.9999999999999
 20
-118.0000000000002
 30
0.0
  0
SEQEND
  5
A9
  8
FLOORPLATE$T1$22211V4
  0
POLYLINE
  5
AA
  8
FLOORPLATE$T1$22211V4
 66
     1
 10
0.0
 20
0.0
 30
0.0
 70
     1
  0
VERTEX
  5
AB
  8
FLOORPLATE$T1$22211V4
 10
312.9999999999999
 20
-112.9999999999999
 30
0.0
  0
VERTEX
  5
AC
  8
FLOORPLATE$T1$22211V4
 10
307.9999999999999
 20
-112.9999999999999
 30
0.0
  0
VERTEX
  5
AD
  8
FLOORPLATE$T1$22211V4
 10
308.0
 20
-102.9999999999999
 30
0.0
  0
VERTEX
  5
AE
  8
FLOORPLATE$T1$22211V4
 10
318.0
 20
-103.0
 30
0.0
  0
VERTEX
  5
AF
  8
FLOORPLATE$T1$22211V4
 10
318.0
 20
-108.0
 30
0.0
  0
VERTEX
  5
B0
  8
FLOORPLATE$T1$22211V4
 10
313.0
 20
-107.9999999999999
 30
0.0
  0
SEQEND
  5
B1
  8
FLOORPLATE$T1$22211V4
  0
POLYLINE
  5
B2
  8
FLOORPLATE$T1$22211V4
 66
     1
 10
0.0
 20
0.0
 30
0.0
 70
     1
  0
VERTEX
  5
B3
  8
FLOORPLATE$T1$22211V4
 10
333.0000000000001
 20
-93.00000000000011
 30
0.0
  0
VERTEX
  5
B4
  8
FLOORPLATE$T1$22211V4
 10
323.0000000000001
 20
-93.0
 30
0.0
  0
VERTEX
  5
B5
  8
FLOORPLATE$T1$22211V4
 10
323.0
 20
-108.0
 30
0.0
  0
VERTEX
  5
B6
  8
FLOORPLATE$T1$22211V4
 10
333.0
 20
-108.0000000000002
 30
0.0
  0
SEQEND
  5
B7
  8
FLOORPLATE$T1$22211V4
  0
TEXT
  5
B8
  8
FLOORPLATE$T1$22211V3
  6
CONTINUOUS
 10
283.0044096385542
 20
-105.536345381526
 30
0.0
 40
1.0
  1
1BED
 50
180.0
  0
TEXT
  5
B9
  8
FLOORPLATE$T1$22211V3
  6
CONTINUOUS
 10
283.1519999999999
 20
-115.0333333333333
 30
0.0
 40
1.0
  1
1BED
 50
180.0
  0
TEXT
  5
BA
  8
FLOORPLATE$T1$22211V3
  6
CONTINUOUS
 10
295.0409999999999
 20
-113.0333333333334
 30
0.0
 40
1.0
  1
2BED
 50
180.0
  0
TEXT
  5
BB
  8
FLOORPLATE$T1$22211V3
  6
CONTINUOUS
 10
285.8391927710845
 20
-96.5363453815261
 30
0.0
 40
1.0
  1
2BED
 50
180.0
  0
POLYLINE
  5
BC
  8
FLOORPLATE$T1$22211V3
 66
     1
 10
0.0
 20
0.0
 30
0.0
 70
     1
  0
VERTEX
  5
BD
  8
FLOORPLATE$T1$22211V3
 10
291.0
 20
-103.0
 30
0.0
  0
VERTEX
  5
BE
  8
FLOORPLATE$T1$22211V3
 10
286.0
 20
-103.0
 30
0.0
  0
VERTEX
  5
BF
  8
FLOORPLATE$T1$22211V3
 10
286.0
 20
-108.0
 30
0.0
  0
VERTEX
  5
C0
  8
FLOORPLATE$T1$22211V3
 10
291.0
 20
-108.0
 30
0.0
  0
SEQEND
  5
C1
  8
FLOORPLATE$T1$22211V3
  0
LINE
  5
C2
  8
FLOORPLATE$T1$22211V3
 10
277.2634792073082
 20
-113.3670214771631
 30
0.0
 11
274.8889071133209
 21
-113.367021477163
 31
0.0
  0
LINE
  5
C3
  8
FLOORPLATE$T1$22211V3
 10
277.2634792073083
 20
-105.3597434858106
 30
0.0
 11
274.888907113321
 21
-105.3597434858106
 31
0.0
  0
LINE
  5
C4
  8
FLOORPLATE$T1$22211V3
 10
277.2634792073084
 20
-97.8494689559904
 30
0.0
 11
274.8889071133211
 21
-97.84946895599035
 31
0.0
  0
LINE
  5
C5
  8
FLOORPLATE$T1$22211V3
 10
280.8494689559906
 20
-91.73652079269158
 30
0.0
 11
280.8494689559906
 21
-94.11109288667893
 31
0.0
  0
LINE
  5
C6
  8
FLOORPLATE$T1$22211V3
 10
288.3597434858108
 20
-91.73652079269175
 30
0.0
 11
288.3597434858108
 21
-94.11109288667899
 31
0.0
  0
LINE
  5
C7
  8
FLOORPLATE$T1$22211V3
 10
296.3670214771632
 20
-91.7365207926918
 30
0.0
 11
296.3670214771632
 21
-94.11109288667905
 31
0.0
  0
LINE
  5
C8
  8
FLOORPLATE$T1$22211V3
 10
296.1505310440094
 20
-119.2634792073084
 30
0.0
 11
296.1505310440094
 21
-116.8889071133211
 31
0.0
  0
LINE
  5
C9
  8
FLOORPLATE$T1$22211V3
 10
288.6402565141892
 20
-119.2634792073083
 30
0.0
 11
288.6402565141892
 21
-116.888907113321
 31
0.0
  0
LINE
  5
CA
  8
FLOORPLATE$T1$22211V3
 10
280.6329785228368
 20
-119.2634792073082
 30
0.0
 11
280.6329785228368
 21
-116.888907113321
 31
0.0
  0
LINE
  5
CB
  8
FLOORPLATE$T1$22211V3
 10
299.7365207926918
 20
-97.63297852283694
 30
0.0
 11
302.1110928866791
 21
-97.63297852283699
 31
0.0
  0
LINE
  5
CC
  8
FLOORPLATE$T1$22211V3
 10
299.7365207926917
 20
-105.6402565141894
 30
0.0
 11
302.111092886679
 21
-105.6402565141894
 31
0.0
  0
LINE
  5
CD
  8
FLOORPLATE$T1$22211V3
 10
299.7365207926916
 20
-113.1505310440097
 30
0.0
 11
302.1110928866789
 21
-113.1505310440097
 31
0.0
  0
POLYLINE
  5
CE
  8
FLOORPLATE$T1$22211V3
 66
     1
 10
0.0
 20
0.0
 30
0.0
 70
     1
  0
VERTEX
  5
CF
  8
FLOORPLATE$T1$22211V3
 10
286.0
 20
-108.0
 30
0.0
  0
VERTEX
  5
D0
  8
FLOORPLATE$T1$22211V3
 10
281.0
 20
-107.9999999999999
 30
0.0
  0
VERTEX
  5
D1
  8
FLOORPLATE$T1$22211V3
 10
280.9999999999999
 20
-112.9999999999999
 30
0.0
  0
VERTEX
  5
D2
  8
FLOORPLATE$T1$22211V3
 10
275.9999999999999
 20
-112.9999999999999
 30
0.0
  0
VERTEX
  5
D3
  8
FLOORPLATE$T1$22211V3
 10
275.9999999999999
 20
-117.9999999999999
 30
0.0
  0
VERTEX
  5
D4
  8
FLOORPLATE$T1$22211V3
 10
285.9999999999999
 20
-118.0
 30
0.0
  0
SEQEND
  5
D5
  8
FLOORPLATE$T1$22211V3
  0
TEXT
  5
D6
  8
FLOORPLATE$T1$22211V3
  6
CONTINUOUS
 10
297.8391927710844
 20
-100.5363453815261
 30
0.0
 40
1.0
  1
2BED
 50
180.0
  0
POLYLINE
  5
D7
  8
FLOORPLATE$T1$22211V3
 66
     1
 10
0.0
 20
0.0
 30
0.0
 70
     1
  0
VERTEX
  5
D8
  8
FLOORPLATE$T1$22211V3
 10
291.0000000000001
 20
-93.0
 30
0.0
  0
VERTEX
  5
D9
  8
FLOORPLATE$T1$22211V3
 10
276.0000000000002
 20
-92.99999999999994
 30
0.0
  0
VERTEX
  5
DA
  8
FLOORPLATE$T1$22211V3
 10
276.0
 20
-102.9999999999999
 30
0.0
  0
VERTEX
  5
DB
  8
FLOORPLATE$T1$22211V3
 10
291.0
 20
-103.0
 30
0.0
  0
SEQEND
  5
DC
  8
FLOORPLATE$T1$22211V3
  0
POLYLINE
  5
DD
  8
FLOORPLATE$T1$22211V3
 66
     1
 10
0.0
 20
0.0
 30
0.0
 70
     1
  0
VERTEX
  5
DE
  8
FLOORPLATE$T1$22211V3
 10
301.0
 20
-108.0000000000002
 30
0.0
  0
VERTEX
  5
DF
  8
FLOORPLATE$T1$22211V3
 10
286.0
 20
-108.0
 30
0.0
  0
VERTEX
  5
E0
  8
FLOORPLATE$T1$22211V3
 10
285.9999999999999
 20
-118.0
 30
0.0
  0
VERTEX
  5
E1
  8
FLOORPLATE$T1$22211V3
 10
300.9999999999999
 20
-118.0000000000002
 30
0.0
  0
SEQEND
  5
E2
  8
FLOORPLATE$T1$22211V3
  0
POLYLINE
  5
E3
  8
FLOORPLATE$T1$22211V3
 66
     1
 10
0.0
 20
0.0
 30
0.0
 70
     1
  0
VERTEX
  5
E4
  8
FLOORPLATE$T1$22211V3
 10
280.9999999999999
 20
-112.9999999999999
 30
0.0
  0
VERTEX
  5
E5
  8
FLOORPLATE$T1$22211V3
 10
275.9999999999999
 20
-112.9999999999999
 30
0.0
  0
VERTEX
  5
E6
  8
FLOORPLATE$T1$22211V3
 10
276.0
 20
-102.9999999999999
 30
0.0
  0
VERTEX
  5
E7
  8
FLOORPLATE$T1$22211V3
 10
286.0
 20
-103.0
 30
0.0
  0
VERTEX
  5
E8
  8
FLOORPLATE$T1$22211V3
 10
286.0
 20
-108.0
 30
0.0
  0
VERTEX
  5
E9
  8
FLOORPLATE$T1$22211V3
 10
281.0
 20
-107.9999999999999
 30
0.0
  0
SEQEND
  5
EA
  8
FLOORPLATE$T1$22211V3
  0
POLYLINE
  5
EB
  8
FLOORPLATE$T1$22211V3
 66
     1
 10
0.0
 20
0.0
 30
0.0
 70
     1
  0
VERTEX
  5
EC
  8
FLOORPLATE$T1$22211V3
 10
301.0000000000001
 20
-93.00000000000011
 30
0.0
  0
VERTEX
  5
ED
  8
FLOORPLATE$T1$22211V3
 10
291.0000000000001
 20
-93.0
 30
0.0
  0
VERTEX
  5
EE
  8
FLOORPLATE$T1$22211V3
 10
291.0
 20
-108.0
 30
0.0
  0
VERTEX
  5
EF
  8
FLOORPLATE$T1$22211V3
 10
301.0
 20
-108.0000000000002
 30
0.0
  0
SEQEND
  5
F0
  8
FLOORPLATE$T1$22211V3
  0
POLYLINE
  5
F1
  8
FLOORPLATE$T1$22211V2
 66
     1
 10
0.0
 20
0.0
 30
0.0
 70
     1
  0
VERTEX
  5
F2
  8
FLOORPLATE$T1$22211V2
 10
268.0
 20
-118.0
 30
0.0
  0
VERTEX
  5
F3
  8
FLOORPLATE$T1$22211V2
 10
268.0
 20
-108.0
 30
0.0
  0
VERTEX
  5
F4
  8
FLOORPLATE$T1$22211V2
 10
253.0
 20
-108.0
 30
0.0
  0
VERTEX
  5
F5
  8
FLOORPLATE$T1$22211V2
 10
253.0
 20
-118.0
 30
0.0
  0
SEQEND
  5
F6
  8
FLOORPLATE$T1$22211V2
  0
POLYLINE
  5
F7
  8
FLOORPLATE$T1$22211V2
 66
     1
 10
0.0
 20
0.0
 30
0.0
 70
     1
  0
VERTEX
  5
F8
  8
FLOORPLATE$T1$22211V2
 10
248.0000000000001
 20
-97.99999999999994
 30
0.0
  0
VERTEX
  5
F9
  8
FLOORPLATE$T1$22211V2
 10
248.0000000000001
 20
-92.99999999999994
 30
0.0
  0
VERTEX
  5
FA
  8
FLOORPLATE$T1$22211V2
 10
258.0000000000001
 20
-93.0
 30
0.0
  0
VERTEX
  5
FB
  8
FLOORPLATE$T1$22211V2
 10
258.0
 20
-103.0
 30
0.0
  0
VERTEX
  5
FC
  8
FLOORPLATE$T1$22211V2
 10
253.0
 20
-103.0
 30
0.0
  0
VERTEX
  5
FD
  8
FLOORPLATE$T1$22211V2
 10
253.0000000000001
 20
-98.0
 30
0.0
  0
SEQEND
  5
FE
  8
FLOORPLATE$T1$22211V2
  0
POLYLINE
  5
FF
  8
FLOORPLATE$T1$22211V2
 66
     1
 10
0.0
 20
0.0
 30
0.0
 70
     1
  0
VERTEX
  5
100
  8
FLOORPLATE$T1$22211V2
 10
253.0
 20
-118.0
 30
0.0
  0
VERTEX
  5
101
  8
FLOORPLATE$T1$22211V2
 10
253.0
 20
-103.0
 30
0.0
  0
VERTEX
  5
102
  8
FLOORPLATE$T1$22211V2
 10
243.0
 20
-102.9999999999999
 30
0.0
  0
VERTEX
  5
103
  8
FLOORPLATE$T1$22211V2
 10
243.0
 20
-117.9999999999999
 30
0.0
  0
SEQEND
  5
104
  8
FLOORPLATE$T1$22211V2
  0
POLYLINE
  5
105
  8
FLOORPLATE$T1$22211V2
 66
     1
 10
0.0
 20
0.0
 30
0.0
 70
     1
  0
VERTEX
  5
106
  8
FLOORPLATE$T1$22211V2
 10
268.0
 20
-108.0
 30
0.0
  0
VERTEX
  5
107
  8
FLOORPLATE$T1$22211V2
 10
268.0000000000001
 20
-93.00000000000006
 30
0.0
  0
VERTEX
  5
108
  8
FLOORPLATE$T1$22211V2
 10
258.0000000000001
 20
-93.0
 30
0.0
  0
VERTEX
  5
109
  8
FLOORPLATE$T1$22211V2
 10
258.0
 20
-108.0
 30
0.0
  0
SEQEND
  5
10A
  8
FLOORPLATE$T1$22211V2
  0
TEXT
  5
10B
  8
FLOORPLATE$T1$22211V2
  6
CONTINUOUS
 10
260.4636546184739
 20
-114.8391927710843
 30
0.0
 40
1.0
  1
2BED
 50
89.99999999999982
  0
POLYLINE
  5
10C
  8
FLOORPLATE$T1$22211V2
 66
     1
 10
0.0
 20
0.0
 30
0.0
 70
     1
  0
VERTEX
  5
10D
  8
FLOORPLATE$T1$22211V2
 10
253.0
 20
-103.0
 30
0.0
  0
VERTEX
  5
10E
  8
FLOORPLATE$T1$22211V2
 10
253.0000000000001
 20
-98.0
 30
0.0
  0
VERTEX
  5
10F
  8
FLOORPLATE$T1$22211V2
 10
248.0000000000001
 20
-97.99999999999994
 30
0.0
  0
VERTEX
  5
110
  8
FLOORPLATE$T1$22211V2
 10
248.0000000000001
 20
-92.99999999999994
 30
0.0
  0
VERTEX
  5
111
  8
FLOORPLATE$T1$22211V2
 10
243.0000000000001
 20
-92.99999999999994
 30
0.0
  0
VERTEX
  5
112
  8
FLOORPLATE$T1$22211V2
 10
243.0
 20
-102.9999999999999
 30
0.0
  0
SEQEND
  5
113
  8
FLOORPLATE$T1$22211V2
  0
LINE
  5
114
  8
FLOORPLATE$T1$22211V2
 10
247.8494689559904
 20
-116.7365207926917
 30
0.0
 11
247.8494689559904
 21
-119.111092886679
 31
0.0
  0
LINE
  5
115
  8
FLOORPLATE$T1$22211V2
 10
255.3597434858107
 20
-116.7365207926917
 30
0.0
 11
255.3597434858107
 21
-119.111092886679
 31
0.0
  0
LINE
  5
116
  8
FLOORPLATE$T1$22211V2
 10
263.3670214771631
 20
-116.7365207926917
 30
0.0
 11
263.3670214771631
 21
-119.111092886679
 31
0.0
  0
LINE
  5
117
  8
FLOORPLATE$T1$22211V2
 10
241.7365207926917
 20
-97.63297852283682
 30
0.0
 11
244.111092886679
 21
-97.63297852283682
 31
0.0
  0
LINE
  5
118
  8
FLOORPLATE$T1$22211V2
 10
241.7365207926917
 20
-105.6402565141892
 30
0.0
 11
244.111092886679
 21
-105.6402565141892
 31
0.0
  0
LINE
  5
119
  8
FLOORPLATE$T1$22211V2
 10
241.7365207926917
 20
-113.1505310440095
 30
0.0
 11
244.111092886679
 21
-113.1505310440095
 31
0.0
  0
LINE
  5
11A
  8
FLOORPLATE$T1$22211V2
 10
269.2634792073083
 20
-113.3670214771631
 30
0.0
 11
266.888907113321
 21
-113.3670214771631
 31
0.0
  0
LINE
  5
11B
  8
FLOORPLATE$T1$22211V2
 10
269.2634792073083
 20
-105.3597434858107
 30
0.0
 11
266.888907113321
 21
-105.3597434858107
 31
0.0
  0
LINE
  5
11C
  8
FLOORPLATE$T1$22211V2
 10
269.2634792073084
 20
-97.84946895599052
 30
0.0
 11
266.8889071133211
 21
-97.84946895599052
 31
0.0
  0
LINE
  5
11D
  8
FLOORPLATE$T1$22211V2
 10
263.1505310440096
 20
-94.26347920730831
 30
0.0
 11
263.1505310440096
 21
-91.88890711332101
 31
0.0
  0
LINE
  5
11E
  8
FLOORPLATE$T1$22211V2
 10
255.6402565141893
 20
-94.26347920730831
 30
0.0
 11
255.6402565141894
 21
-91.88890711332101
 31
0.0
  0
LINE
  5
11F
  8
FLOORPLATE$T1$22211V2
 10
247.6329785228369
 20
-94.26347920730825
 30
0.0
 11
247.6329785228369
 21
-91.88890711332095
 31
0.0
  0
POLYLINE
  5
120
  8
FLOORPLATE$T1$22211V2
 66
     1
 10
0.0
 20
0.0
 30
0.0
 70
     1
  0
VERTEX
  5
121
  8
FLOORPLATE$T1$22211V2
 10
258.0
 20
-108.0
 30
0.0
  0
VERTEX
  5
122
  8
FLOORPLATE$T1$22211V2
 10
258.0
 20
-103.0
 30
0.0
  0
VERTEX
  5
123
  8
FLOORPLATE$T1$22211V2
 10
253.0
 20
-103.0
 30
0.0
  0
VERTEX
  5
124
  8
FLOORPLATE$T1$22211V2
 10
253.0
 20
-108.0
 30
0.0
  0
SEQEND
  5
125
  8
FLOORPLATE$T1$22211V2
  0
TEXT
  5
126
  8
FLOORPLATE$T1$22211V2
  6
CONTINUOUS
 10
264.4636546184739
 20
-102.8391927710844
 30
0.0
 40
1.0
  1
2BED
 50
89.99999999999982
  0
TEXT
  5
127
  8
FLOORPLATE$T1$22211V2
  6
CONTINUOUS
 10
247.9666666666667
 20
-112.0409999999999
 30
0.0
 40
1.0
  1
2BED
 50
89.99999999999982
  0
TEXT
  5
128
  8
FLOORPLATE$T1$22211V2
  6
CONTINUOUS
 10
245.9666666666667
 20
-100.1519999999999
 30
0.0
 40
1.0
  1
1BED
 50
89.99999999999982
  0
TEXT
  5
129
  8
FLOORPLATE$T1$22211V2
  6
CONTINUOUS
 10
255.4636546184739
 20
-100.0044096385542
 30
0.0
 40
1.0
  1
1BED
 50
89.99999999999982
  0
TEXT
  5
12B
  8
FLOORPLATE$T1$22211V1
  6
CONTINUOUS
 10
226.9955903614458
 20
-105.4636546184739
 30
0.0
 40
1.0
  1
1BED
  0
TEXT
  5
12C
  8
FLOORPLATE$T1$22211V1
  6
CONTINUOUS
 10
226.848
 20
-95.96666666666667
 30
0.0
 40
1.0
  1
1BED
  0
TEXT
  5
12D
  8
FLOORPLATE$T1$22211V1
  6
CONTINUOUS
 10
214.959
 20
-97.96666666666667
 30
0.0
 40
1.0
  1
2BED
  0
POINT
  5
12E
  8
FLOORPLATE$T1$22211V1
 10
219.0
 20
-108.0
 30
0.0
  0
TEXT
  5
12F
  8
FLOORPLATE$T1$22211V1
  6
CONTINUOUS
 10
224.1608072289157
 20
-114.4636546184739
 30
0.0
 40
1.0
  1
2BED
  0
POLYLINE
  5
130
  8
FLOORPLATE$T1$22211V1
 66
     1
 10
0.0
 20
0.0
 30
0.0
 70
     1
  0
VERTEX
  5
131
  8
FLOORPLATE$T1$22211V1
 10
219.0
 20
-108.0
 30
0.0
  0
VERTEX
  5
132
  8
FLOORPLATE$T1$22211V1
 10
224.0
 20
-108.0
 30
0.0
  0
VERTEX
  5
133
  8
FLOORPLATE$T1$22211V1
 10
224.0
 20
-103.0
 30
0.0
  0
VERTEX
  5
134
  8
FLOORPLATE$T1$22211V1
 10
219.0
 20
-103.0
 30
0.0
  0
SEQEND
  5
135
  8
FLOORPLATE$T1$22211V1
  0
LINE
  5
136
  8
FLOORPLATE$T1$22211V1
 10
232.7365207926917
 20
-97.63297852283688
 30
0.0
 11
235.111092886679
 21
-97.63297852283688
 31
0.0
  0
LINE
  5
137
  8
FLOORPLATE$T1$22211V1
 10
232.7365207926917
 20
-105.6402565141893
 30
0.0
 11
235.111092886679
 21
-105.6402565141893
 31
0.0
  0
LINE
  5
138
  8
FLOORPLATE$T1$22211V1
 10
232.7365207926917
 20
-113.1505310440095
 30
0.0
 11
235.111092886679
 21
-113.1505310440095
 31
0.0
  0
LINE
  5
139
  8
FLOORPLATE$T1$22211V1
 10
229.1505310440095
 20
-119.2634792073083
 30
0.0
 11
229.1505310440095
 21
-116.888907113321
 31
0.0
  0
LINE
  5
13A
  8
FLOORPLATE$T1$22211V1
 10
221.6402565141893
 20
-119.2634792073083
 30
0.0
 11
221.6402565141893
 21
-116.888907113321
 31
0.0
  0
LINE
  5
13B
  8
FLOORPLATE$T1$22211V1
 10
213.6329785228369
 20
-119.2634792073083
 30
0.0
 11
213.6329785228369
 21
-116.888907113321
 31
0.0
  0
LINE
  5
13C
  8
FLOORPLATE$T1$22211V1
 10
213.8494689559905
 20
-91.7365207926917
 30
0.0
 11
213.8494689559905
 21
-94.11109288667899
 31
0.0
  0
LINE
  5
13D
  8
FLOORPLATE$T1$22211V1
 10
221.3597434858107
 20
-91.7365207926917
 30
0.0
 11
221.3597434858107
 21
-94.11109288667899
 31
0.0
  0
LINE
  5
13E
  8
FLOORPLATE$T1$22211V1
 10
229.3670214771631
 20
-91.7365207926917
 30
0.0
 11
229.3670214771631
 21
-94.11109288667899
 31
0.0
  0
LINE
  5
13F
  8
FLOORPLATE$T1$22211V1
 10
210.2634792073083
 20
-113.3670214771631
 30
0.0
 11
207.888907113321
 21
-113.3670214771631
 31
0.0
  0
LINE
  5
140
  8
FLOORPLATE$T1$22211V1
 10
210.2634792073083
 20
-105.3597434858107
 30
0.0
 11
207.888907113321
 21
-105.3597434858107
 31
0.0
  0
LINE
  5
141
  8
FLOORPLATE$T1$22211V1
 10
210.2634792073083
 20
-97.84946895599046
 30
0.0
 11
207.888907113321
 21
-97.84946895599046
 31
0.0
  0
POLYLINE
  5
142
  8
FLOORPLATE$T1$22211V1
 66
     1
 10
0.0
 20
0.0
 30
0.0
 70
     1
  0
VERTEX
  5
143
  8
FLOORPLATE$T1$22211V1
 10
224.0
 20
-103.0
 30
0.0
  0
VERTEX
  5
144
  8
FLOORPLATE$T1$22211V1
 10
229.0
 20
-103.0
 30
0.0
  0
VERTEX
  5
145
  8
FLOORPLATE$T1$22211V1
 10
229.0
 20
-98.0
 30
0.0
  0
VERTEX
  5
146
  8
FLOORPLATE$T1$22211V1
 10
234.0
 20
-98.0
 30
0.0
  0
VERTEX
  5
147
  8
FLOORPLATE$T1$22211V1
 10
234.0
 20
-93.0
 30
0.0
  0
VERTEX
  5
148
  8
FLOORPLATE$T1$22211V1
 10
224.0
 20
-93.0
 30
0.0
  0
SEQEND
  5
149
  8
FLOORPLATE$T1$22211V1
  0
TEXT
  5
14A
  8
FLOORPLATE$T1$22211V1
  6
CONTINUOUS
 10
212.1608072289157
 20
-110.4636546184739
 30
0.0
 40
1.0
  1
2BED
  0
POLYLINE
  5
14B
  8
FLOORPLATE$T1$22211V1
 66
     1
 10
0.0
 20
0.0
 30
0.0
 70
     1
  0
VERTEX
  5
14C
  8
FLOORPLATE$T1$22211V1
 10
219.0
 20
-118.0
 30
0.0
  0
VERTEX
  5
14D
  8
FLOORPLATE$T1$22211V1
 10
234.0
 20
-118.0
 30
0.0
  0
VERTEX
  5
14E
  8
FLOORPLATE$T1$22211V1
 10
234.0
 20
-108.0
 30
0.0
  0
VERTEX
  5
14F
  8
FLOORPLATE$T1$22211V1
 10
219.0
 20
-108.0
 30
0.0
  0
SEQEND
  5
150
  8
FLOORPLATE$T1$22211V1
  0
POLYLINE
  5
151
  8
FLOORPLATE$T1$22211V1
 66
     1
 10
0.0
 20
0.0
 30
0.0
 70
     1
  0
VERTEX
  5
152
  8
FLOORPLATE$T1$22211V1
 10
209.0
 20
-103.0
 30
0.0
  0
VERTEX
  5
153
  8
FLOORPLATE$T1$22211V1
 10
224.0
 20
-103.0
 30
0.0
  0
VERTEX
  5
154
  8
FLOORPLATE$T1$22211V1
 10
224.0
 20
-93.0
 30
0.0
  0
VERTEX
  5
155
  8
FLOORPLATE$T1$22211V1
 10
209.0
 20
-93.0
 30
0.0
  0
SEQEND
  5
156
  8
FLOORPLATE$T1$22211V1
  0
POLYLINE
  5
157
  8
FLOORPLATE$T1$22211V1
 66
     1
 10
0.0
 20
0.0
 30
0.0
 70
     1
  0
VERTEX
  5
158
  8
FLOORPLATE$T1$22211V1
 10
229.0
 20
-98.0
 30
0.0
  0
VERTEX
  5
159
  8
FLOORPLATE$T1$22211V1
 10
234.0
 20
-98.0
 30
0.0
  0
VERTEX
  5
15A
  8
FLOORPLATE$T1$22211V1
 10
234.0
 20
-108.0
 30
0.0
  0
VERTEX
  5
15B
  8
FLOORPLATE$T1$22211V1
 10
224.0
 20
-108.0
 30
0.0
  0
VERTEX
  5
15C
  8
FLOORPLATE$T1$22211V1
 10
224.0
 20
-103.0
 30
0.0
  0
VERTEX
  5
15D
  8
FLOORPLATE$T1$22211V1
 10
229.0
 20
-103.0
 30
0.0
  0
SEQEND
  5
15E
  8
FLOORPLATE$T1$22211V1
  0
POLYLINE
  5
15F
  8
FLOORPLATE$T1$22211V1
 66
     1
 10
0.0
 20
0.0
 30
0.0
 70
     1
  0
VERTEX
  5
160
  8
FLOORPLATE$T1$22211V1
 10
209.0
 20
-118.0
 30
0.0
  0
VERTEX
  5
161
  8
FLOORPLATE$T1$22211V1
 10
219.0
 20
-118.0
 30
0.0
  0
VERTEX
  5
162
  8
FLOORPLATE$T1$22211V1
 10
219.0
 20
-103.0
 30
0.0
  0
VERTEX
  5
163
  8
FLOORPLATE$T1$22211V1
 10
209.0
 20
-103.0
 30
0.0
  0
SEQEND
  5
164
  8
FLOORPLATE$T1$22211V1
  0
POINT
  5
166
  8
FLOORPLATE$T1$3211V4
 10
317.9999999999999
 20
-77.0
 30
0.0
  0
POINT
  5
168
  8
FLOORPLATE$T1$3211V3
 10
286.0
 20
-77.0
 30
0.0
  0
TEXT
  5
169
  8
FLOORPLATE$T1$3211V4
  6
CONTINUOUS
 10
320.5363453815259
 20
-79.99559036144598
 30
0.0
 40
1.0
  1
1BED
 50
269.9999999999989
  0
TEXT
  5
16A
  8
FLOORPLATE$T1$3211V4
  6
CONTINUOUS
 10
330.0333333333331
 20
-79.84800000000024
 30
0.0
 40
1.0
  1
1BED
 50
269.9999999999989
  0
TEXT
  5
16B
  8
FLOORPLATE$T1$3211V4
  6
CONTINUOUS
 10
328.0333333333335
 20
-67.95900000000029
 30
0.0
 40
1.0
  1
2BED
 50
269.9999999999989
  0
POLYLINE
  5
16C
  8
FLOORPLATE$T1$3211V4
 66
     1
 10
0.0
 20
0.0
 30
0.0
 70
     1
  0
VERTEX
  5
16D
  8
FLOORPLATE$T1$3211V4
 10
318.0
 20
-72.0
 30
0.0
  0
VERTEX
  5
16E
  8
FLOORPLATE$T1$3211V4
 10
317.9999999999999
 20
-77.0
 30
0.0
  0
VERTEX
  5
16F
  8
FLOORPLATE$T1$3211V4
 10
322.9999999999999
 20
-77.00000000000011
 30
0.0
  0
VERTEX
  5
170
  8
FLOORPLATE$T1$3211V4
 10
323.0
 20
-72.00000000000011
 30
0.0
  0
SEQEND
  5
171
  8
FLOORPLATE$T1$3211V4
  0
LINE
  5
172
  8
FLOORPLATE$T1$3211V4
 10
328.367021477163
 20
-85.73652079269186
 30
0.0
 11
328.3670214771629
 21
-88.11109288667916
 31
0.0
  0
LINE
  5
173
  8
FLOORPLATE$T1$3211V4
 10
320.3597434858105
 20
-85.7365207926918
 30
0.0
 11
320.3597434858105
 21
-88.11109288667905
 31
0.0
  0
LINE
  5
174
  8
FLOORPLATE$T1$3211V4
 10
312.8494689559903
 20
-85.73652079269164
 30
0.0
 11
312.8494689559902
 21
-88.11109288667893
 31
0.0
  0
LINE
  5
175
  8
FLOORPLATE$T1$3211V4
 10
306.7365207926915
 20
-82.15053104400937
 30
0.0
 11
309.1110928866788
 21
-82.15053104400937
 31
0.0
  0
LINE
  5
176
  8
FLOORPLATE$T1$3211V4
 10
306.7365207926917
 20
-74.6402565141891
 30
0.0
 11
309.1110928866789
 21
-74.64025651418916
 31
0.0
  0
LINE
  5
177
  8
FLOORPLATE$T1$3211V4
 10
306.7365207926918
 20
-66.63297852283665
 30
0.0
 11
309.1110928866791
 21
-66.63297852283671
 31
0.0
  0
LINE
  5
178
  8
FLOORPLATE$T1$3211V4
 10
334.2634792073084
 20
-66.8494689559908
 30
0.0
 11
331.8889071133211
 21
-66.8494689559908
 31
0.0
  0
LINE
  5
179
  8
FLOORPLATE$T1$3211V4
 10
334.2634792073083
 20
-74.35974348581107
 30
0.0
 11
331.888907113321
 21
-74.35974348581101
 31
0.0
  0
LINE
  5
17A
  8
FLOORPLATE$T1$3211V4
 10
334.2634792073082
 20
-82.36702147716346
 30
0.0
 11
331.8889071133208
 21
-82.3670214771634
 31
0.0
  0
LINE
  5
17B
  8
FLOORPLATE$T1$3211V4
 10
312.6329785228371
 20
-63.26347920730825
 30
0.0
 11
312.6329785228372
 21
-60.88890711332095
 31
0.0
  0
LINE
  5
17C
  8
FLOORPLATE$T1$3211V4
 10
320.6402565141895
 20
-63.26347920730842
 30
0.0
 11
320.6402565141896
 21
-60.88890711332107
 31
0.0
  0
LINE
  5
17D
  8
FLOORPLATE$T1$3211V4
 10
328.1505310440098
 20
-63.26347920730854
 30
0.0
 11
328.1505310440098
 21
-60.88890711332124
 31
0.0
  0
POLYLINE
  5
17E
  8
FLOORPLATE$T1$3211V4
 66
     1
 10
0.0
 20
0.0
 30
0.0
 70
     1
  0
VERTEX
  5
17F
  8
FLOORPLATE$T1$3211V4
 10
322.9999999999999
 20
-77.00000000000011
 30
0.0
  0
VERTEX
  5
180
  8
FLOORPLATE$T1$3211V4
 10
322.9999999999998
 20
-82.00000000000011
 30
0.0
  0
VERTEX
  5
181
  8
FLOORPLATE$T1$3211V4
 10
327.9999999999998
 20
-82.00000000000017
 30
0.0
  0
VERTEX
  5
182
  8
FLOORPLATE$T1$3211V4
 10
327.9999999999998
 20
-87.00000000000017
 30
0.0
  0
VERTEX
  5
183
  8
FLOORPLATE$T1$3211V4
 10
332.9999999999998
 20
-87.00000000000028
 30
0.0
  0
VERTEX
  5
184
  8
FLOORPLATE$T1$3211V4
 10
332.9999999999999
 20
-77.00000000000028
 30
0.0
  0
SEQEND
  5
185
  8
FLOORPLATE$T1$3211V4
  0
POLYLINE
  5
186
  8
FLOORPLATE$T1$3211V4
 66
     1
 10
0.0
 20
0.0
 30
0.0
 70
     1
  0
VERTEX
  5
187
  8
FLOORPLATE$T1$3211V4
 10
323.0000000000002
 20
-62.00000000000011
 30
0.0
  0
VERTEX
  5
188
  8
FLOORPLATE$T1$3211V4
 10
322.9999999999999
 20
-77.00000000000011
 30
0.0
  0
VERTEX
  5
189
  8
FLOORPLATE$T1$3211V4
 10
332.9999999999999
 20
-77.00000000000028
 30
0.0
  0
VERTEX
  5
18A
  8
FLOORPLATE$T1$3211V4
 10
333.0000000000002
 20
-62.00000000000028
 30
0.0
  0
SEQEND
  5
18B
  8
FLOORPLATE$T1$3211V4
  0
POLYLINE
  5
18C
  8
FLOORPLATE$T1$3211V4
 66
     1
 10
0.0
 20
0.0
 30
0.0
 70
     1
  0
VERTEX
  5
18D
  8
FLOORPLATE$T1$3211V4
 10
327.9999999999998
 20
-82.00000000000017
 30
0.0
  0
VERTEX
  5
18E
  8
FLOORPLATE$T1$3211V4
 10
327.9999999999998
 20
-87.00000000000017
 30
0.0
  0
VERTEX
  5
18F
  8
FLOORPLATE$T1$3211V4
 10
317.9999999999998
 20
-87.0
 30
0.0
  0
VERTEX
  5
190
  8
FLOORPLATE$T1$3211V4
 10
317.9999999999999
 20
-77.0
 30
0.0
  0
VERTEX
  5
191
  8
FLOORPLATE$T1$3211V4
 10
322.9999999999999
 20
-77.00000000000011
 30
0.0
  0
VERTEX
  5
192
  8
FLOORPLATE$T1$3211V4
 10
322.9999999999998
 20
-82.00000000000011
 30
0.0
  0
SEQEND
  5
193
  8
FLOORPLATE$T1$3211V4
  0
POLYLINE
  5
194
  8
FLOORPLATE$T1$3211V4
 66
     1
 10
0.0
 20
0.0
 30
0.0
 70
     1
  0
VERTEX
  5
195
  8
FLOORPLATE$T1$3211V4
 10
323.0000000000002
 20
-62.00000000000011
 30
0.0
  0
VERTEX
  5
196
  8
FLOORPLATE$T1$3211V4
 10
308.0000000000002
 20
-61.99999999999983
 30
0.0
  0
VERTEX
  5
197
  8
FLOORPLATE$T1$3211V4
 10
307.9999999999998
 20
-86.99999999999989
 30
0.0
  0
VERTEX
  5
198
  8
FLOORPLATE$T1$3211V4
 10
317.9999999999998
 20
-87.0
 30
0.0
  0
VERTEX
  5
199
  8
FLOORPLATE$T1$3211V4
 10
318.0
 20
-72.0
 30
0.0
  0
VERTEX
  5
19A
  8
FLOORPLATE$T1$3211V4
 10
323.0
 20
-72.00000000000011
 30
0.0
  0
SEQEND
  5
19B
  8
FLOORPLATE$T1$3211V4
  0
TEXT
  5
19C
  8
FLOORPLATE$T1$3211V4
  6
CONTINUOUS
 10
311.5363453815261
 20
-72.14280722891556
 30
0.0
 40
1.0
  1
3BED
 50
269.9999999999989
  0
TEXT
  5
19D
  8
FLOORPLATE$T1$3211V3
  6
CONTINUOUS
 10
290.8571927710843
 20
-65.53634538152609
 30
0.0
 40
1.0
  1
3BED
 50
180.0
  0
POLYLINE
  5
19E
  8
FLOORPLATE$T1$3211V3
 66
     1
 10
0.0
 20
0.0
 30
0.0
 70
     1
  0
VERTEX
  5
19F
  8
FLOORPLATE$T1$3211V3
 10
301.0
 20
-77.0
 30
0.0
  0
VERTEX
  5
1A0
  8
FLOORPLATE$T1$3211V3
 10
300.9999999999999
 20
-62.0
 30
0.0
  0
VERTEX
  5
1A1
  8
FLOORPLATE$T1$3211V3
 10
275.9999999999999
 20
-62.00000000000011
 30
0.0
  0
VERTEX
  5
1A2
  8
FLOORPLATE$T1$3211V3
 10
276.0
 20
-72.00000000000011
 30
0.0
  0
VERTEX
  5
1A3
  8
FLOORPLATE$T1$3211V3
 10
291.0
 20
-72.0
 30
0.0
  0
VERTEX
  5
1A4
  8
FLOORPLATE$T1$3211V3
 10
291.0
 20
-77.0
 30
0.0
  0
SEQEND
  5
1A5
  8
FLOORPLATE$T1$3211V3
  0
POLYLINE
  5
1A6
  8
FLOORPLATE$T1$3211V3
 66
     1
 10
0.0
 20
0.0
 30
0.0
 70
     1
  0
VERTEX
  5
1A7
  8
FLOORPLATE$T1$3211V3
 10
281.0000000000001
 20
-82.0
 30
0.0
  0
VERTEX
  5
1A8
  8
FLOORPLATE$T1$3211V3
 10
276.0000000000001
 20
-82.00000000000011
 30
0.0
  0
VERTEX
  5
1A9
  8
FLOORPLATE$T1$3211V3
 10
276.0
 20
-72.00000000000011
 30
0.0
  0
VERTEX
  5
1AA
  8
FLOORPLATE$T1$3211V3
 10
286.0
 20
-72.0
 30
0.0
  0
VERTEX
  5
1AB
  8
FLOORPLATE$T1$3211V3
 10
286.0
 20
-77.0
 30
0.0
  0
VERTEX
  5
1AC
  8
FLOORPLATE$T1$3211V3
 10
281.0
 20
-77.0
 30
0.0
  0
SEQEND
  5
1AD
  8
FLOORPLATE$T1$3211V3
  0
POLYLINE
  5
1AE
  8
FLOORPLATE$T1$3211V3
 66
     1
 10
0.0
 20
0.0
 30
0.0
 70
     1
  0
VERTEX
  5
1AF
  8
FLOORPLATE$T1$3211V3
 10
301.0
 20
-77.0
 30
0.0
  0
VERTEX
  5
1B0
  8
FLOORPLATE$T1$3211V3
 10
286.0
 20
-77.0
 30
0.0
  0
VERTEX
  5
1B1
  8
FLOORPLATE$T1$3211V3
 10
286.0000000000001
 20
-87.0
 30
0.0
  0
VERTEX
  5
1B2
  8
FLOORPLATE$T1$3211V3
 10
301.0000000000001
 20
-87.0
 30
0.0
  0
SEQEND
  5
1B3
  8
FLOORPLATE$T1$3211V3
  0
POLYLINE
  5
1B4
  8
FLOORPLATE$T1$3211V3
 66
     1
 10
0.0
 20
0.0
 30
0.0
 70
     1
  0
VERTEX
  5
1B5
  8
FLOORPLATE$T1$3211V3
 10
286.0
 20
-77.0
 30
0.0
  0
VERTEX
  5
1B6
  8
FLOORPLATE$T1$3211V3
 10
281.0
 20
-77.0
 30
0.0
  0
VERTEX
  5
1B7
  8
FLOORPLATE$T1$3211V3
 10
281.0000000000001
 20
-82.0
 30
0.0
  0
VERTEX
  5
1B8
  8
FLOORPLATE$T1$3211V3
 10
276.0000000000001
 20
-82.00000000000011
 30
0.0
  0
VERTEX
  5
1B9
  8
FLOORPLATE$T1$3211V3
 10
276.0000000000001
 20
-87.00000000000011
 30
0.0
  0
VERTEX
  5
1BA
  8
FLOORPLATE$T1$3211V3
 10
286.0000000000001
 20
-87.0
 30
0.0
  0
SEQEND
  5
1BB
  8
FLOORPLATE$T1$3211V3
  0
LINE
  5
1BC
  8
FLOORPLATE$T1$3211V3
 10
299.7365207926917
 20
-82.15053104400954
 30
0.0
 11
302.111092886679
 21
-82.15053104400954
 31
0.0
  0
LINE
  5
1BD
  8
FLOORPLATE$T1$3211V3
 10
299.7365207926916
 20
-74.64025651418928
 30
0.0
 11
302.111092886679
 21
-74.64025651418928
 31
0.0
  0
LINE
  5
1BE
  8
FLOORPLATE$T1$3211V3
 10
299.7365207926916
 20
-66.63297852283688
 30
0.0
 11
302.1110928866789
 21
-66.63297852283688
 31
0.0
  0
LINE
  5
1BF
  8
FLOORPLATE$T1$3211V3
 10
280.6329785228369
 20
-88.26347920730842
 30
0.0
 11
280.6329785228369
 21
-85.88890711332107
 31
0.0
  0
LINE
  5
1C0
  8
FLOORPLATE$T1$3211V3
 10
288.6402565141893
 20
-88.26347920730831
 30
0.0
 11
288.6402565141893
 21
-85.88890711332101
 31
0.0
  0
LINE
  5
1C1
  8
FLOORPLATE$T1$3211V3
 10
296.1505310440096
 20
-88.26347920730825
 30
0.0
 11
296.1505310440095
 21
-85.88890711332101
 31
0.0
  0
LINE
  5
1C2
  8
FLOORPLATE$T1$3211V3
 10
296.3670214771631
 20
-60.73652079269169
 30
0.0
 11
296.3670214771631
 21
-63.11109288667899
 31
0.0
  0
LINE
  5
1C3
  8
FLOORPLATE$T1$3211V3
 10
288.3597434858106
 20
-60.73652079269175
 30
0.0
 11
288.3597434858106
 21
-63.11109288667899
 31
0.0
  0
LINE
  5
1C4
  8
FLOORPLATE$T1$3211V3
 10
280.8494689559903
 20
-60.73652079269175
 30
0.0
 11
280.8494689559904
 21
-63.11109288667899
 31
0.0
  0
LINE
  5
1C5
  8
FLOORPLATE$T1$3211V3
 10
277.2634792073083
 20
-66.84946895599057
 30
0.0
 11
274.888907113321
 21
-66.84946895599057
 31
0.0
  0
LINE
  5
1C6
  8
FLOORPLATE$T1$3211V3
 10
277.2634792073083
 20
-74.35974348581078
 30
0.0
 11
274.888907113321
 21
-74.35974348581084
 31
0.0
  0
LINE
  5
1C7
  8
FLOORPLATE$T1$3211V3
 10
277.2634792073084
 20
-82.36702147716323
 30
0.0
 11
274.8889071133211
 21
-82.36702147716323
 31
0.0
  0
POLYLINE
  5
1C8
  8
FLOORPLATE$T1$3211V3
 66
     1
 10
0.0
 20
0.0
 30
0.0
 70
     1
  0
VERTEX
  5
1C9
  8
FLOORPLATE$T1$3211V3
 10
291.0
 20
-72.0
 30
0.0
  0
VERTEX
  5
1CA
  8
FLOORPLATE$T1$3211V3
 10
286.0
 20
-72.0
 30
0.0
  0
VERTEX
  5
1CB
  8
FLOORPLATE$T1$3211V3
 10
286.0
 20
-77.0
 30
0.0
  0
VERTEX
  5
1CC
  8
FLOORPLATE$T1$3211V3
 10
291.0
 20
-77.0
 30
0.0
  0
SEQEND
  5
1CD
  8
FLOORPLATE$T1$3211V3
  0
TEXT
  5
1CE
  8
FLOORPLATE$T1$3211V3
  6
CONTINUOUS
 10
295.041
 20
-82.03333333333332
 30
0.0
 40
1.0
  1
2BED
 50
180.0
  0
TEXT
  5
1CF
  8
FLOORPLATE$T1$3211V3
  6
CONTINUOUS
 10
283.152
 20
-84.03333333333333
 30
0.0
 40
1.0
  1
1BED
 50
180.0
  0
TEXT
  5
1D0
  8
FLOORPLATE$T1$3211V3
  6
CONTINUOUS
 10
283.0044096385541
 20
-74.5363453815261
 30
0.0
 40
1.0
  1
1BED
 50
180.0
  0
TEXT
  5
1D1
  8
FLOORPLATE$T1$3211V2
  6
CONTINUOUS
 10
255.4636546184739
 20
-69.0044096385542
 30
0.0
 40
1.0
  1
1BED
 50
90.00000000000018
  0
TEXT
  5
1D2
  8
FLOORPLATE$T1$3211V2
  6
CONTINUOUS
 10
245.9666666666667
 20
-69.15200000000004
 30
0.0
 40
1.0
  1
1BED
 50
90.00000000000018
  0
TEXT
  5
1D3
  8
FLOORPLATE$T1$3211V2
  6
CONTINUOUS
 10
247.9666666666667
 20
-81.04100000000003
 30
0.0
 40
1.0
  1
2BED
 50
90.00000000000018
  0
POLYLINE
  5
1D4
  8
FLOORPLATE$T1$3211V2
 66
     1
 10
0.0
 20
0.0
 30
0.0
 70
     1
  0
VERTEX
  5
1D5
  8
FLOORPLATE$T1$3211V2
 10
258.0
 20
-77.0
 30
0.0
  0
VERTEX
  5
1D6
  8
FLOORPLATE$T1$3211V2
 10
258.0
 20
-72.0
 30
0.0
  0
VERTEX
  5
1D7
  8
FLOORPLATE$T1$3211V2
 10
253.0
 20
-72.0
 30
0.0
  0
VERTEX
  5
1D8
  8
FLOORPLATE$T1$3211V2
 10
253.0
 20
-77.00000000000003
 30
0.0
  0
SEQEND
  5
1D9
  8
FLOORPLATE$T1$3211V2
  0
LINE
  5
1DA
  8
FLOORPLATE$T1$3211V2
 10
247.6329785228368
 20
-63.26347920730836
 30
0.0
 11
247.6329785228368
 21
-60.88890711332107
 31
0.0
  0
LINE
  5
1DB
  8
FLOORPLATE$T1$3211V2
 10
255.6402565141893
 20
-63.26347920730831
 30
0.0
 11
255.6402565141892
 21
-60.88890711332101
 31
0.0
  0
LINE
  5
1DC
  8
FLOORPLATE$T1$3211V2
 10
263.1505310440095
 20
-63.26347920730831
 30
0.0
 11
263.1505310440095
 21
-60.88890711332101
 31
0.0
  0
LINE
  5
1DD
  8
FLOORPLATE$T1$3211V2
 10
269.2634792073083
 20
-66.8494689559904
 30
0.0
 11
266.888907113321
 21
-66.84946895599046
 31
0.0
  0
LINE
  5
1DE
  8
FLOORPLATE$T1$3211V2
 10
269.2634792073083
 20
-74.35974348581067
 30
0.0
 11
266.888907113321
 21
-74.35974348581067
 31
0.0
  0
LINE
  5
1DF
  8
FLOORPLATE$T1$3211V2
 10
269.2634792073083
 20
-82.36702147716309
 30
0.0
 11
266.888907113321
 21
-82.36702147716309
 31
0.0
  0
LINE
  5
1E0
  8
FLOORPLATE$T1$3211V2
 10
241.7365207926917
 20
-82.1505310440096
 30
0.0
 11
244.111092886679
 21
-82.15053104400957
 31
0.0
  0
LINE
  5
1E1
  8
FLOORPLATE$T1$3211V2
 10
241.7365207926917
 20
-74.64025651418936
 30
0.0
 11
244.111092886679
 21
-74.64025651418933
 31
0.0
  0
LINE
  5
1E2
  8
FLOORPLATE$T1$3211V2
 10
241.7365207926917
 20
-66.63297852283694
 30
0.0
 11
244.111092886679
 21
-66.63297852283694
 31
0.0
  0
LINE
  5
1E3
  8
FLOORPLATE$T1$3211V2
 10
263.3670214771631
 20
-85.73652079269166
 30
0.0
 11
263.3670214771631
 21
-88.11109288667896
 31
0.0
  0
LINE
  5
1E4
  8
FLOORPLATE$T1$3211V2
 10
255.3597434858107
 20
-85.73652079269169
 30
0.0
 11
255.3597434858107
 21
-88.11109288667899
 31
0.0
  0
LINE
  5
1E5
  8
FLOORPLATE$T1$3211V2
 10
247.8494689559905
 20
-85.73652079269172
 30
0.0
 11
247.8494689559905
 21
-88.11109288667902
 31
0.0
  0
POLYLINE
  5
1E6
  8
FLOORPLATE$T1$3211V2
 66
     1
 10
0.0
 20
0.0
 30
0.0
 70
     1
  0
VERTEX
  5
1E7
  8
FLOORPLATE$T1$3211V2
 10
253.0
 20
-72.0
 30
0.0
  0
VERTEX
  5
1E8
  8
FLOORPLATE$T1$3211V2
 10
253.0
 20
-67.0
 30
0.0
  0
VERTEX
  5
1E9
  8
FLOORPLATE$T1$3211V2
 10
248.0
 20
-67.00000000000006
 30
0.0
  0
VERTEX
  5
1EA
  8
FLOORPLATE$T1$3211V2
 10
247.9999999999999
 20
-62.00000000000006
 30
0.0
  0
VERTEX
  5
1EB
  8
FLOORPLATE$T1$3211V2
 10
242.9999999999999
 20
-62.00000000000006
 30
0.0
  0
VERTEX
  5
1EC
  8
FLOORPLATE$T1$3211V2
 10
243.0
 20
-72.00000000000006
 30
0.0
  0
SEQEND
  5
1ED
  8
FLOORPLATE$T1$3211V2
  0
POLYLINE
  5
1EE
  8
FLOORPLATE$T1$3211V2
 66
     1
 10
0.0
 20
0.0
 30
0.0
 70
     1
  0
VERTEX
  5
1EF
  8
FLOORPLATE$T1$3211V2
 10
253.0
 20
-87.00000000000003
 30
0.0
  0
VERTEX
  5
1F0
  8
FLOORPLATE$T1$3211V2
 10
253.0
 20
-72.0
 30
0.0
  0
VERTEX
  5
1F1
  8
FLOORPLATE$T1$3211V2
 10
243.0
 20
-72.00000000000006
 30
0.0
  0
VERTEX
  5
1F2
  8
FLOORPLATE$T1$3211V2
 10
243.0
 20
-87.00000000000006
 30
0.0
  0
SEQEND
  5
1F3
  8
FLOORPLATE$T1$3211V2
  0
POLYLINE
  5
1F4
  8
FLOORPLATE$T1$3211V2
 66
     1
 10
0.0
 20
0.0
 30
0.0
 70
     1
  0
VERTEX
  5
1F5
  8
FLOORPLATE$T1$3211V2
 10
248.0
 20
-67.00000000000006
 30
0.0
  0
VERTEX
  5
1F6
  8
FLOORPLATE$T1$3211V2
 10
247.9999999999999
 20
-62.00000000000006
 30
0.0
  0
VERTEX
  5
1F7
  8
FLOORPLATE$T1$3211V2
 10
257.9999999999999
 20
-62.0
 30
0.0
  0
VERTEX
  5
1F8
  8
FLOORPLATE$T1$3211V2
 10
258.0
 20
-72.0
 30
0.0
  0
VERTEX
  5
1F9
  8
FLOORPLATE$T1$3211V2
 10
253.0
 20
-72.0
 30
0.0
  0
VERTEX
  5
1FA
  8
FLOORPLATE$T1$3211V2
 10
253.0
 20
-67.0
 30
0.0
  0
SEQEND
  5
1FB
  8
FLOORPLATE$T1$3211V2
  0
POLYLINE
  5
1FC
  8
FLOORPLATE$T1$3211V2
 66
     1
 10
0.0
 20
0.0
 30
0.0
 70
     1
  0
VERTEX
  5
1FD
  8
FLOORPLATE$T1$3211V2
 10
253.0
 20
-87.00000000000003
 30
0.0
  0
VERTEX
  5
1FE
  8
FLOORPLATE$T1$3211V2
 10
268.0
 20
-86.99999999999997
 30
0.0
  0
VERTEX
  5
1FF
  8
FLOORPLATE$T1$3211V2
 10
267.9999999999999
 20
-61.99999999999994
 30
0.0
  0
VERTEX
  5
200
  8
FLOORPLATE$T1$3211V2
 10
257.9999999999999
 20
-62.0
 30
0.0
  0
VERTEX
  5
201
  8
FLOORPLATE$T1$3211V2
 10
258.0
 20
-77.0
 30
0.0
  0
VERTEX
  5
202
  8
FLOORPLATE$T1$3211V2
 10
253.0
 20
-77.00000000000003
 30
0.0
  0
SEQEND
  5
203
  8
FLOORPLATE$T1$3211V2
  0
TEXT
  5
204
  8
FLOORPLATE$T1$3211V2
  6
CONTINUOUS
 10
264.4636546184739
 20
-76.85719277108433
 30
0.0
 40
1.0
  1
3BED
 50
90.00000000000018
  0
TEXT
  5
206
  8
FLOORPLATE$T1$3211V1
  6
CONTINUOUS
 10
219.1428072289157
 20
-83.4636546184739
 30
0.0
 40
1.0
  1
3BED
  0
POLYLINE
  5
207
  8
FLOORPLATE$T1$3211V1
 66
     1
 10
0.0
 20
0.0
 30
0.0
 70
     1
  0
VERTEX
  5
208
  8
FLOORPLATE$T1$3211V1
 10
209.0
 20
-72.0
 30
0.0
  0
VERTEX
  5
209
  8
FLOORPLATE$T1$3211V1
 10
209.0
 20
-87.0
 30
0.0
  0
VERTEX
  5
20A
  8
FLOORPLATE$T1$3211V1
 10
234.0
 20
-87.0
 30
0.0
  0
VERTEX
  5
20B
  8
FLOORPLATE$T1$3211V1
 10
234.0
 20
-77.0
 30
0.0
  0
VERTEX
  5
20C
  8
FLOORPLATE$T1$3211V1
 10
219.0
 20
-77.0
 30
0.0
  0
VERTEX
  5
20D
  8
FLOORPLATE$T1$3211V1
 10
219.0
 20
-72.0
 30
0.0
  0
SEQEND
  5
20E
  8
FLOORPLATE$T1$3211V1
  0
POLYLINE
  5
20F
  8
FLOORPLATE$T1$3211V1
 66
     1
 10
0.0
 20
0.0
 30
0.0
 70
     1
  0
VERTEX
  5
210
  8
FLOORPLATE$T1$3211V1
 10
229.0
 20
-67.0
 30
0.0
  0
VERTEX
  5
211
  8
FLOORPLATE$T1$3211V1
 10
234.0
 20
-67.0
 30
0.0
  0
VERTEX
  5
212
  8
FLOORPLATE$T1$3211V1
 10
234.0
 20
-77.0
 30
0.0
  0
VERTEX
  5
213
  8
FLOORPLATE$T1$3211V1
 10
224.0
 20
-77.0
 30
0.0
  0
VERTEX
  5
214
  8
FLOORPLATE$T1$3211V1
 10
224.0
 20
-72.0
 30
0.0
  0
VERTEX
  5
215
  8
FLOORPLATE$T1$3211V1
 10
229.0
 20
-72.0
 30
0.0
  0
SEQEND
  5
216
  8
FLOORPLATE$T1$3211V1
  0
POLYLINE
  5
217
  8
FLOORPLATE$T1$3211V1
 66
     1
 10
0.0
 20
0.0
 30
0.0
 70
     1
  0
VERTEX
  5
218
  8
FLOORPLATE$T1$3211V1
 10
209.0
 20
-72.0
 30
0.0
  0
VERTEX
  5
219
  8
FLOORPLATE$T1$3211V1
 10
224.0
 20
-72.0
 30
0.0
  0
VERTEX
  5
21A
  8
FLOORPLATE$T1$3211V1
 10
224.0
 20
-62.0
 30
0.0
  0
VERTEX
  5
21B
  8
FLOORPLATE$T1$3211V1
 10
209.0
 20
-62.0
 30
0.0
  0
SEQEND
  5
21C
  8
FLOORPLATE$T1$3211V1
  0
POLYLINE
  5
21D
  8
FLOORPLATE$T1$3211V1
 66
     1
 10
0.0
 20
0.0
 30
0.0
 70
     1
  0
VERTEX
  5
21E
  8
FLOORPLATE$T1$3211V1
 10
224.0
 20
-72.0
 30
0.0
  0
VERTEX
  5
21F
  8
FLOORPLATE$T1$3211V1
 10
229.0
 20
-72.0
 30
0.0
  0
VERTEX
  5
220
  8
FLOORPLATE$T1$3211V1
 10
229.0
 20
-67.0
 30
0.0
  0
VERTEX
  5
221
  8
FLOORPLATE$T1$3211V1
 10
234.0
 20
-67.0
 30
0.0
  0
VERTEX
  5
222
  8
FLOORPLATE$T1$3211V1
 10
234.0
 20
-62.0
 30
0.0
  0
VERTEX
  5
223
  8
FLOORPLATE$T1$3211V1
 10
224.0
 20
-62.0
 30
0.0
  0
SEQEND
  5
224
  8
FLOORPLATE$T1$3211V1
  0
LINE
  5
225
  8
FLOORPLATE$T1$3211V1
 10
210.2634792073083
 20
-66.84946895599046
 30
0.0
 11
207.888907113321
 21
-66.84946895599046
 31
0.0
  0
LINE
  5
226
  8
FLOORPLATE$T1$3211V1
 10
210.2634792073083
 20
-74.3597434858107
 30
0.0
 11
207.888907113321
 21
-74.3597434858107
 31
0.0
  0
LINE
  5
227
  8
FLOORPLATE$T1$3211V1
 10
210.2634792073083
 20
-82.36702147716312
 30
0.0
 11
207.888907113321
 21
-82.36702147716312
 31
0.0
  0
LINE
  5
228
  8
FLOORPLATE$T1$3211V1
 10
229.3670214771631
 20
-60.73652079269171
 30
0.0
 11
229.3670214771631
 21
-63.11109288667899
 31
0.0
  0
LINE
  5
229
  8
FLOORPLATE$T1$3211V1
 10
221.3597434858107
 20
-60.73652079269171
 30
0.0
 11
221.3597434858107
 21
-63.11109288667899
 31
0.0
  0
LINE
  5
22A
  8
FLOORPLATE$T1$3211V1
 10
213.8494689559905
 20
-60.73652079269171
 30
0.0
 11
213.8494689559905
 21
-63.11109288667899
 31
0.0
  0
LINE
  5
22B
  8
FLOORPLATE$T1$3211V1
 10
213.6329785228369
 20
-88.2634792073083
 30
0.0
 11
213.6329785228369
 21
-85.88890711332101
 31
0.0
  0
LINE
  5
22C
  8
FLOORPLATE$T1$3211V1
 10
221.6402565141893
 20
-88.2634792073083
 30
0.0
 11
221.6402565141893
 21
-85.88890711332101
 31
0.0
  0
LINE
  5
22D
  8
FLOORPLATE$T1$3211V1
 10
229.1505310440095
 20
-88.2634792073083
 30
0.0
 11
229.1505310440095
 21
-85.88890711332101
 31
0.0
  0
LINE
  5
22E
  8
FLOORPLATE$T1$3211V1
 10
232.7365207926917
 20
-82.15053104400954
 30
0.0
 11
235.111092886679
 21
-82.15053104400954
 31
0.0
  0
LINE
  5
22F
  8
FLOORPLATE$T1$3211V1
 10
232.7365207926917
 20
-74.6402565141893
 30
0.0
 11
235.111092886679
 21
-74.6402565141893
 31
0.0
  0
LINE
  5
230
  8
FLOORPLATE$T1$3211V1
 10
232.7365207926917
 20
-66.63297852283688
 30
0.0
 11
235.111092886679
 21
-66.63297852283688
 31
0.0
  0
POLYLINE
  5
231
  8
FLOORPLATE$T1$3211V1
 66
     1
 10
0.0
 20
0.0
 30
0.0
 70
     1
  0
VERTEX
  5
232
  8
FLOORPLATE$T1$3211V1
 10
219.0
 20
-77.0
 30
0.0
  0
VERTEX
  5
233
  8
FLOORPLATE$T1$3211V1
 10
224.0
 20
-77.0
 30
0.0
  0
VERTEX
  5
234
  8
FLOORPLATE$T1$3211V1
 10
224.0
 20
-72.0
 30
0.0
  0
VERTEX
  5
235
  8
FLOORPLATE$T1$3211V1
 10
219.0
 20
-72.0
 30
0.0
  0
SEQEND
  5
236
  8
FLOORPLATE$T1$3211V1
  0
POINT
  5
237
  8
FLOORPLATE$T1$3211V1
 10
219.0
 20
-77.0
 30
0.0
  0
TEXT
  5
238
  8
FLOORPLATE$T1$3211V1
  6
CONTINUOUS
 10
214.959
 20
-66.96666666666667
 30
0.0
 40
1.0
  1
2BED
  0
TEXT
  5
239
  8
FLOORPLATE$T1$3211V1
  6
CONTINUOUS
 10
226.848
 20
-64.96666666666667
 30
0.0
 40
1.0
  1
1BED
  0
TEXT
  5
23A
  8
FLOORPLATE$T1$3211V1
  6
CONTINUOUS
 10
226.9955903614458
 20
-74.4636546184739
 30
0.0
 40
1.0
  1
1BED
  0
POINT
  5
23C
  8
FLOORPLATE$T1$31111V4
 10
317.9999999999999
 20
-46.0
 30
0.0
  0
POLYLINE
  5
23D
  8
FLOORPLATE$T1$31111V4
 66
     1
 10
0.0
 20
0.0
 30
0.0
 70
     1
  0
VERTEX
  5
23E
  8
FLOORPLATE$T1$31111V4
 10
327.9999999999999
 20
-51.00000000000017
 30
0.0
  0
VERTEX
  5
23F
  8
FLOORPLATE$T1$31111V4
 10
327.9999999999998
 20
-56.00000000000017
 30
0.0
  0
VERTEX
  5
240
  8
FLOORPLATE$T1$31111V4
 10
317.9999999999998
 20
-56.0
 30
0.0
  0
VERTEX
  5
241
  8
FLOORPLATE$T1$31111V4
 10
317.9999999999999
 20
-46.0
 30
0.0
  0
VERTEX
  5
242
  8
FLOORPLATE$T1$31111V4
 10
322.9999999999999
 20
-46.00000000000006
 30
0.0
  0
VERTEX
  5
243
  8
FLOORPLATE$T1$31111V4
 10
322.9999999999999
 20
-51.00000000000006
 30
0.0
  0
SEQEND
  5
244
  8
FLOORPLATE$T1$31111V4
  0
POLYLINE
  5
245
  8
FLOORPLATE$T1$31111V4
 66
     1
 10
0.0
 20
0.0
 30
0.0
 70
     1
  0
VERTEX
  5
246
  8
FLOORPLATE$T1$31111V4
 10
322.9999999999999
 20
-46.00000000000006
 30
0.0
  0
VERTEX
  5
247
  8
FLOORPLATE$T1$31111V4
 10
322.9999999999999
 20
-51.00000000000006
 30
0.0
  0
VERTEX
  5
248
  8
FLOORPLATE$T1$31111V4
 10
327.9999999999999
 20
-51.00000000000017
 30
0.0
  0
VERTEX
  5
249
  8
FLOORPLATE$T1$31111V4
 10
327.9999999999998
 20
-56.00000000000017
 30
0.0
  0
VERTEX
  5
24A
  8
FLOORPLATE$T1$31111V4
 10
332.9999999999998
 20
-56.00000000000023
 30
0.0
  0
VERTEX
  5
24B
  8
FLOORPLATE$T1$31111V4
 10
332.9999999999999
 20
-46.00000000000023
 30
0.0
  0
SEQEND
  5
24C
  8
FLOORPLATE$T1$31111V4
  0
TEXT
  5
24D
  8
FLOORPLATE$T1$31111V4
  6
CONTINUOUS
 10
330.0333333333332
 20
-48.84800000000018
 30
0.0
 40
1.0
  1
1BED
 50
269.9999999999991
  0
TEXT
  5
24E
  8
FLOORPLATE$T1$31111V4
  6
CONTINUOUS
 10
320.536345381526
 20
-48.99559036144581
 30
0.0
 40
1.0
  1
1BED
 50
269.9999999999991
  0
TEXT
  5
24F
  8
FLOORPLATE$T1$31111V4
  6
CONTINUOUS
 10
322.8571927710845
 20
-34.53634538152617
 30
0.0
 40
1.0
  1
3BED
 50
180.0
  0
POLYLINE
  5
250
  8
FLOORPLATE$T1$31111V4
 66
     1
 10
0.0
 20
0.0
 30
0.0
 70
     1
  0
VERTEX
  5
251
  8
FLOORPLATE$T1$31111V4
 10
332.9999999999999
 20
-46.00000000000023
 30
0.0
  0
VERTEX
  5
252
  8
FLOORPLATE$T1$31111V4
 10
333.0000000000002
 20
-31.00000000000017
 30
0.0
  0
VERTEX
  5
253
  8
FLOORPLATE$T1$31111V4
 10
308.0000000000002
 20
-30.99999999999983
 30
0.0
  0
VERTEX
  5
254
  8
FLOORPLATE$T1$31111V4
 10
308.0000000000001
 20
-40.99999999999983
 30
0.0
  0
VERTEX
  5
255
  8
FLOORPLATE$T1$31111V4
 10
323.0
 20
-41.00000000000006
 30
0.0
  0
VERTEX
  5
256
  8
FLOORPLATE$T1$31111V4
 10
322.9999999999999
 20
-46.00000000000006
 30
0.0
  0
SEQEND
  5
257
  8
FLOORPLATE$T1$31111V4
  0
POLYLINE
  5
258
  8
FLOORPLATE$T1$31111V4
 66
     1
 10
0.0
 20
0.0
 30
0.0
 70
     1
  0
VERTEX
  5
259
  8
FLOORPLATE$T1$31111V4
 10
312.9999999999999
 20
-50.99999999999994
 30
0.0
  0
VERTEX
  5
25A
  8
FLOORPLATE$T1$31111V4
 10
307.9999999999999
 20
-50.99999999999983
 30
0.0
  0
VERTEX
  5
25B
  8
FLOORPLATE$T1$31111V4
 10
308.0000000000001
 20
-40.99999999999983
 30
0.0
  0
VERTEX
  5
25C
  8
FLOORPLATE$T1$31111V4
 10
318.0
 20
-41.0
 30
0.0
  0
VERTEX
  5
25D
  8
FLOORPLATE$T1$31111V4
 10
317.9999999999999
 20
-46.0
 30
0.0
  0
VERTEX
  5
25E
  8
FLOORPLATE$T1$31111V4
 10
312.9999999999999
 20
-45.99999999999994
 30
0.0
  0
SEQEND
  5
25F
  8
FLOORPLATE$T1$31111V4
  0
POLYLINE
  5
260
  8
FLOORPLATE$T1$31111V4
 66
     1
 10
0.0
 20
0.0
 30
0.0
 70
     1
  0
VERTEX
  5
261
  8
FLOORPLATE$T1$31111V4
 10
317.9999999999999
 20
-46.0
 30
0.0
  0
VERTEX
  5
262
  8
FLOORPLATE$T1$31111V4
 10
312.9999999999999
 20
-45.99999999999994
 30
0.0
  0
VERTEX
  5
263
  8
FLOORPLATE$T1$31111V4
 10
312.9999999999999
 20
-50.99999999999994
 30
0.0
  0
VERTEX
  5
264
  8
FLOORPLATE$T1$31111V4
 10
307.9999999999999
 20
-50.99999999999983
 30
0.0
  0
VERTEX
  5
265
  8
FLOORPLATE$T1$31111V4
 10
307.9999999999998
 20
-55.99999999999983
 30
0.0
  0
VERTEX
  5
266
  8
FLOORPLATE$T1$31111V4
 10
317.9999999999998
 20
-56.0
 30
0.0
  0
SEQEND
  5
267
  8
FLOORPLATE$T1$31111V4
  0
LINE
  5
268
  8
FLOORPLATE$T1$31111V4
 10
331.7365207926916
 20
-51.15053104400977
 30
0.0
 11
334.1110928866789
 21
-51.15053104400977
 31
0.0
  0
LINE
  5
269
  8
FLOORPLATE$T1$31111V4
 10
331.7365207926917
 20
-43.6402565141895
 30
0.0
 11
334.111092886679
 21
-43.64025651418956
 31
0.0
  0
LINE
  5
26A
  8
FLOORPLATE$T1$31111V4
 10
331.7365207926918
 20
-35.63297852283711
 30
0.0
 11
334.1110928866791
 21
-35.63297852283711
 31
0.0
  0
LINE
  5
26B
  8
FLOORPLATE$T1$31111V4
 10
312.6329785228367
 20
-57.26347920730825
 30
0.0
 11
312.6329785228367
 21
-54.88890711332095
 31
0.0
  0
LINE
  5
26C
  8
FLOORPLATE$T1$31111V4
 10
320.6402565141891
 20
-57.26347920730831
 30
0.0
 11
320.6402565141891
 21
-54.88890711332101
 31
0.0
  0
LINE
  5
26D
  8
FLOORPLATE$T1$31111V4
 10
328.1505310440093
 20
-57.26347920730842
 30
0.0
 11
328.1505310440094
 21
-54.88890711332118
 31
0.0
  0
LINE
  5
26E
  8
FLOORPLATE$T1$31111V4
 10
328.3670214771633
 20
-29.73652079269186
 30
0.0
 11
328.3670214771633
 21
-32.11109288667916
 31
0.0
  0
LINE
  5
26F
  8
FLOORPLATE$T1$31111V4
 10
320.3597434858109
 20
-29.73652079269175
 30
0.0
 11
320.3597434858109
 21
-32.11109288667899
 31
0.0
  0
LINE
  5
270
  8
FLOORPLATE$T1$31111V4
 10
312.8494689559906
 20
-29.73652079269164
 30
0.0
 11
312.8494689559906
 21
-32.11109288667893
 31
0.0
  0
LINE
  5
271
  8
FLOORPLATE$T1$31111V4
 10
309.2634792073084
 20
-35.84946895599035
 30
0.0
 11
306.8889071133211
 21
-35.84946895599029
 31
0.0
  0
LINE
  5
272
  8
FLOORPLATE$T1$31111V4
 10
309.2634792073083
 20
-43.35974348581061
 30
0.0
 11
306.888907113321
 21
-43.35974348581055
 31
0.0
  0
LINE
  5
273
  8
FLOORPLATE$T1$31111V4
 10
309.2634792073082
 20
-51.36702147716301
 30
0.0
 11
306.8889071133209
 21
-51.36702147716295
 31
0.0
  0
POLYLINE
  5
274
  8
FLOORPLATE$T1$31111V4
 66
     1
 10
0.0
 20
0.0
 30
0.0
 70
     1
  0
VERTEX
  5
275
  8
FLOORPLATE$T1$31111V4
 10
323.0
 20
-41.00000000000006
 30
0.0
  0
VERTEX
  5
276
  8
FLOORPLATE$T1$31111V4
 10
318.0
 20
-41.0
 30
0.0
  0
VERTEX
  5
277
  8
FLOORPLATE$T1$31111V4
 10
317.9999999999999
 20
-46.0
 30
0.0
  0
VERTEX
  5
278
  8
FLOORPLATE$T1$31111V4
 10
322.9999999999999
 20
-46.00000000000006
 30
0.0
  0
SEQEND
  5
279
  8
FLOORPLATE$T1$31111V4
  0
TEXT
  5
27A
  8
FLOORPLATE$T1$31111V4
  6
CONTINUOUS
 10
315.1519999999999
 20
-53.03333333333327
 30
0.0
 40
1.0
  1
1BED
 50
180.0
  0
TEXT
  5
27B
  8
FLOORPLATE$T1$31111V4
  6
CONTINUOUS
 10
315.0044096385542
 20
-43.53634538152599
 30
0.0
 40
1.0
  1
1BED
 50
180.0
  0
POINT
  5
27D
  8
FLOORPLATE$T1$31111V3
 10
285.9999999999999
 20
-46.0
 30
0.0
  0
POINT
  5
27F
  8
FLOORPLATE$T1$31111V2
 10
253.0
 20
-46.0
 30
0.0
  0
POLYLINE
  5
280
  8
FLOORPLATE$T1$31111V3
 66
     1
 10
0.0
 20
0.0
 30
0.0
 70
     1
  0
VERTEX
  5
281
  8
FLOORPLATE$T1$31111V3
 10
295.9999999999999
 20
-51.00000000000017
 30
0.0
  0
VERTEX
  5
282
  8
FLOORPLATE$T1$31111V3
 10
295.9999999999998
 20
-56.00000000000017
 30
0.0
  0
VERTEX
  5
283
  8
FLOORPLATE$T1$31111V3
 10
285.9999999999998
 20
-56.0
 30
0.0
  0
VERTEX
  5
284
  8
FLOORPLATE$T1$31111V3
 10
285.9999999999999
 20
-46.0
 30
0.0
  0
VERTEX
  5
285
  8
FLOORPLATE$T1$31111V3
 10
290.9999999999999
 20
-46.00000000000006
 30
0.0
  0
VERTEX
  5
286
  8
FLOORPLATE$T1$31111V3
 10
290.9999999999999
 20
-51.00000000000006
 30
0.0
  0
SEQEND
  5
287
  8
FLOORPLATE$T1$31111V3
  0
POLYLINE
  5
288
  8
FLOORPLATE$T1$31111V3
 66
     1
 10
0.0
 20
0.0
 30
0.0
 70
     1
  0
VERTEX
  5
289
  8
FLOORPLATE$T1$31111V3
 10
290.9999999999999
 20
-46.00000000000006
 30
0.0
  0
VERTEX
  5
28A
  8
FLOORPLATE$T1$31111V3
 10
290.9999999999999
 20
-51.00000000000006
 30
0.0
  0
VERTEX
  5
28B
  8
FLOORPLATE$T1$31111V3
 10
295.9999999999999
 20
-51.00000000000017
 30
0.0
  0
VERTEX
  5
28C
  8
FLOORPLATE$T1$31111V3
 10
295.9999999999998
 20
-56.00000000000017
 30
0.0
  0
VERTEX
  5
28D
  8
FLOORPLATE$T1$31111V3
 10
300.9999999999998
 20
-56.00000000000023
 30
0.0
  0
VERTEX
  5
28E
  8
FLOORPLATE$T1$31111V3
 10
300.9999999999999
 20
-46.00000000000023
 30
0.0
  0
SEQEND
  5
28F
  8
FLOORPLATE$T1$31111V3
  0
TEXT
  5
290
  8
FLOORPLATE$T1$31111V3
  6
CONTINUOUS
 10
298.0333333333332
 20
-48.84800000000018
 30
0.0
 40
1.0
  1
1BED
 50
269.9999999999991
  0
TEXT
  5
291
  8
FLOORPLATE$T1$31111V3
  6
CONTINUOUS
 10
288.536345381526
 20
-48.99559036144581
 30
0.0
 40
1.0
  1
1BED
 50
269.9999999999991
  0
TEXT
  5
292
  8
FLOORPLATE$T1$31111V3
  6
CONTINUOUS
 10
290.8571927710845
 20
-34.53634538152616
 30
0.0
 40
1.0
  1
3BED
 50
180.0
  0
POLYLINE
  5
293
  8
FLOORPLATE$T1$31111V3
 66
     1
 10
0.0
 20
0.0
 30
0.0
 70
     1
  0
VERTEX
  5
294
  8
FLOORPLATE$T1$31111V3
 10
300.9999999999999
 20
-46.00000000000023
 30
0.0
  0
VERTEX
  5
295
  8
FLOORPLATE$T1$31111V3
 10
301.0000000000002
 20
-31.00000000000017
 30
0.0
  0
VERTEX
  5
296
  8
FLOORPLATE$T1$31111V3
 10
276.0000000000002
 20
-30.99999999999983
 30
0.0
  0
VERTEX
  5
297
  8
FLOORPLATE$T1$31111V3
 10
276.0000000000001
 20
-40.99999999999983
 30
0.0
  0
VERTEX
  5
298
  8
FLOORPLATE$T1$31111V3
 10
291.0
 20
-41.00000000000006
 30
0.0
  0
VERTEX
  5
299
  8
FLOORPLATE$T1$31111V3
 10
290.9999999999999
 20
-46.00000000000006
 30
0.0
  0
SEQEND
  5
29A
  8
FLOORPLATE$T1$31111V3
  0
POLYLINE
  5
29B
  8
FLOORPLATE$T1$31111V3
 66
     1
 10
0.0
 20
0.0
 30
0.0
 70
     1
  0
VERTEX
  5
29C
  8
FLOORPLATE$T1$31111V3
 10
280.9999999999999
 20
-50.99999999999994
 30
0.0
  0
VERTEX
  5
29D
  8
FLOORPLATE$T1$31111V3
 10
275.9999999999999
 20
-50.99999999999983
 30
0.0
  0
VERTEX
  5
29E
  8
FLOORPLATE$T1$31111V3
 10
276.0000000000001
 20
-40.99999999999983
 30
0.0
  0
VERTEX
  5
29F
  8
FLOORPLATE$T1$31111V3
 10
286.0
 20
-41.0
 30
0.0
  0
VERTEX
  5
2A0
  8
FLOORPLATE$T1$31111V3
 10
285.9999999999999
 20
-46.0
 30
0.0
  0
VERTEX
  5
2A1
  8
FLOORPLATE$T1$31111V3
 10
280.9999999999999
 20
-45.99999999999994
 30
0.0
  0
SEQEND
  5
2A2
  8
FLOORPLATE$T1$31111V3
  0
POLYLINE
  5
2A3
  8
FLOORPLATE$T1$31111V3
 66
     1
 10
0.0
 20
0.0
 30
0.0
 70
     1
  0
VERTEX
  5
2A4
  8
FLOORPLATE$T1$31111V3
 10
285.9999999999999
 20
-46.0
 30
0.0
  0
VERTEX
  5
2A5
  8
FLOORPLATE$T1$31111V3
 10
280.9999999999999
 20
-45.99999999999994
 30
0.0
  0
VERTEX
  5
2A6
  8
FLOORPLATE$T1$31111V3
 10
280.9999999999999
 20
-50.99999999999994
 30
0.0
  0
VERTEX
  5
2A7
  8
FLOORPLATE$T1$31111V3
 10
275.9999999999999
 20
-50.99999999999983
 30
0.0
  0
VERTEX
  5
2A8
  8
FLOORPLATE$T1$31111V3
 10
275.9999999999998
 20
-55.99999999999983
 30
0.0
  0
VERTEX
  5
2A9
  8
FLOORPLATE$T1$31111V3
 10
285.9999999999998
 20
-56.0
 30
0.0
  0
SEQEND
  5
2AA
  8
FLOORPLATE$T1$31111V3
  0
LINE
  5
2AB
  8
FLOORPLATE$T1$31111V3
 10
299.7365207926916
 20
-51.15053104400977
 30
0.0
 11
302.1110928866789
 21
-51.15053104400977
 31
0.0
  0
LINE
  5
2AC
  8
FLOORPLATE$T1$31111V3
 10
299.7365207926917
 20
-43.6402565141895
 30
0.0
 11
302.111092886679
 21
-43.64025651418956
 31
0.0
  0
LINE
  5
2AD
  8
FLOORPLATE$T1$31111V3
 10
299.7365207926918
 20
-35.63297852283711
 30
0.0
 11
302.1110928866791
 21
-35.63297852283711
 31
0.0
  0
LINE
  5
2AE
  8
FLOORPLATE$T1$31111V3
 10
280.6329785228367
 20
-57.26347920730825
 30
0.0
 11
280.6329785228367
 21
-54.88890711332095
 31
0.0
  0
LINE
  5
2AF
  8
FLOORPLATE$T1$31111V3
 10
288.6402565141891
 20
-57.26347920730831
 30
0.0
 11
288.6402565141891
 21
-54.88890711332101
 31
0.0
  0
LINE
  5
2B0
  8
FLOORPLATE$T1$31111V3
 10
296.1505310440093
 20
-57.26347920730842
 30
0.0
 11
296.1505310440094
 21
-54.88890711332118
 31
0.0
  0
LINE
  5
2B1
  8
FLOORPLATE$T1$31111V3
 10
296.3670214771633
 20
-29.73652079269186
 30
0.0
 11
296.3670214771633
 21
-32.11109288667916
 31
0.0
  0
LINE
  5
2B2
  8
FLOORPLATE$T1$31111V3
 10
288.3597434858109
 20
-29.73652079269175
 30
0.0
 11
288.3597434858109
 21
-32.11109288667899
 31
0.0
  0
LINE
  5
2B3
  8
FLOORPLATE$T1$31111V3
 10
280.8494689559906
 20
-29.73652079269164
 30
0.0
 11
280.8494689559906
 21
-32.11109288667893
 31
0.0
  0
LINE
  5
2B4
  8
FLOORPLATE$T1$31111V3
 10
277.2634792073084
 20
-35.84946895599035
 30
0.0
 11
274.8889071133211
 21
-35.84946895599029
 31
0.0
  0
LINE
  5
2B5
  8
FLOORPLATE$T1$31111V3
 10
277.2634792073083
 20
-43.35974348581061
 30
0.0
 11
274.888907113321
 21
-43.35974348581055
 31
0.0
  0
LINE
  5
2B6
  8
FLOORPLATE$T1$31111V3
 10
277.2634792073082
 20
-51.36702147716301
 30
0.0
 11
274.8889071133209
 21
-51.36702147716295
 31
0.0
  0
POLYLINE
  5
2B7
  8
FLOORPLATE$T1$31111V3
 66
     1
 10
0.0
 20
0.0
 30
0.0
 70
     1
  0
VERTEX
  5
2B8
  8
FLOORPLATE$T1$31111V3
 10
291.0
 20
-41.00000000000006
 30
0.0
  0
VERTEX
  5
2B9
  8
FLOORPLATE$T1$31111V3
 10
286.0
 20
-41.0
 30
0.0
  0
VERTEX
  5
2BA
  8
FLOORPLATE$T1$31111V3
 10
285.9999999999999
 20
-46.0
 30
0.0
  0
VERTEX
  5
2BB
  8
FLOORPLATE$T1$31111V3
 10
290.9999999999999
 20
-46.00000000000006
 30
0.0
  0
SEQEND
  5
2BC
  8
FLOORPLATE$T1$31111V3
  0
TEXT
  5
2BD
  8
FLOORPLATE$T1$31111V3
  6
CONTINUOUS
 10
283.1519999999999
 20
-53.03333333333327
 30
0.0
 40
1.0
  1
1BED
 50
180.0
  0
TEXT
  5
2BE
  8
FLOORPLATE$T1$31111V3
  6
CONTINUOUS
 10
283.0044096385542
 20
-43.53634538152599
 30
0.0
 40
1.0
  1
1BED
 50
180.0
  0
POLYLINE
  5
2BF
  8
FLOORPLATE$T1$31111V2
 66
     1
 10
0.0
 20
0.0
 30
0.0
 70
     1
  0
VERTEX
  5
2C0
  8
FLOORPLATE$T1$31111V2
 10
253.0
 20
-46.0
 30
0.0
  0
VERTEX
  5
2C1
  8
FLOORPLATE$T1$31111V2
 10
248.0
 20
-46.00000000000003
 30
0.0
  0
VERTEX
  5
2C2
  8
FLOORPLATE$T1$31111V2
 10
248.0
 20
-51.00000000000003
 30
0.0
  0
VERTEX
  5
2C3
  8
FLOORPLATE$T1$31111V2
 10
243.0
 20
-51.00000000000006
 30
0.0
  0
VERTEX
  5
2C4
  8
FLOORPLATE$T1$31111V2
 10
243.0
 20
-56.00000000000006
 30
0.0
  0
VERTEX
  5
2C5
  8
FLOORPLATE$T1$31111V2
 10
253.0
 20
-56.0
 30
0.0
  0
SEQEND
  5
2C6
  8
FLOORPLATE$T1$31111V2
  0
TEXT
  5
2C7
  8
FLOORPLATE$T1$31111V2
  6
CONTINUOUS
 10
250.152
 20
-53.03333333333337
 30
0.0
 40
1.0
  1
1BED
 50
180.0
  0
TEXT
  5
2C8
  8
FLOORPLATE$T1$31111V2
  6
CONTINUOUS
 10
250.0044096385542
 20
-43.53634538152614
 30
0.0
 40
1.0
  1
1BED
 50
180.0
  0
TEXT
  5
2C9
  8
FLOORPLATE$T1$31111V2
  6
CONTINUOUS
 10
264.4636546184739
 20
-45.85719277108433
 30
0.0
 40
1.0
  1
3BED
 50
90.00000000000021
  0
POLYLINE
  5
2CA
  8
FLOORPLATE$T1$31111V2
 66
     1
 10
0.0
 20
0.0
 30
0.0
 70
     1
  0
VERTEX
  5
2CB
  8
FLOORPLATE$T1$31111V2
 10
253.0
 20
-56.0
 30
0.0
  0
VERTEX
  5
2CC
  8
FLOORPLATE$T1$31111V2
 10
268.0000000000001
 20
-55.99999999999994
 30
0.0
  0
VERTEX
  5
2CD
  8
FLOORPLATE$T1$31111V2
 10
267.9999999999999
 20
-30.99999999999994
 30
0.0
  0
VERTEX
  5
2CE
  8
FLOORPLATE$T1$31111V2
 10
257.9999999999999
 20
-31.0
 30
0.0
  0
VERTEX
  5
2CF
  8
FLOORPLATE$T1$31111V2
 10
258.0
 20
-46.0
 30
0.0
  0
VERTEX
  5
2D0
  8
FLOORPLATE$T1$31111V2
 10
253.0
 20
-46.0
 30
0.0
  0
SEQEND
  5
2D1
  8
FLOORPLATE$T1$31111V2
  0
POLYLINE
  5
2D2
  8
FLOORPLATE$T1$31111V2
 66
     1
 10
0.0
 20
0.0
 30
0.0
 70
     1
  0
VERTEX
  5
2D3
  8
FLOORPLATE$T1$31111V2
 10
253.0
 20
-41.0
 30
0.0
  0
VERTEX
  5
2D4
  8
FLOORPLATE$T1$31111V2
 10
252.9999999999999
 20
-36.0
 30
0.0
  0
VERTEX
  5
2D5
  8
FLOORPLATE$T1$31111V2
 10
247.9999999999999
 20
-36.00000000000006
 30
0.0
  0
VERTEX
  5
2D6
  8
FLOORPLATE$T1$31111V2
 10
247.9999999999999
 20
-31.00000000000006
 30
0.0
  0
VERTEX
  5
2D7
  8
FLOORPLATE$T1$31111V2
 10
242.9999999999999
 20
-31.00000000000006
 30
0.0
  0
VERTEX
  5
2D8
  8
FLOORPLATE$T1$31111V2
 10
243.0
 20
-41.00000000000006
 30
0.0
  0
SEQEND
  5
2D9
  8
FLOORPLATE$T1$31111V2
  0
LINE
  5
2DA
  8
FLOORPLATE$T1$31111V2
 10
255.3597434858107
 20
-54.73652079269169
 30
0.0
 11
255.3597434858107
 21
-57.11109288667899
 31
0.0
  0
LINE
  5
2DB
  8
FLOORPLATE$T1$31111V2
 10
263.3670214771631
 20
-54.73652079269166
 30
0.0
 11
263.3670214771632
 21
-57.11109288667896
 31
0.0
  0
LINE
  5
2DC
  8
FLOORPLATE$T1$31111V2
 10
241.7365207926917
 20
-51.1505310440096
 30
0.0
 11
244.111092886679
 21
-51.1505310440096
 31
0.0
  0
LINE
  5
2DD
  8
FLOORPLATE$T1$31111V2
 10
269.2634792073083
 20
-43.35974348581064
 30
0.0
 11
266.888907113321
 21
-43.35974348581067
 31
0.0
  0
TEXT
  5
2DE
  8
FLOORPLATE$T1$31111V2
  6
CONTINUOUS
 10
255.4636546184739
 20
-38.00440963855419
 30
0.0
 40
1.0
  1
1BED
 50
90.00000000000021
  0
TEXT
  5
2DF
  8
FLOORPLATE$T1$31111V2
  6
CONTINUOUS
 10
245.9666666666666
 20
-38.15200000000004
 30
0.0
 40
1.0
  1
1BED
 50
90.00000000000021
  0
POLYLINE
  5
2E0
  8
FLOORPLATE$T1$31111V2
 66
     1
 10
0.0
 20
0.0
 30
0.0
 70
     1
  0
VERTEX
  5
2E1
  8
FLOORPLATE$T1$31111V2
 10
258.0
 20
-46.0
 30
0.0
  0
VERTEX
  5
2E2
  8
FLOORPLATE$T1$31111V2
 10
258.0
 20
-41.0
 30
0.0
  0
VERTEX
  5
2E3
  8
FLOORPLATE$T1$31111V2
 10
253.0
 20
-41.0
 30
0.0
  0
VERTEX
  5
2E4
  8
FLOORPLATE$T1$31111V2
 10
253.0
 20
-46.0
 30
0.0
  0
SEQEND
  5
2E5
  8
FLOORPLATE$T1$31111V2
  0
LINE
  5
2E6
  8
FLOORPLATE$T1$31111V2
 10
247.6329785228368
 20
-32.26347920730836
 30
0.0
 11
247.6329785228368
 21
-29.88890711332107
 31
0.0
  0
LINE
  5
2E7
  8
FLOORPLATE$T1$31111V2
 10
255.6402565141892
 20
-32.26347920730831
 30
0.0
 11
255.6402565141892
 21
-29.88890711332101
 31
0.0
  0
LINE
  5
2E8
  8
FLOORPLATE$T1$31111V2
 10
263.1505310440095
 20
-32.26347920730831
 30
0.0
 11
263.1505310440095
 21
-29.88890711332101
 31
0.0
  0
LINE
  5
2E9
  8
FLOORPLATE$T1$31111V2
 10
269.2634792073083
 20
-35.8494689559904
 30
0.0
 11
266.888907113321
 21
-35.8494689559904
 31
0.0
  0
LINE
  5
2EA
  8
FLOORPLATE$T1$31111V2
 10
269.2634792073083
 20
-51.36702147716306
 30
0.0
 11
266.888907113321
 21
-51.36702147716309
 31
0.0
  0
LINE
  5
2EB
  8
FLOORPLATE$T1$31111V2
 10
241.7365207926917
 20
-43.64025651418936
 30
0.0
 11
244.111092886679
 21
-43.64025651418936
 31
0.0
  0
LINE
  5
2EC
  8
FLOORPLATE$T1$31111V2
 10
241.7365207926917
 20
-35.63297852283694
 30
0.0
 11
244.1110928866789
 21
-35.63297852283694
 31
0.0
  0
LINE
  5
2ED
  8
FLOORPLATE$T1$31111V2
 10
247.8494689559905
 20
-54.73652079269172
 30
0.0
 11
247.8494689559905
 21
-57.11109288667902
 31
0.0
  0
POLYLINE
  5
2EE
  8
FLOORPLATE$T1$31111V2
 66
     1
 10
0.0
 20
0.0
 30
0.0
 70
     1
  0
VERTEX
  5
2EF
  8
FLOORPLATE$T1$31111V2
 10
247.9999999999999
 20
-36.00000000000006
 30
0.0
  0
VERTEX
  5
2F0
  8
FLOORPLATE$T1$31111V2
 10
247.9999999999999
 20
-31.00000000000006
 30
0.0
  0
VERTEX
  5
2F1
  8
FLOORPLATE$T1$31111V2
 10
257.9999999999999
 20
-31.0
 30
0.0
  0
VERTEX
  5
2F2
  8
FLOORPLATE$T1$31111V2
 10
258.0
 20
-41.0
 30
0.0
  0
VERTEX
  5
2F3
  8
FLOORPLATE$T1$31111V2
 10
253.0
 20
-41.0
 30
0.0
  0
VERTEX
  5
2F4
  8
FLOORPLATE$T1$31111V2
 10
252.9999999999999
 20
-36.0
 30
0.0
  0
SEQEND
  5
2F5
  8
FLOORPLATE$T1$31111V2
  0
POLYLINE
  5
2F6
  8
FLOORPLATE$T1$31111V2
 66
     1
 10
0.0
 20
0.0
 30
0.0
 70
     1
  0
VERTEX
  5
2F7
  8
FLOORPLATE$T1$31111V2
 10
248.0
 20
-51.00000000000003
 30
0.0
  0
VERTEX
  5
2F8
  8
FLOORPLATE$T1$31111V2
 10
243.0
 20
-51.00000000000006
 30
0.0
  0
VERTEX
  5
2F9
  8
FLOORPLATE$T1$31111V2
 10
243.0
 20
-41.00000000000006
 30
0.0
  0
VERTEX
  5
2FA
  8
FLOORPLATE$T1$31111V2
 10
253.0
 20
-41.0
 30
0.0
  0
VERTEX
  5
2FB
  8
FLOORPLATE$T1$31111V2
 10
253.0
 20
-46.0
 30
0.0
  0
VERTEX
  5
2FC
  8
FLOORPLATE$T1$31111V2
 10
248.0
 20
-46.00000000000003
 30
0.0
  0
SEQEND
  5
2FD
  8
FLOORPLATE$T1$31111V2
  0
TEXT
  5
2FF
  8
FLOORPLATE$T1$31111V1
  6
CONTINUOUS
 10
226.848
 20
-33.96666666666666
 30
0.0
 40
1.0
  1
1BED
  0
POLYLINE
  5
300
  8
FLOORPLATE$T1$31111V1
 66
     1
 10
0.0
 20
0.0
 30
0.0
 70
     1
  0
VERTEX
  5
301
  8
FLOORPLATE$T1$31111V1
 10
219.0
 20
-46.0
 30
0.0
  0
VERTEX
  5
302
  8
FLOORPLATE$T1$31111V1
 10
224.0
 20
-46.0
 30
0.0
  0
VERTEX
  5
303
  8
FLOORPLATE$T1$31111V1
 10
224.0
 20
-41.0
 30
0.0
  0
VERTEX
  5
304
  8
FLOORPLATE$T1$31111V1
 10
219.0
 20
-41.0
 30
0.0
  0
SEQEND
  5
305
  8
FLOORPLATE$T1$31111V1
  0
LINE
  5
306
  8
FLOORPLATE$T1$31111V1
 10
232.7365207926917
 20
-35.63297852283688
 30
0.0
 11
235.111092886679
 21
-35.63297852283688
 31
0.0
  0
LINE
  5
307
  8
FLOORPLATE$T1$31111V1
 10
229.1505310440095
 20
-57.26347920730829
 30
0.0
 11
229.1505310440095
 21
-54.88890711332101
 31
0.0
  0
LINE
  5
308
  8
FLOORPLATE$T1$31111V1
 10
221.6402565141893
 20
-57.26347920730829
 30
0.0
 11
221.6402565141893
 21
-54.88890711332101
 31
0.0
  0
LINE
  5
309
  8
FLOORPLATE$T1$31111V1
 10
213.8494689559905
 20
-29.73652079269171
 30
0.0
 11
213.8494689559905
 21
-32.11109288667899
 31
0.0
  0
LINE
  5
30A
  8
FLOORPLATE$T1$31111V1
 10
221.3597434858107
 20
-29.73652079269171
 30
0.0
 11
221.3597434858107
 21
-32.11109288667899
 31
0.0
  0
LINE
  5
30B
  8
FLOORPLATE$T1$31111V1
 10
210.2634792073083
 20
-51.36702147716312
 30
0.0
 11
207.888907113321
 21
-51.36702147716312
 31
0.0
  0
LINE
  5
30C
  8
FLOORPLATE$T1$31111V1
 10
210.2634792073083
 20
-35.84946895599046
 30
0.0
 11
207.888907113321
 21
-35.84946895599046
 31
0.0
  0
POLYLINE
  5
30D
  8
FLOORPLATE$T1$31111V1
 66
     1
 10
0.0
 20
0.0
 30
0.0
 70
     1
  0
VERTEX
  5
30E
  8
FLOORPLATE$T1$31111V1
 10
224.0
 20
-41.0
 30
0.0
  0
VERTEX
  5
30F
  8
FLOORPLATE$T1$31111V1
 10
229.0
 20
-41.0
 30
0.0
  0
VERTEX
  5
310
  8
FLOORPLATE$T1$31111V1
 10
229.0
 20
-36.0
 30
0.0
  0
VERTEX
  5
311
  8
FLOORPLATE$T1$31111V1
 10
234.0
 20
-36.0
 30
0.0
  0
VERTEX
  5
312
  8
FLOORPLATE$T1$31111V1
 10
234.0
 20
-31.0
 30
0.0
  0
VERTEX
  5
313
  8
FLOORPLATE$T1$31111V1
 10
224.0
 20
-31.0
 30
0.0
  0
SEQEND
  5
314
  8
FLOORPLATE$T1$31111V1
  0
POLYLINE
  5
315
  8
FLOORPLATE$T1$31111V1
 66
     1
 10
0.0
 20
0.0
 30
0.0
 70
     1
  0
VERTEX
  5
316
  8
FLOORPLATE$T1$31111V1
 10
229.0
 20
-36.0
 30
0.0
  0
VERTEX
  5
317
  8
FLOORPLATE$T1$31111V1
 10
234.0
 20
-36.0
 30
0.0
  0
VERTEX
  5
318
  8
FLOORPLATE$T1$31111V1
 10
234.0
 20
-46.0
 30
0.0
  0
VERTEX
  5
319
  8
FLOORPLATE$T1$31111V1
 10
224.0
 20
-46.0
 30
0.0
  0
VERTEX
  5
31A
  8
FLOORPLATE$T1$31111V1
 10
224.0
 20
-41.0
 30
0.0
  0
VERTEX
  5
31B
  8
FLOORPLATE$T1$31111V1
 10
229.0
 20
-41.0
 30
0.0
  0
SEQEND
  5
31C
  8
FLOORPLATE$T1$31111V1
  0
POLYLINE
  5
31D
  8
FLOORPLATE$T1$31111V1
 66
     1
 10
0.0
 20
0.0
 30
0.0
 70
     1
  0
VERTEX
  5
31E
  8
FLOORPLATE$T1$31111V1
 10
209.0
 20
-41.0
 30
0.0
  0
VERTEX
  5
31F
  8
FLOORPLATE$T1$31111V1
 10
209.0
 20
-56.0
 30
0.0
  0
VERTEX
  5
320
  8
FLOORPLATE$T1$31111V1
 10
234.0
 20
-56.0
 30
0.0
  0
VERTEX
  5
321
  8
FLOORPLATE$T1$31111V1
 10
234.0
 20
-46.0
 30
0.0
  0
VERTEX
  5
322
  8
FLOORPLATE$T1$31111V1
 10
219.0
 20
-46.0
 30
0.0
  0
VERTEX
  5
323
  8
FLOORPLATE$T1$31111V1
 10
219.0
 20
-41.0
 30
0.0
  0
SEQEND
  5
324
  8
FLOORPLATE$T1$31111V1
  0
POLYLINE
  5
325
  8
FLOORPLATE$T1$31111V1
 66
     1
 10
0.0
 20
0.0
 30
0.0
 70
     1
  0
VERTEX
  5
326
  8
FLOORPLATE$T1$31111V1
 10
219.0
 20
-41.0
 30
0.0
  0
VERTEX
  5
327
  8
FLOORPLATE$T1$31111V1
 10
219.0
 20
-36.0
 30
0.0
  0
VERTEX
  5
328
  8
FLOORPLATE$T1$31111V1
 10
214.0
 20
-36.0
 30
0.0
  0
VERTEX
  5
329
  8
FLOORPLATE$T1$31111V1
 10
214.0
 20
-31.0
 30
0.0
  0
VERTEX
  5
32A
  8
FLOORPLATE$T1$31111V1
 10
209.0
 20
-31.0
 30
0.0
  0
VERTEX
  5
32B
  8
FLOORPLATE$T1$31111V1
 10
209.0
 20
-41.0
 30
0.0
  0
SEQEND
  5
32C
  8
FLOORPLATE$T1$31111V1
  0
POLYLINE
  5
32D
  8
FLOORPLATE$T1$31111V1
 66
     1
 10
0.0
 20
0.0
 30
0.0
 70
     1
  0
VERTEX
  5
32E
  8
FLOORPLATE$T1$31111V1
 10
214.0
 20
-36.0
 30
0.0
  0
VERTEX
  5
32F
  8
FLOORPLATE$T1$31111V1
 10
214.0
 20
-31.0
 30
0.0
  0
VERTEX
  5
330
  8
FLOORPLATE$T1$31111V1
 10
224.0
 20
-31.0
 30
0.0
  0
VERTEX
  5
331
  8
FLOORPLATE$T1$31111V1
 10
224.0
 20
-41.0
 30
0.0
  0
VERTEX
  5
332
  8
FLOORPLATE$T1$31111V1
 10
219.0
 20
-41.0
 30
0.0
  0
VERTEX
  5
333
  8
FLOORPLATE$T1$31111V1
 10
219.0
 20
-36.0
 30
0.0
  0
SEQEND
  5
334
  8
FLOORPLATE$T1$31111V1
  0
TEXT
  5
335
  8
FLOORPLATE$T1$31111V1
  6
CONTINUOUS
 10
211.9666666666667
 20
-38.15199999999999
 30
0.0
 40
1.0
  1
1BED
 50
90.0
  0
TEXT
  5
336
  8
FLOORPLATE$T1$31111V1
  6
CONTINUOUS
 10
221.4636546184739
 20
-38.00440963855419
 30
0.0
 40
1.0
  1
1BED
 50
90.0
  0
TEXT
  5
337
  8
FLOORPLATE$T1$31111V1
  6
CONTINUOUS
 10
219.1428072289157
 20
-52.46365461847389
 30
0.0
 40
1.0
  1
3BED
  0
LINE
  5
338
  8
FLOORPLATE$T1$31111V1
 10
210.2634792073083
 20
-43.3597434858107
 30
0.0
 11
207.888907113321
 21
-43.3597434858107
 31
0.0
  0
LINE
  5
339
  8
FLOORPLATE$T1$31111V1
 10
229.3670214771631
 20
-29.73652079269171
 30
0.0
 11
229.3670214771631
 21
-32.11109288667899
 31
0.0
  0
LINE
  5
33A
  8
FLOORPLATE$T1$31111V1
 10
213.6329785228369
 20
-57.26347920730829
 30
0.0
 11
213.6329785228369
 21
-54.88890711332101
 31
0.0
  0
LINE
  5
33B
  8
FLOORPLATE$T1$31111V1
 10
232.7365207926917
 20
-51.15053104400954
 30
0.0
 11
235.111092886679
 21
-51.15053104400954
 31
0.0
  0
LINE
  5
33C
  8
FLOORPLATE$T1$31111V1
 10
232.7365207926917
 20
-43.6402565141893
 30
0.0
 11
235.111092886679
 21
-43.6402565141893
 31
0.0
  0
POINT
  5
33D
  8
FLOORPLATE$T1$31111V1
 10
219.0
 20
-46.0
 30
0.0
  0
TEXT
  5
33E
  8
FLOORPLATE$T1$31111V1
  6
CONTINUOUS
 10
226.9955903614458
 20
-43.46365461847389
 30
0.0
 40
1.0
  1
1BED
  0
POLYLINE
  5
340
  8
FLOORPLATE$T1$221111V1
 66
     1
 10
0.0
 20
0.0
 30
0.0
 70
     1
  0
VERTEX
  5
341
  8
FLOORPLATE$T1$221111V1
 10
209.0
 20
-150.0
 30
0.0
  0
VERTEX
  5
342
  8
FLOORPLATE$T1$221111V1
 10
219.0
 20
-150.0
 30
0.0
  0
VERTEX
  5
343
  8
FLOORPLATE$T1$221111V1
 10
219.0
 20
-135.0
 30
0.0
  0
VERTEX
  5
344
  8
FLOORPLATE$T1$221111V1
 10
209.0
 20
-135.0
 30
0.0
  0
SEQEND
  5
345
  8
FLOORPLATE$T1$221111V1
  0
POLYLINE
  5
346
  8
FLOORPLATE$T1$221111V1
 66
     1
 10
0.0
 20
0.0
 30
0.0
 70
     1
  0
VERTEX
  5
347
  8
FLOORPLATE$T1$221111V1
 10
214.0
 20
-130.0
 30
0.0
  0
VERTEX
  5
348
  8
FLOORPLATE$T1$221111V1
 10
214.0
 20
-125.0
 30
0.0
  0
VERTEX
  5
349
  8
FLOORPLATE$T1$221111V1
 10
224.0
 20
-125.0
 30
0.0
  0
VERTEX
  5
34A
  8
FLOORPLATE$T1$221111V1
 10
224.0
 20
-135.0
 30
0.0
  0
VERTEX
  5
34B
  8
FLOORPLATE$T1$221111V1
 10
219.0
 20
-135.0
 30
0.0
  0
VERTEX
  5
34C
  8
FLOORPLATE$T1$221111V1
 10
219.0
 20
-130.0
 30
0.0
  0
SEQEND
  5
34D
  8
FLOORPLATE$T1$221111V1
  0
POLYLINE
  5
34E
  8
FLOORPLATE$T1$221111V1
 66
     1
 10
0.0
 20
0.0
 30
0.0
 70
     1
  0
VERTEX
  5
34F
  8
FLOORPLATE$T1$221111V1
 10
219.0
 20
-135.0
 30
0.0
  0
VERTEX
  5
350
  8
FLOORPLATE$T1$221111V1
 10
219.0
 20
-130.0
 30
0.0
  0
VERTEX
  5
351
  8
FLOORPLATE$T1$221111V1
 10
214.0
 20
-130.0
 30
0.0
  0
VERTEX
  5
352
  8
FLOORPLATE$T1$221111V1
 10
214.0
 20
-125.0
 30
0.0
  0
VERTEX
  5
353
  8
FLOORPLATE$T1$221111V1
 10
209.0
 20
-125.0
 30
0.0
  0
VERTEX
  5
354
  8
FLOORPLATE$T1$221111V1
 10
209.0
 20
-135.0
 30
0.0
  0
SEQEND
  5
355
  8
FLOORPLATE$T1$221111V1
  0
TEXT
  5
356
  8
FLOORPLATE$T1$221111V1
  6
CONTINUOUS
 10
211.9666666666667
 20
-132.152
 30
0.0
 40
1.0
  1
1BED
 50
90.0
  0
TEXT
  5
357
  8
FLOORPLATE$T1$221111V1
  6
CONTINUOUS
 10
221.4636546184739
 20
-132.0044096385542
 30
0.0
 40
1.0
  1
1BED
 50
90.0
  0
TEXT
  5
358
  8
FLOORPLATE$T1$221111V1
  6
CONTINUOUS
 10
226.9955903614458
 20
-137.4636546184739
 30
0.0
 40
1.0
  1
1BED
  0
TEXT
  5
359
  8
FLOORPLATE$T1$221111V1
  6
CONTINUOUS
 10
226.848
 20
-127.9666666666667
 30
0.0
 40
1.0
  1
1BED
  0
POINT
  5
35A
  8
FLOORPLATE$T1$221111V1
 10
219.0
 20
-140.0
 30
0.0
  0
TEXT
  5
35B
  8
FLOORPLATE$T1$221111V1
  6
CONTINUOUS
 10
224.1608072289157
 20
-146.4636546184739
 30
0.0
 40
1.0
  1
2BED
  0
POLYLINE
  5
35C
  8
FLOORPLATE$T1$221111V1
 66
     1
 10
0.0
 20
0.0
 30
0.0
 70
     1
  0
VERTEX
  5
35D
  8
FLOORPLATE$T1$221111V1
 10
219.0
 20
-140.0
 30
0.0
  0
VERTEX
  5
35E
  8
FLOORPLATE$T1$221111V1
 10
224.0
 20
-140.0
 30
0.0
  0
VERTEX
  5
35F
  8
FLOORPLATE$T1$221111V1
 10
224.0
 20
-135.0
 30
0.0
  0
VERTEX
  5
360
  8
FLOORPLATE$T1$221111V1
 10
219.0
 20
-135.0
 30
0.0
  0
SEQEND
  5
361
  8
FLOORPLATE$T1$221111V1
  0
LINE
  5
362
  8
FLOORPLATE$T1$221111V1
 10
232.7365207926917
 20
-129.6329785228369
 30
0.0
 11
235.111092886679
 21
-129.6329785228369
 31
0.0
  0
LINE
  5
363
  8
FLOORPLATE$T1$221111V1
 10
232.7365207926917
 20
-137.6402565141893
 30
0.0
 11
235.111092886679
 21
-137.6402565141893
 31
0.0
  0
LINE
  5
364
  8
FLOORPLATE$T1$221111V1
 10
232.7365207926917
 20
-145.1505310440095
 30
0.0
 11
235.111092886679
 21
-145.1505310440095
 31
0.0
  0
LINE
  5
365
  8
FLOORPLATE$T1$221111V1
 10
229.1505310440095
 20
-151.2634792073083
 30
0.0
 11
229.1505310440095
 21
-148.888907113321
 31
0.0
  0
LINE
  5
366
  8
FLOORPLATE$T1$221111V1
 10
221.6402565141893
 20
-151.2634792073083
 30
0.0
 11
221.6402565141893
 21
-148.888907113321
 31
0.0
  0
LINE
  5
367
  8
FLOORPLATE$T1$221111V1
 10
213.6329785228369
 20
-151.2634792073083
 30
0.0
 11
213.6329785228369
 21
-148.888907113321
 31
0.0
  0
LINE
  5
368
  8
FLOORPLATE$T1$221111V1
 10
213.8494689559905
 20
-123.7365207926917
 30
0.0
 11
213.8494689559905
 21
-126.111092886679
 31
0.0
  0
LINE
  5
369
  8
FLOORPLATE$T1$221111V1
 10
221.3597434858107
 20
-123.7365207926917
 30
0.0
 11
221.3597434858107
 21
-126.111092886679
 31
0.0
  0
LINE
  5
36A
  8
FLOORPLATE$T1$221111V1
 10
229.3670214771631
 20
-123.7365207926917
 30
0.0
 11
229.3670214771631
 21
-126.111092886679
 31
0.0
  0
LINE
  5
36B
  8
FLOORPLATE$T1$221111V1
 10
210.2634792073083
 20
-145.3670214771631
 30
0.0
 11
207.888907113321
 21
-145.3670214771631
 31
0.0
  0
LINE
  5
36C
  8
FLOORPLATE$T1$221111V1
 10
210.2634792073083
 20
-137.3597434858107
 30
0.0
 11
207.888907113321
 21
-137.3597434858107
 31
0.0
  0
LINE
  5
36D
  8
FLOORPLATE$T1$221111V1
 10
210.2634792073083
 20
-129.8494689559905
 30
0.0
 11
207.888907113321
 21
-129.8494689559905
 31
0.0
  0
POLYLINE
  5
36E
  8
FLOORPLATE$T1$221111V1
 66
     1
 10
0.0
 20
0.0
 30
0.0
 70
     1
  0
VERTEX
  5
36F
  8
FLOORPLATE$T1$221111V1
 10
224.0
 20
-135.0
 30
0.0
  0
VERTEX
  5
370
  8
FLOORPLATE$T1$221111V1
 10
229.0
 20
-135.0
 30
0.0
  0
VERTEX
  5
371
  8
FLOORPLATE$T1$221111V1
 10
229.0
 20
-130.0
 30
0.0
  0
VERTEX
  5
372
  8
FLOORPLATE$T1$221111V1
 10
234.0
 20
-130.0
 30
0.0
  0
VERTEX
  5
373
  8
FLOORPLATE$T1$221111V1
 10
234.0
 20
-125.0
 30
0.0
  0
VERTEX
  5
374
  8
FLOORPLATE$T1$221111V1
 10
224.0
 20
-125.0
 30
0.0
  0
SEQEND
  5
375
  8
FLOORPLATE$T1$221111V1
  0
TEXT
  5
376
  8
FLOORPLATE$T1$221111V1
  6
CONTINUOUS
 10
212.1608072289157
 20
-142.4636546184739
 30
0.0
 40
1.0
  1
2BED
  0
POLYLINE
  5
377
  8
FLOORPLATE$T1$221111V1
 66
     1
 10
0.0
 20
0.0
 30
0.0
 70
     1
  0
VERTEX
  5
378
  8
FLOORPLATE$T1$221111V1
 10
219.0
 20
-150.0
 30
0.0
  0
VERTEX
  5
379
  8
FLOORPLATE$T1$221111V1
 10
234.0
 20
-150.0
 30
0.0
  0
VERTEX
  5
37A
  8
FLOORPLATE$T1$221111V1
 10
234.0
 20
-140.0
 30
0.0
  0
VERTEX
  5
37B
  8
FLOORPLATE$T1$221111V1
 10
219.0
 20
-140.0
 30
0.0
  0
SEQEND
  5
37C
  8
FLOORPLATE$T1$221111V1
  0
POLYLINE
  5
37D
  8
FLOORPLATE$T1$221111V1
 66
     1
 10
0.0
 20
0.0
 30
0.0
 70
     1
  0
VERTEX
  5
37E
  8
FLOORPLATE$T1$221111V1
 10
229.0
 20
-130.0
 30
0.0
  0
VERTEX
  5
37F
  8
FLOORPLATE$T1$221111V1
 10
234.0
 20
-130.0
 30
0.0
  0
VERTEX
  5
380
  8
FLOORPLATE$T1$221111V1
 10
234.0
 20
-140.0
 30
0.0
  0
VERTEX
  5
381
  8
FLOORPLATE$T1$221111V1
 10
224.0
 20
-140.0
 30
0.0
  0
VERTEX
  5
382
  8
FLOORPLATE$T1$221111V1
 10
224.0
 20
-135.0
 30
0.0
  0
VERTEX
  5
383
  8
FLOORPLATE$T1$221111V1
 10
229.0
 20
-135.0
 30
0.0
  0
SEQEND
  5
384
  8
FLOORPLATE$T1$221111V1
  0
POLYLINE
  5
386
  8
FLOORPLATE$T1$221111V2
 66
     1
 10
0.0
 20
0.0
 30
0.0
 70
     1
  0
VERTEX
  5
387
  8
FLOORPLATE$T1$221111V2
 10
247.0
 20
-130.0
 30
0.0
  0
VERTEX
  5
388
  8
FLOORPLATE$T1$221111V2
 10
247.0
 20
-125.0
 30
0.0
  0
VERTEX
  5
389
  8
FLOORPLATE$T1$221111V2
 10
257.0
 20
-125.0
 30
0.0
  0
VERTEX
  5
38A
  8
FLOORPLATE$T1$221111V2
 10
257.0
 20
-135.0
 30
0.0
  0
VERTEX
  5
38B
  8
FLOORPLATE$T1$221111V2
 10
252.0
 20
-135.0
 30
0.0
  0
VERTEX
  5
38C
  8
FLOORPLATE$T1$221111V2
 10
252.0
 20
-130.0
 30
0.0
  0
SEQEND
  5
38D
  8
FLOORPLATE$T1$221111V2
  0
POLYLINE
  5
38E
  8
FLOORPLATE$T1$221111V2
 66
     1
 10
0.0
 20
0.0
 30
0.0
 70
     1
  0
VERTEX
  5
38F
  8
FLOORPLATE$T1$221111V2
 10
267.0
 20
-140.0
 30
0.0
  0
VERTEX
  5
390
  8
FLOORPLATE$T1$221111V2
 10
267.0
 20
-125.0
 30
0.0
  0
VERTEX
  5
391
  8
FLOORPLATE$T1$221111V2
 10
257.0
 20
-125.0
 30
0.0
  0
VERTEX
  5
392
  8
FLOORPLATE$T1$221111V2
 10
257.0
 20
-140.0
 30
0.0
  0
SEQEND
  5
393
  8
FLOORPLATE$T1$221111V2
  0
TEXT
  5
394
  8
FLOORPLATE$T1$221111V2
  6
CONTINUOUS
 10
259.4636546184739
 20
-146.8391927710844
 30
0.0
 40
1.0
  1
2BED
 50
89.99999999999994
  0
POLYLINE
  5
395
  8
FLOORPLATE$T1$221111V2
 66
     1
 10
0.0
 20
0.0
 30
0.0
 70
     1
  0
VERTEX
  5
396
  8
FLOORPLATE$T1$221111V2
 10
252.0
 20
-135.0
 30
0.0
  0
VERTEX
  5
397
  8
FLOORPLATE$T1$221111V2
 10
252.0
 20
-130.0
 30
0.0
  0
VERTEX
  5
398
  8
FLOORPLATE$T1$221111V2
 10
247.0
 20
-130.0
 30
0.0
  0
VERTEX
  5
399
  8
FLOORPLATE$T1$221111V2
 10
247.0
 20
-125.0
 30
0.0
  0
VERTEX
  5
39A
  8
FLOORPLATE$T1$221111V2
 10
242.0
 20
-125.0
 30
0.0
  0
VERTEX
  5
39B
  8
FLOORPLATE$T1$221111V2
 10
242.0
 20
-135.0
 30
0.0
  0
SEQEND
  5
39C
  8
FLOORPLATE$T1$221111V2
  0
LINE
  5
39D
  8
FLOORPLATE$T1$221111V2
 10
246.8494689559905
 20
-148.7365207926917
 30
0.0
 11
246.8494689559905
 21
-151.111092886679
 31
0.0
  0
LINE
  5
39E
  8
FLOORPLATE$T1$221111V2
 10
254.3597434858107
 20
-148.7365207926917
 30
0.0
 11
254.3597434858107
 21
-151.111092886679
 31
0.0
  0
LINE
  5
39F
  8
FLOORPLATE$T1$221111V2
 10
262.3670214771631
 20
-148.7365207926917
 30
0.0
 11
262.3670214771631
 21
-151.111092886679
 31
0.0
  0
LINE
  5
3A0
  8
FLOORPLATE$T1$221111V2
 10
240.7365207926917
 20
-129.6329785228369
 30
0.0
 11
243.111092886679
 21
-129.6329785228369
 31
0.0
  0
LINE
  5
3A1
  8
FLOORPLATE$T1$221111V2
 10
240.7365207926917
 20
-137.6402565141893
 30
0.0
 11
243.111092886679
 21
-137.6402565141893
 31
0.0
  0
LINE
  5
3A2
  8
FLOORPLATE$T1$221111V2
 10
240.7365207926917
 20
-145.1505310440095
 30
0.0
 11
243.111092886679
 21
-145.1505310440095
 31
0.0
  0
LINE
  5
3A3
  8
FLOORPLATE$T1$221111V2
 10
268.2634792073083
 20
-145.3670214771631
 30
0.0
 11
265.888907113321
 21
-145.3670214771631
 31
0.0
  0
LINE
  5
3A4
  8
FLOORPLATE$T1$221111V2
 10
268.2634792073083
 20
-137.3597434858107
 30
0.0
 11
265.888907113321
 21
-137.3597434858107
 31
0.0
  0
LINE
  5
3A5
  8
FLOORPLATE$T1$221111V2
 10
268.2634792073084
 20
-129.8494689559905
 30
0.0
 11
265.888907113321
 21
-129.8494689559905
 31
0.0
  0
LINE
  5
3A6
  8
FLOORPLATE$T1$221111V2
 10
262.1505310440095
 20
-126.2634792073083
 30
0.0
 11
262.1505310440095
 21
-123.888907113321
 31
0.0
  0
LINE
  5
3A7
  8
FLOORPLATE$T1$221111V2
 10
254.6402565141893
 20
-126.2634792073083
 30
0.0
 11
254.6402565141893
 21
-123.888907113321
 31
0.0
  0
LINE
  5
3A8
  8
FLOORPLATE$T1$221111V2
 10
246.6329785228369
 20
-126.2634792073083
 30
0.0
 11
246.6329785228369
 21
-123.888907113321
 31
0.0
  0
POLYLINE
  5
3A9
  8
FLOORPLATE$T1$221111V2
 66
     1
 10
0.0
 20
0.0
 30
0.0
 70
     1
  0
VERTEX
  5
3AA
  8
FLOORPLATE$T1$221111V2
 10
257.0
 20
-140.0
 30
0.0
  0
VERTEX
  5
3AB
  8
FLOORPLATE$T1$221111V2
 10
257.0
 20
-135.0
 30
0.0
  0
VERTEX
  5
3AC
  8
FLOORPLATE$T1$221111V2
 10
252.0
 20
-135.0
 30
0.0
  0
VERTEX
  5
3AD
  8
FLOORPLATE$T1$221111V2
 10
252.0
 20
-140.0
 30
0.0
  0
SEQEND
  5
3AE
  8
FLOORPLATE$T1$221111V2
  0
TEXT
  5
3AF
  8
FLOORPLATE$T1$221111V2
  6
CONTINUOUS
 10
263.4636546184739
 20
-134.8391927710844
 30
0.0
 40
1.0
  1
2BED
 50
89.99999999999994
  0
TEXT
  5
3B0
  8
FLOORPLATE$T1$221111V2
  6
CONTINUOUS
 10
244.9666666666667
 20
-132.152
 30
0.0
 40
1.0
  1
1BED
 50
89.99999999999994
  0
TEXT
  5
3B1
  8
FLOORPLATE$T1$221111V2
  6
CONTINUOUS
 10
254.4636546184739
 20
-132.0044096385542
 30
0.0
 40
1.0
  1
1BED
 50
89.99999999999994
  0
TEXT
  5
3B2
  8
FLOORPLATE$T1$221111V2
  6
CONTINUOUS
 10
249.0044096385542
 20
-137.5363453815261
 30
0.0
 40
1.0
  1
1BED
 50
180.0
  0
TEXT
  5
3B3
  8
FLOORPLATE$T1$221111V2
  6
CONTINUOUS
 10
249.152
 20
-147.0333333333333
 30
0.0
 40
1.0
  1
1BED
 50
180.0
  0
POLYLINE
  5
3B4
  8
FLOORPLATE$T1$221111V2
 66
     1
 10
0.0
 20
0.0
 30
0.0
 70
     1
  0
VERTEX
  5
3B5
  8
FLOORPLATE$T1$221111V2
 10
252.0
 20
-140.0
 30
0.0
  0
VERTEX
  5
3B6
  8
FLOORPLATE$T1$221111V2
 10
247.0
 20
-140.0
 30
0.0
  0
VERTEX
  5
3B7
  8
FLOORPLATE$T1$221111V2
 10
247.0
 20
-145.0
 30
0.0
  0
VERTEX
  5
3B8
  8
FLOORPLATE$T1$221111V2
 10
242.0
 20
-145.0
 30
0.0
  0
VERTEX
  5
3B9
  8
FLOORPLATE$T1$221111V2
 10
242.0
 20
-150.0
 30
0.0
  0
VERTEX
  5
3BA
  8
FLOORPLATE$T1$221111V2
 10
252.0
 20
-150.0
 30
0.0
  0
SEQEND
  5
3BB
  8
FLOORPLATE$T1$221111V2
  0
POLYLINE
  5
3BC
  8
FLOORPLATE$T1$221111V2
 66
     1
 10
0.0
 20
0.0
 30
0.0
 70
     1
  0
VERTEX
  5
3BD
  8
FLOORPLATE$T1$221111V2
 10
247.0
 20
-145.0
 30
0.0
  0
VERTEX
  5
3BE
  8
FLOORPLATE$T1$221111V2
 10
242.0
 20
-145.0
 30
0.0
  0
VERTEX
  5
3BF
  8
FLOORPLATE$T1$221111V2
 10
242.0
 20
-135.0
 30
0.0
  0
VERTEX
  5
3C0
  8
FLOORPLATE$T1$221111V2
 10
252.0
 20
-135.0
 30
0.0
  0
VERTEX
  5
3C1
  8
FLOORPLATE$T1$221111V2
 10
252.0
 20
-140.0
 30
0.0
  0
VERTEX
  5
3C2
  8
FLOORPLATE$T1$221111V2
 10
247.0
 20
-140.0
 30
0.0
  0
SEQEND
  5
3C3
  8
FLOORPLATE$T1$221111V2
  0
POLYLINE
  5
3C4
  8
FLOORPLATE$T1$221111V2
 66
     1
 10
0.0
 20
0.0
 30
0.0
 70
     1
  0
VERTEX
  5
3C5
  8
FLOORPLATE$T1$221111V2
 10
267.0
 20
-150.0
 30
0.0
  0
VERTEX
  5
3C6
  8
FLOORPLATE$T1$221111V2
 10
267.0
 20
-140.0
 30
0.0
  0
VERTEX
  5
3C7
  8
FLOORPLATE$T1$221111V2
 10
252.0
 20
-140.0
 30
0.0
  0
VERTEX
  5
3C8
  8
FLOORPLATE$T1$221111V2
 10
252.0
 20
-150.0
 30
0.0
  0
SEQEND
  5
3C9
  8
FLOORPLATE$T1$221111V2
  0
POLYLINE
  5
3CB
  8
FLOORPLATE$T1$221111V3
 66
     1
 10
0.0
 20
0.0
 30
0.0
 70
     1
  0
VERTEX
  5
3CC
  8
FLOORPLATE$T1$221111V3
 10
300.0
 20
-125.0
 30
0.0
  0
VERTEX
  5
3CD
  8
FLOORPLATE$T1$221111V3
 10
290.0
 20
-125.0
 30
0.0
  0
VERTEX
  5
3CE
  8
FLOORPLATE$T1$221111V3
 10
290.0
 20
-140.0
 30
0.0
  0
VERTEX
  5
3CF
  8
FLOORPLATE$T1$221111V3
 10
300.0
 20
-140.0
 30
0.0
  0
SEQEND
  5
3D0
  8
FLOORPLATE$T1$221111V3
  0
POLYLINE
  5
3D1
  8
FLOORPLATE$T1$221111V3
 66
     1
 10
0.0
 20
0.0
 30
0.0
 70
     1
  0
VERTEX
  5
3D2
  8
FLOORPLATE$T1$221111V3
 10
295.0
 20
-145.0
 30
0.0
  0
VERTEX
  5
3D3
  8
FLOORPLATE$T1$221111V3
 10
295.0
 20
-150.0
 30
0.0
  0
VERTEX
  5
3D4
  8
FLOORPLATE$T1$221111V3
 10
285.0
 20
-150.0
 30
0.0
  0
VERTEX
  5
3D5
  8
FLOORPLATE$T1$221111V3
 10
285.0
 20
-140.0
 30
0.0
  0
VERTEX
  5
3D6
  8
FLOORPLATE$T1$221111V3
 10
290.0
 20
-140.0
 30
0.0
  0
VERTEX
  5
3D7
  8
FLOORPLATE$T1$221111V3
 10
290.0
 20
-145.0
 30
0.0
  0
SEQEND
  5
3D8
  8
FLOORPLATE$T1$221111V3
  0
POLYLINE
  5
3D9
  8
FLOORPLATE$T1$221111V3
 66
     1
 10
0.0
 20
0.0
 30
0.0
 70
     1
  0
VERTEX
  5
3DA
  8
FLOORPLATE$T1$221111V3
 10
290.0
 20
-140.0
 30
0.0
  0
VERTEX
  5
3DB
  8
FLOORPLATE$T1$221111V3
 10
290.0
 20
-145.0
 30
0.0
  0
VERTEX
  5
3DC
  8
FLOORPLATE$T1$221111V3
 10
295.0
 20
-145.0
 30
0.0
  0
VERTEX
  5
3DD
  8
FLOORPLATE$T1$221111V3
 10
295.0
 20
-150.0
 30
0.0
  0
VERTEX
  5
3DE
  8
FLOORPLATE$T1$221111V3
 10
300.0
 20
-150.0
 30
0.0
  0
VERTEX
  5
3DF
  8
FLOORPLATE$T1$221111V3
 10
300.0
 20
-140.0
 30
0.0
  0
SEQEND
  5
3E0
  8
FLOORPLATE$T1$221111V3
  0
TEXT
  5
3E1
  8
FLOORPLATE$T1$221111V3
  6
CONTINUOUS
 10
297.0333333333333
 20
-142.848
 30
0.0
 40
1.0
  1
1BED
 50
269.9999999999999
  0
TEXT
  5
3E2
  8
FLOORPLATE$T1$221111V3
  6
CONTINUOUS
 10
287.5363453815261
 20
-142.9955903614459
 30
0.0
 40
1.0
  1
1BED
 50
269.9999999999999
  0
TEXT
  5
3E3
  8
FLOORPLATE$T1$221111V3
  6
CONTINUOUS
 10
282.0044096385542
 20
-137.5363453815261
 30
0.0
 40
1.0
  1
1BED
 50
180.0
  0
TEXT
  5
3E4
  8
FLOORPLATE$T1$221111V3
  6
CONTINUOUS
 10
282.152
 20
-147.0333333333333
 30
0.0
 40
1.0
  1
1BED
 50
180.0
  0
TEXT
  5
3E5
  8
FLOORPLATE$T1$221111V3
  6
CONTINUOUS
 10
284.8391927710844
 20
-128.5363453815261
 30
0.0
 40
1.0
  1
2BED
 50
180.0
  0
POLYLINE
  5
3E6
  8
FLOORPLATE$T1$221111V3
 66
     1
 10
0.0
 20
0.0
 30
0.0
 70
     1
  0
VERTEX
  5
3E7
  8
FLOORPLATE$T1$221111V3
 10
290.0
 20
-135.0
 30
0.0
  0
VERTEX
  5
3E8
  8
FLOORPLATE$T1$221111V3
 10
285.0
 20
-135.0
 30
0.0
  0
VERTEX
  5
3E9
  8
FLOORPLATE$T1$221111V3
 10
285.0
 20
-140.0
 30
0.0
  0
VERTEX
  5
3EA
  8
FLOORPLATE$T1$221111V3
 10
290.0
 20
-140.0
 30
0.0
  0
SEQEND
  5
3EB
  8
FLOORPLATE$T1$221111V3
  0
LINE
  5
3EC
  8
FLOORPLATE$T1$221111V3
 10
276.2634792073083
 20
-145.3670214771632
 30
0.0
 11
273.888907113321
 21
-145.3670214771632
 31
0.0
  0
LINE
  5
3ED
  8
FLOORPLATE$T1$221111V3
 10
276.2634792073083
 20
-137.3597434858107
 30
0.0
 11
273.888907113321
 21
-137.3597434858107
 31
0.0
  0
LINE
  5
3EE
  8
FLOORPLATE$T1$221111V3
 10
276.2634792073083
 20
-129.8494689559905
 30
0.0
 11
273.888907113321
 21
-129.8494689559905
 31
0.0
  0
LINE
  5
3EF
  8
FLOORPLATE$T1$221111V3
 10
279.8494689559905
 20
-123.7365207926916
 30
0.0
 11
279.8494689559905
 21
-126.111092886679
 31
0.0
  0
LINE
  5
3F0
  8
FLOORPLATE$T1$221111V3
 10
287.3597434858107
 20
-123.7365207926917
 30
0.0
 11
287.3597434858107
 21
-126.111092886679
 31
0.0
  0
LINE
  5
3F1
  8
FLOORPLATE$T1$221111V3
 10
295.3670214771631
 20
-123.7365207926917
 30
0.0
 11
295.3670214771631
 21
-126.111092886679
 31
0.0
  0
LINE
  5
3F2
  8
FLOORPLATE$T1$221111V3
 10
295.1505310440095
 20
-151.2634792073084
 30
0.0
 11
295.1505310440095
 21
-148.888907113321
 31
0.0
  0
LINE
  5
3F3
  8
FLOORPLATE$T1$221111V3
 10
287.6402565141893
 20
-151.2634792073083
 30
0.0
 11
287.6402565141893
 21
-148.888907113321
 31
0.0
  0
LINE
  5
3F4
  8
FLOORPLATE$T1$221111V3
 10
279.6329785228369
 20
-151.2634792073083
 30
0.0
 11
279.6329785228369
 21
-148.888907113321
 31
0.0
  0
LINE
  5
3F5
  8
FLOORPLATE$T1$221111V3
 10
298.7365207926917
 20
-129.6329785228369
 30
0.0
 11
301.111092886679
 21
-129.6329785228369
 31
0.0
  0
LINE
  5
3F6
  8
FLOORPLATE$T1$221111V3
 10
298.7365207926917
 20
-137.6402565141893
 30
0.0
 11
301.111092886679
 21
-137.6402565141893
 31
0.0
  0
LINE
  5
3F7
  8
FLOORPLATE$T1$221111V3
 10
298.7365207926917
 20
-145.1505310440095
 30
0.0
 11
301.111092886679
 21
-145.1505310440095
 31
0.0
  0
POLYLINE
  5
3F8
  8
FLOORPLATE$T1$221111V3
 66
     1
 10
0.0
 20
0.0
 30
0.0
 70
     1
  0
VERTEX
  5
3F9
  8
FLOORPLATE$T1$221111V3
 10
285.0
 20
-140.0
 30
0.0
  0
VERTEX
  5
3FA
  8
FLOORPLATE$T1$221111V3
 10
280.0
 20
-140.0
 30
0.0
  0
VERTEX
  5
3FB
  8
FLOORPLATE$T1$221111V3
 10
280.0
 20
-145.0
 30
0.0
  0
VERTEX
  5
3FC
  8
FLOORPLATE$T1$221111V3
 10
275.0
 20
-145.0000000000001
 30
0.0
  0
VERTEX
  5
3FD
  8
FLOORPLATE$T1$221111V3
 10
275.0
 20
-150.0000000000001
 30
0.0
  0
VERTEX
  5
3FE
  8
FLOORPLATE$T1$221111V3
 10
285.0
 20
-150.0
 30
0.0
  0
SEQEND
  5
3FF
  8
FLOORPLATE$T1$221111V3
  0
TEXT
  5
400
  8
FLOORPLATE$T1$221111V3
  6
CONTINUOUS
 10
296.8391927710844
 20
-132.5363453815261
 30
0.0
 40
1.0
  1
2BED
 50
180.0
  0
POLYLINE
  5
401
  8
FLOORPLATE$T1$221111V3
 66
     1
 10
0.0
 20
0.0
 30
0.0
 70
     1
  0
VERTEX
  5
402
  8
FLOORPLATE$T1$221111V3
 10
290.0
 20
-125.0
 30
0.0
  0
VERTEX
  5
403
  8
FLOORPLATE$T1$221111V3
 10
275.0
 20
-125.0000000000001
 30
0.0
  0
VERTEX
  5
404
  8
FLOORPLATE$T1$221111V3
 10
275.0
 20
-135.0000000000001
 30
0.0
  0
VERTEX
  5
405
  8
FLOORPLATE$T1$221111V3
 10
290.0
 20
-135.0
 30
0.0
  0
SEQEND
  5
406
  8
FLOORPLATE$T1$221111V3
  0
POLYLINE
  5
407
  8
FLOORPLATE$T1$221111V3
 66
     1
 10
0.0
 20
0.0
 30
0.0
 70
     1
  0
VERTEX
  5
408
  8
FLOORPLATE$T1$221111V3
 10
280.0
 20
-145.0
 30
0.0
  0
VERTEX
  5
409
  8
FLOORPLATE$T1$221111V3
 10
275.0
 20
-145.0000000000001
 30
0.0
  0
VERTEX
  5
40A
  8
FLOORPLATE$T1$221111V3
 10
275.0
 20
-135.0000000000001
 30
0.0
  0
VERTEX
  5
40B
  8
FLOORPLATE$T1$221111V3
 10
285.0
 20
-135.0
 30
0.0
  0
VERTEX
  5
40C
  8
FLOORPLATE$T1$221111V3
 10
285.0
 20
-140.0
 30
0.0
  0
VERTEX
  5
40D
  8
FLOORPLATE$T1$221111V3
 10
280.0
 20
-140.0
 30
0.0
  0
SEQEND
  5
40E
  8
FLOORPLATE$T1$221111V3
  0
POLYLINE
  5
410
  8
FLOORPLATE$T1$221111V4
 66
     1
 10
0.0
 20
0.0
 30
0.0
 70
     1
  0
VERTEX
  5
411
  8
FLOORPLATE$T1$221111V4
 10
328.0
 20
-145.0
 30
0.0
  0
VERTEX
  5
412
  8
FLOORPLATE$T1$221111V4
 10
328.0
 20
-150.0
 30
0.0
  0
VERTEX
  5
413
  8
FLOORPLATE$T1$221111V4
 10
318.0
 20
-149.9999999999999
 30
0.0
  0
VERTEX
  5
414
  8
FLOORPLATE$T1$221111V4
 10
318.0
 20
-139.9999999999999
 30
0.0
  0
VERTEX
  5
415
  8
FLOORPLATE$T1$221111V4
 10
323.0
 20
-140.0
 30
0.0
  0
VERTEX
  5
416
  8
FLOORPLATE$T1$221111V4
 10
323.0
 20
-145.0
 30
0.0
  0
SEQEND
  5
417
  8
FLOORPLATE$T1$221111V4
  0
POLYLINE
  5
418
  8
FLOORPLATE$T1$221111V4
 66
     1
 10
0.0
 20
0.0
 30
0.0
 70
     1
  0
VERTEX
  5
419
  8
FLOORPLATE$T1$221111V4
 10
308.0
 20
-134.9999999999999
 30
0.0
  0
VERTEX
  5
41A
  8
FLOORPLATE$T1$221111V4
 10
308.0
 20
-149.9999999999999
 30
0.0
  0
VERTEX
  5
41B
  8
FLOORPLATE$T1$221111V4
 10
318.0
 20
-149.9999999999999
 30
0.0
  0
VERTEX
  5
41C
  8
FLOORPLATE$T1$221111V4
 10
318.0
 20
-134.9999999999999
 30
0.0
  0
SEQEND
  5
41D
  8
FLOORPLATE$T1$221111V4
  0
TEXT
  5
41E
  8
FLOORPLATE$T1$221111V4
  6
CONTINUOUS
 10
315.5363453815261
 20
-128.1608072289156
 30
0.0
 40
1.0
  1
2BED
 50
269.9999999999998
  0
POLYLINE
  5
41F
  8
FLOORPLATE$T1$221111V4
 66
     1
 10
0.0
 20
0.0
 30
0.0
 70
     1
  0
VERTEX
  5
420
  8
FLOORPLATE$T1$221111V4
 10
323.0
 20
-140.0
 30
0.0
  0
VERTEX
  5
421
  8
FLOORPLATE$T1$221111V4
 10
323.0
 20
-145.0
 30
0.0
  0
VERTEX
  5
422
  8
FLOORPLATE$T1$221111V4
 10
328.0
 20
-145.0
 30
0.0
  0
VERTEX
  5
423
  8
FLOORPLATE$T1$221111V4
 10
328.0
 20
-150.0
 30
0.0
  0
VERTEX
  5
424
  8
FLOORPLATE$T1$221111V4
 10
333.0
 20
-150.0
 30
0.0
  0
VERTEX
  5
425
  8
FLOORPLATE$T1$221111V4
 10
333.0
 20
-140.0
 30
0.0
  0
SEQEND
  5
426
  8
FLOORPLATE$T1$221111V4
  0
LINE
  5
427
  8
FLOORPLATE$T1$221111V4
 10
328.1505310440095
 20
-126.2634792073083
 30
0.0
 11
328.1505310440095
 21
-123.888907113321
 31
0.0
  0
LINE
  5
428
  8
FLOORPLATE$T1$221111V4
 10
320.6402565141893
 20
-126.2634792073083
 30
0.0
 11
320.6402565141893
 21
-123.888907113321
 31
0.0
  0
LINE
  5
429
  8
FLOORPLATE$T1$221111V4
 10
312.6329785228369
 20
-126.2634792073082
 30
0.0
 11
312.6329785228369
 21
-123.888907113321
 31
0.0
  0
LINE
  5
42A
  8
FLOORPLATE$T1$221111V4
 10
334.2634792073083
 20
-145.3670214771631
 30
0.0
 11
331.888907113321
 21
-145.3670214771631
 31
0.0
  0
LINE
  5
42B
  8
FLOORPLATE$T1$221111V4
 10
334.2634792073083
 20
-137.3597434858107
 30
0.0
 11
331.888907113321
 21
-137.3597434858107
 31
0.0
  0
LINE
  5
42C
  8
FLOORPLATE$T1$221111V4
 10
334.2634792073084
 20
-129.8494689559905
 30
0.0
 11
331.888907113321
 21
-129.8494689559905
 31
0.0
  0
LINE
  5
42D
  8
FLOORPLATE$T1$221111V4
 10
306.7365207926917
 20
-129.6329785228368
 30
0.0
 11
309.111092886679
 21
-129.6329785228368
 31
0.0
  0
LINE
  5
42E
  8
FLOORPLATE$T1$221111V4
 10
306.7365207926917
 20
-137.6402565141892
 30
0.0
 11
309.111092886679
 21
-137.6402565141892
 31
0.0
  0
LINE
  5
42F
  8
FLOORPLATE$T1$221111V4
 10
306.7365207926916
 20
-145.1505310440095
 30
0.0
 11
309.111092886679
 21
-145.1505310440095
 31
0.0
  0
LINE
  5
430
  8
FLOORPLATE$T1$221111V4
 10
312.8494689559905
 20
-148.7365207926916
 30
0.0
 11
312.8494689559905
 21
-151.1110928866789
 31
0.0
  0
LINE
  5
431
  8
FLOORPLATE$T1$221111V4
 10
320.3597434858107
 20
-148.7365207926916
 30
0.0
 11
320.3597434858107
 21
-151.1110928866789
 31
0.0
  0
LINE
  5
432
  8
FLOORPLATE$T1$221111V4
 10
328.3670214771631
 20
-148.7365207926917
 30
0.0
 11
328.3670214771631
 21
-151.111092886679
 31
0.0
  0
POLYLINE
  5
433
  8
FLOORPLATE$T1$221111V4
 66
     1
 10
0.0
 20
0.0
 30
0.0
 70
     1
  0
VERTEX
  5
434
  8
FLOORPLATE$T1$221111V4
 10
318.0
 20
-134.9999999999999
 30
0.0
  0
VERTEX
  5
435
  8
FLOORPLATE$T1$221111V4
 10
318.0
 20
-139.9999999999999
 30
0.0
  0
VERTEX
  5
436
  8
FLOORPLATE$T1$221111V4
 10
323.0
 20
-140.0
 30
0.0
  0
VERTEX
  5
437
  8
FLOORPLATE$T1$221111V4
 10
323.0
 20
-135.0
 30
0.0
  0
SEQEND
  5
438
  8
FLOORPLATE$T1$221111V4
  0
TEXT
  5
439
  8
FLOORPLATE$T1$221111V4
  6
CONTINUOUS
 10
311.5363453815261
 20
-140.1608072289156
 30
0.0
 40
1.0
  1
2BED
 50
269.9999999999998
  0
TEXT
  5
43A
  8
FLOORPLATE$T1$221111V4
  6
CONTINUOUS
 10
330.0333333333333
 20
-142.848
 30
0.0
 40
1.0
  1
1BED
 50
269.9999999999998
  0
TEXT
  5
43B
  8
FLOORPLATE$T1$221111V4
  6
CONTINUOUS
 10
320.5363453815261
 20
-142.9955903614458
 30
0.0
 40
1.0
  1
1BED
 50
269.9999999999998
  0
TEXT
  5
43C
  8
FLOORPLATE$T1$221111V4
  6
CONTINUOUS
 10
325.9955903614459
 20
-137.4636546184739
 30
0.0
 40
1.0
  1
1BED
  0
TEXT
  5
43D
  8
FLOORPLATE$T1$221111V4
  6
CONTINUOUS
 10
325.848
 20
-127.9666666666667
 30
0.0
 40
1.0
  1
1BED
  0
POLYLINE
  5
43E
  8
FLOORPLATE$T1$221111V4
 66
     1
 10
0.0
 20
0.0
 30
0.0
 70
     1
  0
VERTEX
  5
43F
  8
FLOORPLATE$T1$221111V4
 10
323.0
 20
-135.0
 30
0.0
  0
VERTEX
  5
440
  8
FLOORPLATE$T1$221111V4
 10
328.0
 20
-135.0
 30
0.0
  0
VERTEX
  5
441
  8
FLOORPLATE$T1$221111V4
 10
328.0
 20
-130.0
 30
0.0
  0
VERTEX
  5
442
  8
FLOORPLATE$T1$221111V4
 10
333.0
 20
-130.0
 30
0.0
  0
VERTEX
  5
443
  8
FLOORPLATE$T1$221111V4
 10
333.0
 20
-125.0
 30
0.0
  0
VERTEX
  5
444
  8
FLOORPLATE$T1$221111V4
 10
323.0
 20
-125.0
 30
0.0
  0
SEQEND
  5
445
  8
FLOORPLATE$T1$221111V4
  0
POLYLINE
  5
446
  8
FLOORPLATE$T1$221111V4
 66
     1
 10
0.0
 20
0.0
 30
0.0
 70
     1
  0
VERTEX
  5
447
  8
FLOORPLATE$T1$221111V4
 10
328.0
 20
-130.0
 30
0.0
  0
VERTEX
  5
448
  8
FLOORPLATE$T1$221111V4
 10
333.0
 20
-130.0
 30
0.0
  0
VERTEX
  5
449
  8
FLOORPLATE$T1$221111V4
 10
333.0
 20
-140.0
 30
0.0
  0
VERTEX
  5
44A
  8
FLOORPLATE$T1$221111V4
 10
323.0
 20
-140.0
 30
0.0
  0
VERTEX
  5
44B
  8
FLOORPLATE$T1$221111V4
 10
323.0
 20
-135.0
 30
0.0
  0
VERTEX
  5
44C
  8
FLOORPLATE$T1$221111V4
 10
328.0
 20
-135.0
 30
0.0
  0
SEQEND
  5
44D
  8
FLOORPLATE$T1$221111V4
  0
POLYLINE
  5
44E
  8
FLOORPLATE$T1$221111V4
 66
     1
 10
0.0
 20
0.0
 30
0.0
 70
     1
  0
VERTEX
  5
44F
  8
FLOORPLATE$T1$221111V4
 10
308.0
 20
-124.9999999999999
 30
0.0
  0
VERTEX
  5
450
  8
FLOORPLATE$T1$221111V4
 10
308.0
 20
-134.9999999999999
 30
0.0
  0
VERTEX
  5
451
  8
FLOORPLATE$T1$221111V4
 10
323.0
 20
-135.0
 30
0.0
  0
VERTEX
  5
452
  8
FLOORPLATE$T1$221111V4
 10
323.0
 20
-125.0
 30
0.0
  0
SEQEND
  5
453
  8
FLOORPLATE$T1$221111V4
  0
POINT
  5
454
  8
FLOORPLATE$T1$221111V2
 10
252.0
 20
-140.0
 30
0.0
  0
POINT
  5
455
  8
FLOORPLATE$T1$221111V3
 10
285.0
 20
-140.0
 30
0.0
  0
POINT
  5
456
  8
FLOORPLATE$T1$221111V4
 10
318.0
 20
-139.9999999999999
 30
0.0
  0
POLYLINE
  5
458
  8
FLOORPLATE$T1$2111111V1
 66
     1
 10
0.0
 20
0.0
 30
0.0
 70
     1
  0
VERTEX
  5
459
  8
FLOORPLATE$T1$2111111V1
 10
214.0
 20
-162.0
 30
0.0
  0
VERTEX
  5
45A
  8
FLOORPLATE$T1$2111111V1
 10
214.0
 20
-157.0
 30
0.0
  0
VERTEX
  5
45B
  8
FLOORPLATE$T1$2111111V1
 10
224.0
 20
-157.0
 30
0.0
  0
VERTEX
  5
45C
  8
FLOORPLATE$T1$2111111V1
 10
224.0
 20
-167.0
 30
0.0
  0
VERTEX
  5
45D
  8
FLOORPLATE$T1$2111111V1
 10
219.0
 20
-167.0
 30
0.0
  0
VERTEX
  5
45E
  8
FLOORPLATE$T1$2111111V1
 10
219.0
 20
-162.0
 30
0.0
  0
SEQEND
  5
45F
  8
FLOORPLATE$T1$2111111V1
  0
POLYLINE
  5
460
  8
FLOORPLATE$T1$2111111V1
 66
     1
 10
0.0
 20
0.0
 30
0.0
 70
     1
  0
VERTEX
  5
461
  8
FLOORPLATE$T1$2111111V1
 10
219.0
 20
-167.0
 30
0.0
  0
VERTEX
  5
462
  8
FLOORPLATE$T1$2111111V1
 10
219.0
 20
-162.0
 30
0.0
  0
VERTEX
  5
463
  8
FLOORPLATE$T1$2111111V1
 10
214.0
 20
-162.0
 30
0.0
  0
VERTEX
  5
464
  8
FLOORPLATE$T1$2111111V1
 10
214.0
 20
-157.0
 30
0.0
  0
VERTEX
  5
465
  8
FLOORPLATE$T1$2111111V1
 10
209.0
 20
-157.0
 30
0.0
  0
VERTEX
  5
466
  8
FLOORPLATE$T1$2111111V1
 10
209.0
 20
-167.0
 30
0.0
  0
SEQEND
  5
467
  8
FLOORPLATE$T1$2111111V1
  0
TEXT
  5
468
  8
FLOORPLATE$T1$2111111V1
  6
CONTINUOUS
 10
211.9666666666667
 20
-164.152
 30
0.0
 40
1.0
  1
1BED
 50
90.0
  0
TEXT
  5
469
  8
FLOORPLATE$T1$2111111V1
  6
CONTINUOUS
 10
221.4636546184739
 20
-164.0044096385542
 30
0.0
 40
1.0
  1
1BED
 50
90.0
  0
TEXT
  5
46A
  8
FLOORPLATE$T1$2111111V1
  6
CONTINUOUS
 10
226.9955903614458
 20
-169.4636546184739
 30
0.0
 40
1.0
  1
1BED
  0
TEXT
  5
46B
  8
FLOORPLATE$T1$2111111V1
  6
CONTINUOUS
 10
226.848
 20
-159.9666666666667
 30
0.0
 40
1.0
  1
1BED
  0
POINT
  5
46C
  8
FLOORPLATE$T1$2111111V1
 10
219.0
 20
-172.0
 30
0.0
  0
LINE
  5
46D
  8
FLOORPLATE$T1$2111111V1
 10
232.7365207926917
 20
-161.6329785228369
 30
0.0
 11
235.111092886679
 21
-161.6329785228369
 31
0.0
  0
LINE
  5
46E
  8
FLOORPLATE$T1$2111111V1
 10
232.7365207926917
 20
-169.6402565141893
 30
0.0
 11
235.111092886679
 21
-169.6402565141893
 31
0.0
  0
LINE
  5
46F
  8
FLOORPLATE$T1$2111111V1
 10
232.7365207926917
 20
-177.1505310440095
 30
0.0
 11
235.111092886679
 21
-177.1505310440095
 31
0.0
  0
LINE
  5
470
  8
FLOORPLATE$T1$2111111V1
 10
229.1505310440095
 20
-183.2634792073083
 30
0.0
 11
229.1505310440095
 21
-180.888907113321
 31
0.0
  0
LINE
  5
471
  8
FLOORPLATE$T1$2111111V1
 10
221.6402565141893
 20
-183.2634792073083
 30
0.0
 11
221.6402565141893
 21
-180.888907113321
 31
0.0
  0
LINE
  5
472
  8
FLOORPLATE$T1$2111111V1
 10
213.6329785228369
 20
-183.2634792073083
 30
0.0
 11
213.6329785228369
 21
-180.888907113321
 31
0.0
  0
LINE
  5
473
  8
FLOORPLATE$T1$2111111V1
 10
213.8494689559905
 20
-155.7365207926917
 30
0.0
 11
213.8494689559905
 21
-158.111092886679
 31
0.0
  0
LINE
  5
474
  8
FLOORPLATE$T1$2111111V1
 10
221.3597434858107
 20
-155.7365207926917
 30
0.0
 11
221.3597434858107
 21
-158.111092886679
 31
0.0
  0
LINE
  5
475
  8
FLOORPLATE$T1$2111111V1
 10
229.3670214771631
 20
-155.7365207926917
 30
0.0
 11
229.3670214771631
 21
-158.111092886679
 31
0.0
  0
LINE
  5
476
  8
FLOORPLATE$T1$2111111V1
 10
210.2634792073083
 20
-177.3670214771631
 30
0.0
 11
207.888907113321
 21
-177.3670214771631
 31
0.0
  0
LINE
  5
477
  8
FLOORPLATE$T1$2111111V1
 10
210.2634792073083
 20
-169.3597434858107
 30
0.0
 11
207.888907113321
 21
-169.3597434858107
 31
0.0
  0
LINE
  5
478
  8
FLOORPLATE$T1$2111111V1
 10
210.2634792073083
 20
-161.8494689559905
 30
0.0
 11
207.888907113321
 21
-161.8494689559905
 31
0.0
  0
POLYLINE
  5
479
  8
FLOORPLATE$T1$2111111V1
 66
     1
 10
0.0
 20
0.0
 30
0.0
 70
     1
  0
VERTEX
  5
47A
  8
FLOORPLATE$T1$2111111V1
 10
224.0
 20
-167.0
 30
0.0
  0
VERTEX
  5
47B
  8
FLOORPLATE$T1$2111111V1
 10
229.0
 20
-167.0
 30
0.0
  0
VERTEX
  5
47C
  8
FLOORPLATE$T1$2111111V1
 10
229.0
 20
-162.0
 30
0.0
  0
VERTEX
  5
47D
  8
FLOORPLATE$T1$2111111V1
 10
234.0
 20
-162.0
 30
0.0
  0
VERTEX
  5
47E
  8
FLOORPLATE$T1$2111111V1
 10
234.0
 20
-157.0
 30
0.0
  0
VERTEX
  5
47F
  8
FLOORPLATE$T1$2111111V1
 10
224.0
 20
-157.0
 30
0.0
  0
SEQEND
  5
480
  8
FLOORPLATE$T1$2111111V1
  0
POLYLINE
  5
481
  8
FLOORPLATE$T1$2111111V1
 66
     1
 10
0.0
 20
0.0
 30
0.0
 70
     1
  0
VERTEX
  5
482
  8
FLOORPLATE$T1$2111111V1
 10
229.0
 20
-162.0
 30
0.0
  0
VERTEX
  5
483
  8
FLOORPLATE$T1$2111111V1
 10
234.0
 20
-162.0
 30
0.0
  0
VERTEX
  5
484
  8
FLOORPLATE$T1$2111111V1
 10
234.0
 20
-172.0
 30
0.0
  0
VERTEX
  5
485
  8
FLOORPLATE$T1$2111111V1
 10
224.0
 20
-172.0
 30
0.0
  0
VERTEX
  5
486
  8
FLOORPLATE$T1$2111111V1
 10
224.0
 20
-167.0
 30
0.0
  0
VERTEX
  5
487
  8
FLOORPLATE$T1$2111111V1
 10
229.0
 20
-167.0
 30
0.0
  0
SEQEND
  5
488
  8
FLOORPLATE$T1$2111111V1
  0
POLYLINE
  5
489
  8
FLOORPLATE$T1$2111111V1
 66
     1
 10
0.0
 20
0.0
 30
0.0
 70
     1
  0
VERTEX
  5
48A
  8
FLOORPLATE$T1$2111111V1
 10
219.0
 20
-172.0
 30
0.0
  0
VERTEX
  5
48B
  8
FLOORPLATE$T1$2111111V1
 10
224.0
 20
-172.0
 30
0.0
  0
VERTEX
  5
48C
  8
FLOORPLATE$T1$2111111V1
 10
224.0
 20
-167.0
 30
0.0
  0
VERTEX
  5
48D
  8
FLOORPLATE$T1$2111111V1
 10
219.0
 20
-167.0
 30
0.0
  0
SEQEND
  5
48E
  8
FLOORPLATE$T1$2111111V1
  0
TEXT
  5
48F
  8
FLOORPLATE$T1$2111111V1
  6
CONTINUOUS
 10
211.9955903614458
 20
-179.4636546184739
 30
0.0
 40
1.0
  1
1BED
  0
TEXT
  5
490
  8
FLOORPLATE$T1$2111111V1
  6
CONTINUOUS
 10
211.848
 20
-169.9666666666667
 30
0.0
 40
1.0
  1
1BED
  0
POLYLINE
  5
491
  8
FLOORPLATE$T1$2111111V1
 66
     1
 10
0.0
 20
0.0
 30
0.0
 70
     1
  0
VERTEX
  5
492
  8
FLOORPLATE$T1$2111111V1
 10
209.0
 20
-177.0
 30
0.0
  0
VERTEX
  5
493
  8
FLOORPLATE$T1$2111111V1
 10
214.0
 20
-177.0
 30
0.0
  0
VERTEX
  5
494
  8
FLOORPLATE$T1$2111111V1
 10
214.0
 20
-172.0
 30
0.0
  0
VERTEX
  5
495
  8
FLOORPLATE$T1$2111111V1
 10
219.0
 20
-172.0
 30
0.0
  0
VERTEX
  5
496
  8
FLOORPLATE$T1$2111111V1
 10
219.0
 20
-167.0
 30
0.0
  0
VERTEX
  5
497
  8
FLOORPLATE$T1$2111111V1
 10
209.0
 20
-167.0
 30
0.0
  0
SEQEND
  5
498
  8
FLOORPLATE$T1$2111111V1
  0
POLYLINE
  5
499
  8
FLOORPLATE$T1$2111111V1
 66
     1
 10
0.0
 20
0.0
 30
0.0
 70
     1
  0
VERTEX
  5
49A
  8
FLOORPLATE$T1$2111111V1
 10
214.0
 20
-172.0
 30
0.0
  0
VERTEX
  5
49B
  8
FLOORPLATE$T1$2111111V1
 10
219.0
 20
-172.0
 30
0.0
  0
VERTEX
  5
49C
  8
FLOORPLATE$T1$2111111V1
 10
219.0
 20
-182.0
 30
0.0
  0
VERTEX
  5
49D
  8
FLOORPLATE$T1$2111111V1
 10
209.0
 20
-182.0
 30
0.0
  0
VERTEX
  5
49E
  8
FLOORPLATE$T1$2111111V1
 10
209.0
 20
-177.0
 30
0.0
  0
VERTEX
  5
49F
  8
FLOORPLATE$T1$2111111V1
 10
214.0
 20
-177.0
 30
0.0
  0
SEQEND
  5
4A0
  8
FLOORPLATE$T1$2111111V1
  0
POLYLINE
  5
4A1
  8
FLOORPLATE$T1$2111111V1
 66
     1
 10
0.0
 20
0.0
 30
0.0
 70
     1
  0
VERTEX
  5
4A2
  8
FLOORPLATE$T1$2111111V1
 10
219.0
 20
-182.0
 30
0.0
  0
VERTEX
  5
4A3
  8
FLOORPLATE$T1$2111111V1
 10
234.0
 20
-182.0
 30
0.0
  0
VERTEX
  5
4A4
  8
FLOORPLATE$T1$2111111V1
 10
234.0
 20
-172.0
 30
0.0
  0
VERTEX
  5
4A5
  8
FLOORPLATE$T1$2111111V1
 10
219.0
 20
-172.0
 30
0.0
  0
SEQEND
  5
4A6
  8
FLOORPLATE$T1$2111111V1
  0
TEXT
  5
4A7
  8
FLOORPLATE$T1$2111111V1
  6
CONTINUOUS
 10
224.1608072289157
 20
-178.4636546184739
 30
0.0
 40
1.0
  1
2BED
  0
POLYLINE
  5
4A9
  8
FLOORPLATE$T1$2111111V2
 66
     1
 10
0.0
 20
0.0
 30
0.0
 70
     1
  0
VERTEX
  5
4AA
  8
FLOORPLATE$T1$2111111V2
 10
247.0
 20
-176.9999999999999
 30
0.0
  0
VERTEX
  5
4AB
  8
FLOORPLATE$T1$2111111V2
 10
242.0
 20
-176.9999999999999
 30
0.0
  0
VERTEX
  5
4AC
  8
FLOORPLATE$T1$2111111V2
 10
242.0
 20
-166.9999999999999
 30
0.0
  0
VERTEX
  5
4AD
  8
FLOORPLATE$T1$2111111V2
 10
252.0
 20
-166.9999999999999
 30
0.0
  0
VERTEX
  5
4AE
  8
FLOORPLATE$T1$2111111V2
 10
252.0
 20
-171.9999999999999
 30
0.0
  0
VERTEX
  5
4AF
  8
FLOORPLATE$T1$2111111V2
 10
247.0
 20
-171.9999999999999
 30
0.0
  0
SEQEND
  5
4B0
  8
FLOORPLATE$T1$2111111V2
  0
POLYLINE
  5
4B1
  8
FLOORPLATE$T1$2111111V2
 66
     1
 10
0.0
 20
0.0
 30
0.0
 70
     1
  0
VERTEX
  5
4B2
  8
FLOORPLATE$T1$2111111V2
 10
252.0
 20
-171.9999999999999
 30
0.0
  0
VERTEX
  5
4B3
  8
FLOORPLATE$T1$2111111V2
 10
247.0
 20
-171.9999999999999
 30
0.0
  0
VERTEX
  5
4B4
  8
FLOORPLATE$T1$2111111V2
 10
247.0
 20
-176.9999999999999
 30
0.0
  0
VERTEX
  5
4B5
  8
FLOORPLATE$T1$2111111V2
 10
242.0
 20
-176.9999999999999
 30
0.0
  0
VERTEX
  5
4B6
  8
FLOORPLATE$T1$2111111V2
 10
241.9999999999999
 20
-181.9999999999999
 30
0.0
  0
VERTEX
  5
4B7
  8
FLOORPLATE$T1$2111111V2
 10
251.9999999999999
 20
-181.9999999999999
 30
0.0
  0
SEQEND
  5
4B8
  8
FLOORPLATE$T1$2111111V2
  0
TEXT
  5
4B9
  8
FLOORPLATE$T1$2111111V2
  6
CONTINUOUS
 10
249.1519999999999
 20
-179.0333333333332
 30
0.0
 40
1.0
  1
1BED
 50
180.0
  0
TEXT
  5
4BA
  8
FLOORPLATE$T1$2111111V2
  6
CONTINUOUS
 10
249.0044096385542
 20
-169.536345381526
 30
0.0
 40
1.0
  1
1BED
 50
180.0
  0
TEXT
  5
4BB
  8
FLOORPLATE$T1$2111111V2
  6
CONTINUOUS
 10
254.4636546184739
 20
-164.0044096385541
 30
0.0
 40
1.0
  1
1BED
 50
89.99999999999982
  0
TEXT
  5
4BC
  8
FLOORPLATE$T1$2111111V2
  6
CONTINUOUS
 10
244.9666666666667
 20
-164.1519999999999
 30
0.0
 40
1.0
  1
1BED
 50
89.99999999999982
  0
LINE
  5
4BD
  8
FLOORPLATE$T1$2111111V2
 10
246.6329785228369
 20
-158.2634792073083
 30
0.0
 11
246.6329785228369
 21
-155.888907113321
 31
0.0
  0
LINE
  5
4BE
  8
FLOORPLATE$T1$2111111V2
 10
254.6402565141893
 20
-158.2634792073083
 30
0.0
 11
254.6402565141893
 21
-155.888907113321
 31
0.0
  0
LINE
  5
4BF
  8
FLOORPLATE$T1$2111111V2
 10
262.1505310440095
 20
-158.2634792073083
 30
0.0
 11
262.1505310440095
 21
-155.888907113321
 31
0.0
  0
LINE
  5
4C0
  8
FLOORPLATE$T1$2111111V2
 10
268.2634792073084
 20
-161.8494689559905
 30
0.0
 11
265.888907113321
 21
-161.8494689559905
 31
0.0
  0
LINE
  5
4C1
  8
FLOORPLATE$T1$2111111V2
 10
268.2634792073083
 20
-169.3597434858107
 30
0.0
 11
265.888907113321
 21
-169.3597434858107
 31
0.0
  0
LINE
  5
4C2
  8
FLOORPLATE$T1$2111111V2
 10
268.2634792073083
 20
-177.3670214771631
 30
0.0
 11
265.888907113321
 21
-177.3670214771631
 31
0.0
  0
LINE
  5
4C3
  8
FLOORPLATE$T1$2111111V2
 10
240.7365207926917
 20
-177.1505310440095
 30
0.0
 11
243.111092886679
 21
-177.1505310440095
 31
0.0
  0
LINE
  5
4C4
  8
FLOORPLATE$T1$2111111V2
 10
240.7365207926917
 20
-169.6402565141892
 30
0.0
 11
243.111092886679
 21
-169.6402565141892
 31
0.0
  0
LINE
  5
4C5
  8
FLOORPLATE$T1$2111111V2
 10
240.7365207926917
 20
-161.6329785228368
 30
0.0
 11
243.111092886679
 21
-161.6329785228368
 31
0.0
  0
LINE
  5
4C6
  8
FLOORPLATE$T1$2111111V2
 10
262.3670214771631
 20
-180.7365207926917
 30
0.0
 11
262.3670214771631
 21
-183.111092886679
 31
0.0
  0
LINE
  5
4C7
  8
FLOORPLATE$T1$2111111V2
 10
254.3597434858106
 20
-180.7365207926917
 30
0.0
 11
254.3597434858106
 21
-183.111092886679
 31
0.0
  0
LINE
  5
4C8
  8
FLOORPLATE$T1$2111111V2
 10
246.8494689559904
 20
-180.7365207926916
 30
0.0
 11
246.8494689559904
 21
-183.1110928866789
 31
0.0
  0
POLYLINE
  5
4C9
  8
FLOORPLATE$T1$2111111V2
 66
     1
 10
0.0
 20
0.0
 30
0.0
 70
     1
  0
VERTEX
  5
4CA
  8
FLOORPLATE$T1$2111111V2
 10
252.0
 20
-166.9999999999999
 30
0.0
  0
VERTEX
  5
4CB
  8
FLOORPLATE$T1$2111111V2
 10
252.0
 20
-161.9999999999999
 30
0.0
  0
VERTEX
  5
4CC
  8
FLOORPLATE$T1$2111111V2
 10
247.0
 20
-161.9999999999999
 30
0.0
  0
VERTEX
  5
4CD
  8
FLOORPLATE$T1$2111111V2
 10
247.0
 20
-156.9999999999999
 30
0.0
  0
VERTEX
  5
4CE
  8
FLOORPLATE$T1$2111111V2
 10
242.0
 20
-156.9999999999999
 30
0.0
  0
VERTEX
  5
4CF
  8
FLOORPLATE$T1$2111111V2
 10
242.0
 20
-166.9999999999999
 30
0.0
  0
SEQEND
  5
4D0
  8
FLOORPLATE$T1$2111111V2
  0
POLYLINE
  5
4D1
  8
FLOORPLATE$T1$2111111V2
 66
     1
 10
0.0
 20
0.0
 30
0.0
 70
     1
  0
VERTEX
  5
4D2
  8
FLOORPLATE$T1$2111111V2
 10
247.0
 20
-161.9999999999999
 30
0.0
  0
VERTEX
  5
4D3
  8
FLOORPLATE$T1$2111111V2
 10
247.0
 20
-156.9999999999999
 30
0.0
  0
VERTEX
  5
4D4
  8
FLOORPLATE$T1$2111111V2
 10
257.0
 20
-156.9999999999999
 30
0.0
  0
VERTEX
  5
4D5
  8
FLOORPLATE$T1$2111111V2
 10
257.0
 20
-167.0
 30
0.0
  0
VERTEX
  5
4D6
  8
FLOORPLATE$T1$2111111V2
 10
252.0
 20
-166.9999999999999
 30
0.0
  0
VERTEX
  5
4D7
  8
FLOORPLATE$T1$2111111V2
 10
252.0
 20
-161.9999999999999
 30
0.0
  0
SEQEND
  5
4D8
  8
FLOORPLATE$T1$2111111V2
  0
POLYLINE
  5
4D9
  8
FLOORPLATE$T1$2111111V2
 66
     1
 10
0.0
 20
0.0
 30
0.0
 70
     1
  0
VERTEX
  5
4DA
  8
FLOORPLATE$T1$2111111V2
 10
257.0
 20
-172.0
 30
0.0
  0
VERTEX
  5
4DB
  8
FLOORPLATE$T1$2111111V2
 10
257.0
 20
-167.0
 30
0.0
  0
VERTEX
  5
4DC
  8
FLOORPLATE$T1$2111111V2
 10
252.0
 20
-166.9999999999999
 30
0.0
  0
VERTEX
  5
4DD
  8
FLOORPLATE$T1$2111111V2
 10
252.0
 20
-171.9999999999999
 30
0.0
  0
SEQEND
  5
4DE
  8
FLOORPLATE$T1$2111111V2
  0
TEXT
  5
4DF
  8
FLOORPLATE$T1$2111111V2
  6
CONTINUOUS
 10
264.4636546184739
 20
-179.0044096385542
 30
0.0
 40
1.0
  1
1BED
 50
89.99999999999982
  0
TEXT
  5
4E0
  8
FLOORPLATE$T1$2111111V2
  6
CONTINUOUS
 10
254.9666666666666
 20
-179.152
 30
0.0
 40
1.0
  1
1BED
 50
89.99999999999982
  0
POLYLINE
  5
4E1
  8
FLOORPLATE$T1$2111111V2
 66
     1
 10
0.0
 20
0.0
 30
0.0
 70
     1
  0
VERTEX
  5
4E2
  8
FLOORPLATE$T1$2111111V2
 10
261.9999999999999
 20
-182.0
 30
0.0
  0
VERTEX
  5
4E3
  8
FLOORPLATE$T1$2111111V2
 10
262.0
 20
-177.0
 30
0.0
  0
VERTEX
  5
4E4
  8
FLOORPLATE$T1$2111111V2
 10
257.0
 20
-177.0
 30
0.0
  0
VERTEX
  5
4E5
  8
FLOORPLATE$T1$2111111V2
 10
257.0
 20
-172.0
 30
0.0
  0
VERTEX
  5
4E6
  8
FLOORPLATE$T1$2111111V2
 10
252.0
 20
-171.9999999999999
 30
0.0
  0
VERTEX
  5
4E7
  8
FLOORPLATE$T1$2111111V2
 10
251.9999999999999
 20
-181.9999999999999
 30
0.0
  0
SEQEND
  5
4E8
  8
FLOORPLATE$T1$2111111V2
  0
POLYLINE
  5
4E9
  8
FLOORPLATE$T1$2111111V2
 66
     1
 10
0.0
 20
0.0
 30
0.0
 70
     1
  0
VERTEX
  5
4EA
  8
FLOORPLATE$T1$2111111V2
 10
257.0
 20
-177.0
 30
0.0
  0
VERTEX
  5
4EB
  8
FLOORPLATE$T1$2111111V2
 10
257.0
 20
-172.0
 30
0.0
  0
VERTEX
  5
4EC
  8
FLOORPLATE$T1$2111111V2
 10
267.0
 20
-172.0
 30
0.0
  0
VERTEX
  5
4ED
  8
FLOORPLATE$T1$2111111V2
 10
266.9999999999999
 20
-182.0
 30
0.0
  0
VERTEX
  5
4EE
  8
FLOORPLATE$T1$2111111V2
 10
261.9999999999999
 20
-182.0
 30
0.0
  0
VERTEX
  5
4EF
  8
FLOORPLATE$T1$2111111V2
 10
262.0
 20
-177.0
 30
0.0
  0
SEQEND
  5
4F0
  8
FLOORPLATE$T1$2111111V2
  0
POLYLINE
  5
4F1
  8
FLOORPLATE$T1$2111111V2
 66
     1
 10
0.0
 20
0.0
 30
0.0
 70
     1
  0
VERTEX
  5
4F2
  8
FLOORPLATE$T1$2111111V2
 10
267.0
 20
-172.0
 30
0.0
  0
VERTEX
  5
4F3
  8
FLOORPLATE$T1$2111111V2
 10
267.0
 20
-157.0
 30
0.0
  0
VERTEX
  5
4F4
  8
FLOORPLATE$T1$2111111V2
 10
257.0
 20
-156.9999999999999
 30
0.0
  0
VERTEX
  5
4F5
  8
FLOORPLATE$T1$2111111V2
 10
257.0
 20
-172.0
 30
0.0
  0
SEQEND
  5
4F6
  8
FLOORPLATE$T1$2111111V2
  0
TEXT
  5
4F7
  8
FLOORPLATE$T1$2111111V2
  6
CONTINUOUS
 10
263.4636546184739
 20
-166.8391927710844
 30
0.0
 40
1.0
  1
2BED
 50
89.99999999999982
  0
TEXT
  5
4F9
  8
FLOORPLATE$T1$2111111V3
  6
CONTINUOUS
 10
284.8391927710844
 20
-160.536345381526
 30
0.0
 40
1.0
  1
2BED
 50
180.0
  0
POLYLINE
  5
4FA
  8
FLOORPLATE$T1$2111111V3
 66
     1
 10
0.0
 20
0.0
 30
0.0
 70
     1
  0
VERTEX
  5
4FB
  8
FLOORPLATE$T1$2111111V3
 10
290.0000000000001
 20
-156.9999999999999
 30
0.0
  0
VERTEX
  5
4FC
  8
FLOORPLATE$T1$2111111V3
 10
275.0000000000001
 20
-156.9999999999999
 30
0.0
  0
VERTEX
  5
4FD
  8
FLOORPLATE$T1$2111111V3
 10
275.0
 20
-166.9999999999999
 30
0.0
  0
VERTEX
  5
4FE
  8
FLOORPLATE$T1$2111111V3
 10
290.0
 20
-166.9999999999999
 30
0.0
  0
SEQEND
  5
4FF
  8
FLOORPLATE$T1$2111111V3
  0
POLYLINE
  5
500
  8
FLOORPLATE$T1$2111111V3
 66
     1
 10
0.0
 20
0.0
 30
0.0
 70
     1
  0
VERTEX
  5
501
  8
FLOORPLATE$T1$2111111V3
 10
295.0
 20
-166.9999999999999
 30
0.0
  0
VERTEX
  5
502
  8
FLOORPLATE$T1$2111111V3
 10
290.0
 20
-166.9999999999999
 30
0.0
  0
VERTEX
  5
503
  8
FLOORPLATE$T1$2111111V3
 10
290.0000000000001
 20
-156.9999999999999
 30
0.0
  0
VERTEX
  5
504
  8
FLOORPLATE$T1$2111111V3
 10
300.0000000000001
 20
-157.0
 30
0.0
  0
VERTEX
  5
505
  8
FLOORPLATE$T1$2111111V3
 10
300.0
 20
-162.0
 30
0.0
  0
VERTEX
  5
506
  8
FLOORPLATE$T1$2111111V3
 10
295.0
 20
-161.9999999999999
 30
0.0
  0
SEQEND
  5
507
  8
FLOORPLATE$T1$2111111V3
  0
POLYLINE
  5
508
  8
FLOORPLATE$T1$2111111V3
 66
     1
 10
0.0
 20
0.0
 30
0.0
 70
     1
  0
VERTEX
  5
509
  8
FLOORPLATE$T1$2111111V3
 10
300.0
 20
-162.0
 30
0.0
  0
VERTEX
  5
50A
  8
FLOORPLATE$T1$2111111V3
 10
295.0
 20
-161.9999999999999
 30
0.0
  0
VERTEX
  5
50B
  8
FLOORPLATE$T1$2111111V3
 10
295.0
 20
-166.9999999999999
 30
0.0
  0
VERTEX
  5
50C
  8
FLOORPLATE$T1$2111111V3
 10
290.0
 20
-166.9999999999999
 30
0.0
  0
VERTEX
  5
50D
  8
FLOORPLATE$T1$2111111V3
 10
290.0
 20
-171.9999999999999
 30
0.0
  0
VERTEX
  5
50E
  8
FLOORPLATE$T1$2111111V3
 10
300.0
 20
-172.0
 30
0.0
  0
SEQEND
  5
50F
  8
FLOORPLATE$T1$2111111V3
  0
TEXT
  5
510
  8
FLOORPLATE$T1$2111111V3
  6
CONTINUOUS
 10
297.152
 20
-169.0333333333332
 30
0.0
 40
1.0
  1
1BED
 50
180.0
  0
TEXT
  5
511
  8
FLOORPLATE$T1$2111111V3
  6
CONTINUOUS
 10
297.0044096385543
 20
-159.536345381526
 30
0.0
 40
1.0
  1
1BED
 50
180.0
  0
POLYLINE
  5
512
  8
FLOORPLATE$T1$2111111V3
 66
     1
 10
0.0
 20
0.0
 30
0.0
 70
     1
  0
VERTEX
  5
513
  8
FLOORPLATE$T1$2111111V3
 10
290.0
 20
-166.9999999999999
 30
0.0
  0
VERTEX
  5
514
  8
FLOORPLATE$T1$2111111V3
 10
285.0
 20
-166.9999999999999
 30
0.0
  0
VERTEX
  5
515
  8
FLOORPLATE$T1$2111111V3
 10
285.0
 20
-171.9999999999999
 30
0.0
  0
VERTEX
  5
516
  8
FLOORPLATE$T1$2111111V3
 10
290.0
 20
-171.9999999999999
 30
0.0
  0
SEQEND
  5
517
  8
FLOORPLATE$T1$2111111V3
  0
POLYLINE
  5
518
  8
FLOORPLATE$T1$2111111V3
 66
     1
 10
0.0
 20
0.0
 30
0.0
 70
     1
  0
VERTEX
  5
519
  8
FLOORPLATE$T1$2111111V3
 10
280.0
 20
-176.9999999999999
 30
0.0
  0
VERTEX
  5
51A
  8
FLOORPLATE$T1$2111111V3
 10
275.0
 20
-176.9999999999999
 30
0.0
  0
VERTEX
  5
51B
  8
FLOORPLATE$T1$2111111V3
 10
275.0
 20
-166.9999999999999
 30
0.0
  0
VERTEX
  5
51C
  8
FLOORPLATE$T1$2111111V3
 10
285.0
 20
-166.9999999999999
 30
0.0
  0
VERTEX
  5
51D
  8
FLOORPLATE$T1$2111111V3
 10
285.0
 20
-171.9999999999999
 30
0.0
  0
VERTEX
  5
51E
  8
FLOORPLATE$T1$2111111V3
 10
280.0
 20
-171.9999999999999
 30
0.0
  0
SEQEND
  5
51F
  8
FLOORPLATE$T1$2111111V3
  0
LINE
  5
520
  8
FLOORPLATE$T1$2111111V3
 10
298.7365207926917
 20
-177.1505310440095
 30
0.0
 11
301.111092886679
 21
-177.1505310440095
 31
0.0
  0
LINE
  5
521
  8
FLOORPLATE$T1$2111111V3
 10
298.7365207926917
 20
-169.6402565141893
 30
0.0
 11
301.111092886679
 21
-169.6402565141893
 31
0.0
  0
LINE
  5
522
  8
FLOORPLATE$T1$2111111V3
 10
298.7365207926917
 20
-161.6329785228369
 30
0.0
 11
301.111092886679
 21
-161.6329785228369
 31
0.0
  0
LINE
  5
523
  8
FLOORPLATE$T1$2111111V3
 10
279.6329785228369
 20
-183.2634792073082
 30
0.0
 11
279.6329785228369
 21
-180.888907113321
 31
0.0
  0
LINE
  5
524
  8
FLOORPLATE$T1$2111111V3
 10
287.6402565141893
 20
-183.2634792073083
 30
0.0
 11
287.6402565141893
 21
-180.888907113321
 31
0.0
  0
LINE
  5
525
  8
FLOORPLATE$T1$2111111V3
 10
295.1505310440095
 20
-183.2634792073083
 30
0.0
 11
295.1505310440095
 21
-180.888907113321
 31
0.0
  0
LINE
  5
526
  8
FLOORPLATE$T1$2111111V3
 10
295.3670214771632
 20
-155.7365207926917
 30
0.0
 11
295.3670214771632
 21
-158.1110928866789
 31
0.0
  0
LINE
  5
527
  8
FLOORPLATE$T1$2111111V3
 10
287.3597434858108
 20
-155.7365207926916
 30
0.0
 11
287.3597434858108
 21
-158.1110928866789
 31
0.0
  0
LINE
  5
528
  8
FLOORPLATE$T1$2111111V3
 10
279.8494689559905
 20
-155.7365207926916
 30
0.0
 11
279.8494689559905
 21
-158.1110928866789
 31
0.0
  0
LINE
  5
529
  8
FLOORPLATE$T1$2111111V3
 10
276.2634792073084
 20
-161.8494689559904
 30
0.0
 11
273.8889071133211
 21
-161.8494689559904
 31
0.0
  0
LINE
  5
52A
  8
FLOORPLATE$T1$2111111V3
 10
276.2634792073083
 20
-169.3597434858106
 30
0.0
 11
273.888907113321
 21
-169.3597434858106
 31
0.0
  0
LINE
  5
52B
  8
FLOORPLATE$T1$2111111V3
 10
276.2634792073083
 20
-177.3670214771631
 30
0.0
 11
273.888907113321
 21
-177.3670214771631
 31
0.0
  0
TEXT
  5
52C
  8
FLOORPLATE$T1$2111111V3
  6
CONTINUOUS
 10
282.152
 20
-179.0333333333332
 30
0.0
 40
1.0
  1
1BED
 50
180.0
  0
TEXT
  5
52D
  8
FLOORPLATE$T1$2111111V3
  6
CONTINUOUS
 10
282.0044096385542
 20
-169.536345381526
 30
0.0
 40
1.0
  1
1BED
 50
180.0
  0
TEXT
  5
52E
  8
FLOORPLATE$T1$2111111V3
  6
CONTINUOUS
 10
287.5363453815261
 20
-174.9955903614457
 30
0.0
 40
1.0
  1
1BED
 50
269.9999999999998
  0
TEXT
  5
52F
  8
FLOORPLATE$T1$2111111V3
  6
CONTINUOUS
 10
297.0333333333334
 20
-174.848
 30
0.0
 40
1.0
  1
1BED
 50
269.9999999999998
  0
POLYLINE
  5
530
  8
FLOORPLATE$T1$2111111V3
 66
     1
 10
0.0
 20
0.0
 30
0.0
 70
     1
  0
VERTEX
  5
531
  8
FLOORPLATE$T1$2111111V3
 10
290.0
 20
-171.9999999999999
 30
0.0
  0
VERTEX
  5
532
  8
FLOORPLATE$T1$2111111V3
 10
290.0
 20
-176.9999999999999
 30
0.0
  0
VERTEX
  5
533
  8
FLOORPLATE$T1$2111111V3
 10
295.0
 20
-176.9999999999999
 30
0.0
  0
VERTEX
  5
534
  8
FLOORPLATE$T1$2111111V3
 10
295.0
 20
-181.9999999999999
 30
0.0
  0
VERTEX
  5
535
  8
FLOORPLATE$T1$2111111V3
 10
300.0
 20
-182.0
 30
0.0
  0
VERTEX
  5
536
  8
FLOORPLATE$T1$2111111V3
 10
300.0
 20
-172.0
 30
0.0
  0
SEQEND
  5
537
  8
FLOORPLATE$T1$2111111V3
  0
POLYLINE
  5
538
  8
FLOORPLATE$T1$2111111V3
 66
     1
 10
0.0
 20
0.0
 30
0.0
 70
     1
  0
VERTEX
  5
539
  8
FLOORPLATE$T1$2111111V3
 10
295.0
 20
-176.9999999999999
 30
0.0
  0
VERTEX
  5
53A
  8
FLOORPLATE$T1$2111111V3
 10
295.0
 20
-181.9999999999999
 30
0.0
  0
VERTEX
  5
53B
  8
FLOORPLATE$T1$2111111V3
 10
285.0
 20
-181.9999999999999
 30
0.0
  0
VERTEX
  5
53C
  8
FLOORPLATE$T1$2111111V3
 10
285.0
 20
-171.9999999999999
 30
0.0
  0
VERTEX
  5
53D
  8
FLOORPLATE$T1$2111111V3
 10
290.0
 20
-171.9999999999999
 30
0.0
  0
VERTEX
  5
53E
  8
FLOORPLATE$T1$2111111V3
 10
290.0
 20
-176.9999999999999
 30
0.0
  0
SEQEND
  5
53F
  8
FLOORPLATE$T1$2111111V3
  0
POLYLINE
  5
541
  8
FLOORPLATE$T1$2111111V4
 66
     1
 10
0.0
 20
0.0
 30
0.0
 70
     1
  0
VERTEX
  5
542
  8
FLOORPLATE$T1$2111111V4
 10
328.0
 20
-161.9999999999999
 30
0.0
  0
VERTEX
  5
543
  8
FLOORPLATE$T1$2111111V4
 10
333.0
 20
-161.9999999999999
 30
0.0
  0
VERTEX
  5
544
  8
FLOORPLATE$T1$2111111V4
 10
333.0
 20
-171.9999999999999
 30
0.0
  0
VERTEX
  5
545
  8
FLOORPLATE$T1$2111111V4
 10
323.0
 20
-171.9999999999999
 30
0.0
  0
VERTEX
  5
546
  8
FLOORPLATE$T1$2111111V4
 10
323.0
 20
-166.9999999999999
 30
0.0
  0
VERTEX
  5
547
  8
FLOORPLATE$T1$2111111V4
 10
328.0
 20
-166.9999999999999
 30
0.0
  0
SEQEND
  5
548
  8
FLOORPLATE$T1$2111111V4
  0
POLYLINE
  5
549
  8
FLOORPLATE$T1$2111111V4
 66
     1
 10
0.0
 20
0.0
 30
0.0
 70
     1
  0
VERTEX
  5
54A
  8
FLOORPLATE$T1$2111111V4
 10
323.0
 20
-166.9999999999999
 30
0.0
  0
VERTEX
  5
54B
  8
FLOORPLATE$T1$2111111V4
 10
328.0
 20
-166.9999999999999
 30
0.0
  0
VERTEX
  5
54C
  8
FLOORPLATE$T1$2111111V4
 10
328.0
 20
-161.9999999999999
 30
0.0
  0
VERTEX
  5
54D
  8
FLOORPLATE$T1$2111111V4
 10
333.0
 20
-161.9999999999999
 30
0.0
  0
VERTEX
  5
54E
  8
FLOORPLATE$T1$2111111V4
 10
333.0000000000001
 20
-156.9999999999999
 30
0.0
  0
VERTEX
  5
54F
  8
FLOORPLATE$T1$2111111V4
 10
323.0000000000001
 20
-156.9999999999999
 30
0.0
  0
SEQEND
  5
550
  8
FLOORPLATE$T1$2111111V4
  0
TEXT
  5
551
  8
FLOORPLATE$T1$2111111V4
  6
CONTINUOUS
 10
325.848
 20
-159.9666666666666
 30
0.0
 40
1.0
  1
1BED
  0
TEXT
  5
552
  8
FLOORPLATE$T1$2111111V4
  6
CONTINUOUS
 10
325.9955903614458
 20
-169.4636546184738
 30
0.0
 40
1.0
  1
1BED
  0
TEXT
  5
553
  8
FLOORPLATE$T1$2111111V4
  6
CONTINUOUS
 10
320.5363453815261
 20
-174.9955903614457
 30
0.0
 40
1.0
  1
1BED
 50
269.9999999999998
  0
TEXT
  5
554
  8
FLOORPLATE$T1$2111111V4
  6
CONTINUOUS
 10
330.0333333333334
 20
-174.848
 30
0.0
 40
1.0
  1
1BED
 50
269.9999999999998
  0
LINE
  5
555
  8
FLOORPLATE$T1$2111111V4
 10
328.3670214771631
 20
-180.7365207926916
 30
0.0
 11
328.3670214771631
 21
-183.1110928866789
 31
0.0
  0
LINE
  5
556
  8
FLOORPLATE$T1$2111111V4
 10
320.3597434858107
 20
-180.7365207926916
 30
0.0
 11
320.3597434858107
 21
-183.1110928866789
 31
0.0
  0
LINE
  5
557
  8
FLOORPLATE$T1$2111111V4
 10
312.8494689559905
 20
-180.7365207926916
 30
0.0
 11
312.8494689559905
 21
-183.1110928866789
 31
0.0
  0
LINE
  5
558
  8
FLOORPLATE$T1$2111111V4
 10
306.7365207926916
 20
-177.1505310440094
 30
0.0
 11
309.111092886679
 21
-177.1505310440094
 31
0.0
  0
LINE
  5
559
  8
FLOORPLATE$T1$2111111V4
 10
306.7365207926917
 20
-169.6402565141892
 30
0.0
 11
309.111092886679
 21
-169.6402565141892
 31
0.0
  0
LINE
  5
55A
  8
FLOORPLATE$T1$2111111V4
 10
306.7365207926917
 20
-161.6329785228368
 30
0.0
 11
309.111092886679
 21
-161.6329785228368
 31
0.0
  0
LINE
  5
55B
  8
FLOORPLATE$T1$2111111V4
 10
334.2634792073084
 20
-161.8494689559904
 30
0.0
 11
331.888907113321
 21
-161.8494689559904
 31
0.0
  0
LINE
  5
55C
  8
FLOORPLATE$T1$2111111V4
 10
334.2634792073083
 20
-169.3597434858107
 30
0.0
 11
331.888907113321
 21
-169.3597434858107
 31
0.0
  0
LINE
  5
55D
  8
FLOORPLATE$T1$2111111V4
 10
334.2634792073083
 20
-177.3670214771631
 30
0.0
 11
331.888907113321
 21
-177.3670214771631
 31
0.0
  0
LINE
  5
55E
  8
FLOORPLATE$T1$2111111V4
 10
312.6329785228369
 20
-158.2634792073082
 30
0.0
 11
312.6329785228369
 21
-155.888907113321
 31
0.0
  0
LINE
  5
55F
  8
FLOORPLATE$T1$2111111V4
 10
320.6402565141893
 20
-158.2634792073082
 30
0.0
 11
320.6402565141893
 21
-155.888907113321
 31
0.0
  0
LINE
  5
560
  8
FLOORPLATE$T1$2111111V4
 10
328.1505310440096
 20
-158.2634792073083
 30
0.0
 11
328.1505310440096
 21
-155.888907113321
 31
0.0
  0
POLYLINE
  5
561
  8
FLOORPLATE$T1$2111111V4
 66
     1
 10
0.0
 20
0.0
 30
0.0
 70
     1
  0
VERTEX
  5
562
  8
FLOORPLATE$T1$2111111V4
 10
323.0
 20
-171.9999999999999
 30
0.0
  0
VERTEX
  5
563
  8
FLOORPLATE$T1$2111111V4
 10
323.0
 20
-176.9999999999999
 30
0.0
  0
VERTEX
  5
564
  8
FLOORPLATE$T1$2111111V4
 10
328.0
 20
-176.9999999999999
 30
0.0
  0
VERTEX
  5
565
  8
FLOORPLATE$T1$2111111V4
 10
328.0
 20
-181.9999999999999
 30
0.0
  0
VERTEX
  5
566
  8
FLOORPLATE$T1$2111111V4
 10
333.0
 20
-181.9999999999999
 30
0.0
  0
VERTEX
  5
567
  8
FLOORPLATE$T1$2111111V4
 10
333.0
 20
-171.9999999999999
 30
0.0
  0
SEQEND
  5
568
  8
FLOORPLATE$T1$2111111V4
  0
POLYLINE
  5
569
  8
FLOORPLATE$T1$2111111V4
 66
     1
 10
0.0
 20
0.0
 30
0.0
 70
     1
  0
VERTEX
  5
56A
  8
FLOORPLATE$T1$2111111V4
 10
328.0
 20
-176.9999999999999
 30
0.0
  0
VERTEX
  5
56B
  8
FLOORPLATE$T1$2111111V4
 10
328.0
 20
-181.9999999999999
 30
0.0
  0
VERTEX
  5
56C
  8
FLOORPLATE$T1$2111111V4
 10
318.0
 20
-181.9999999999999
 30
0.0
  0
VERTEX
  5
56D
  8
FLOORPLATE$T1$2111111V4
 10
318.0
 20
-171.9999999999999
 30
0.0
  0
VERTEX
  5
56E
  8
FLOORPLATE$T1$2111111V4
 10
323.0
 20
-171.9999999999999
 30
0.0
  0
VERTEX
  5
56F
  8
FLOORPLATE$T1$2111111V4
 10
323.0
 20
-176.9999999999999
 30
0.0
  0
SEQEND
  5
570
  8
FLOORPLATE$T1$2111111V4
  0
POLYLINE
  5
571
  8
FLOORPLATE$T1$2111111V4
 66
     1
 10
0.0
 20
0.0
 30
0.0
 70
     1
  0
VERTEX
  5
572
  8
FLOORPLATE$T1$2111111V4
 10
318.0
 20
-166.9999999999999
 30
0.0
  0
VERTEX
  5
573
  8
FLOORPLATE$T1$2111111V4
 10
318.0
 20
-171.9999999999999
 30
0.0
  0
VERTEX
  5
574
  8
FLOORPLATE$T1$2111111V4
 10
323.0
 20
-171.9999999999999
 30
0.0
  0
VERTEX
  5
575
  8
FLOORPLATE$T1$2111111V4
 10
323.0
 20
-166.9999999999999
 30
0.0
  0
SEQEND
  5
576
  8
FLOORPLATE$T1$2111111V4
  0
TEXT
  5
577
  8
FLOORPLATE$T1$2111111V4
  6
CONTINUOUS
 10
310.5363453815261
 20
-159.9955903614457
 30
0.0
 40
1.0
  1
1BED
 50
269.9999999999998
  0
TEXT
  5
578
  8
FLOORPLATE$T1$2111111V4
  6
CONTINUOUS
 10
320.0333333333333
 20
-159.848
 30
0.0
 40
1.0
  1
1BED
 50
269.9999999999998
  0
POLYLINE
  5
579
  8
FLOORPLATE$T1$2111111V4
 66
     1
 10
0.0
 20
0.0
 30
0.0
 70
     1
  0
VERTEX
  5
57A
  8
FLOORPLATE$T1$2111111V4
 10
313.0000000000001
 20
-156.9999999999999
 30
0.0
  0
VERTEX
  5
57B
  8
FLOORPLATE$T1$2111111V4
 10
313.0
 20
-161.9999999999999
 30
0.0
  0
VERTEX
  5
57C
  8
FLOORPLATE$T1$2111111V4
 10
318.0
 20
-161.9999999999999
 30
0.0
  0
VERTEX
  5
57D
  8
FLOORPLATE$T1$2111111V4
 10
318.0
 20
-166.9999999999999
 30
0.0
  0
VERTEX
  5
57E
  8
FLOORPLATE$T1$2111111V4
 10
323.0
 20
-166.9999999999999
 30
0.0
  0
VERTEX
  5
57F
  8
FLOORPLATE$T1$2111111V4
 10
323.0000000000001
 20
-156.9999999999999
 30
0.0
  0
SEQEND
  5
580
  8
FLOORPLATE$T1$2111111V4
  0
POLYLINE
  5
581
  8
FLOORPLATE$T1$2111111V4
 66
     1
 10
0.0
 20
0.0
 30
0.0
 70
     1
  0
VERTEX
  5
582
  8
FLOORPLATE$T1$2111111V4
 10
318.0
 20
-161.9999999999999
 30
0.0
  0
VERTEX
  5
583
  8
FLOORPLATE$T1$2111111V4
 10
318.0
 20
-166.9999999999999
 30
0.0
  0
VERTEX
  5
584
  8
FLOORPLATE$T1$2111111V4
 10
308.0
 20
-166.9999999999999
 30
0.0
  0
VERTEX
  5
585
  8
FLOORPLATE$T1$2111111V4
 10
308.0000000000001
 20
-156.9999999999999
 30
0.0
  0
VERTEX
  5
586
  8
FLOORPLATE$T1$2111111V4
 10
313.0000000000001
 20
-156.9999999999999
 30
0.0
  0
VERTEX
  5
587
  8
FLOORPLATE$T1$2111111V4
 10
313.0
 20
-161.9999999999999
 30
0.0
  0
SEQEND
  5
588
  8
FLOORPLATE$T1$2111111V4
  0
POLYLINE
  5
589
  8
FLOORPLATE$T1$2111111V4
 66
     1
 10
0.0
 20
0.0
 30
0.0
 70
     1
  0
VERTEX
  5
58A
  8
FLOORPLATE$T1$2111111V4
 10
308.0
 20
-166.9999999999999
 30
0.0
  0
VERTEX
  5
58B
  8
FLOORPLATE$T1$2111111V4
 10
308.0
 20
-181.9999999999999
 30
0.0
  0
VERTEX
  5
58C
  8
FLOORPLATE$T1$2111111V4
 10
318.0
 20
-181.9999999999999
 30
0.0
  0
VERTEX
  5
58D
  8
FLOORPLATE$T1$2111111V4
 10
318.0
 20
-166.9999999999999
 30
0.0
  0
SEQEND
  5
58E
  8
FLOORPLATE$T1$2111111V4
  0
TEXT
  5
58F
  8
FLOORPLATE$T1$2111111V4
  6
CONTINUOUS
 10
311.5363453815261
 20
-172.1608072289155
 30
0.0
 40
1.0
  1
2BED
 50
269.9999999999998
  0
POINT
  5
590
  8
FLOORPLATE$T1$2111111V2
 10
252.0
 20
-171.9999999999999
 30
0.0
  0
POINT
  5
591
  8
FLOORPLATE$T1$2111111V3
 10
285.0
 20
-171.9999999999999
 30
0.0
  0
POINT
  5
592
  8
FLOORPLATE$T1$2111111V4
 10
318.0
 20
-171.9999999999999
 30
0.0
  0
POLYLINE
  5
593
  8
FLOORPLATE$T1$2111111V3
 66
     1
 10
0.0
 20
0.0
 30
0.0
 70
     1
  0
VERTEX
  5
594
  8
FLOORPLATE$T1$2111111V3
 10
285.0
 20
-171.9999999999999
 30
0.0
  0
VERTEX
  5
595
  8
FLOORPLATE$T1$2111111V3
 10
280.0
 20
-171.9999999999999
 30
0.0
  0
VERTEX
  5
596
  8
FLOORPLATE$T1$2111111V3
 10
280.0
 20
-176.9999999999999
 30
0.0
  0
VERTEX
  5
597
  8
FLOORPLATE$T1$2111111V3
 10
275.0
 20
-176.9999999999999
 30
0.0
  0
VERTEX
  5
598
  8
FLOORPLATE$T1$2111111V3
 10
275.0
 20
-181.9999999999999
 30
0.0
  0
VERTEX
  5
599
  8
FLOORPLATE$T1$2111111V3
 10
285.0
 20
-181.9999999999999
 30
0.0
  0
SEQEND
  5
59A
  8
FLOORPLATE$T1$2111111V3
  0
POLYLINE
  5
59C
  8
FLOORPLATE$T1$D4
 66
     1
 10
0.0
 20
0.0
 30
0.0
 70
     1
  0
VERTEX
  5
59D
  8
FLOORPLATE$T1$D4
 10
208.6686829385492
 20
129.1073163029095
 30
0.0
  0
VERTEX
  5
59E
  8
FLOORPLATE$T1$D4
 10
233.6686829385492
 20
129.1073163029095
 30
0.0
  0
VERTEX
  5
59F
  8
FLOORPLATE$T1$D4
 10
233.6686829385492
 20
154.1073163029095
 30
0.0
  0
VERTEX
  5
5A0
  8
FLOORPLATE$T1$D4
 10
208.6686829385492
 20
154.1073163029095
 30
0.0
  0
SEQEND
  5
5A1
  8
FLOORPLATE$T1$D4
  0
TEXT
  5
5A3
  8
FLOORPLATE$T1$D33
  6
CONTINUOUS
 10
218.7624901674648
 20
117.12364032357
 30
0.0
 40
1.0
  1
D3BED
  0
POLYLINE
  5
5A4
  8
FLOORPLATE$T1$D33
 66
     1
 10
0.0
 20
0.0
 30
0.0
 70
     1
  0
VERTEX
  5
5A5
  8
FLOORPLATE$T1$D33
 10
208.6686829385492
 20
123.0006333454847
 30
0.0
  0
VERTEX
  5
5A6
  8
FLOORPLATE$T1$D33
 10
233.6686829385492
 20
123.0006333454847
 30
0.0
  0
VERTEX
  5
5A7
  8
FLOORPLATE$T1$D33
 10
233.6686829385492
 20
108.0006333454847
 30
0.0
  0
VERTEX
  5
5A8
  8
FLOORPLATE$T1$D33
 10
223.6686829385492
 20
108.0006333454847
 30
0.0
  0
VERTEX
  5
5A9
  8
FLOORPLATE$T1$D33
 10
223.6686829385492
 20
113.0006333454847
 30
0.0
  0
VERTEX
  5
5AA
  8
FLOORPLATE$T1$D33
 10
208.6686829385492
 20
113.0006333454847
 30
0.0
  0
SEQEND
  5
5AB
  8
FLOORPLATE$T1$D33
  0
POLYLINE
  5
5AC
  8
FLOORPLATE$T1$D33
 66
     1
 10
0.0
 20
0.0
 30
0.0
 70
     1
  0
VERTEX
  5
5AD
  8
FLOORPLATE$T1$D33
 10
208.6686829385492
 20
113.0006333454847
 30
0.0
  0
VERTEX
  5
5AE
  8
FLOORPLATE$T1$D33
 10
208.6686829385492
 20
98.00063334548466
 30
0.0
  0
VERTEX
  5
5AF
  8
FLOORPLATE$T1$D33
 10
233.6686829385492
 20
98.00063334548466
 30
0.0
  0
VERTEX
  5
5B0
  8
FLOORPLATE$T1$D33
 10
233.6686829385492
 20
108.0006333454847
 30
0.0
  0
VERTEX
  5
5B1
  8
FLOORPLATE$T1$D33
 10
218.6686829385492
 20
108.0006333454847
 30
0.0
  0
VERTEX
  5
5B2
  8
FLOORPLATE$T1$D33
 10
218.6686829385492
 20
113.0006333454847
 30
0.0
  0
SEQEND
  5
5B3
  8
FLOORPLATE$T1$D33
  0
POINT
  5
5B5
  8
FLOORPLATE$T1$PH
 10
218.6686829385492
 20
46.29845895815828
 30
0.0
  0
POINT
  5
5B7
  8
FLOORPLATE$T1$2222
 10
218.6686829385492
 20
76.29845895815828
 30
0.0
  0
TEXT
  5
5B8
  8
FLOORPLATE$T1$PH
  6
CONTINUOUS
 10
216.5606829385492
 20
55.33179229149162
 30
0.0
 40
1.0
  1
PHSINGLE
  0
TEXT
  5
5B9
  8
FLOORPLATE$T1$2222
  6
CONTINUOUS
 10
211.8294901674649
 20
73.83480433968438
 30
0.0
 40
1.0
  1
2BED
  0
TEXT
  5
5BA
  8
FLOORPLATE$T1$2222
  6
CONTINUOUS
 10
223.8294901674649
 20
69.83480433968438
 30
0.0
 40
1.0
  1
2BED
  0
TEXT
  5
5BB
  8
FLOORPLATE$T1$2222
  6
CONTINUOUS
 10
226.8294901674649
 20
82.83480433968438
 30
0.0
 40
1.0
  1
2BED
  0
TEXT
  5
5BC
  8
FLOORPLATE$T1$2222
  6
CONTINUOUS
 10
214.6276829385492
 20
86.33179229149161
 30
0.0
 40
1.0
  1
2BED
  0
POLYLINE
  5
5BD
  8
FLOORPLATE$T1$2222
 66
     1
 10
0.0
 20
0.0
 30
0.0
 70
     1
  0
VERTEX
  5
5BE
  8
FLOORPLATE$T1$2222
 10
218.6686829385492
 20
76.29845895815828
 30
0.0
  0
VERTEX
  5
5BF
  8
FLOORPLATE$T1$2222
 10
223.6686829385492
 20
76.29845895815828
 30
0.0
  0
VERTEX
  5
5C0
  8
FLOORPLATE$T1$2222
 10
223.6686829385492
 20
81.29845895815828
 30
0.0
  0
VERTEX
  5
5C1
  8
FLOORPLATE$T1$2222
 10
218.6686829385492
 20
81.29845895815828
 30
0.0
  0
SEQEND
  5
5C2
  8
FLOORPLATE$T1$2222
  0
POLYLINE
  5
5C3
  8
FLOORPLATE$T1$2222
 66
     1
 10
0.0
 20
0.0
 30
0.0
 70
     1
  0
VERTEX
  5
5C4
  8
FLOORPLATE$T1$2222
 10
208.6686829385492
 20
81.29845895815828
 30
0.0
  0
VERTEX
  5
5C5
  8
FLOORPLATE$T1$2222
 10
223.6686829385492
 20
81.29845895815828
 30
0.0
  0
VERTEX
  5
5C6
  8
FLOORPLATE$T1$2222
 10
223.6686829385492
 20
91.29845895815828
 30
0.0
  0
VERTEX
  5
5C7
  8
FLOORPLATE$T1$2222
 10
208.6686829385492
 20
91.29845895815828
 30
0.0
  0
SEQEND
  5
5C8
  8
FLOORPLATE$T1$2222
  0
POLYLINE
  5
5C9
  8
FLOORPLATE$T1$2222
 66
     1
 10
0.0
 20
0.0
 30
0.0
 70
     1
  0
VERTEX
  5
5CA
  8
FLOORPLATE$T1$2222
 10
208.6686829385492
 20
66.29845895815828
 30
0.0
  0
VERTEX
  5
5CB
  8
FLOORPLATE$T1$2222
 10
218.6686829385492
 20
66.29845895815828
 30
0.0
  0
VERTEX
  5
5CC
  8
FLOORPLATE$T1$2222
 10
218.6686829385492
 20
81.29845895815828
 30
0.0
  0
VERTEX
  5
5CD
  8
FLOORPLATE$T1$2222
 10
208.6686829385492
 20
81.29845895815828
 30
0.0
  0
SEQEND
  5
5CE
  8
FLOORPLATE$T1$2222
  0
POLYLINE
  5
5CF
  8
FLOORPLATE$T1$2222
 66
     1
 10
0.0
 20
0.0
 30
0.0
 70
     1
  0
VERTEX
  5
5D0
  8
FLOORPLATE$T1$2222
 10
218.6686829385492
 20
66.29845895815828
 30
0.0
  0
VERTEX
  5
5D1
  8
FLOORPLATE$T1$2222
 10
233.6686829385492
 20
66.29845895815828
 30
0.0
  0
VERTEX
  5
5D2
  8
FLOORPLATE$T1$2222
 10
233.6686829385492
 20
76.29845895815828
 30
0.0
  0
VERTEX
  5
5D3
  8
FLOORPLATE$T1$2222
 10
218.6686829385492
 20
76.29845895815828
 30
0.0
  0
SEQEND
  5
5D4
  8
FLOORPLATE$T1$2222
  0
POLYLINE
  5
5D5
  8
FLOORPLATE$T1$2222
 66
     1
 10
0.0
 20
0.0
 30
0.0
 70
     1
  0
VERTEX
  5
5D6
  8
FLOORPLATE$T1$2222
 10
223.6686829385492
 20
76.29845895815828
 30
0.0
  0
VERTEX
  5
5D7
  8
FLOORPLATE$T1$2222
 10
233.6686829385492
 20
76.29845895815828
 30
0.0
  0
VERTEX
  5
5D8
  8
FLOORPLATE$T1$2222
 10
233.6686829385492
 20
91.29845895815828
 30
0.0
  0
VERTEX
  5
5D9
  8
FLOORPLATE$T1$2222
 10
223.6686829385492
 20
91.29845895815828
 30
0.0
  0
SEQEND
  5
5DA
  8
FLOORPLATE$T1$2222
  0
POLYLINE
  5
5DB
  8
FLOORPLATE$T1$PH
 66
     1
 10
0.0
 20
0.0
 30
0.0
 70
     1
  0
VERTEX
  5
5DC
  8
FLOORPLATE$T1$PH
 10
218.6686829385492
 20
46.29845895815828
 30
0.0
  0
VERTEX
  5
5DD
  8
FLOORPLATE$T1$PH
 10
223.6686829385492
 20
46.29845895815828
 30
0.0
  0
VERTEX
  5
5DE
  8
FLOORPLATE$T1$PH
 10
223.6686829385492
 20
51.29845895815828
 30
0.0
  0
VERTEX
  5
5DF
  8
FLOORPLATE$T1$PH
 10
218.6686829385492
 20
51.29845895815828
 30
0.0
  0
SEQEND
  5
5E0
  8
FLOORPLATE$T1$PH
  0
POLYLINE
  5
5E1
  8
FLOORPLATE$T1$PH
 66
     1
 10
0.0
 20
0.0
 30
0.0
 70
     1
  0
VERTEX
  5
5E2
  8
FLOORPLATE$T1$PH
 10
208.6686829385492
 20
36.29845895815828
 30
0.0
  0
VERTEX
  5
5E3
  8
FLOORPLATE$T1$PH
 10
233.6686829385492
 20
36.29845895815828
 30
0.0
  0
VERTEX
  5
5E4
  8
FLOORPLATE$T1$PH
 10
233.6686829385492
 20
61.29845895815828
 30
0.0
  0
VERTEX
  5
5E5
  8
FLOORPLATE$T1$PH
 10
208.6686829385492
 20
61.29845895815828
 30
0.0
  0
SEQEND
  5
5E6
  8
FLOORPLATE$T1$PH
  0
LINE
  5
5E7
  8
FLOORPLATE$T1$PH
 10
209.9321621458575
 20
56.44899000216782
 30
0.0
 11
207.5575900518702
 21
56.44899000216782
 31
0.0
  0
LINE
  5
5E8
  8
FLOORPLATE$T1$PH
 10
209.9321621458575
 20
48.93871547234759
 30
0.0
 11
207.5575900518702
 21
48.93871547234759
 31
0.0
  0
LINE
  5
5E9
  8
FLOORPLATE$T1$PH
 10
209.9321621458575
 20
40.93143748099515
 30
0.0
 11
207.5575900518702
 21
40.93143748099515
 31
0.0
  0
LINE
  5
5EA
  8
FLOORPLATE$T1$PH
 10
229.0357044157123
 20
62.56193816546657
 30
0.0
 11
229.0357044157123
 21
60.18736607147929
 31
0.0
  0
LINE
  5
5EB
  8
FLOORPLATE$T1$PH
 10
221.0284264243599
 20
62.56193816546657
 30
0.0
 11
221.0284264243599
 21
60.18736607147929
 31
0.0
  0
LINE
  5
5EC
  8
FLOORPLATE$T1$PH
 10
213.5181518945396
 20
62.56193816546657
 30
0.0
 11
213.5181518945396
 21
60.18736607147929
 31
0.0
  0
LINE
  5
5ED
  8
FLOORPLATE$T1$PH
 10
213.3016614613861
 20
35.03497975084998
 30
0.0
 11
213.3016614613861
 21
37.40955184483727
 31
0.0
  0
LINE
  5
5EE
  8
FLOORPLATE$T1$PH
 10
221.3089394527385
 20
35.03497975084998
 30
0.0
 11
221.3089394527385
 21
37.40955184483727
 31
0.0
  0
LINE
  5
5EF
  8
FLOORPLATE$T1$PH
 10
228.8192139825587
 20
35.03497975084998
 30
0.0
 11
228.8192139825587
 21
37.40955184483727
 31
0.0
  0
LINE
  5
5F0
  8
FLOORPLATE$T1$PH
 10
232.4052037312409
 20
41.14792791414874
 30
0.0
 11
234.7797758252282
 21
41.14792791414874
 31
0.0
  0
LINE
  5
5F1
  8
FLOORPLATE$T1$PH
 10
232.4052037312409
 20
48.65820244396897
 30
0.0
 11
234.7797758252282
 21
48.65820244396897
 31
0.0
  0
LINE
  5
5F2
  8
FLOORPLATE$T1$PH
 10
232.4052037312409
 20
56.6654804353214
 30
0.0
 11
234.7797758252282
 21
56.6654804353214
 31
0.0
  0
LINE
  5
5F3
  8
FLOORPLATE$T1$2222
 10
232.4052037312409
 20
86.6654804353214
 30
0.0
 11
234.7797758252282
 21
86.6654804353214
 31
0.0
  0
LINE
  5
5F4
  8
FLOORPLATE$T1$2222
 10
232.4052037312409
 20
78.65820244396897
 30
0.0
 11
234.7797758252282
 21
78.65820244396897
 31
0.0
  0
LINE
  5
5F5
  8
FLOORPLATE$T1$2222
 10
232.4052037312409
 20
71.14792791414874
 30
0.0
 11
234.7797758252282
 21
71.14792791414874
 31
0.0
  0
LINE
  5
5F6
  8
FLOORPLATE$T1$2222
 10
228.8192139825587
 20
65.03497975084998
 30
0.0
 11
228.8192139825587
 21
67.40955184483727
 31
0.0
  0
LINE
  5
5F7
  8
FLOORPLATE$T1$2222
 10
221.3089394527385
 20
65.03497975084998
 30
0.0
 11
221.3089394527385
 21
67.40955184483727
 31
0.0
  0
LINE
  5
5F8
  8
FLOORPLATE$T1$2222
 10
213.3016614613861
 20
65.03497975084998
 30
0.0
 11
213.3016614613861
 21
67.40955184483727
 31
0.0
  0
LINE
  5
5F9
  8
FLOORPLATE$T1$2222
 10
213.5181518945396
 20
92.56193816546657
 30
0.0
 11
213.5181518945396
 21
90.18736607147929
 31
0.0
  0
LINE
  5
5FA
  8
FLOORPLATE$T1$2222
 10
221.0284264243599
 20
92.56193816546657
 30
0.0
 11
221.0284264243599
 21
90.18736607147929
 31
0.0
  0
LINE
  5
5FB
  8
FLOORPLATE$T1$2222
 10
229.0357044157123
 20
92.56193816546657
 30
0.0
 11
229.0357044157123
 21
90.18736607147929
 31
0.0
  0
LINE
  5
5FC
  8
FLOORPLATE$T1$2222
 10
209.9321621458575
 20
70.93143748099516
 30
0.0
 11
207.5575900518702
 21
70.93143748099516
 31
0.0
  0
LINE
  5
5FD
  8
FLOORPLATE$T1$2222
 10
209.9321621458575
 20
78.93871547234758
 30
0.0
 11
207.5575900518702
 21
78.93871547234758
 31
0.0
  0
LINE
  5
5FE
  8
FLOORPLATE$T1$2222
 10
209.9321621458575
 20
86.44899000216782
 30
0.0
 11
207.5575900518702
 21
86.44899000216782
 31
0.0
  0
POINT
  5
5FF
  8
FLOORPLATE$T1$D33
 10
218.6686829385492
 20
108.0006333454847
 30
0.0
  0
POLYLINE
  5
600
  8
FLOORPLATE$T1$D33
 66
     1
 10
0.0
 20
0.0
 30
0.0
 70
     1
  0
VERTEX
  5
601
  8
FLOORPLATE$T1$D33
 10
218.6686829385492
 20
108.0006333454847
 30
0.0
  0
VERTEX
  5
602
  8
FLOORPLATE$T1$D33
 10
223.6686829385492
 20
108.0006333454847
 30
0.0
  0
VERTEX
  5
603
  8
FLOORPLATE$T1$D33
 10
223.6686829385492
 20
113.0006333454847
 30
0.0
  0
VERTEX
  5
604
  8
FLOORPLATE$T1$D33
 10
218.6686829385492
 20
113.0006333454847
 30
0.0
  0
SEQEND
  5
605
  8
FLOORPLATE$T1$D33
  0
LINE
  5
606
  8
FLOORPLATE$T1$D33
 10
209.9321621458575
 20
118.1511643894942
 30
0.0
 11
207.5575900518702
 21
118.1511643894942
 31
0.0
  0
LINE
  5
607
  8
FLOORPLATE$T1$D33
 10
209.9321621458575
 20
110.640889859674
 30
0.0
 11
207.5575900518702
 21
110.640889859674
 31
0.0
  0
LINE
  5
608
  8
FLOORPLATE$T1$D33
 10
209.9321621458575
 20
102.6336118683215
 30
0.0
 11
207.5575900518702
 21
102.6336118683215
 31
0.0
  0
LINE
  5
609
  8
FLOORPLATE$T1$D33
 10
229.0357044157123
 20
124.264112552793
 30
0.0
 11
229.0357044157123
 21
121.8895404588057
 31
0.0
  0
LINE
  5
60A
  8
FLOORPLATE$T1$D33
 10
221.0284264243599
 20
124.264112552793
 30
0.0
 11
221.0284264243599
 21
121.8895404588057
 31
0.0
  0
LINE
  5
60B
  8
FLOORPLATE$T1$D33
 10
213.5181518945396
 20
124.264112552793
 30
0.0
 11
213.5181518945396
 21
121.8895404588057
 31
0.0
  0
LINE
  5
60C
  8
FLOORPLATE$T1$D33
 10
213.3016614613861
 20
96.73715413817636
 30
0.0
 11
213.3016614613861
 21
99.11172623216365
 31
0.0
  0
LINE
  5
60D
  8
FLOORPLATE$T1$D33
 10
221.3089394527385
 20
96.73715413817636
 30
0.0
 11
221.3089394527385
 21
99.11172623216365
 31
0.0
  0
LINE
  5
60E
  8
FLOORPLATE$T1$D33
 10
228.8192139825587
 20
96.73715413817636
 30
0.0
 11
228.8192139825587
 21
99.11172623216365
 31
0.0
  0
LINE
  5
60F
  8
FLOORPLATE$T1$D33
 10
232.4052037312409
 20
102.8501023014751
 30
0.0
 11
234.7797758252282
 21
102.8501023014751
 31
0.0
  0
LINE
  5
610
  8
FLOORPLATE$T1$D33
 10
232.4052037312409
 20
110.3603768312954
 30
0.0
 11
234.7797758252282
 21
110.3603768312954
 31
0.0
  0
LINE
  5
611
  8
FLOORPLATE$T1$D33
 10
232.4052037312409
 20
118.3676548226478
 30
0.0
 11
234.7797758252282
 21
118.3676548226478
 31
0.0
  0
TEXT
  5
612
  8
FLOORPLATE$T1$D33
  6
CONTINUOUS
 10
218.7624901674648
 20
101.5369787270108
 30
0.0
 40
1.0
  1
D3BED
  0
POINT
  5
613
  8
FLOORPLATE$T1$D4
 10
218.6686829385492
 20
139.1073163029095
 30
0.0
  0
POLYLINE
  5
614
  8
FLOORPLATE$T1$D4
 66
     1
 10
0.0
 20
0.0
 30
0.0
 70
     1
  0
VERTEX
  5
615
  8
FLOORPLATE$T1$D4
 10
218.6686829385492
 20
139.1073163029095
 30
0.0
  0
VERTEX
  5
616
  8
FLOORPLATE$T1$D4
 10
223.6686829385492
 20
139.1073163029095
 30
0.0
  0
VERTEX
  5
617
  8
FLOORPLATE$T1$D4
 10
223.6686829385492
 20
144.1073163029095
 30
0.0
  0
VERTEX
  5
618
  8
FLOORPLATE$T1$D4
 10
218.6686829385492
 20
144.1073163029095
 30
0.0
  0
SEQEND
  5
619
  8
FLOORPLATE$T1$D4
  0
LINE
  5
61A
  8
FLOORPLATE$T1$D4
 10
209.9321621458575
 20
149.2578473469191
 30
0.0
 11
207.5575900518702
 21
149.2578473469191
 31
0.0
  0
LINE
  5
61B
  8
FLOORPLATE$T1$D4
 10
209.9321621458575
 20
141.7475728170988
 30
0.0
 11
207.5575900518702
 21
141.7475728170988
 31
0.0
  0
LINE
  5
61C
  8
FLOORPLATE$T1$D4
 10
209.9321621458575
 20
133.7402948257464
 30
0.0
 11
207.5575900518702
 21
133.7402948257464
 31
0.0
  0
LINE
  5
61D
  8
FLOORPLATE$T1$D4
 10
229.0357044157123
 20
155.3707955102178
 30
0.0
 11
229.0357044157123
 21
152.9962234162305
 31
0.0
  0
LINE
  5
61E
  8
FLOORPLATE$T1$D4
 10
221.0284264243599
 20
155.3707955102178
 30
0.0
 11
221.0284264243599
 21
152.9962234162305
 31
0.0
  0
LINE
  5
61F
  8
FLOORPLATE$T1$D4
 10
213.5181518945396
 20
155.3707955102178
 30
0.0
 11
213.5181518945396
 21
152.9962234162305
 31
0.0
  0
LINE
  5
620
  8
FLOORPLATE$T1$D4
 10
213.3016614613861
 20
127.8438370956012
 30
0.0
 11
213.3016614613861
 21
130.2184091895885
 31
0.0
  0
LINE
  5
621
  8
FLOORPLATE$T1$D4
 10
221.3089394527385
 20
127.8438370956012
 30
0.0
 11
221.3089394527385
 21
130.2184091895885
 31
0.0
  0
LINE
  5
622
  8
FLOORPLATE$T1$D4
 10
228.8192139825587
 20
127.8438370956012
 30
0.0
 11
228.8192139825587
 21
130.2184091895885
 31
0.0
  0
LINE
  5
623
  8
FLOORPLATE$T1$D4
 10
232.4052037312409
 20
133.9567852589
 30
0.0
 11
234.7797758252282
 21
133.9567852589
 31
0.0
  0
LINE
  5
624
  8
FLOORPLATE$T1$D4
 10
232.4052037312409
 20
141.4670597887202
 30
0.0
 11
234.7797758252282
 21
141.4670597887202
 31
0.0
  0
LINE
  5
625
  8
FLOORPLATE$T1$D4
 10
232.4052037312409
 20
149.4743377800727
 30
0.0
 11
234.7797758252282
 21
149.4743377800727
 31
0.0
  0
TEXT
  5
626
  8
FLOORPLATE$T1$D4
  6
CONTINUOUS
 10
218.5807142814633
 20
146.373122211193
 30
0.0
 40
1.0
  1
D4BED
  0
POINT
  5
628
  8
FLOORPLATE$T1$322V3
 10
285.5037303779436
 20
15.98366044906759
 30
0.0
  0
POINT
  5
62A
  8
FLOORPLATE$T1$322V4
 10
318.6045003183071
 20
15.9836604490676
 30
0.0
  0
TEXT
  5
62B
  8
FLOORPLATE$T1$322V4
  6
CONTINUOUS
 10
327.455644208924
 20
20.19562577164942
 30
0.0
 40
1.0
  1
3BED
 50
270.0000000000006
  0
POLYLINE
  5
62C
  8
FLOORPLATE$T1$322V4
 66
     1
 10
0.0
 20
0.0
 30
0.0
 70
     1
  0
VERTEX
  5
62D
  8
FLOORPLATE$T1$322V4
 10
308.6045003183071
 20
20.98366044906749
 30
0.0
  0
VERTEX
  5
62E
  8
FLOORPLATE$T1$322V4
 10
308.6045003183073
 20
5.983660449067486
 30
0.0
  0
VERTEX
  5
62F
  8
FLOORPLATE$T1$322V4
 10
318.6045003183073
 20
5.9836604490676
 30
0.0
  0
VERTEX
  5
630
  8
FLOORPLATE$T1$322V4
 10
318.6045003183071
 20
20.9836604490676
 30
0.0
  0
SEQEND
  5
631
  8
FLOORPLATE$T1$322V4
  0
POLYLINE
  5
632
  8
FLOORPLATE$T1$322V4
 66
     1
 10
0.0
 20
0.0
 30
0.0
 70
     1
  0
VERTEX
  5
633
  8
FLOORPLATE$T1$322V4
 10
308.604500318307
 20
30.98366044906749
 30
0.0
  0
VERTEX
  5
634
  8
FLOORPLATE$T1$322V4
 10
308.6045003183071
 20
20.98366044906749
 30
0.0
  0
VERTEX
  5
635
  8
FLOORPLATE$T1$322V4
 10
323.6045003183071
 20
20.98366044906766
 30
0.0
  0
VERTEX
  5
636
  8
FLOORPLATE$T1$322V4
 10
323.604500318307
 20
30.98366044906766
 30
0.0
  0
SEQEND
  5
637
  8
FLOORPLATE$T1$322V4
  0
TEXT
  5
638
  8
FLOORPLATE$T1$322V4
  6
CONTINUOUS
 10
312.1408456998332
 20
15.8228532201519
 30
0.0
 40
1.0
  1
2BED
 50
270.0000000000006
  0
TEXT
  5
639
  8
FLOORPLATE$T1$322V4
  6
CONTINUOUS
 10
316.1408456998332
 20
27.8228532201519
 30
0.0
 40
1.0
  1
2BED
 50
270.0000000000006
  0
POLYLINE
  5
63A
  8
FLOORPLATE$T1$322V4
 66
     1
 10
0.0
 20
0.0
 30
0.0
 70
     1
  0
VERTEX
  5
63B
  8
FLOORPLATE$T1$322V4
 10
318.6045003183071
 20
20.9836604490676
 30
0.0
  0
VERTEX
  5
63C
  8
FLOORPLATE$T1$322V4
 10
318.6045003183071
 20
15.9836604490676
 30
0.0
  0
VERTEX
  5
63D
  8
FLOORPLATE$T1$322V4
 10
323.6045003183071
 20
15.98366044906766
 30
0.0
  0
VERTEX
  5
63E
  8
FLOORPLATE$T1$322V4
 10
323.6045003183071
 20
20.98366044906766
 30
0.0
  0
SEQEND
  5
63F
  8
FLOORPLATE$T1$322V4
  0
POLYLINE
  5
640
  8
FLOORPLATE$T1$322V4
 66
     1
 10
0.0
 20
0.0
 30
0.0
 70
     1
  0
VERTEX
  5
641
  8
FLOORPLATE$T1$322V4
 10
333.604500318307
 20
30.98366044906771
 30
0.0
  0
VERTEX
  5
642
  8
FLOORPLATE$T1$322V4
 10
333.6045003183073
 20
5.983660449067713
 30
0.0
  0
VERTEX
  5
643
  8
FLOORPLATE$T1$322V4
 10
318.6045003183073
 20
5.9836604490676
 30
0.0
  0
VERTEX
  5
644
  8
FLOORPLATE$T1$322V4
 10
318.6045003183071
 20
15.9836604490676
 30
0.0
  0
VERTEX
  5
645
  8
FLOORPLATE$T1$322V4
 10
323.6045003183071
 20
15.98366044906766
 30
0.0
  0
VERTEX
  5
646
  8
FLOORPLATE$T1$322V4
 10
323.604500318307
 20
30.98366044906766
 30
0.0
  0
SEQEND
  5
647
  8
FLOORPLATE$T1$322V4
  0
LINE
  5
648
  8
FLOORPLATE$T1$322V4
 10
328.7550313623166
 20
29.72018124175935
 30
0.0
 11
328.7550313623166
 21
32.09475333574665
 31
0.0
  0
LINE
  5
649
  8
FLOORPLATE$T1$322V4
 10
321.2447568324963
 20
29.72018124175929
 30
0.0
 11
321.2447568324963
 21
32.09475333574659
 31
0.0
  0
LINE
  5
64A
  8
FLOORPLATE$T1$322V4
 10
313.2374788411439
 20
29.72018124175924
 30
0.0
 11
313.2374788411439
 21
32.09475333574653
 31
0.0
  0
LINE
  5
64B
  8
FLOORPLATE$T1$322V4
 10
334.8679795256155
 20
10.61663897190465
 30
0.0
 11
332.4934074316282
 21
10.61663897190459
 31
0.0
  0
LINE
  5
64C
  8
FLOORPLATE$T1$322V4
 10
334.8679795256155
 20
18.6239169632571
 30
0.0
 11
332.4934074316282
 21
18.62391696325705
 31
0.0
  0
LINE
  5
64D
  8
FLOORPLATE$T1$322V4
 10
334.8679795256153
 20
26.13419149307731
 30
0.0
 11
332.4934074316281
 21
26.13419149307725
 31
0.0
  0
LINE
  5
64E
  8
FLOORPLATE$T1$322V4
 10
307.3410211109988
 20
26.35068192623061
 30
0.0
 11
309.7155932049861
 21
26.35068192623061
 31
0.0
  0
LINE
  5
64F
  8
FLOORPLATE$T1$322V4
 10
307.3410211109988
 20
18.34340393487815
 30
0.0
 11
309.7155932049861
 21
18.34340393487815
 31
0.0
  0
LINE
  5
650
  8
FLOORPLATE$T1$322V4
 10
307.3410211109989
 20
10.83312940505795
 30
0.0
 11
309.7155932049862
 21
10.83312940505795
 31
0.0
  0
LINE
  5
651
  8
FLOORPLATE$T1$322V4
 10
313.4539692742977
 20
7.24713965637585
 30
0.0
 11
313.4539692742977
 21
4.872567562388554
 31
0.0
  0
LINE
  5
652
  8
FLOORPLATE$T1$322V4
 10
320.9642438041179
 20
7.247139656375907
 30
0.0
 11
320.964243804118
 21
4.87256756238861
 31
0.0
  0
LINE
  5
653
  8
FLOORPLATE$T1$322V4
 10
328.9715217954704
 20
7.247139656376021
 30
0.0
 11
328.9715217954704
 21
4.872567562388724
 31
0.0
  0
TEXT
  5
654
  8
FLOORPLATE$T1$322V3
  6
CONTINUOUS
 10
289.7156957005254
 20
12.13251655845083
 30
0.0
 40
1.0
  1
3BED
 50
180.0
  0
POLYLINE
  5
655
  8
FLOORPLATE$T1$322V3
 66
     1
 10
0.0
 20
0.0
 30
0.0
 70
     1
  0
VERTEX
  5
656
  8
FLOORPLATE$T1$322V3
 10
290.5037303779436
 20
30.98366044906761
 30
0.0
  0
VERTEX
  5
657
  8
FLOORPLATE$T1$322V3
 10
275.5037303779436
 20
30.98366044906752
 30
0.0
  0
VERTEX
  5
658
  8
FLOORPLATE$T1$322V3
 10
275.5037303779436
 20
20.98366044906752
 30
0.0
  0
VERTEX
  5
659
  8
FLOORPLATE$T1$322V3
 10
290.5037303779436
 20
20.98366044906761
 30
0.0
  0
SEQEND
  5
65A
  8
FLOORPLATE$T1$322V3
  0
POLYLINE
  5
65B
  8
FLOORPLATE$T1$322V3
 66
     1
 10
0.0
 20
0.0
 30
0.0
 70
     1
  0
VERTEX
  5
65C
  8
FLOORPLATE$T1$322V3
 10
300.5037303779436
 20
30.98366044906767
 30
0.0
  0
VERTEX
  5
65D
  8
FLOORPLATE$T1$322V3
 10
290.5037303779436
 20
30.98366044906761
 30
0.0
  0
VERTEX
  5
65E
  8
FLOORPLATE$T1$322V3
 10
290.5037303779436
 20
15.98366044906761
 30
0.0
  0
VERTEX
  5
65F
  8
FLOORPLATE$T1$322V3
 10
300.5037303779436
 20
15.98366044906767
 30
0.0
  0
SEQEND
  5
660
  8
FLOORPLATE$T1$322V3
  0
TEXT
  5
661
  8
FLOORPLATE$T1$322V3
  6
CONTINUOUS
 10
285.3429231490279
 20
27.44731506754148
 30
0.0
 40
1.0
  1
2BED
 50
180.0
  0
TEXT
  5
662
  8
FLOORPLATE$T1$322V3
  6
CONTINUOUS
 10
297.3429231490279
 20
23.44731506754155
 30
0.0
 40
1.0
  1
2BED
 50
180.0
  0
POLYLINE
  5
663
  8
FLOORPLATE$T1$322V3
 66
     1
 10
0.0
 20
0.0
 30
0.0
 70
     1
  0
VERTEX
  5
664
  8
FLOORPLATE$T1$322V3
 10
290.5037303779436
 20
20.98366044906761
 30
0.0
  0
VERTEX
  5
665
  8
FLOORPLATE$T1$322V3
 10
285.5037303779436
 20
20.98366044906759
 30
0.0
  0
VERTEX
  5
666
  8
FLOORPLATE$T1$322V3
 10
285.5037303779436
 20
15.98366044906759
 30
0.0
  0
VERTEX
  5
667
  8
FLOORPLATE$T1$322V3
 10
290.5037303779436
 20
15.98366044906761
 30
0.0
  0
SEQEND
  5
668
  8
FLOORPLATE$T1$322V3
  0
POLYLINE
  5
669
  8
FLOORPLATE$T1$322V3
 66
     1
 10
0.0
 20
0.0
 30
0.0
 70
     1
  0
VERTEX
  5
66A
  8
FLOORPLATE$T1$322V3
 10
300.5037303779437
 20
5.983660449067674
 30
0.0
  0
VERTEX
  5
66B
  8
FLOORPLATE$T1$322V3
 10
275.5037303779437
 20
5.983660449067525
 30
0.0
  0
VERTEX
  5
66C
  8
FLOORPLATE$T1$322V3
 10
275.5037303779436
 20
20.98366044906752
 30
0.0
  0
VERTEX
  5
66D
  8
FLOORPLATE$T1$322V3
 10
285.5037303779436
 20
20.98366044906759
 30
0.0
  0
VERTEX
  5
66E
  8
FLOORPLATE$T1$322V3
 10
285.5037303779436
 20
15.98366044906759
 30
0.0
  0
VERTEX
  5
66F
  8
FLOORPLATE$T1$322V3
 10
300.5037303779436
 20
15.98366044906767
 30
0.0
  0
SEQEND
  5
670
  8
FLOORPLATE$T1$322V3
  0
LINE
  5
671
  8
FLOORPLATE$T1$322V3
 10
299.2402511706354
 20
10.83312940505813
 30
0.0
 11
301.6148232646227
 21
10.83312940505814
 31
0.0
  0
LINE
  5
672
  8
FLOORPLATE$T1$322V3
 10
299.2402511706353
 20
18.34340393487836
 30
0.0
 11
301.6148232646226
 21
18.34340393487838
 31
0.0
  0
LINE
  5
673
  8
FLOORPLATE$T1$322V3
 10
299.2402511706352
 20
26.35068192623079
 30
0.0
 11
301.6148232646225
 21
26.3506819262308
 31
0.0
  0
LINE
  5
674
  8
FLOORPLATE$T1$322V3
 10
280.1367089007805
 20
4.720181241759256
 30
0.0
 11
280.1367089007805
 21
7.094753335746542
 31
0.0
  0
LINE
  5
675
  8
FLOORPLATE$T1$322V3
 10
288.143986892133
 20
4.720181241759306
 30
0.0
 11
288.143986892133
 21
7.094753335746589
 31
0.0
  0
LINE
  5
676
  8
FLOORPLATE$T1$322V3
 10
295.6542614219532
 20
4.720181241759349
 30
0.0
 11
295.6542614219532
 21
7.094753335746635
 31
0.0
  0
LINE
  5
677
  8
FLOORPLATE$T1$322V3
 10
295.8707518551066
 20
32.24713965637594
 30
0.0
 11
295.8707518551067
 21
29.87256756238866
 31
0.0
  0
LINE
  5
678
  8
FLOORPLATE$T1$322V3
 10
287.8634738637542
 20
32.24713965637589
 30
0.0
 11
287.8634738637542
 21
29.87256756238861
 31
0.0
  0
LINE
  5
679
  8
FLOORPLATE$T1$322V3
 10
280.353199333934
 20
32.24713965637585
 30
0.0
 11
280.353199333934
 21
29.87256756238856
 31
0.0
  0
LINE
  5
67A
  8
FLOORPLATE$T1$322V3
 10
276.7672095852519
 20
26.13419149307707
 30
0.0
 11
274.3926374912646
 21
26.13419149307706
 31
0.0
  0
LINE
  5
67B
  8
FLOORPLATE$T1$322V3
 10
276.7672095852519
 20
18.62391696325684
 30
0.0
 11
274.3926374912646
 21
18.62391696325682
 31
0.0
  0
LINE
  5
67C
  8
FLOORPLATE$T1$322V3
 10
276.767209585252
 20
10.61663897190441
 30
0.0
 11
274.3926374912647
 21
10.6166389719044
 31
0.0
  0
POINT
  5
67E
  8
FLOORPLATE$T1$322V2
 10
253.1948448859142
 20
15.80173499204461
 30
0.0
  0
LINE
  5
67F
  8
FLOORPLATE$T1$322V2
 10
247.827823408751
 20
29.5382557847363
 30
0.0
 11
247.827823408751
 21
31.9128278787236
 31
0.0
  0
LINE
  5
680
  8
FLOORPLATE$T1$322V2
 10
255.8351014001035
 20
29.5382557847363
 30
0.0
 11
255.8351014001035
 21
31.9128278787236
 31
0.0
  0
LINE
  5
681
  8
FLOORPLATE$T1$322V2
 10
263.3453759299237
 20
29.5382557847363
 30
0.0
 11
263.3453759299237
 21
31.9128278787236
 31
0.0
  0
LINE
  5
682
  8
FLOORPLATE$T1$322V2
 10
269.4583240932225
 20
25.95226603605415
 30
0.0
 11
267.0837519992352
 21
25.95226603605415
 31
0.0
  0
LINE
  5
683
  8
FLOORPLATE$T1$322V2
 10
269.4583240932225
 20
18.44199150623394
 30
0.0
 11
267.0837519992352
 21
18.44199150623394
 31
0.0
  0
LINE
  5
684
  8
FLOORPLATE$T1$322V2
 10
269.4583240932225
 20
10.43471351488149
 30
0.0
 11
267.0837519992352
 21
10.43471351488149
 31
0.0
  0
LINE
  5
685
  8
FLOORPLATE$T1$322V2
 10
241.9313656786059
 20
10.65120394803507
 30
0.0
 11
244.3059377725932
 21
10.65120394803507
 31
0.0
  0
LINE
  5
686
  8
FLOORPLATE$T1$322V2
 10
241.9313656786059
 20
18.16147847785528
 30
0.0
 11
244.3059377725932
 21
18.16147847785528
 31
0.0
  0
LINE
  5
687
  8
FLOORPLATE$T1$322V2
 10
241.9313656786059
 20
26.16875646920773
 30
0.0
 11
244.3059377725932
 21
26.16875646920773
 31
0.0
  0
LINE
  5
688
  8
FLOORPLATE$T1$322V2
 10
263.5618663630773
 20
7.065214199352916
 30
0.0
 11
263.5618663630773
 21
4.690642105365619
 31
0.0
  0
LINE
  5
689
  8
FLOORPLATE$T1$322V2
 10
255.5545883717249
 20
7.065214199352916
 30
0.0
 11
255.5545883717249
 21
4.690642105365619
 31
0.0
  0
LINE
  5
68A
  8
FLOORPLATE$T1$322V2
 10
248.0443138419046
 20
7.065214199352916
 30
0.0
 11
248.0443138419046
 21
4.690642105365619
 31
0.0
  0
POLYLINE
  5
68B
  8
FLOORPLATE$T1$322V2
 66
     1
 10
0.0
 20
0.0
 30
0.0
 70
     1
  0
VERTEX
  5
68C
  8
FLOORPLATE$T1$322V2
 10
243.1948448859142
 20
5.801734992044608
 30
0.0
  0
VERTEX
  5
68D
  8
FLOORPLATE$T1$322V2
 10
243.1948448859142
 20
30.80173499204461
 30
0.0
  0
VERTEX
  5
68E
  8
FLOORPLATE$T1$322V2
 10
258.1948448859142
 20
30.80173499204461
 30
0.0
  0
VERTEX
  5
68F
  8
FLOORPLATE$T1$322V2
 10
258.1948448859142
 20
20.80173499204461
 30
0.0
  0
VERTEX
  5
690
  8
FLOORPLATE$T1$322V2
 10
253.1948448859142
 20
20.80173499204461
 30
0.0
  0
VERTEX
  5
691
  8
FLOORPLATE$T1$322V2
 10
253.1948448859142
 20
5.801734992044608
 30
0.0
  0
SEQEND
  5
692
  8
FLOORPLATE$T1$322V2
  0
POLYLINE
  5
693
  8
FLOORPLATE$T1$322V2
 66
     1
 10
0.0
 20
0.0
 30
0.0
 70
     1
  0
VERTEX
  5
694
  8
FLOORPLATE$T1$322V2
 10
258.1948448859142
 20
15.80173499204461
 30
0.0
  0
VERTEX
  5
695
  8
FLOORPLATE$T1$322V2
 10
258.1948448859142
 20
20.80173499204461
 30
0.0
  0
VERTEX
  5
696
  8
FLOORPLATE$T1$322V2
 10
253.1948448859142
 20
20.80173499204461
 30
0.0
  0
VERTEX
  5
697
  8
FLOORPLATE$T1$322V2
 10
253.1948448859142
 20
15.80173499204461
 30
0.0
  0
SEQEND
  5
698
  8
FLOORPLATE$T1$322V2
  0
TEXT
  5
699
  8
FLOORPLATE$T1$322V2
  6
CONTINUOUS
 10
260.658499504388
 20
8.962542220960273
 30
0.0
 40
1.0
  1
2BED
 50
90.0
  0
TEXT
  5
69A
  8
FLOORPLATE$T1$322V2
  6
CONTINUOUS
 10
264.6584995043881
 20
20.96254222096024
 30
0.0
 40
1.0
  1
2BED
 50
90.0
  0
POLYLINE
  5
69B
  8
FLOORPLATE$T1$322V2
 66
     1
 10
0.0
 20
0.0
 30
0.0
 70
     1
  0
VERTEX
  5
69C
  8
FLOORPLATE$T1$322V2
 10
268.1948448859142
 20
5.801734992044608
 30
0.0
  0
VERTEX
  5
69D
  8
FLOORPLATE$T1$322V2
 10
268.1948448859142
 20
15.80173499204461
 30
0.0
  0
VERTEX
  5
69E
  8
FLOORPLATE$T1$322V2
 10
253.1948448859142
 20
15.80173499204461
 30
0.0
  0
VERTEX
  5
69F
  8
FLOORPLATE$T1$322V2
 10
253.1948448859142
 20
5.801734992044608
 30
0.0
  0
SEQEND
  5
6A0
  8
FLOORPLATE$T1$322V2
  0
POLYLINE
  5
6A1
  8
FLOORPLATE$T1$322V2
 66
     1
 10
0.0
 20
0.0
 30
0.0
 70
     1
  0
VERTEX
  5
6A2
  8
FLOORPLATE$T1$322V2
 10
268.1948448859142
 20
15.80173499204461
 30
0.0
  0
VERTEX
  5
6A3
  8
FLOORPLATE$T1$322V2
 10
268.1948448859142
 20
30.80173499204461
 30
0.0
  0
VERTEX
  5
6A4
  8
FLOORPLATE$T1$322V2
 10
258.1948448859142
 20
30.80173499204461
 30
0.0
  0
VERTEX
  5
6A5
  8
FLOORPLATE$T1$322V2
 10
258.1948448859142
 20
15.80173499204461
 30
0.0
  0
SEQEND
  5
6A6
  8
FLOORPLATE$T1$322V2
  0
TEXT
  5
6A7
  8
FLOORPLATE$T1$322V2
  6
CONTINUOUS
 10
249.3437009952974
 20
16.58976966946284
 30
0.0
 40
1.0
  1
3BED
 50
90.0
  0
LINE
  5
6A9
  8
FLOORPLATE$T1$322V1
 10
233.3554650692419
 20
26.35068192623072
 30
0.0
 11
235.7300371632292
 21
26.35068192623072
 31
0.0
  0
LINE
  5
6AA
  8
FLOORPLATE$T1$322V1
 10
233.3554650692419
 20
18.3434039348783
 30
0.0
 11
235.7300371632292
 21
18.3434039348783
 31
0.0
  0
LINE
  5
6AB
  8
FLOORPLATE$T1$322V1
 10
233.3554650692419
 20
10.83312940505806
 30
0.0
 11
235.7300371632292
 21
10.83312940505806
 31
0.0
  0
LINE
  5
6AC
  8
FLOORPLATE$T1$322V1
 10
229.7694753205597
 20
4.720181241759306
 30
0.0
 11
229.7694753205597
 21
7.094753335746589
 31
0.0
  0
LINE
  5
6AD
  8
FLOORPLATE$T1$322V1
 10
222.2592007907395
 20
4.720181241759306
 30
0.0
 11
222.2592007907395
 21
7.094753335746589
 31
0.0
  0
LINE
  5
6AE
  8
FLOORPLATE$T1$322V1
 10
214.251922799387
 20
4.720181241759306
 30
0.0
 11
214.251922799387
 21
7.094753335746589
 31
0.0
  0
LINE
  5
6AF
  8
FLOORPLATE$T1$322V1
 10
214.4684132325406
 20
32.24713965637589
 30
0.0
 11
214.4684132325406
 21
29.87256756238861
 31
0.0
  0
LINE
  5
6B0
  8
FLOORPLATE$T1$322V1
 10
221.9786877623608
 20
32.24713965637589
 30
0.0
 11
221.9786877623608
 21
29.87256756238861
 31
0.0
  0
LINE
  5
6B1
  8
FLOORPLATE$T1$322V1
 10
229.9859657537133
 20
32.24713965637589
 30
0.0
 11
229.9859657537133
 21
29.87256756238861
 31
0.0
  0
LINE
  5
6B2
  8
FLOORPLATE$T1$322V1
 10
210.8824234838585
 20
10.61663897190448
 30
0.0
 11
208.5078513898712
 21
10.61663897190448
 31
0.0
  0
LINE
  5
6B3
  8
FLOORPLATE$T1$322V1
 10
210.8824234838585
 20
18.6239169632569
 30
0.0
 11
208.5078513898712
 21
18.6239169632569
 31
0.0
  0
LINE
  5
6B4
  8
FLOORPLATE$T1$322V1
 10
210.8824234838585
 20
26.13419149307714
 30
0.0
 11
208.5078513898712
 21
26.13419149307714
 31
0.0
  0
POLYLINE
  5
6B5
  8
FLOORPLATE$T1$322V1
 66
     1
 10
0.0
 20
0.0
 30
0.0
 70
     1
  0
VERTEX
  5
6B6
  8
FLOORPLATE$T1$322V1
 10
209.6189442765502
 20
30.9836604490676
 30
0.0
  0
VERTEX
  5
6B7
  8
FLOORPLATE$T1$322V1
 10
234.6189442765502
 20
30.9836604490676
 30
0.0
  0
VERTEX
  5
6B8
  8
FLOORPLATE$T1$322V1
 10
234.6189442765502
 20
15.9836604490676
 30
0.0
  0
VERTEX
  5
6B9
  8
FLOORPLATE$T1$322V1
 10
224.6189442765502
 20
15.9836604490676
 30
0.0
  0
VERTEX
  5
6BA
  8
FLOORPLATE$T1$322V1
 10
224.6189442765502
 20
20.9836604490676
 30
0.0
  0
VERTEX
  5
6BB
  8
FLOORPLATE$T1$322V1
 10
209.6189442765502
 20
20.9836604490676
 30
0.0
  0
SEQEND
  5
6BC
  8
FLOORPLATE$T1$322V1
  0
POLYLINE
  5
6BD
  8
FLOORPLATE$T1$322V1
 66
     1
 10
0.0
 20
0.0
 30
0.0
 70
     1
  0
VERTEX
  5
6BE
  8
FLOORPLATE$T1$322V1
 10
219.6189442765502
 20
15.9836604490676
 30
0.0
  0
VERTEX
  5
6BF
  8
FLOORPLATE$T1$322V1
 10
224.6189442765502
 20
15.9836604490676
 30
0.0
  0
VERTEX
  5
6C0
  8
FLOORPLATE$T1$322V1
 10
224.6189442765502
 20
20.9836604490676
 30
0.0
  0
VERTEX
  5
6C1
  8
FLOORPLATE$T1$322V1
 10
219.6189442765502
 20
20.9836604490676
 30
0.0
  0
SEQEND
  5
6C2
  8
FLOORPLATE$T1$322V1
  0
POINT
  5
6C3
  8
FLOORPLATE$T1$322V1
 10
219.6189442765502
 20
15.9836604490676
 30
0.0
  0
TEXT
  5
6C4
  8
FLOORPLATE$T1$322V1
  6
CONTINUOUS
 10
212.7797515054658
 20
13.52000583059371
 30
0.0
 40
1.0
  1
2BED
  0
TEXT
  5
6C5
  8
FLOORPLATE$T1$322V1
  6
CONTINUOUS
 10
224.7797515054658
 20
9.520005830593705
 30
0.0
 40
1.0
  1
2BED
  0
POLYLINE
  5
6C6
  8
FLOORPLATE$T1$322V1
 66
     1
 10
0.0
 20
0.0
 30
0.0
 70
     1
  0
VERTEX
  5
6C7
  8
FLOORPLATE$T1$322V1
 10
209.6189442765502
 20
5.9836604490676
 30
0.0
  0
VERTEX
  5
6C8
  8
FLOORPLATE$T1$322V1
 10
219.6189442765502
 20
5.9836604490676
 30
0.0
  0
VERTEX
  5
6C9
  8
FLOORPLATE$T1$322V1
 10
219.6189442765502
 20
20.9836604490676
 30
0.0
  0
VERTEX
  5
6CA
  8
FLOORPLATE$T1$322V1
 10
209.6189442765502
 20
20.9836604490676
 30
0.0
  0
SEQEND
  5
6CB
  8
FLOORPLATE$T1$322V1
  0
POLYLINE
  5
6CC
  8
FLOORPLATE$T1$322V1
 66
     1
 10
0.0
 20
0.0
 30
0.0
 70
     1
  0
VERTEX
  5
6CD
  8
FLOORPLATE$T1$322V1
 10
219.6189442765502
 20
5.9836604490676
 30
0.0
  0
VERTEX
  5
6CE
  8
FLOORPLATE$T1$322V1
 10
234.6189442765502
 20
5.9836604490676
 30
0.0
  0
VERTEX
  5
6CF
  8
FLOORPLATE$T1$322V1
 10
234.6189442765502
 20
15.9836604490676
 30
0.0
  0
VERTEX
  5
6D0
  8
FLOORPLATE$T1$322V1
 10
219.6189442765502
 20
15.9836604490676
 30
0.0
  0
SEQEND
  5
6D1
  8
FLOORPLATE$T1$322V1
  0
TEXT
  5
6D2
  8
FLOORPLATE$T1$322V1
  6
CONTINUOUS
 10
220.4069789539684
 20
24.83480433968438
 30
0.0
 40
1.0
  1
3BED
  0
POINT
  5
6D4
  8
FLOORPLATE$T1$33V2
 10
252.8859121875516
 20
-15.37691897520395
 30
0.0
  0
TEXT
  5
6D5
  8
FLOORPLATE$T1$33V2
  6
CONTINUOUS
 10
246.4222575690777
 20
-10.51972620411962
 30
0.0
 40
1.0
  1
3BED
 50
270.0
  0
TEXT
  5
6D6
  8
FLOORPLATE$T1$33V2
  6
CONTINUOUS
 10
261.4222575690778
 20
-10.51972620411959
 30
0.0
 40
1.0
  1
3BED
 50
270.0
  0
POLYLINE
  5
6D7
  8
FLOORPLATE$T1$33V2
 66
     1
 10
0.0
 20
0.0
 30
0.0
 70
     1
  0
VERTEX
  5
6D8
  8
FLOORPLATE$T1$33V2
 10
252.8859121875516
 20
-10.37691897520395
 30
0.0
  0
VERTEX
  5
6D9
  8
FLOORPLATE$T1$33V2
 10
252.8859121875516
 20
-15.37691897520395
 30
0.0
  0
VERTEX
  5
6DA
  8
FLOORPLATE$T1$33V2
 10
257.8859121875516
 20
-15.37691897520395
 30
0.0
  0
VERTEX
  5
6DB
  8
FLOORPLATE$T1$33V2
 10
257.8859121875516
 20
-10.37691897520395
 30
0.0
  0
SEQEND
  5
6DC
  8
FLOORPLATE$T1$33V2
  0
POLYLINE
  5
6DD
  8
FLOORPLATE$T1$33V2
 66
     1
 10
0.0
 20
0.0
 30
0.0
 70
     1
  0
VERTEX
  5
6DE
  8
FLOORPLATE$T1$33V2
 10
267.8859121875516
 20
-0.3769189752039495
 30
0.0
  0
VERTEX
  5
6DF
  8
FLOORPLATE$T1$33V2
 10
267.8859121875516
 20
-25.37691897520395
 30
0.0
  0
VERTEX
  5
6E0
  8
FLOORPLATE$T1$33V2
 10
252.8859121875516
 20
-25.37691897520395
 30
0.0
  0
VERTEX
  5
6E1
  8
FLOORPLATE$T1$33V2
 10
252.8859121875516
 20
-15.37691897520395
 30
0.0
  0
VERTEX
  5
6E2
  8
FLOORPLATE$T1$33V2
 10
257.8859121875516
 20
-15.37691897520395
 30
0.0
  0
VERTEX
  5
6E3
  8
FLOORPLATE$T1$33V2
 10
257.8859121875516
 20
-0.3769189752039495
 30
0.0
  0
SEQEND
  5
6E4
  8
FLOORPLATE$T1$33V2
  0
POLYLINE
  5
6E5
  8
FLOORPLATE$T1$33V2
 66
     1
 10
0.0
 20
0.0
 30
0.0
 70
     1
  0
VERTEX
  5
6E6
  8
FLOORPLATE$T1$33V2
 10
257.8859121875516
 20
-0.3769189752039495
 30
0.0
  0
VERTEX
  5
6E7
  8
FLOORPLATE$T1$33V2
 10
242.8859121875516
 20
-0.3769189752039495
 30
0.0
  0
VERTEX
  5
6E8
  8
FLOORPLATE$T1$33V2
 10
242.8859121875516
 20
-25.37691897520395
 30
0.0
  0
VERTEX
  5
6E9
  8
FLOORPLATE$T1$33V2
 10
252.8859121875516
 20
-25.37691897520395
 30
0.0
  0
VERTEX
  5
6EA
  8
FLOORPLATE$T1$33V2
 10
252.8859121875516
 20
-10.37691897520395
 30
0.0
  0
VERTEX
  5
6EB
  8
FLOORPLATE$T1$33V2
 10
257.8859121875516
 20
-10.37691897520395
 30
0.0
  0
SEQEND
  5
6EC
  8
FLOORPLATE$T1$33V2
  0
LINE
  5
6ED
  8
FLOORPLATE$T1$33V2
 10
263.0364432315612
 20
-1.640398182512257
 30
0.0
 11
263.0364432315612
 21
0.7341739114750396
 31
0.0
  0
LINE
  5
6EE
  8
FLOORPLATE$T1$33V2
 10
255.5261687017409
 20
-1.640398182512257
 30
0.0
 11
255.5261687017409
 21
0.7341739114750396
 31
0.0
  0
LINE
  5
6EF
  8
FLOORPLATE$T1$33V2
 10
247.5188907103885
 20
-1.640398182512257
 30
0.0
 11
247.5188907103885
 21
0.7341739114750396
 31
0.0
  0
LINE
  5
6F0
  8
FLOORPLATE$T1$33V2
 10
269.1493913948599
 20
-20.74394045236707
 30
0.0
 11
266.7748193008727
 21
-20.74394045236707
 31
0.0
  0
LINE
  5
6F1
  8
FLOORPLATE$T1$33V2
 10
269.1493913948599
 20
-12.73666246101465
 30
0.0
 11
266.7748193008727
 21
-12.73666246101465
 31
0.0
  0
LINE
  5
6F2
  8
FLOORPLATE$T1$33V2
 10
269.1493913948599
 20
-5.226387931194409
 30
0.0
 11
266.7748193008727
 21
-5.226387931194409
 31
0.0
  0
LINE
  5
6F3
  8
FLOORPLATE$T1$33V2
 10
241.6224329802433
 20
-5.009897498040829
 30
0.0
 11
243.9970050742306
 21
-5.009897498040829
 31
0.0
  0
LINE
  5
6F4
  8
FLOORPLATE$T1$33V2
 10
241.6224329802433
 20
-13.01717548939325
 30
0.0
 11
243.9970050742306
 21
-13.01717548939325
 31
0.0
  0
LINE
  5
6F5
  8
FLOORPLATE$T1$33V2
 10
241.6224329802433
 20
-20.52745001921349
 30
0.0
 11
243.9970050742306
 21
-20.52745001921349
 31
0.0
  0
LINE
  5
6F6
  8
FLOORPLATE$T1$33V2
 10
247.7353811435421
 20
-24.11343976789564
 30
0.0
 11
247.7353811435421
 21
-26.48801186188294
 31
0.0
  0
LINE
  5
6F7
  8
FLOORPLATE$T1$33V2
 10
255.2456556733623
 20
-24.11343976789564
 30
0.0
 11
255.2456556733623
 21
-26.48801186188294
 31
0.0
  0
LINE
  5
6F8
  8
FLOORPLATE$T1$33V2
 10
263.2529336647148
 20
-24.11343976789564
 30
0.0
 11
263.2529336647148
 21
-26.48801186188294
 31
0.0
  0
LINE
  5
6FA
  8
FLOORPLATE$T1$33V1
 10
232.4052037312409
 20
-5.009897498040825
 30
0.0
 11
234.7797758252282
 21
-5.009897498040825
 31
0.0
  0
LINE
  5
6FB
  8
FLOORPLATE$T1$33V1
 10
232.4052037312409
 20
-13.01717548939325
 30
0.0
 11
234.7797758252282
 21
-13.01717548939325
 31
0.0
  0
LINE
  5
6FC
  8
FLOORPLATE$T1$33V1
 10
232.4052037312409
 20
-20.52745001921349
 30
0.0
 11
234.7797758252282
 21
-20.52745001921349
 31
0.0
  0
LINE
  5
6FD
  8
FLOORPLATE$T1$33V1
 10
228.8192139825587
 20
-26.64039818251224
 30
0.0
 11
228.8192139825587
 21
-24.26582608852496
 31
0.0
  0
LINE
  5
6FE
  8
FLOORPLATE$T1$33V1
 10
221.3089394527385
 20
-26.64039818251224
 30
0.0
 11
221.3089394527385
 21
-24.26582608852496
 31
0.0
  0
LINE
  5
6FF
  8
FLOORPLATE$T1$33V1
 10
213.3016614613861
 20
-26.64039818251224
 30
0.0
 11
213.3016614613861
 21
-24.26582608852496
 31
0.0
  0
LINE
  5
700
  8
FLOORPLATE$T1$33V1
 10
213.5181518945396
 20
0.8865602321043475
 30
0.0
 11
213.5181518945396
 21
-1.488011861882935
 31
0.0
  0
LINE
  5
701
  8
FLOORPLATE$T1$33V1
 10
221.0284264243599
 20
0.8865602321043475
 30
0.0
 11
221.0284264243599
 21
-1.488011861882935
 31
0.0
  0
LINE
  5
702
  8
FLOORPLATE$T1$33V1
 10
229.0357044157123
 20
0.8865602321043475
 30
0.0
 11
229.0357044157123
 21
-1.488011861882935
 31
0.0
  0
LINE
  5
703
  8
FLOORPLATE$T1$33V1
 10
209.9321621458575
 20
-20.74394045236707
 30
0.0
 11
207.5575900518702
 21
-20.74394045236707
 31
0.0
  0
LINE
  5
704
  8
FLOORPLATE$T1$33V1
 10
209.9321621458575
 20
-12.73666246101464
 30
0.0
 11
207.5575900518702
 21
-12.73666246101464
 31
0.0
  0
LINE
  5
705
  8
FLOORPLATE$T1$33V1
 10
209.9321621458575
 20
-5.226387931194406
 30
0.0
 11
207.5575900518702
 21
-5.226387931194406
 31
0.0
  0
POLYLINE
  5
706
  8
FLOORPLATE$T1$33V1
 66
     1
 10
0.0
 20
0.0
 30
0.0
 70
     1
  0
VERTEX
  5
707
  8
FLOORPLATE$T1$33V1
 10
208.6686829385492
 20
-10.37691897520395
 30
0.0
  0
VERTEX
  5
708
  8
FLOORPLATE$T1$33V1
 10
208.6686829385492
 20
-25.37691897520395
 30
0.0
  0
VERTEX
  5
709
  8
FLOORPLATE$T1$33V1
 10
233.6686829385492
 20
-25.37691897520395
 30
0.0
  0
VERTEX
  5
70A
  8
FLOORPLATE$T1$33V1
 10
233.6686829385492
 20
-15.37691897520395
 30
0.0
  0
VERTEX
  5
70B
  8
FLOORPLATE$T1$33V1
 10
218.6686829385492
 20
-15.37691897520395
 30
0.0
  0
VERTEX
  5
70C
  8
FLOORPLATE$T1$33V1
 10
218.6686829385492
 20
-10.37691897520395
 30
0.0
  0
SEQEND
  5
70D
  8
FLOORPLATE$T1$33V1
  0
POLYLINE
  5
70E
  8
FLOORPLATE$T1$33V1
 66
     1
 10
0.0
 20
0.0
 30
0.0
 70
     1
  0
VERTEX
  5
70F
  8
FLOORPLATE$T1$33V1
 10
208.6686829385492
 20
-0.3769189752039459
 30
0.0
  0
VERTEX
  5
710
  8
FLOORPLATE$T1$33V1
 10
233.6686829385492
 20
-0.3769189752039459
 30
0.0
  0
VERTEX
  5
711
  8
FLOORPLATE$T1$33V1
 10
233.6686829385492
 20
-15.37691897520395
 30
0.0
  0
VERTEX
  5
712
  8
FLOORPLATE$T1$33V1
 10
223.6686829385492
 20
-15.37691897520395
 30
0.0
  0
VERTEX
  5
713
  8
FLOORPLATE$T1$33V1
 10
223.6686829385492
 20
-10.37691897520395
 30
0.0
  0
VERTEX
  5
714
  8
FLOORPLATE$T1$33V1
 10
208.6686829385492
 20
-10.37691897520395
 30
0.0
  0
SEQEND
  5
715
  8
FLOORPLATE$T1$33V1
  0
POLYLINE
  5
716
  8
FLOORPLATE$T1$33V1
 66
     1
 10
0.0
 20
0.0
 30
0.0
 70
     1
  0
VERTEX
  5
717
  8
FLOORPLATE$T1$33V1
 10
218.6686829385492
 20
-15.37691897520395
 30
0.0
  0
VERTEX
  5
718
  8
FLOORPLATE$T1$33V1
 10
223.6686829385492
 20
-15.37691897520395
 30
0.0
  0
VERTEX
  5
719
  8
FLOORPLATE$T1$33V1
 10
223.6686829385492
 20
-10.37691897520395
 30
0.0
  0
VERTEX
  5
71A
  8
FLOORPLATE$T1$33V1
 10
218.6686829385492
 20
-10.37691897520395
 30
0.0
  0
SEQEND
  5
71B
  8
FLOORPLATE$T1$33V1
  0
TEXT
  5
71C
  8
FLOORPLATE$T1$33V1
  6
CONTINUOUS
 10
218.8114901674649
 20
-6.84057359367784
 30
0.0
 40
1.0
  1
3BED
  0
TEXT
  5
71D
  8
FLOORPLATE$T1$33V1
  6
CONTINUOUS
 10
218.8114901674649
 20
-21.84057359367784
 30
0.0
 40
1.0
  1
3BED
  0
POINT
  5
71E
  8
FLOORPLATE$T1$33V1
 10
218.6686829385492
 20
-15.37691897520395
 30
0.0
  0
POLYLINE
  5
720
  8
FLOORPLATE$T1$11111111V1
 66
     1
 10
0.0
 20
0.0
 30
0.0
 70
     1
  0
VERTEX
  5
721
  8
FLOORPLATE$T1$11111111V1
 10
213.5
 20
-204.5
 30
0.0
  0
VERTEX
  5
722
  8
FLOORPLATE$T1$11111111V1
 10
218.5
 20
-204.5
 30
0.0
  0
VERTEX
  5
723
  8
FLOORPLATE$T1$11111111V1
 10
218.5
 20
-214.5
 30
0.0
  0
VERTEX
  5
724
  8
FLOORPLATE$T1$11111111V1
 10
208.5
 20
-214.5
 30
0.0
  0
VERTEX
  5
725
  8
FLOORPLATE$T1$11111111V1
 10
208.5
 20
-209.5
 30
0.0
  0
VERTEX
  5
726
  8
FLOORPLATE$T1$11111111V1
 10
213.5
 20
-209.5
 30
0.0
  0
SEQEND
  5
727
  8
FLOORPLATE$T1$11111111V1
  0
POLYLINE
  5
728
  8
FLOORPLATE$T1$11111111V1
 66
     1
 10
0.0
 20
0.0
 30
0.0
 70
     1
  0
VERTEX
  5
729
  8
FLOORPLATE$T1$11111111V1
 10
208.5
 20
-209.5
 30
0.0
  0
VERTEX
  5
72A
  8
FLOORPLATE$T1$11111111V1
 10
213.5
 20
-209.5
 30
0.0
  0
VERTEX
  5
72B
  8
FLOORPLATE$T1$11111111V1
 10
213.5
 20
-204.5
 30
0.0
  0
VERTEX
  5
72C
  8
FLOORPLATE$T1$11111111V1
 10
218.5
 20
-204.5
 30
0.0
  0
VERTEX
  5
72D
  8
FLOORPLATE$T1$11111111V1
 10
218.5
 20
-199.5
 30
0.0
  0
VERTEX
  5
72E
  8
FLOORPLATE$T1$11111111V1
 10
208.5
 20
-199.5
 30
0.0
  0
SEQEND
  5
72F
  8
FLOORPLATE$T1$11111111V1
  0
TEXT
  5
730
  8
FLOORPLATE$T1$11111111V1
  6
CONTINUOUS
 10
211.348
 20
-202.4666666666667
 30
0.0
 40
1.0
  1
1BED
  0
TEXT
  5
731
  8
FLOORPLATE$T1$11111111V1
  6
CONTINUOUS
 10
211.4955903614458
 20
-211.9636546184739
 30
0.0
 40
1.0
  1
1BED
  0
POLYLINE
  5
732
  8
FLOORPLATE$T1$11111111V1
 66
     1
 10
0.0
 20
0.0
 30
0.0
 70
     1
  0
VERTEX
  5
733
  8
FLOORPLATE$T1$11111111V1
 10
218.5
 20
-204.5
 30
0.0
  0
VERTEX
  5
734
  8
FLOORPLATE$T1$11111111V1
 10
223.5
 20
-204.5
 30
0.0
  0
VERTEX
  5
735
  8
FLOORPLATE$T1$11111111V1
 10
223.5
 20
-199.5
 30
0.0
  0
VERTEX
  5
736
  8
FLOORPLATE$T1$11111111V1
 10
218.5
 20
-199.5
 30
0.0
  0
SEQEND
  5
737
  8
FLOORPLATE$T1$11111111V1
  0
POLYLINE
  5
738
  8
FLOORPLATE$T1$11111111V1
 66
     1
 10
0.0
 20
0.0
 30
0.0
 70
     1
  0
VERTEX
  5
739
  8
FLOORPLATE$T1$11111111V1
 10
228.5
 20
-194.5
 30
0.0
  0
VERTEX
  5
73A
  8
FLOORPLATE$T1$11111111V1
 10
233.5
 20
-194.5
 30
0.0
  0
VERTEX
  5
73B
  8
FLOORPLATE$T1$11111111V1
 10
233.5
 20
-204.5
 30
0.0
  0
VERTEX
  5
73C
  8
FLOORPLATE$T1$11111111V1
 10
223.5
 20
-204.5
 30
0.0
  0
VERTEX
  5
73D
  8
FLOORPLATE$T1$11111111V1
 10
223.5
 20
-199.5
 30
0.0
  0
VERTEX
  5
73E
  8
FLOORPLATE$T1$11111111V1
 10
228.5
 20
-199.5
 30
0.0
  0
SEQEND
  5
73F
  8
FLOORPLATE$T1$11111111V1
  0
POLYLINE
  5
740
  8
FLOORPLATE$T1$11111111V1
 66
     1
 10
0.0
 20
0.0
 30
0.0
 70
     1
  0
VERTEX
  5
741
  8
FLOORPLATE$T1$11111111V1
 10
223.5
 20
-199.5
 30
0.0
  0
VERTEX
  5
742
  8
FLOORPLATE$T1$11111111V1
 10
228.5
 20
-199.5
 30
0.0
  0
VERTEX
  5
743
  8
FLOORPLATE$T1$11111111V1
 10
228.5
 20
-194.5
 30
0.0
  0
VERTEX
  5
744
  8
FLOORPLATE$T1$11111111V1
 10
233.5
 20
-194.5
 30
0.0
  0
VERTEX
  5
745
  8
FLOORPLATE$T1$11111111V1
 10
233.5
 20
-189.5
 30
0.0
  0
VERTEX
  5
746
  8
FLOORPLATE$T1$11111111V1
 10
223.5
 20
-189.5
 30
0.0
  0
SEQEND
  5
747
  8
FLOORPLATE$T1$11111111V1
  0
LINE
  5
748
  8
FLOORPLATE$T1$11111111V1
 10
209.7634792073083
 20
-194.3494689559905
 30
0.0
 11
207.388907113321
 21
-194.3494689559905
 31
0.0
  0
LINE
  5
749
  8
FLOORPLATE$T1$11111111V1
 10
209.7634792073083
 20
-201.8597434858107
 30
0.0
 11
207.388907113321
 21
-201.8597434858107
 31
0.0
  0
LINE
  5
74A
  8
FLOORPLATE$T1$11111111V1
 10
209.7634792073083
 20
-209.8670214771631
 30
0.0
 11
207.388907113321
 21
-209.8670214771631
 31
0.0
  0
LINE
  5
74B
  8
FLOORPLATE$T1$11111111V1
 10
228.8670214771631
 20
-188.2365207926917
 30
0.0
 11
228.8670214771631
 21
-190.611092886679
 31
0.0
  0
LINE
  5
74C
  8
FLOORPLATE$T1$11111111V1
 10
220.8597434858107
 20
-188.2365207926917
 30
0.0
 11
220.8597434858107
 21
-190.611092886679
 31
0.0
  0
LINE
  5
74D
  8
FLOORPLATE$T1$11111111V1
 10
213.3494689559905
 20
-188.2365207926917
 30
0.0
 11
213.3494689559905
 21
-190.611092886679
 31
0.0
  0
LINE
  5
74E
  8
FLOORPLATE$T1$11111111V1
 10
213.1329785228369
 20
-215.7634792073083
 30
0.0
 11
213.1329785228369
 21
-213.388907113321
 31
0.0
  0
LINE
  5
74F
  8
FLOORPLATE$T1$11111111V1
 10
221.1402565141893
 20
-215.7634792073083
 30
0.0
 11
221.1402565141893
 21
-213.388907113321
 31
0.0
  0
LINE
  5
750
  8
FLOORPLATE$T1$11111111V1
 10
228.6505310440095
 20
-215.7634792073083
 30
0.0
 11
228.6505310440095
 21
-213.388907113321
 31
0.0
  0
LINE
  5
751
  8
FLOORPLATE$T1$11111111V1
 10
232.2365207926917
 20
-209.6505310440095
 30
0.0
 11
234.611092886679
 21
-209.6505310440095
 31
0.0
  0
LINE
  5
752
  8
FLOORPLATE$T1$11111111V1
 10
232.2365207926917
 20
-202.1402565141893
 30
0.0
 11
234.611092886679
 21
-202.1402565141893
 31
0.0
  0
LINE
  5
753
  8
FLOORPLATE$T1$11111111V1
 10
232.2365207926917
 20
-194.1329785228369
 30
0.0
 11
234.611092886679
 21
-194.1329785228369
 31
0.0
  0
POINT
  5
754
  8
FLOORPLATE$T1$11111111V1
 10
218.5
 20
-204.5
 30
0.0
  0
TEXT
  5
755
  8
FLOORPLATE$T1$11111111V1
  6
CONTINUOUS
 10
226.348
 20
-192.4666666666667
 30
0.0
 40
1.0
  1
1BED
  0
TEXT
  5
756
  8
FLOORPLATE$T1$11111111V1
  6
CONTINUOUS
 10
226.4955903614458
 20
-201.9636546184739
 30
0.0
 40
1.0
  1
1BED
  0
TEXT
  5
757
  8
FLOORPLATE$T1$11111111V1
  6
CONTINUOUS
 10
220.9636546184739
 20
-196.5044096385542
 30
0.0
 40
1.0
  1
1BED
 50
90.0
  0
TEXT
  5
758
  8
FLOORPLATE$T1$11111111V1
  6
CONTINUOUS
 10
211.4666666666667
 20
-196.652
 30
0.0
 40
1.0
  1
1BED
 50
90.0
  0
POLYLINE
  5
759
  8
FLOORPLATE$T1$11111111V1
 66
     1
 10
0.0
 20
0.0
 30
0.0
 70
     1
  0
VERTEX
  5
75A
  8
FLOORPLATE$T1$11111111V1
 10
218.5
 20
-199.5
 30
0.0
  0
VERTEX
  5
75B
  8
FLOORPLATE$T1$11111111V1
 10
218.5
 20
-194.5
 30
0.0
  0
VERTEX
  5
75C
  8
FLOORPLATE$T1$11111111V1
 10
213.5
 20
-194.5
 30
0.0
  0
VERTEX
  5
75D
  8
FLOORPLATE$T1$11111111V1
 10
213.5
 20
-189.5
 30
0.0
  0
VERTEX
  5
75E
  8
FLOORPLATE$T1$11111111V1
 10
208.5
 20
-189.5
 30
0.0
  0
VERTEX
  5
75F
  8
FLOORPLATE$T1$11111111V1
 10
208.5
 20
-199.5
 30
0.0
  0
SEQEND
  5
760
  8
FLOORPLATE$T1$11111111V1
  0
POLYLINE
  5
761
  8
FLOORPLATE$T1$11111111V1
 66
     1
 10
0.0
 20
0.0
 30
0.0
 70
     1
  0
VERTEX
  5
762
  8
FLOORPLATE$T1$11111111V1
 10
213.5
 20
-194.5
 30
0.0
  0
VERTEX
  5
763
  8
FLOORPLATE$T1$11111111V1
 10
213.5
 20
-189.5
 30
0.0
  0
VERTEX
  5
764
  8
FLOORPLATE$T1$11111111V1
 10
223.5
 20
-189.5
 30
0.0
  0
VERTEX
  5
765
  8
FLOORPLATE$T1$11111111V1
 10
223.5
 20
-199.5
 30
0.0
  0
VERTEX
  5
766
  8
FLOORPLATE$T1$11111111V1
 10
218.5
 20
-199.5
 30
0.0
  0
VERTEX
  5
767
  8
FLOORPLATE$T1$11111111V1
 10
218.5
 20
-194.5
 30
0.0
  0
SEQEND
  5
768
  8
FLOORPLATE$T1$11111111V1
  0
TEXT
  5
769
  8
FLOORPLATE$T1$11111111V1
  6
CONTINUOUS
 10
230.9636546184739
 20
-211.5044096385542
 30
0.0
 40
1.0
  1
1BED
 50
90.0
  0
TEXT
  5
76A
  8
FLOORPLATE$T1$11111111V1
  6
CONTINUOUS
 10
221.4666666666667
 20
-211.652
 30
0.0
 40
1.0
  1
1BED
 50
90.0
  0
POLYLINE
  5
76B
  8
FLOORPLATE$T1$11111111V1
 66
     1
 10
0.0
 20
0.0
 30
0.0
 70
     1
  0
VERTEX
  5
76C
  8
FLOORPLATE$T1$11111111V1
 10
228.5
 20
-214.5
 30
0.0
  0
VERTEX
  5
76D
  8
FLOORPLATE$T1$11111111V1
 10
228.5
 20
-209.5
 30
0.0
  0
VERTEX
  5
76E
  8
FLOORPLATE$T1$11111111V1
 10
223.5
 20
-209.5
 30
0.0
  0
VERTEX
  5
76F
  8
FLOORPLATE$T1$11111111V1
 10
223.5
 20
-204.5
 30
0.0
  0
VERTEX
  5
770
  8
FLOORPLATE$T1$11111111V1
 10
218.5
 20
-204.5
 30
0.0
  0
VERTEX
  5
771
  8
FLOORPLATE$T1$11111111V1
 10
218.5
 20
-214.5
 30
0.0
  0
SEQEND
  5
772
  8
FLOORPLATE$T1$11111111V1
  0
POLYLINE
  5
773
  8
FLOORPLATE$T1$11111111V1
 66
     1
 10
0.0
 20
0.0
 30
0.0
 70
     1
  0
VERTEX
  5
774
  8
FLOORPLATE$T1$11111111V1
 10
223.5
 20
-209.5
 30
0.0
  0
VERTEX
  5
775
  8
FLOORPLATE$T1$11111111V1
 10
223.5
 20
-204.5
 30
0.0
  0
VERTEX
  5
776
  8
FLOORPLATE$T1$11111111V1
 10
233.5
 20
-204.5
 30
0.0
  0
VERTEX
  5
777
  8
FLOORPLATE$T1$11111111V1
 10
233.5
 20
-214.5
 30
0.0
  0
VERTEX
  5
778
  8
FLOORPLATE$T1$11111111V1
 10
228.5
 20
-214.5
 30
0.0
  0
VERTEX
  5
779
  8
FLOORPLATE$T1$11111111V1
 10
228.5
 20
-209.5
 30
0.0
  0
SEQEND
  5
77A
  8
FLOORPLATE$T1$11111111V1
  0
ENDSEC
  0
EOF
